<?xml version="1.0" encoding="utf-8" standalone="no"?>
<!DOCTYPE svg PUBLIC "-//W3C//DTD SVG 1.1//EN"
  "http://www.w3.org/Graphics/SVG/1.1/DTD/svg11.dtd">
<svg xmlns:xlink="http://www.w3.org/1999/xlink" width="855.516875pt" height="565.261445pt" viewBox="0 0 855.516875 565.261445" xmlns="http://www.w3.org/2000/svg" version="1.1">
 <metadata>
  <rdf:RDF xmlns:dc="http://purl.org/dc/elements/1.1/" xmlns:cc="http://creativecommons.org/ns#" xmlns:rdf="http://www.w3.org/1999/02/22-rdf-syntax-ns#">
   <cc:Work>
    <dc:type rdf:resource="http://purl.org/dc/dcmitype/StillImage"/>
    <dc:date>2026-04-25T10:46:31.429385</dc:date>
    <dc:format>image/svg+xml</dc:format>
    <dc:creator>
     <cc:Agent>
      <dc:title>Matplotlib v3.10.7, https://matplotlib.org/</dc:title>
     </cc:Agent>
    </dc:creator>
   </cc:Work>
  </rdf:RDF>
 </metadata>
 <defs>
  <style type="text/css">*{stroke-linejoin: round; stroke-linecap: butt}</style>
 </defs>
 <g id="figure_1">
  <g id="patch_1">
   <path d="M 0 565.261445 
L 855.516875 565.261445 
L 855.516875 0 
L 0 0 
z
" style="fill: #ffffff"/>
  </g>
  <g id="axes_1">
   <g id="patch_2">
    <path d="M 45.716875 539.360998 
L 848.316875 539.360998 
L 848.316875 37.837812 
L 45.716875 37.837812 
z
" style="fill: #ffffff"/>
   </g>
   <g id="patch_3">
    <path d="M 82.198693 539.360998 
L 112.474061 539.360998 
L 112.474061 521.579448 
L 82.198693 521.579448 
z
" clip-path="url(#pa9164d6385)" style="fill: #ff0000; opacity: 0.85; stroke: #000000; stroke-width: 0.5; stroke-linejoin: miter"/>
   </g>
   <g id="patch_4">
    <path d="M 278.988584 539.360998 
L 309.263952 539.360998 
L 309.263952 521.533515 
L 278.988584 521.533515 
z
" clip-path="url(#pa9164d6385)" style="fill: #ff0000; opacity: 0.85; stroke: #000000; stroke-width: 0.5; stroke-linejoin: miter"/>
   </g>
   <g id="patch_5">
    <path d="M 475.778474 539.360998 
L 506.053842 539.360998 
L 506.053842 61.719869 
L 475.778474 61.719869 
z
" clip-path="url(#pa9164d6385)" style="fill: #ff0000; opacity: 0.85; stroke: #000000; stroke-width: 0.5; stroke-linejoin: miter"/>
   </g>
   <g id="patch_6">
    <path d="M 672.568365 539.360998 
L 702.843733 539.360998 
L 702.843733 521.579448 
L 672.568365 521.579448 
z
" clip-path="url(#pa9164d6385)" style="fill: #ff0000; opacity: 0.85; stroke: #000000; stroke-width: 0.5; stroke-linejoin: miter"/>
   </g>
   <g id="patch_7">
    <path d="M 118.529135 539.360998 
L 148.804502 539.360998 
L 148.804502 477.134367 
L 118.529135 477.134367 
z
" clip-path="url(#pa9164d6385)" style="fill: #d4dd80; opacity: 0.85; stroke: #000000; stroke-width: 0.5; stroke-linejoin: miter"/>
   </g>
   <g id="patch_8">
    <path d="M 315.319025 539.360998 
L 345.594393 539.360998 
L 345.594393 515.83166 
L 315.319025 515.83166 
z
" clip-path="url(#pa9164d6385)" style="fill: #d4dd80; opacity: 0.85; stroke: #000000; stroke-width: 0.5; stroke-linejoin: miter"/>
   </g>
   <g id="patch_9">
    <path d="M 512.108916 539.360998 
L 542.384284 539.360998 
L 542.384284 192.763288 
L 512.108916 192.763288 
z
" clip-path="url(#pa9164d6385)" style="fill: #d4dd80; opacity: 0.85; stroke: #000000; stroke-width: 0.5; stroke-linejoin: miter"/>
   </g>
   <g id="patch_10">
    <path d="M 708.898806 539.360998 
L 739.174174 539.360998 
L 739.174174 483.70217 
L 708.898806 483.70217 
z
" clip-path="url(#pa9164d6385)" style="fill: #d4dd80; opacity: 0.85; stroke: #000000; stroke-width: 0.5; stroke-linejoin: miter"/>
   </g>
   <g id="patch_11">
    <path d="M 154.859576 539.360998 
L 185.134944 539.360998 
L 185.134944 512.721535 
L 154.859576 512.721535 
z
" clip-path="url(#pa9164d6385)" style="fill: #2adddd; opacity: 0.85; stroke: #000000; stroke-width: 0.5; stroke-linejoin: miter"/>
   </g>
   <g id="patch_12">
    <path d="M 351.649466 539.360998 
L 381.924834 539.360998 
L 381.924834 512.654095 
L 351.649466 512.654095 
z
" clip-path="url(#pa9164d6385)" style="fill: #2adddd; opacity: 0.85; stroke: #000000; stroke-width: 0.5; stroke-linejoin: miter"/>
   </g>
   <g id="patch_13">
    <path d="M 548.439357 539.360998 
L 578.714725 539.360998 
L 578.714725 253.962335 
L 548.439357 253.962335 
z
" clip-path="url(#pa9164d6385)" style="fill: #2adddd; opacity: 0.85; stroke: #000000; stroke-width: 0.5; stroke-linejoin: miter"/>
   </g>
   <g id="patch_14">
    <path d="M 745.229248 539.360998 
L 775.504615 539.360998 
L 775.504615 523.377321 
L 745.229248 523.377321 
z
" clip-path="url(#pa9164d6385)" style="fill: #2adddd; opacity: 0.85; stroke: #000000; stroke-width: 0.5; stroke-linejoin: miter"/>
   </g>
   <g id="patch_15">
    <path d="M 191.190017 539.360998 
L 221.465385 539.360998 
L 221.465385 512.721535 
L 191.190017 512.721535 
z
" clip-path="url(#pa9164d6385)" style="fill: #8000ff; opacity: 0.85; stroke: #000000; stroke-width: 0.5; stroke-linejoin: miter"/>
   </g>
   <g id="patch_16">
    <path d="M 387.979908 539.360998 
L 418.255276 539.360998 
L 418.255276 512.654095 
L 387.979908 512.654095 
z
" clip-path="url(#pa9164d6385)" style="fill: #8000ff; opacity: 0.85; stroke: #000000; stroke-width: 0.5; stroke-linejoin: miter"/>
   </g>
   <g id="patch_17">
    <path d="M 584.769798 539.360998 
L 615.045166 539.360998 
L 615.045166 253.962335 
L 584.769798 253.962335 
z
" clip-path="url(#pa9164d6385)" style="fill: #8000ff; opacity: 0.85; stroke: #000000; stroke-width: 0.5; stroke-linejoin: miter"/>
   </g>
   <g id="patch_18">
    <path d="M 781.559689 539.360998 
L 811.835057 539.360998 
L 811.835057 523.377321 
L 781.559689 523.377321 
z
" clip-path="url(#pa9164d6385)" style="fill: #8000ff; opacity: 0.85; stroke: #000000; stroke-width: 0.5; stroke-linejoin: miter"/>
   </g>
   <g id="matplotlib.axis_1">
    <g id="xtick_1">
     <g id="line2d_1">
      <defs>
       <path id="m68c75f3586" d="M 0 0 
L 0 3.5 
" style="stroke: #010101; stroke-width: 0.8"/>
      </defs>
      <g>
       <use xlink:href="#m68c75f3586" x="151.832039" y="539.360998" style="fill: #010101; stroke: #010101; stroke-width: 0.8"/>
      </g>
     </g>
     <g id="text_1">
      <!-- $\theta$ -->
      <g style="fill: #010101" transform="translate(145.422838 556.041438) rotate(-30) scale(0.1 -0.1)">
       <defs>
        <path id="DejaVuSans-Oblique-3b8" d="M 2913 2219 
L 925 2219 
Q 791 1284 928 888 
Q 1100 400 1566 400 
Q 2034 400 2391 891 
Q 2703 1322 2913 2219 
z
M 3009 2750 
Q 3094 3638 2984 3950 
Q 2813 4444 2353 4444 
Q 1875 4444 1525 3956 
Q 1250 3563 1034 2750 
L 3009 2750 
z
M 2444 4913 
Q 3194 4913 3494 4250 
Q 3794 3591 3566 2422 
Q 3341 1256 2781 594 
Q 2225 -72 1475 -72 
Q 722 -72 425 594 
Q 128 1256 353 2422 
Q 581 3591 1134 4250 
Q 1691 4913 2444 4913 
z
" transform="scale(0.015625)"/>
       </defs>
       <use xlink:href="#DejaVuSans-Oblique-3b8" transform="translate(0 0.234375)"/>
      </g>
     </g>
    </g>
    <g id="xtick_2">
     <g id="line2d_2">
      <g>
       <use xlink:href="#m68c75f3586" x="348.62193" y="539.360998" style="fill: #010101; stroke: #010101; stroke-width: 0.8"/>
      </g>
     </g>
     <g id="text_2">
      <!-- $\sigma$ -->
      <g style="fill: #010101" transform="translate(342.039523 556.141438) rotate(-30) scale(0.1 -0.1)">
       <defs>
        <path id="DejaVuSans-Oblique-3c3" d="M 2219 3044 
Q 1744 3044 1422 2700 
Q 1081 2341 969 1747 
Q 844 1119 1044 756 
Q 1241 397 1706 397 
Q 2166 397 2503 759 
Q 2844 1122 2966 1747 
Q 3075 2319 2881 2700 
Q 2700 3044 2219 3044 
z
M 2309 3503 
L 4219 3500 
L 4106 2925 
L 3463 2925 
Q 3706 2438 3575 1747 
Q 3406 888 2884 400 
Q 2359 -91 1609 -91 
Q 856 -91 525 400 
Q 194 888 363 1747 
Q 528 2609 1050 3097 
Q 1484 3503 2309 3503 
z
" transform="scale(0.015625)"/>
       </defs>
       <use xlink:href="#DejaVuSans-Oblique-3c3" transform="translate(0 0.265625)"/>
      </g>
     </g>
    </g>
    <g id="xtick_3">
     <g id="line2d_3">
      <g>
       <use xlink:href="#m68c75f3586" x="545.41182" y="539.360998" style="fill: #010101; stroke: #010101; stroke-width: 0.8"/>
      </g>
     </g>
     <g id="text_3">
      <!-- $\eta$ -->
      <g style="fill: #010101" transform="translate(538.819258 556.123847) rotate(-30) scale(0.1 -0.1)">
       <defs>
        <path id="DejaVuSans-Oblique-3b7" d="M 3703 2113 
L 3034 -1331 
L 2459 -1331 
L 3125 2094 
Q 3222 2591 3075 2838 
Q 2931 3084 2544 3084 
Q 2078 3084 1750 2788 
Q 1425 2491 1325 1978 
L 941 0 
L 363 0 
L 1044 3500 
L 1622 3500 
L 1516 2956 
Q 1781 3272 2094 3428 
Q 2403 3584 2769 3584 
Q 3372 3584 3609 3213 
Q 3844 2838 3703 2113 
z
" transform="scale(0.015625)"/>
       </defs>
       <use xlink:href="#DejaVuSans-Oblique-3b7"/>
      </g>
     </g>
    </g>
    <g id="xtick_4">
     <g id="line2d_4">
      <g>
       <use xlink:href="#m68c75f3586" x="742.201711" y="539.360998" style="fill: #010101; stroke: #010101; stroke-width: 0.8"/>
      </g>
     </g>
     <g id="text_4">
      <!-- $\phi$ -->
      <g style="fill: #010101" transform="translate(735.435943 556.242791) rotate(-30) scale(0.1 -0.1)">
       <defs>
        <path id="DejaVuSans-Oblique-3d5" d="M 2991 4863 
L 2738 3572 
Q 3363 3572 3684 3094 
Q 4016 2606 3850 1747 
Q 3681 888 3159 400 
Q 2653 -78 2028 -78 
L 1784 -1331 
L 1213 -1331 
L 1456 -78 
Q 834 -78 509 400 
Q 178 888 347 1747 
Q 513 2606 1034 3094 
Q 1544 3572 2166 3572 
L 2419 4863 
L 2991 4863 
z
M 2128 434 
Q 2481 434 2784 756 
Q 3116 1116 3244 1747 
Q 3369 2372 3169 2738 
Q 2991 3059 2638 3059 
L 2128 434 
z
M 1556 434 
L 2066 3059 
Q 1716 3059 1413 2738 
Q 1072 2372 953 1747 
Q 834 1116 1028 756 
Q 1203 434 1556 434 
z
" transform="scale(0.015625)"/>
       </defs>
       <use xlink:href="#DejaVuSans-Oblique-3d5" transform="translate(0 0.015625)"/>
      </g>
     </g>
    </g>
   </g>
   <g id="matplotlib.axis_2">
    <g id="ytick_1">
     <g id="line2d_5">
      <path d="M 45.716875 539.360998 
L 848.316875 539.360998 
" clip-path="url(#pa9164d6385)" style="fill: none; stroke-dasharray: 2.96,1.28; stroke-dashoffset: 0; stroke: #555555; stroke-opacity: 0.7; stroke-width: 0.8"/>
     </g>
     <g id="line2d_6">
      <defs>
       <path id="m20ff26fc55" d="M 0 0 
L -3.5 0 
" style="stroke: #010101; stroke-width: 0.8"/>
      </defs>
      <g>
       <use xlink:href="#m20ff26fc55" x="45.716875" y="539.360998" style="fill: #010101; stroke: #010101; stroke-width: 0.8"/>
      </g>
     </g>
     <g id="text_5">
      <!-- 0.0 -->
      <g style="fill: #010101" transform="translate(22.81375 543.160217) scale(0.1 -0.1)">
       <defs>
        <path id="DejaVuSans-30" d="M 2034 4250 
Q 1547 4250 1301 3770 
Q 1056 3291 1056 2328 
Q 1056 1369 1301 889 
Q 1547 409 2034 409 
Q 2525 409 2770 889 
Q 3016 1369 3016 2328 
Q 3016 3291 2770 3770 
Q 2525 4250 2034 4250 
z
M 2034 4750 
Q 2819 4750 3233 4129 
Q 3647 3509 3647 2328 
Q 3647 1150 3233 529 
Q 2819 -91 2034 -91 
Q 1250 -91 836 529 
Q 422 1150 422 2328 
Q 422 3509 836 4129 
Q 1250 4750 2034 4750 
z
" transform="scale(0.015625)"/>
        <path id="DejaVuSans-2e" d="M 684 794 
L 1344 794 
L 1344 0 
L 684 0 
L 684 794 
z
" transform="scale(0.015625)"/>
       </defs>
       <use xlink:href="#DejaVuSans-30"/>
       <use xlink:href="#DejaVuSans-2e" transform="translate(63.623047 0)"/>
       <use xlink:href="#DejaVuSans-30" transform="translate(95.410156 0)"/>
      </g>
     </g>
    </g>
    <g id="ytick_2">
     <g id="line2d_7">
      <path d="M 45.716875 473.195152 
L 848.316875 473.195152 
" clip-path="url(#pa9164d6385)" style="fill: none; stroke-dasharray: 2.96,1.28; stroke-dashoffset: 0; stroke: #555555; stroke-opacity: 0.7; stroke-width: 0.8"/>
     </g>
     <g id="line2d_8">
      <g>
       <use xlink:href="#m20ff26fc55" x="45.716875" y="473.195152" style="fill: #010101; stroke: #010101; stroke-width: 0.8"/>
      </g>
     </g>
     <g id="text_6">
      <!-- 0.2 -->
      <g style="fill: #010101" transform="translate(22.81375 476.994371) scale(0.1 -0.1)">
       <defs>
        <path id="DejaVuSans-32" d="M 1228 531 
L 3431 531 
L 3431 0 
L 469 0 
L 469 531 
Q 828 903 1448 1529 
Q 2069 2156 2228 2338 
Q 2531 2678 2651 2914 
Q 2772 3150 2772 3378 
Q 2772 3750 2511 3984 
Q 2250 4219 1831 4219 
Q 1534 4219 1204 4116 
Q 875 4013 500 3803 
L 500 4441 
Q 881 4594 1212 4672 
Q 1544 4750 1819 4750 
Q 2544 4750 2975 4387 
Q 3406 4025 3406 3419 
Q 3406 3131 3298 2873 
Q 3191 2616 2906 2266 
Q 2828 2175 2409 1742 
Q 1991 1309 1228 531 
z
" transform="scale(0.015625)"/>
       </defs>
       <use xlink:href="#DejaVuSans-30"/>
       <use xlink:href="#DejaVuSans-2e" transform="translate(63.623047 0)"/>
       <use xlink:href="#DejaVuSans-32" transform="translate(95.410156 0)"/>
      </g>
     </g>
    </g>
    <g id="ytick_3">
     <g id="line2d_9">
      <path d="M 45.716875 407.029306 
L 848.316875 407.029306 
" clip-path="url(#pa9164d6385)" style="fill: none; stroke-dasharray: 2.96,1.28; stroke-dashoffset: 0; stroke: #555555; stroke-opacity: 0.7; stroke-width: 0.8"/>
     </g>
     <g id="line2d_10">
      <g>
       <use xlink:href="#m20ff26fc55" x="45.716875" y="407.029306" style="fill: #010101; stroke: #010101; stroke-width: 0.8"/>
      </g>
     </g>
     <g id="text_7">
      <!-- 0.4 -->
      <g style="fill: #010101" transform="translate(22.81375 410.828524) scale(0.1 -0.1)">
       <defs>
        <path id="DejaVuSans-34" d="M 2419 4116 
L 825 1625 
L 2419 1625 
L 2419 4116 
z
M 2253 4666 
L 3047 4666 
L 3047 1625 
L 3713 1625 
L 3713 1100 
L 3047 1100 
L 3047 0 
L 2419 0 
L 2419 1100 
L 313 1100 
L 313 1709 
L 2253 4666 
z
" transform="scale(0.015625)"/>
       </defs>
       <use xlink:href="#DejaVuSans-30"/>
       <use xlink:href="#DejaVuSans-2e" transform="translate(63.623047 0)"/>
       <use xlink:href="#DejaVuSans-34" transform="translate(95.410156 0)"/>
      </g>
     </g>
    </g>
    <g id="ytick_4">
     <g id="line2d_11">
      <path d="M 45.716875 340.863459 
L 848.316875 340.863459 
" clip-path="url(#pa9164d6385)" style="fill: none; stroke-dasharray: 2.96,1.28; stroke-dashoffset: 0; stroke: #555555; stroke-opacity: 0.7; stroke-width: 0.8"/>
     </g>
     <g id="line2d_12">
      <g>
       <use xlink:href="#m20ff26fc55" x="45.716875" y="340.863459" style="fill: #010101; stroke: #010101; stroke-width: 0.8"/>
      </g>
     </g>
     <g id="text_8">
      <!-- 0.6 -->
      <g style="fill: #010101" transform="translate(22.81375 344.662678) scale(0.1 -0.1)">
       <defs>
        <path id="DejaVuSans-36" d="M 2113 2584 
Q 1688 2584 1439 2293 
Q 1191 2003 1191 1497 
Q 1191 994 1439 701 
Q 1688 409 2113 409 
Q 2538 409 2786 701 
Q 3034 994 3034 1497 
Q 3034 2003 2786 2293 
Q 2538 2584 2113 2584 
z
M 3366 4563 
L 3366 3988 
Q 3128 4100 2886 4159 
Q 2644 4219 2406 4219 
Q 1781 4219 1451 3797 
Q 1122 3375 1075 2522 
Q 1259 2794 1537 2939 
Q 1816 3084 2150 3084 
Q 2853 3084 3261 2657 
Q 3669 2231 3669 1497 
Q 3669 778 3244 343 
Q 2819 -91 2113 -91 
Q 1303 -91 875 529 
Q 447 1150 447 2328 
Q 447 3434 972 4092 
Q 1497 4750 2381 4750 
Q 2619 4750 2861 4703 
Q 3103 4656 3366 4563 
z
" transform="scale(0.015625)"/>
       </defs>
       <use xlink:href="#DejaVuSans-30"/>
       <use xlink:href="#DejaVuSans-2e" transform="translate(63.623047 0)"/>
       <use xlink:href="#DejaVuSans-36" transform="translate(95.410156 0)"/>
      </g>
     </g>
    </g>
    <g id="ytick_5">
     <g id="line2d_13">
      <path d="M 45.716875 274.697613 
L 848.316875 274.697613 
" clip-path="url(#pa9164d6385)" style="fill: none; stroke-dasharray: 2.96,1.28; stroke-dashoffset: 0; stroke: #555555; stroke-opacity: 0.7; stroke-width: 0.8"/>
     </g>
     <g id="line2d_14">
      <g>
       <use xlink:href="#m20ff26fc55" x="45.716875" y="274.697613" style="fill: #010101; stroke: #010101; stroke-width: 0.8"/>
      </g>
     </g>
     <g id="text_9">
      <!-- 0.8 -->
      <g style="fill: #010101" transform="translate(22.81375 278.496832) scale(0.1 -0.1)">
       <defs>
        <path id="DejaVuSans-38" d="M 2034 2216 
Q 1584 2216 1326 1975 
Q 1069 1734 1069 1313 
Q 1069 891 1326 650 
Q 1584 409 2034 409 
Q 2484 409 2743 651 
Q 3003 894 3003 1313 
Q 3003 1734 2745 1975 
Q 2488 2216 2034 2216 
z
M 1403 2484 
Q 997 2584 770 2862 
Q 544 3141 544 3541 
Q 544 4100 942 4425 
Q 1341 4750 2034 4750 
Q 2731 4750 3128 4425 
Q 3525 4100 3525 3541 
Q 3525 3141 3298 2862 
Q 3072 2584 2669 2484 
Q 3125 2378 3379 2068 
Q 3634 1759 3634 1313 
Q 3634 634 3220 271 
Q 2806 -91 2034 -91 
Q 1263 -91 848 271 
Q 434 634 434 1313 
Q 434 1759 690 2068 
Q 947 2378 1403 2484 
z
M 1172 3481 
Q 1172 3119 1398 2916 
Q 1625 2713 2034 2713 
Q 2441 2713 2670 2916 
Q 2900 3119 2900 3481 
Q 2900 3844 2670 4047 
Q 2441 4250 2034 4250 
Q 1625 4250 1398 4047 
Q 1172 3844 1172 3481 
z
" transform="scale(0.015625)"/>
       </defs>
       <use xlink:href="#DejaVuSans-30"/>
       <use xlink:href="#DejaVuSans-2e" transform="translate(63.623047 0)"/>
       <use xlink:href="#DejaVuSans-38" transform="translate(95.410156 0)"/>
      </g>
     </g>
    </g>
    <g id="ytick_6">
     <g id="line2d_15">
      <path d="M 45.716875 208.531767 
L 848.316875 208.531767 
" clip-path="url(#pa9164d6385)" style="fill: none; stroke-dasharray: 2.96,1.28; stroke-dashoffset: 0; stroke: #555555; stroke-opacity: 0.7; stroke-width: 0.8"/>
     </g>
     <g id="line2d_16">
      <g>
       <use xlink:href="#m20ff26fc55" x="45.716875" y="208.531767" style="fill: #010101; stroke: #010101; stroke-width: 0.8"/>
      </g>
     </g>
     <g id="text_10">
      <!-- 1.0 -->
      <g style="fill: #010101" transform="translate(22.81375 212.330985) scale(0.1 -0.1)">
       <defs>
        <path id="DejaVuSans-31" d="M 794 531 
L 1825 531 
L 1825 4091 
L 703 3866 
L 703 4441 
L 1819 4666 
L 2450 4666 
L 2450 531 
L 3481 531 
L 3481 0 
L 794 0 
L 794 531 
z
" transform="scale(0.015625)"/>
       </defs>
       <use xlink:href="#DejaVuSans-31"/>
       <use xlink:href="#DejaVuSans-2e" transform="translate(63.623047 0)"/>
       <use xlink:href="#DejaVuSans-30" transform="translate(95.410156 0)"/>
      </g>
     </g>
    </g>
    <g id="ytick_7">
     <g id="line2d_17">
      <path d="M 45.716875 142.36592 
L 848.316875 142.36592 
" clip-path="url(#pa9164d6385)" style="fill: none; stroke-dasharray: 2.96,1.28; stroke-dashoffset: 0; stroke: #555555; stroke-opacity: 0.7; stroke-width: 0.8"/>
     </g>
     <g id="line2d_18">
      <g>
       <use xlink:href="#m20ff26fc55" x="45.716875" y="142.36592" style="fill: #010101; stroke: #010101; stroke-width: 0.8"/>
      </g>
     </g>
     <g id="text_11">
      <!-- 1.2 -->
      <g style="fill: #010101" transform="translate(22.81375 146.165139) scale(0.1 -0.1)">
       <use xlink:href="#DejaVuSans-31"/>
       <use xlink:href="#DejaVuSans-2e" transform="translate(63.623047 0)"/>
       <use xlink:href="#DejaVuSans-32" transform="translate(95.410156 0)"/>
      </g>
     </g>
    </g>
    <g id="ytick_8">
     <g id="line2d_19">
      <path d="M 45.716875 76.200074 
L 848.316875 76.200074 
" clip-path="url(#pa9164d6385)" style="fill: none; stroke-dasharray: 2.96,1.28; stroke-dashoffset: 0; stroke: #555555; stroke-opacity: 0.7; stroke-width: 0.8"/>
     </g>
     <g id="line2d_20">
      <g>
       <use xlink:href="#m20ff26fc55" x="45.716875" y="76.200074" style="fill: #010101; stroke: #010101; stroke-width: 0.8"/>
      </g>
     </g>
     <g id="text_12">
      <!-- 1.4 -->
      <g style="fill: #010101" transform="translate(22.81375 79.999293) scale(0.1 -0.1)">
       <use xlink:href="#DejaVuSans-31"/>
       <use xlink:href="#DejaVuSans-2e" transform="translate(63.623047 0)"/>
       <use xlink:href="#DejaVuSans-34" transform="translate(95.410156 0)"/>
      </g>
     </g>
    </g>
    <g id="text_13">
     <!-- Value -->
     <g style="fill: #010101" transform="translate(16.318125 307.359718) rotate(-90) scale(0.12 -0.12)">
      <defs>
       <path id="DejaVuSans-Bold-56" d="M 31 4666 
L 1241 4666 
L 2478 1222 
L 3713 4666 
L 4922 4666 
L 3194 0 
L 1759 0 
L 31 4666 
z
" transform="scale(0.015625)"/>
       <path id="DejaVuSans-Bold-61" d="M 2106 1575 
Q 1756 1575 1579 1456 
Q 1403 1338 1403 1106 
Q 1403 894 1545 773 
Q 1688 653 1941 653 
Q 2256 653 2472 879 
Q 2688 1106 2688 1447 
L 2688 1575 
L 2106 1575 
z
M 3816 1997 
L 3816 0 
L 2688 0 
L 2688 519 
Q 2463 200 2181 54 
Q 1900 -91 1497 -91 
Q 953 -91 614 226 
Q 275 544 275 1050 
Q 275 1666 698 1953 
Q 1122 2241 2028 2241 
L 2688 2241 
L 2688 2328 
Q 2688 2594 2478 2717 
Q 2269 2841 1825 2841 
Q 1466 2841 1156 2769 
Q 847 2697 581 2553 
L 581 3406 
Q 941 3494 1303 3539 
Q 1666 3584 2028 3584 
Q 2975 3584 3395 3211 
Q 3816 2838 3816 1997 
z
" transform="scale(0.015625)"/>
       <path id="DejaVuSans-Bold-6c" d="M 538 4863 
L 1656 4863 
L 1656 0 
L 538 0 
L 538 4863 
z
" transform="scale(0.015625)"/>
       <path id="DejaVuSans-Bold-75" d="M 500 1363 
L 500 3500 
L 1625 3500 
L 1625 3150 
Q 1625 2866 1622 2436 
Q 1619 2006 1619 1863 
Q 1619 1441 1641 1255 
Q 1663 1069 1716 984 
Q 1784 875 1895 815 
Q 2006 756 2150 756 
Q 2500 756 2700 1025 
Q 2900 1294 2900 1772 
L 2900 3500 
L 4019 3500 
L 4019 0 
L 2900 0 
L 2900 506 
Q 2647 200 2364 54 
Q 2081 -91 1741 -91 
Q 1134 -91 817 281 
Q 500 653 500 1363 
z
" transform="scale(0.015625)"/>
       <path id="DejaVuSans-Bold-65" d="M 4031 1759 
L 4031 1441 
L 1416 1441 
Q 1456 1047 1700 850 
Q 1944 653 2381 653 
Q 2734 653 3104 758 
Q 3475 863 3866 1075 
L 3866 213 
Q 3469 63 3072 -14 
Q 2675 -91 2278 -91 
Q 1328 -91 801 392 
Q 275 875 275 1747 
Q 275 2603 792 3093 
Q 1309 3584 2216 3584 
Q 3041 3584 3536 3087 
Q 4031 2591 4031 1759 
z
M 2881 2131 
Q 2881 2450 2695 2645 
Q 2509 2841 2209 2841 
Q 1884 2841 1681 2658 
Q 1478 2475 1428 2131 
L 2881 2131 
z
" transform="scale(0.015625)"/>
      </defs>
      <use xlink:href="#DejaVuSans-Bold-56"/>
      <use xlink:href="#DejaVuSans-Bold-61" transform="translate(71.892578 0)"/>
      <use xlink:href="#DejaVuSans-Bold-6c" transform="translate(139.373047 0)"/>
      <use xlink:href="#DejaVuSans-Bold-75" transform="translate(173.650391 0)"/>
      <use xlink:href="#DejaVuSans-Bold-65" transform="translate(244.841797 0)"/>
     </g>
    </g>
   </g>
   <g id="patch_19">
    <path d="M 45.716875 539.360998 
L 45.716875 37.837812 
" style="fill: none; stroke: #010101; stroke-width: 0.8; stroke-linejoin: miter; stroke-linecap: square"/>
   </g>
   <g id="patch_20">
    <path d="M 848.316875 539.360998 
L 848.316875 37.837812 
" style="fill: none; stroke: #010101; stroke-width: 0.8; stroke-linejoin: miter; stroke-linecap: square"/>
   </g>
   <g id="patch_21">
    <path d="M 45.716875 539.360998 
L 848.316875 539.360998 
" style="fill: none; stroke: #010101; stroke-width: 0.8; stroke-linejoin: miter; stroke-linecap: square"/>
   </g>
   <g id="patch_22">
    <path d="M 45.716875 37.837812 
L 848.316875 37.837812 
" style="fill: none; stroke: #010101; stroke-width: 0.8; stroke-linejoin: miter; stroke-linecap: square"/>
   </g>
   <g id="text_14">
    <g id="patch_23">
     <path d="M 104.17544 520.690371 
L 104.17544 492.062246 
Q 104.17544 490.062246 102.17544 490.062246 
L 92.497315 490.062246 
Q 90.497315 490.062246 90.497315 492.062246 
L 90.497315 520.690371 
Q 90.497315 522.690371 92.497315 522.690371 
L 102.17544 522.690371 
Q 104.17544 522.690371 104.17544 520.690371 
z
" style="fill: #ffffff; opacity: 0.75"/>
    </g>
    <!-- 0.054 -->
    <g style="fill: #010101" transform="translate(100.095752 520.690371) rotate(-90) scale(0.1 -0.1)">
     <defs>
      <path id="DejaVuSans-35" d="M 691 4666 
L 3169 4666 
L 3169 4134 
L 1269 4134 
L 1269 2991 
Q 1406 3038 1543 3061 
Q 1681 3084 1819 3084 
Q 2600 3084 3056 2656 
Q 3513 2228 3513 1497 
Q 3513 744 3044 326 
Q 2575 -91 1722 -91 
Q 1428 -91 1123 -41 
Q 819 9 494 109 
L 494 744 
Q 775 591 1075 516 
Q 1375 441 1709 441 
Q 2250 441 2565 725 
Q 2881 1009 2881 1497 
Q 2881 1984 2565 2268 
Q 2250 2553 1709 2553 
Q 1456 2553 1204 2497 
Q 953 2441 691 2322 
L 691 4666 
z
" transform="scale(0.015625)"/>
     </defs>
     <use xlink:href="#DejaVuSans-30"/>
     <use xlink:href="#DejaVuSans-2e" transform="translate(63.623047 0)"/>
     <use xlink:href="#DejaVuSans-30" transform="translate(95.410156 0)"/>
     <use xlink:href="#DejaVuSans-35" transform="translate(159.033203 0)"/>
     <use xlink:href="#DejaVuSans-34" transform="translate(222.65625 0)"/>
    </g>
   </g>
   <g id="text_15">
    <g id="patch_24">
     <path d="M 300.96533 520.642141 
L 300.96533 492.014016 
Q 300.96533 490.014016 298.96533 490.014016 
L 289.287205 490.014016 
Q 287.287205 490.014016 287.287205 492.014016 
L 287.287205 520.642141 
Q 287.287205 522.642141 289.287205 522.642141 
L 298.96533 522.642141 
Q 300.96533 522.642141 300.96533 520.642141 
z
" style="fill: #ffffff; opacity: 0.75"/>
    </g>
    <!-- 0.054 -->
    <g style="fill: #010101" transform="translate(296.885643 520.642141) rotate(-90) scale(0.1 -0.1)">
     <use xlink:href="#DejaVuSans-30"/>
     <use xlink:href="#DejaVuSans-2e" transform="translate(63.623047 0)"/>
     <use xlink:href="#DejaVuSans-30" transform="translate(95.410156 0)"/>
     <use xlink:href="#DejaVuSans-35" transform="translate(159.033203 0)"/>
     <use xlink:href="#DejaVuSans-34" transform="translate(222.65625 0)"/>
    </g>
   </g>
   <g id="text_16">
    <g id="patch_25">
     <path d="M 497.755221 37.837812 
L 497.755221 15.572187 
Q 497.755221 13.572187 495.755221 13.572187 
L 486.077096 13.572187 
Q 484.077096 13.572187 484.077096 15.572187 
L 484.077096 37.837812 
Q 484.077096 39.837812 486.077096 39.837812 
L 495.755221 39.837812 
Q 497.755221 39.837812 497.755221 37.837812 
z
" style="fill: #ffffff; opacity: 0.75"/>
    </g>
    <!-- 1.44 -->
    <g style="fill: #010101" transform="translate(493.675533 37.837812) rotate(-90) scale(0.1 -0.1)">
     <use xlink:href="#DejaVuSans-31"/>
     <use xlink:href="#DejaVuSans-2e" transform="translate(63.623047 0)"/>
     <use xlink:href="#DejaVuSans-34" transform="translate(95.410156 0)"/>
     <use xlink:href="#DejaVuSans-34" transform="translate(159.033203 0)"/>
    </g>
   </g>
   <g id="text_17">
    <g id="patch_26">
     <path d="M 694.545111 520.690371 
L 694.545111 492.062246 
Q 694.545111 490.062246 692.545111 490.062246 
L 682.866986 490.062246 
Q 680.866986 490.062246 680.866986 492.062246 
L 680.866986 520.690371 
Q 680.866986 522.690371 682.866986 522.690371 
L 692.545111 522.690371 
Q 694.545111 522.690371 694.545111 520.690371 
z
" style="fill: #ffffff; opacity: 0.75"/>
    </g>
    <!-- 0.054 -->
    <g style="fill: #010101" transform="translate(690.465424 520.690371) rotate(-90) scale(0.1 -0.1)">
     <use xlink:href="#DejaVuSans-30"/>
     <use xlink:href="#DejaVuSans-2e" transform="translate(63.623047 0)"/>
     <use xlink:href="#DejaVuSans-30" transform="translate(95.410156 0)"/>
     <use xlink:href="#DejaVuSans-35" transform="translate(159.033203 0)"/>
     <use xlink:href="#DejaVuSans-34" transform="translate(222.65625 0)"/>
    </g>
   </g>
   <g id="text_18">
    <g id="patch_27">
     <path d="M 140.505881 474.023035 
L 140.505881 445.39491 
Q 140.505881 443.39491 138.505881 443.39491 
L 128.827756 443.39491 
Q 126.827756 443.39491 126.827756 445.39491 
L 126.827756 474.023035 
Q 126.827756 476.023035 128.827756 476.023035 
L 138.505881 476.023035 
Q 140.505881 476.023035 140.505881 474.023035 
z
" style="fill: #ffffff; opacity: 0.75"/>
    </g>
    <!-- 0.188 -->
    <g style="fill: #010101" transform="translate(136.426193 474.023035) rotate(-90) scale(0.1 -0.1)">
     <use xlink:href="#DejaVuSans-30"/>
     <use xlink:href="#DejaVuSans-2e" transform="translate(63.623047 0)"/>
     <use xlink:href="#DejaVuSans-31" transform="translate(95.410156 0)"/>
     <use xlink:href="#DejaVuSans-38" transform="translate(159.033203 0)"/>
     <use xlink:href="#DejaVuSans-38" transform="translate(222.65625 0)"/>
    </g>
   </g>
   <g id="text_19">
    <g id="patch_28">
     <path d="M 337.295772 514.655193 
L 337.295772 486.027068 
Q 337.295772 484.027068 335.295772 484.027068 
L 325.617647 484.027068 
Q 323.617647 484.027068 323.617647 486.027068 
L 323.617647 514.655193 
Q 323.617647 516.655193 325.617647 516.655193 
L 335.295772 516.655193 
Q 337.295772 516.655193 337.295772 514.655193 
z
" style="fill: #ffffff; opacity: 0.75"/>
    </g>
    <!-- 0.071 -->
    <g style="fill: #010101" transform="translate(333.216084 514.655193) rotate(-90) scale(0.1 -0.1)">
     <defs>
      <path id="DejaVuSans-37" d="M 525 4666 
L 3525 4666 
L 3525 4397 
L 1831 0 
L 1172 0 
L 2766 4134 
L 525 4134 
L 525 4666 
z
" transform="scale(0.015625)"/>
     </defs>
     <use xlink:href="#DejaVuSans-30"/>
     <use xlink:href="#DejaVuSans-2e" transform="translate(63.623047 0)"/>
     <use xlink:href="#DejaVuSans-30" transform="translate(95.410156 0)"/>
     <use xlink:href="#DejaVuSans-37" transform="translate(159.033203 0)"/>
     <use xlink:href="#DejaVuSans-31" transform="translate(222.65625 0)"/>
    </g>
   </g>
   <g id="text_20">
    <g id="patch_29">
     <path d="M 534.085662 175.433402 
L 534.085662 153.167777 
Q 534.085662 151.167777 532.085662 151.167777 
L 522.407537 151.167777 
Q 520.407537 151.167777 520.407537 153.167777 
L 520.407537 175.433402 
Q 520.407537 177.433402 522.407537 177.433402 
L 532.085662 177.433402 
Q 534.085662 177.433402 534.085662 175.433402 
z
" style="fill: #ffffff; opacity: 0.75"/>
    </g>
    <!-- 1.05 -->
    <g style="fill: #010101" transform="translate(530.005975 175.433402) rotate(-90) scale(0.1 -0.1)">
     <use xlink:href="#DejaVuSans-31"/>
     <use xlink:href="#DejaVuSans-2e" transform="translate(63.623047 0)"/>
     <use xlink:href="#DejaVuSans-30" transform="translate(95.410156 0)"/>
     <use xlink:href="#DejaVuSans-35" transform="translate(159.033203 0)"/>
    </g>
   </g>
   <g id="text_21">
    <g id="patch_30">
     <path d="M 730.875553 480.919228 
L 730.875553 452.291103 
Q 730.875553 450.291103 728.875553 450.291103 
L 719.197428 450.291103 
Q 717.197428 450.291103 717.197428 452.291103 
L 717.197428 480.919228 
Q 717.197428 482.919228 719.197428 482.919228 
L 728.875553 482.919228 
Q 730.875553 482.919228 730.875553 480.919228 
z
" style="fill: #ffffff; opacity: 0.75"/>
    </g>
    <!-- 0.168 -->
    <g style="fill: #010101" transform="translate(726.795865 480.919228) rotate(-90) scale(0.1 -0.1)">
     <use xlink:href="#DejaVuSans-30"/>
     <use xlink:href="#DejaVuSans-2e" transform="translate(63.623047 0)"/>
     <use xlink:href="#DejaVuSans-31" transform="translate(95.410156 0)"/>
     <use xlink:href="#DejaVuSans-36" transform="translate(159.033203 0)"/>
     <use xlink:href="#DejaVuSans-38" transform="translate(222.65625 0)"/>
    </g>
   </g>
   <g id="text_22">
    <g id="patch_31">
     <path d="M 176.836322 511.389562 
L 176.836322 482.761437 
Q 176.836322 480.761437 174.836322 480.761437 
L 165.158197 480.761437 
Q 163.158197 480.761437 163.158197 482.761437 
L 163.158197 511.389562 
Q 163.158197 513.389562 165.158197 513.389562 
L 174.836322 513.389562 
Q 176.836322 513.389562 176.836322 511.389562 
z
" style="fill: #ffffff; opacity: 0.75"/>
    </g>
    <!-- 0.081 -->
    <g style="fill: #010101" transform="translate(172.756635 511.389562) rotate(-90) scale(0.1 -0.1)">
     <use xlink:href="#DejaVuSans-30"/>
     <use xlink:href="#DejaVuSans-2e" transform="translate(63.623047 0)"/>
     <use xlink:href="#DejaVuSans-30" transform="translate(95.410156 0)"/>
     <use xlink:href="#DejaVuSans-38" transform="translate(159.033203 0)"/>
     <use xlink:href="#DejaVuSans-31" transform="translate(222.65625 0)"/>
    </g>
   </g>
   <g id="text_23">
    <g id="patch_32">
     <path d="M 373.626213 511.318749 
L 373.626213 482.690624 
Q 373.626213 480.690624 371.626213 480.690624 
L 361.948088 480.690624 
Q 359.948088 480.690624 359.948088 482.690624 
L 359.948088 511.318749 
Q 359.948088 513.318749 361.948088 513.318749 
L 371.626213 513.318749 
Q 373.626213 513.318749 373.626213 511.318749 
z
" style="fill: #ffffff; opacity: 0.75"/>
    </g>
    <!-- 0.081 -->
    <g style="fill: #010101" transform="translate(369.546525 511.318749) rotate(-90) scale(0.1 -0.1)">
     <use xlink:href="#DejaVuSans-30"/>
     <use xlink:href="#DejaVuSans-2e" transform="translate(63.623047 0)"/>
     <use xlink:href="#DejaVuSans-30" transform="translate(95.410156 0)"/>
     <use xlink:href="#DejaVuSans-38" transform="translate(159.033203 0)"/>
     <use xlink:href="#DejaVuSans-31" transform="translate(222.65625 0)"/>
    </g>
   </g>
   <g id="text_24">
    <g id="patch_33">
     <path d="M 570.416103 239.692402 
L 570.416103 211.064277 
Q 570.416103 209.064277 568.416103 209.064277 
L 558.737978 209.064277 
Q 556.737978 209.064277 556.737978 211.064277 
L 556.737978 239.692402 
Q 556.737978 241.692402 558.737978 241.692402 
L 568.416103 241.692402 
Q 570.416103 241.692402 570.416103 239.692402 
z
" style="fill: #ffffff; opacity: 0.75"/>
    </g>
    <!-- 0.863 -->
    <g style="fill: #010101" transform="translate(566.336416 239.692402) rotate(-90) scale(0.1 -0.1)">
     <defs>
      <path id="DejaVuSans-33" d="M 2597 2516 
Q 3050 2419 3304 2112 
Q 3559 1806 3559 1356 
Q 3559 666 3084 287 
Q 2609 -91 1734 -91 
Q 1441 -91 1130 -33 
Q 819 25 488 141 
L 488 750 
Q 750 597 1062 519 
Q 1375 441 1716 441 
Q 2309 441 2620 675 
Q 2931 909 2931 1356 
Q 2931 1769 2642 2001 
Q 2353 2234 1838 2234 
L 1294 2234 
L 1294 2753 
L 1863 2753 
Q 2328 2753 2575 2939 
Q 2822 3125 2822 3475 
Q 2822 3834 2567 4026 
Q 2313 4219 1838 4219 
Q 1578 4219 1281 4162 
Q 984 4106 628 3988 
L 628 4550 
Q 988 4650 1302 4700 
Q 1616 4750 1894 4750 
Q 2613 4750 3031 4423 
Q 3450 4097 3450 3541 
Q 3450 3153 3228 2886 
Q 3006 2619 2597 2516 
z
" transform="scale(0.015625)"/>
     </defs>
     <use xlink:href="#DejaVuSans-30"/>
     <use xlink:href="#DejaVuSans-2e" transform="translate(63.623047 0)"/>
     <use xlink:href="#DejaVuSans-38" transform="translate(95.410156 0)"/>
     <use xlink:href="#DejaVuSans-36" transform="translate(159.033203 0)"/>
     <use xlink:href="#DejaVuSans-33" transform="translate(222.65625 0)"/>
    </g>
   </g>
   <g id="text_25">
    <g id="patch_34">
     <path d="M 767.205994 522.578137 
L 767.205994 493.950012 
Q 767.205994 491.950012 765.205994 491.950012 
L 755.527869 491.950012 
Q 753.527869 491.950012 753.527869 493.950012 
L 753.527869 522.578137 
Q 753.527869 524.578137 755.527869 524.578137 
L 765.205994 524.578137 
Q 767.205994 524.578137 767.205994 522.578137 
z
" style="fill: #ffffff; opacity: 0.75"/>
    </g>
    <!-- 0.048 -->
    <g style="fill: #010101" transform="translate(763.126307 522.578137) rotate(-90) scale(0.1 -0.1)">
     <use xlink:href="#DejaVuSans-30"/>
     <use xlink:href="#DejaVuSans-2e" transform="translate(63.623047 0)"/>
     <use xlink:href="#DejaVuSans-30" transform="translate(95.410156 0)"/>
     <use xlink:href="#DejaVuSans-34" transform="translate(159.033203 0)"/>
     <use xlink:href="#DejaVuSans-38" transform="translate(222.65625 0)"/>
    </g>
   </g>
   <g id="text_26">
    <g id="patch_35">
     <path d="M 213.166764 511.389562 
L 213.166764 482.761437 
Q 213.166764 480.761437 211.166764 480.761437 
L 201.488639 480.761437 
Q 199.488639 480.761437 199.488639 482.761437 
L 199.488639 511.389562 
Q 199.488639 513.389562 201.488639 513.389562 
L 211.166764 513.389562 
Q 213.166764 513.389562 213.166764 511.389562 
z
" style="fill: #ffffff; opacity: 0.75"/>
    </g>
    <!-- 0.081 -->
    <g style="fill: #010101" transform="translate(209.087076 511.389562) rotate(-90) scale(0.1 -0.1)">
     <use xlink:href="#DejaVuSans-30"/>
     <use xlink:href="#DejaVuSans-2e" transform="translate(63.623047 0)"/>
     <use xlink:href="#DejaVuSans-30" transform="translate(95.410156 0)"/>
     <use xlink:href="#DejaVuSans-38" transform="translate(159.033203 0)"/>
     <use xlink:href="#DejaVuSans-31" transform="translate(222.65625 0)"/>
    </g>
   </g>
   <g id="text_27">
    <g id="patch_36">
     <path d="M 409.956654 511.318749 
L 409.956654 482.690624 
Q 409.956654 480.690624 407.956654 480.690624 
L 398.278529 480.690624 
Q 396.278529 480.690624 396.278529 482.690624 
L 396.278529 511.318749 
Q 396.278529 513.318749 398.278529 513.318749 
L 407.956654 513.318749 
Q 409.956654 513.318749 409.956654 511.318749 
z
" style="fill: #ffffff; opacity: 0.75"/>
    </g>
    <!-- 0.081 -->
    <g style="fill: #010101" transform="translate(405.876967 511.318749) rotate(-90) scale(0.1 -0.1)">
     <use xlink:href="#DejaVuSans-30"/>
     <use xlink:href="#DejaVuSans-2e" transform="translate(63.623047 0)"/>
     <use xlink:href="#DejaVuSans-30" transform="translate(95.410156 0)"/>
     <use xlink:href="#DejaVuSans-38" transform="translate(159.033203 0)"/>
     <use xlink:href="#DejaVuSans-31" transform="translate(222.65625 0)"/>
    </g>
   </g>
   <g id="text_28">
    <g id="patch_37">
     <path d="M 606.746545 239.692402 
L 606.746545 211.064277 
Q 606.746545 209.064277 604.746545 209.064277 
L 595.06842 209.064277 
Q 593.06842 209.064277 593.06842 211.064277 
L 593.06842 239.692402 
Q 593.06842 241.692402 595.06842 241.692402 
L 604.746545 241.692402 
Q 606.746545 241.692402 606.746545 239.692402 
z
" style="fill: #ffffff; opacity: 0.75"/>
    </g>
    <!-- 0.863 -->
    <g style="fill: #010101" transform="translate(602.666857 239.692402) rotate(-90) scale(0.1 -0.1)">
     <use xlink:href="#DejaVuSans-30"/>
     <use xlink:href="#DejaVuSans-2e" transform="translate(63.623047 0)"/>
     <use xlink:href="#DejaVuSans-38" transform="translate(95.410156 0)"/>
     <use xlink:href="#DejaVuSans-36" transform="translate(159.033203 0)"/>
     <use xlink:href="#DejaVuSans-33" transform="translate(222.65625 0)"/>
    </g>
   </g>
   <g id="text_29">
    <g id="patch_38">
     <path d="M 803.536435 522.578137 
L 803.536435 493.950012 
Q 803.536435 491.950012 801.536435 491.950012 
L 791.85831 491.950012 
Q 789.85831 491.950012 789.85831 493.950012 
L 789.85831 522.578137 
Q 789.85831 524.578137 791.85831 524.578137 
L 801.536435 524.578137 
Q 803.536435 524.578137 803.536435 522.578137 
z
" style="fill: #ffffff; opacity: 0.75"/>
    </g>
    <!-- 0.048 -->
    <g style="fill: #010101" transform="translate(799.456748 522.578137) rotate(-90) scale(0.1 -0.1)">
     <use xlink:href="#DejaVuSans-30"/>
     <use xlink:href="#DejaVuSans-2e" transform="translate(63.623047 0)"/>
     <use xlink:href="#DejaVuSans-30" transform="translate(95.410156 0)"/>
     <use xlink:href="#DejaVuSans-34" transform="translate(159.033203 0)"/>
     <use xlink:href="#DejaVuSans-38" transform="translate(222.65625 0)"/>
    </g>
   </g>
   <g id="text_30">
    <!-- Network-wide coefficients across adaptations -->
    <g style="fill: #010101" transform="translate(266.142344 17.837812) scale(0.14 -0.14)">
     <defs>
      <path id="DejaVuSans-Bold-4e" d="M 588 4666 
L 1931 4666 
L 3628 1466 
L 3628 4666 
L 4769 4666 
L 4769 0 
L 3425 0 
L 1728 3200 
L 1728 0 
L 588 0 
L 588 4666 
z
" transform="scale(0.015625)"/>
      <path id="DejaVuSans-Bold-74" d="M 1759 4494 
L 1759 3500 
L 2913 3500 
L 2913 2700 
L 1759 2700 
L 1759 1216 
Q 1759 972 1856 886 
Q 1953 800 2241 800 
L 2816 800 
L 2816 0 
L 1856 0 
Q 1194 0 917 276 
Q 641 553 641 1216 
L 641 2700 
L 84 2700 
L 84 3500 
L 641 3500 
L 641 4494 
L 1759 4494 
z
" transform="scale(0.015625)"/>
      <path id="DejaVuSans-Bold-77" d="M 225 3500 
L 1313 3500 
L 1900 1088 
L 2491 3500 
L 3425 3500 
L 4013 1113 
L 4603 3500 
L 5691 3500 
L 4769 0 
L 3547 0 
L 2956 2406 
L 2369 0 
L 1147 0 
L 225 3500 
z
" transform="scale(0.015625)"/>
      <path id="DejaVuSans-Bold-6f" d="M 2203 2784 
Q 1831 2784 1636 2517 
Q 1441 2250 1441 1747 
Q 1441 1244 1636 976 
Q 1831 709 2203 709 
Q 2569 709 2762 976 
Q 2956 1244 2956 1747 
Q 2956 2250 2762 2517 
Q 2569 2784 2203 2784 
z
M 2203 3584 
Q 3106 3584 3614 3096 
Q 4122 2609 4122 1747 
Q 4122 884 3614 396 
Q 3106 -91 2203 -91 
Q 1297 -91 786 396 
Q 275 884 275 1747 
Q 275 2609 786 3096 
Q 1297 3584 2203 3584 
z
" transform="scale(0.015625)"/>
      <path id="DejaVuSans-Bold-72" d="M 3138 2547 
Q 2991 2616 2845 2648 
Q 2700 2681 2553 2681 
Q 2122 2681 1889 2404 
Q 1656 2128 1656 1613 
L 1656 0 
L 538 0 
L 538 3500 
L 1656 3500 
L 1656 2925 
Q 1872 3269 2151 3426 
Q 2431 3584 2822 3584 
Q 2878 3584 2943 3579 
Q 3009 3575 3134 3559 
L 3138 2547 
z
" transform="scale(0.015625)"/>
      <path id="DejaVuSans-Bold-6b" d="M 538 4863 
L 1656 4863 
L 1656 2216 
L 2944 3500 
L 4244 3500 
L 2534 1894 
L 4378 0 
L 3022 0 
L 1656 1459 
L 1656 0 
L 538 0 
L 538 4863 
z
" transform="scale(0.015625)"/>
      <path id="DejaVuSans-Bold-2d" d="M 347 2297 
L 2309 2297 
L 2309 1388 
L 347 1388 
L 347 2297 
z
" transform="scale(0.015625)"/>
      <path id="DejaVuSans-Bold-69" d="M 538 3500 
L 1656 3500 
L 1656 0 
L 538 0 
L 538 3500 
z
M 538 4863 
L 1656 4863 
L 1656 3950 
L 538 3950 
L 538 4863 
z
" transform="scale(0.015625)"/>
      <path id="DejaVuSans-Bold-64" d="M 2919 2988 
L 2919 4863 
L 4044 4863 
L 4044 0 
L 2919 0 
L 2919 506 
Q 2688 197 2409 53 
Q 2131 -91 1766 -91 
Q 1119 -91 703 423 
Q 288 938 288 1747 
Q 288 2556 703 3070 
Q 1119 3584 1766 3584 
Q 2128 3584 2408 3439 
Q 2688 3294 2919 2988 
z
M 2181 722 
Q 2541 722 2730 984 
Q 2919 1247 2919 1747 
Q 2919 2247 2730 2509 
Q 2541 2772 2181 2772 
Q 1825 2772 1636 2509 
Q 1447 2247 1447 1747 
Q 1447 1247 1636 984 
Q 1825 722 2181 722 
z
" transform="scale(0.015625)"/>
      <path id="DejaVuSans-Bold-20" transform="scale(0.015625)"/>
      <path id="DejaVuSans-Bold-63" d="M 3366 3391 
L 3366 2478 
Q 3138 2634 2908 2709 
Q 2678 2784 2431 2784 
Q 1963 2784 1702 2511 
Q 1441 2238 1441 1747 
Q 1441 1256 1702 982 
Q 1963 709 2431 709 
Q 2694 709 2930 787 
Q 3166 866 3366 1019 
L 3366 103 
Q 3103 6 2833 -42 
Q 2563 -91 2291 -91 
Q 1344 -91 809 395 
Q 275 881 275 1747 
Q 275 2613 809 3098 
Q 1344 3584 2291 3584 
Q 2566 3584 2833 3536 
Q 3100 3488 3366 3391 
z
" transform="scale(0.015625)"/>
      <path id="DejaVuSans-Bold-66" d="M 2841 4863 
L 2841 4128 
L 2222 4128 
Q 1984 4128 1890 4042 
Q 1797 3956 1797 3744 
L 1797 3500 
L 2753 3500 
L 2753 2700 
L 1797 2700 
L 1797 0 
L 678 0 
L 678 2700 
L 122 2700 
L 122 3500 
L 678 3500 
L 678 3744 
Q 678 4316 997 4589 
Q 1316 4863 1984 4863 
L 2841 4863 
z
" transform="scale(0.015625)"/>
      <path id="DejaVuSans-Bold-6e" d="M 4056 2131 
L 4056 0 
L 2931 0 
L 2931 347 
L 2931 1631 
Q 2931 2084 2911 2256 
Q 2891 2428 2841 2509 
Q 2775 2619 2662 2680 
Q 2550 2741 2406 2741 
Q 2056 2741 1856 2470 
Q 1656 2200 1656 1722 
L 1656 0 
L 538 0 
L 538 3500 
L 1656 3500 
L 1656 2988 
Q 1909 3294 2193 3439 
Q 2478 3584 2822 3584 
Q 3428 3584 3742 3212 
Q 4056 2841 4056 2131 
z
" transform="scale(0.015625)"/>
      <path id="DejaVuSans-Bold-73" d="M 3272 3391 
L 3272 2541 
Q 2913 2691 2578 2766 
Q 2244 2841 1947 2841 
Q 1628 2841 1473 2761 
Q 1319 2681 1319 2516 
Q 1319 2381 1436 2309 
Q 1553 2238 1856 2203 
L 2053 2175 
Q 2913 2066 3209 1816 
Q 3506 1566 3506 1031 
Q 3506 472 3093 190 
Q 2681 -91 1863 -91 
Q 1516 -91 1145 -36 
Q 775 19 384 128 
L 384 978 
Q 719 816 1070 734 
Q 1422 653 1784 653 
Q 2113 653 2278 743 
Q 2444 834 2444 1013 
Q 2444 1163 2330 1236 
Q 2216 1309 1875 1350 
L 1678 1375 
Q 931 1469 631 1722 
Q 331 1975 331 2491 
Q 331 3047 712 3315 
Q 1094 3584 1881 3584 
Q 2191 3584 2531 3537 
Q 2872 3491 3272 3391 
z
" transform="scale(0.015625)"/>
      <path id="DejaVuSans-Bold-70" d="M 1656 506 
L 1656 -1331 
L 538 -1331 
L 538 3500 
L 1656 3500 
L 1656 2988 
Q 1888 3294 2169 3439 
Q 2450 3584 2816 3584 
Q 3463 3584 3878 3070 
Q 4294 2556 4294 1747 
Q 4294 938 3878 423 
Q 3463 -91 2816 -91 
Q 2450 -91 2169 54 
Q 1888 200 1656 506 
z
M 2400 2772 
Q 2041 2772 1848 2508 
Q 1656 2244 1656 1747 
Q 1656 1250 1848 986 
Q 2041 722 2400 722 
Q 2759 722 2948 984 
Q 3138 1247 3138 1747 
Q 3138 2247 2948 2509 
Q 2759 2772 2400 2772 
z
" transform="scale(0.015625)"/>
     </defs>
     <use xlink:href="#DejaVuSans-Bold-4e"/>
     <use xlink:href="#DejaVuSans-Bold-65" transform="translate(83.691406 0)"/>
     <use xlink:href="#DejaVuSans-Bold-74" transform="translate(151.513672 0)"/>
     <use xlink:href="#DejaVuSans-Bold-77" transform="translate(199.316406 0)"/>
     <use xlink:href="#DejaVuSans-Bold-6f" transform="translate(291.699219 0)"/>
     <use xlink:href="#DejaVuSans-Bold-72" transform="translate(360.400391 0)"/>
     <use xlink:href="#DejaVuSans-Bold-6b" transform="translate(409.716797 0)"/>
     <use xlink:href="#DejaVuSans-Bold-2d" transform="translate(476.220703 0)"/>
     <use xlink:href="#DejaVuSans-Bold-77" transform="translate(517.724609 0)"/>
     <use xlink:href="#DejaVuSans-Bold-69" transform="translate(610.107422 0)"/>
     <use xlink:href="#DejaVuSans-Bold-64" transform="translate(644.384766 0)"/>
     <use xlink:href="#DejaVuSans-Bold-65" transform="translate(715.966797 0)"/>
     <use xlink:href="#DejaVuSans-Bold-20" transform="translate(783.789062 0)"/>
     <use xlink:href="#DejaVuSans-Bold-63" transform="translate(818.603516 0)"/>
     <use xlink:href="#DejaVuSans-Bold-6f" transform="translate(877.880859 0)"/>
     <use xlink:href="#DejaVuSans-Bold-65" transform="translate(946.582031 0)"/>
     <use xlink:href="#DejaVuSans-Bold-66" transform="translate(1014.404297 0)"/>
     <use xlink:href="#DejaVuSans-Bold-66" transform="translate(1057.910156 0)"/>
     <use xlink:href="#DejaVuSans-Bold-69" transform="translate(1101.416016 0)"/>
     <use xlink:href="#DejaVuSans-Bold-63" transform="translate(1135.693359 0)"/>
     <use xlink:href="#DejaVuSans-Bold-69" transform="translate(1194.970703 0)"/>
     <use xlink:href="#DejaVuSans-Bold-65" transform="translate(1229.248047 0)"/>
     <use xlink:href="#DejaVuSans-Bold-6e" transform="translate(1297.070312 0)"/>
     <use xlink:href="#DejaVuSans-Bold-74" transform="translate(1368.261719 0)"/>
     <use xlink:href="#DejaVuSans-Bold-73" transform="translate(1416.064453 0)"/>
     <use xlink:href="#DejaVuSans-Bold-20" transform="translate(1475.585938 0)"/>
     <use xlink:href="#DejaVuSans-Bold-61" transform="translate(1510.400391 0)"/>
     <use xlink:href="#DejaVuSans-Bold-63" transform="translate(1577.880859 0)"/>
     <use xlink:href="#DejaVuSans-Bold-72" transform="translate(1637.158203 0)"/>
     <use xlink:href="#DejaVuSans-Bold-6f" transform="translate(1686.474609 0)"/>
     <use xlink:href="#DejaVuSans-Bold-73" transform="translate(1755.175781 0)"/>
     <use xlink:href="#DejaVuSans-Bold-73" transform="translate(1814.697266 0)"/>
     <use xlink:href="#DejaVuSans-Bold-20" transform="translate(1874.21875 0)"/>
     <use xlink:href="#DejaVuSans-Bold-61" transform="translate(1909.033203 0)"/>
     <use xlink:href="#DejaVuSans-Bold-64" transform="translate(1976.513672 0)"/>
     <use xlink:href="#DejaVuSans-Bold-61" transform="translate(2048.095703 0)"/>
     <use xlink:href="#DejaVuSans-Bold-70" transform="translate(2115.576172 0)"/>
     <use xlink:href="#DejaVuSans-Bold-74" transform="translate(2187.158203 0)"/>
     <use xlink:href="#DejaVuSans-Bold-61" transform="translate(2234.960938 0)"/>
     <use xlink:href="#DejaVuSans-Bold-74" transform="translate(2302.441406 0)"/>
     <use xlink:href="#DejaVuSans-Bold-69" transform="translate(2350.244141 0)"/>
     <use xlink:href="#DejaVuSans-Bold-6f" transform="translate(2384.521484 0)"/>
     <use xlink:href="#DejaVuSans-Bold-6e" transform="translate(2453.222656 0)"/>
     <use xlink:href="#DejaVuSans-Bold-73" transform="translate(2524.414062 0)"/>
    </g>
   </g>
   <g id="legend_1">
    <g id="patch_39">
     <path d="M 407.309844 106.550312 
L 490.723906 106.550312 
Q 492.723906 106.550312 492.723906 104.550312 
L 492.723906 46.837812 
Q 492.723906 44.837812 490.723906 44.837812 
L 407.309844 44.837812 
Q 405.309844 44.837812 405.309844 46.837812 
L 405.309844 104.550312 
Q 405.309844 106.550312 407.309844 106.550312 
z
" style="fill: #4d4d4d; opacity: 0.5; stroke: #4d4d4d; stroke-linejoin: miter"/>
    </g>
    <g id="patch_40">
     <path d="M 405.309844 104.550312 
L 488.723906 104.550312 
Q 490.723906 104.550312 490.723906 102.550312 
L 490.723906 44.837812 
Q 490.723906 42.837812 488.723906 42.837812 
L 405.309844 42.837812 
Q 403.309844 42.837812 403.309844 44.837812 
L 403.309844 102.550312 
Q 403.309844 104.550312 405.309844 104.550312 
z
" style="fill: #ffffff; stroke: #cccccc; stroke-linejoin: miter"/>
    </g>
    <g id="patch_41">
     <path d="M 407.309844 54.43625 
L 427.309844 54.43625 
L 427.309844 47.43625 
L 407.309844 47.43625 
z
" style="fill: #ff0000; opacity: 0.85; stroke: #000000; stroke-width: 0.5; stroke-linejoin: miter"/>
    </g>
    <g id="text_31">
     <!-- baseline -->
     <g style="fill: #010101" transform="translate(435.309844 54.43625) scale(0.1 -0.1)">
      <defs>
       <path id="DejaVuSans-62" d="M 3116 1747 
Q 3116 2381 2855 2742 
Q 2594 3103 2138 3103 
Q 1681 3103 1420 2742 
Q 1159 2381 1159 1747 
Q 1159 1113 1420 752 
Q 1681 391 2138 391 
Q 2594 391 2855 752 
Q 3116 1113 3116 1747 
z
M 1159 2969 
Q 1341 3281 1617 3432 
Q 1894 3584 2278 3584 
Q 2916 3584 3314 3078 
Q 3713 2572 3713 1747 
Q 3713 922 3314 415 
Q 2916 -91 2278 -91 
Q 1894 -91 1617 61 
Q 1341 213 1159 525 
L 1159 0 
L 581 0 
L 581 4863 
L 1159 4863 
L 1159 2969 
z
" transform="scale(0.015625)"/>
       <path id="DejaVuSans-61" d="M 2194 1759 
Q 1497 1759 1228 1600 
Q 959 1441 959 1056 
Q 959 750 1161 570 
Q 1363 391 1709 391 
Q 2188 391 2477 730 
Q 2766 1069 2766 1631 
L 2766 1759 
L 2194 1759 
z
M 3341 1997 
L 3341 0 
L 2766 0 
L 2766 531 
Q 2569 213 2275 61 
Q 1981 -91 1556 -91 
Q 1019 -91 701 211 
Q 384 513 384 1019 
Q 384 1609 779 1909 
Q 1175 2209 1959 2209 
L 2766 2209 
L 2766 2266 
Q 2766 2663 2505 2880 
Q 2244 3097 1772 3097 
Q 1472 3097 1187 3025 
Q 903 2953 641 2809 
L 641 3341 
Q 956 3463 1253 3523 
Q 1550 3584 1831 3584 
Q 2591 3584 2966 3190 
Q 3341 2797 3341 1997 
z
" transform="scale(0.015625)"/>
       <path id="DejaVuSans-73" d="M 2834 3397 
L 2834 2853 
Q 2591 2978 2328 3040 
Q 2066 3103 1784 3103 
Q 1356 3103 1142 2972 
Q 928 2841 928 2578 
Q 928 2378 1081 2264 
Q 1234 2150 1697 2047 
L 1894 2003 
Q 2506 1872 2764 1633 
Q 3022 1394 3022 966 
Q 3022 478 2636 193 
Q 2250 -91 1575 -91 
Q 1294 -91 989 -36 
Q 684 19 347 128 
L 347 722 
Q 666 556 975 473 
Q 1284 391 1588 391 
Q 1994 391 2212 530 
Q 2431 669 2431 922 
Q 2431 1156 2273 1281 
Q 2116 1406 1581 1522 
L 1381 1569 
Q 847 1681 609 1914 
Q 372 2147 372 2553 
Q 372 3047 722 3315 
Q 1072 3584 1716 3584 
Q 2034 3584 2315 3537 
Q 2597 3491 2834 3397 
z
" transform="scale(0.015625)"/>
       <path id="DejaVuSans-65" d="M 3597 1894 
L 3597 1613 
L 953 1613 
Q 991 1019 1311 708 
Q 1631 397 2203 397 
Q 2534 397 2845 478 
Q 3156 559 3463 722 
L 3463 178 
Q 3153 47 2828 -22 
Q 2503 -91 2169 -91 
Q 1331 -91 842 396 
Q 353 884 353 1716 
Q 353 2575 817 3079 
Q 1281 3584 2069 3584 
Q 2775 3584 3186 3129 
Q 3597 2675 3597 1894 
z
M 3022 2063 
Q 3016 2534 2758 2815 
Q 2500 3097 2075 3097 
Q 1594 3097 1305 2825 
Q 1016 2553 972 2059 
L 3022 2063 
z
" transform="scale(0.015625)"/>
       <path id="DejaVuSans-6c" d="M 603 4863 
L 1178 4863 
L 1178 0 
L 603 0 
L 603 4863 
z
" transform="scale(0.015625)"/>
       <path id="DejaVuSans-69" d="M 603 3500 
L 1178 3500 
L 1178 0 
L 603 0 
L 603 3500 
z
M 603 4863 
L 1178 4863 
L 1178 4134 
L 603 4134 
L 603 4863 
z
" transform="scale(0.015625)"/>
       <path id="DejaVuSans-6e" d="M 3513 2113 
L 3513 0 
L 2938 0 
L 2938 2094 
Q 2938 2591 2744 2837 
Q 2550 3084 2163 3084 
Q 1697 3084 1428 2787 
Q 1159 2491 1159 1978 
L 1159 0 
L 581 0 
L 581 3500 
L 1159 3500 
L 1159 2956 
Q 1366 3272 1645 3428 
Q 1925 3584 2291 3584 
Q 2894 3584 3203 3211 
Q 3513 2838 3513 2113 
z
" transform="scale(0.015625)"/>
      </defs>
      <use xlink:href="#DejaVuSans-62"/>
      <use xlink:href="#DejaVuSans-61" transform="translate(63.476562 0)"/>
      <use xlink:href="#DejaVuSans-73" transform="translate(124.755859 0)"/>
      <use xlink:href="#DejaVuSans-65" transform="translate(176.855469 0)"/>
      <use xlink:href="#DejaVuSans-6c" transform="translate(238.378906 0)"/>
      <use xlink:href="#DejaVuSans-69" transform="translate(266.162109 0)"/>
      <use xlink:href="#DejaVuSans-6e" transform="translate(293.945312 0)"/>
      <use xlink:href="#DejaVuSans-65" transform="translate(357.324219 0)"/>
     </g>
    </g>
    <g id="patch_42">
     <path d="M 407.309844 69.114375 
L 427.309844 69.114375 
L 427.309844 62.114375 
L 407.309844 62.114375 
z
" style="fill: #d4dd80; opacity: 0.85; stroke: #000000; stroke-width: 0.5; stroke-linejoin: miter"/>
    </g>
    <g id="text_32">
     <!-- s1 -->
     <g style="fill: #010101" transform="translate(435.309844 69.114375) scale(0.1 -0.1)">
      <use xlink:href="#DejaVuSans-73"/>
      <use xlink:href="#DejaVuSans-31" transform="translate(52.099609 0)"/>
     </g>
    </g>
    <g id="patch_43">
     <path d="M 407.309844 83.7925 
L 427.309844 83.7925 
L 427.309844 76.7925 
L 407.309844 76.7925 
z
" style="fill: #2adddd; opacity: 0.85; stroke: #000000; stroke-width: 0.5; stroke-linejoin: miter"/>
    </g>
    <g id="text_33">
     <!-- s2 -->
     <g style="fill: #010101" transform="translate(435.309844 83.7925) scale(0.1 -0.1)">
      <use xlink:href="#DejaVuSans-73"/>
      <use xlink:href="#DejaVuSans-32" transform="translate(52.099609 0)"/>
     </g>
    </g>
    <g id="patch_44">
     <path d="M 407.309844 98.470625 
L 427.309844 98.470625 
L 427.309844 91.470625 
L 407.309844 91.470625 
z
" style="fill: #8000ff; opacity: 0.85; stroke: #000000; stroke-width: 0.5; stroke-linejoin: miter"/>
    </g>
    <g id="text_34">
     <!-- aggregate -->
     <g style="fill: #010101" transform="translate(435.309844 98.470625) scale(0.1 -0.1)">
      <defs>
       <path id="DejaVuSans-67" d="M 2906 1791 
Q 2906 2416 2648 2759 
Q 2391 3103 1925 3103 
Q 1463 3103 1205 2759 
Q 947 2416 947 1791 
Q 947 1169 1205 825 
Q 1463 481 1925 481 
Q 2391 481 2648 825 
Q 2906 1169 2906 1791 
z
M 3481 434 
Q 3481 -459 3084 -895 
Q 2688 -1331 1869 -1331 
Q 1566 -1331 1297 -1286 
Q 1028 -1241 775 -1147 
L 775 -588 
Q 1028 -725 1275 -790 
Q 1522 -856 1778 -856 
Q 2344 -856 2625 -561 
Q 2906 -266 2906 331 
L 2906 616 
Q 2728 306 2450 153 
Q 2172 0 1784 0 
Q 1141 0 747 490 
Q 353 981 353 1791 
Q 353 2603 747 3093 
Q 1141 3584 1784 3584 
Q 2172 3584 2450 3431 
Q 2728 3278 2906 2969 
L 2906 3500 
L 3481 3500 
L 3481 434 
z
" transform="scale(0.015625)"/>
       <path id="DejaVuSans-72" d="M 2631 2963 
Q 2534 3019 2420 3045 
Q 2306 3072 2169 3072 
Q 1681 3072 1420 2755 
Q 1159 2438 1159 1844 
L 1159 0 
L 581 0 
L 581 3500 
L 1159 3500 
L 1159 2956 
Q 1341 3275 1631 3429 
Q 1922 3584 2338 3584 
Q 2397 3584 2469 3576 
Q 2541 3569 2628 3553 
L 2631 2963 
z
" transform="scale(0.015625)"/>
       <path id="DejaVuSans-74" d="M 1172 4494 
L 1172 3500 
L 2356 3500 
L 2356 3053 
L 1172 3053 
L 1172 1153 
Q 1172 725 1289 603 
Q 1406 481 1766 481 
L 2356 481 
L 2356 0 
L 1766 0 
Q 1100 0 847 248 
Q 594 497 594 1153 
L 594 3053 
L 172 3053 
L 172 3500 
L 594 3500 
L 594 4494 
L 1172 4494 
z
" transform="scale(0.015625)"/>
      </defs>
      <use xlink:href="#DejaVuSans-61"/>
      <use xlink:href="#DejaVuSans-67" transform="translate(61.279297 0)"/>
      <use xlink:href="#DejaVuSans-67" transform="translate(124.755859 0)"/>
      <use xlink:href="#DejaVuSans-72" transform="translate(188.232422 0)"/>
      <use xlink:href="#DejaVuSans-65" transform="translate(227.095703 0)"/>
      <use xlink:href="#DejaVuSans-67" transform="translate(288.619141 0)"/>
      <use xlink:href="#DejaVuSans-61" transform="translate(352.095703 0)"/>
      <use xlink:href="#DejaVuSans-74" transform="translate(413.375 0)"/>
      <use xlink:href="#DejaVuSans-65" transform="translate(452.583984 0)"/>
     </g>
    </g>
   </g>
  </g>
 </g>
 <defs>
  <clipPath id="pa9164d6385">
   <rect x="45.716875" y="37.837812" width="802.6" height="501.523186"/>
  </clipPath>
 </defs>
</svg>
