<?xml version="1.0" encoding="utf-8" standalone="no"?>
<!DOCTYPE svg PUBLIC "-//W3C//DTD SVG 1.1//EN"
  "http://www.w3.org/Graphics/SVG/1.1/DTD/svg11.dtd">
<svg xmlns:xlink="http://www.w3.org/1999/xlink" width="834.116875pt" height="735.12pt" viewBox="0 0 834.116875 735.12" xmlns="http://www.w3.org/2000/svg" version="1.1">
 <metadata>
  <rdf:RDF xmlns:dc="http://purl.org/dc/elements/1.1/" xmlns:cc="http://creativecommons.org/ns#" xmlns:rdf="http://www.w3.org/1999/02/22-rdf-syntax-ns#">
   <cc:Work>
    <dc:type rdf:resource="http://purl.org/dc/dcmitype/StillImage"/>
    <dc:date>2026-04-27T19:37:37.451497</dc:date>
    <dc:format>image/svg+xml</dc:format>
    <dc:creator>
     <cc:Agent>
      <dc:title>Matplotlib v3.10.7, https://matplotlib.org/</dc:title>
     </cc:Agent>
    </dc:creator>
   </cc:Work>
  </rdf:RDF>
 </metadata>
 <defs>
  <style type="text/css">*{stroke-linejoin: round; stroke-linecap: butt}</style>
 </defs>
 <g id="figure_1">
  <g id="patch_1">
   <path d="M 0 735.12 
L 834.116875 735.12 
L 834.116875 0 
L 0 0 
z
" style="fill: #ffffff"/>
  </g>
  <g id="axes_1">
   <g id="text_1">
    <!-- DASA: TAS Architecture coefficients across adaptations -->
    <g style="fill: #010101" transform="translate(91.600938 46.637292) scale(0.22 -0.22)">
     <defs>
      <path id="DejaVuSans-Bold-44" d="M 1791 3756 
L 1791 909 
L 2222 909 
Q 2959 909 3348 1275 
Q 3738 1641 3738 2338 
Q 3738 3031 3350 3393 
Q 2963 3756 2222 3756 
L 1791 3756 
z
M 588 4666 
L 1856 4666 
Q 2919 4666 3439 4514 
Q 3959 4363 4331 4000 
Q 4659 3684 4818 3271 
Q 4978 2859 4978 2338 
Q 4978 1809 4818 1395 
Q 4659 981 4331 666 
Q 3956 303 3431 151 
Q 2906 0 1856 0 
L 588 0 
L 588 4666 
z
" transform="scale(0.015625)"/>
      <path id="DejaVuSans-Bold-41" d="M 3419 850 
L 1538 850 
L 1241 0 
L 31 0 
L 1759 4666 
L 3194 4666 
L 4922 0 
L 3713 0 
L 3419 850 
z
M 1838 1716 
L 3116 1716 
L 2478 3572 
L 1838 1716 
z
" transform="scale(0.015625)"/>
      <path id="DejaVuSans-Bold-53" d="M 3834 4519 
L 3834 3531 
Q 3450 3703 3084 3790 
Q 2719 3878 2394 3878 
Q 1963 3878 1756 3759 
Q 1550 3641 1550 3391 
Q 1550 3203 1689 3098 
Q 1828 2994 2194 2919 
L 2706 2816 
Q 3484 2659 3812 2340 
Q 4141 2022 4141 1434 
Q 4141 663 3683 286 
Q 3225 -91 2284 -91 
Q 1841 -91 1394 -6 
Q 947 78 500 244 
L 500 1259 
Q 947 1022 1364 901 
Q 1781 781 2169 781 
Q 2563 781 2772 912 
Q 2981 1044 2981 1288 
Q 2981 1506 2839 1625 
Q 2697 1744 2272 1838 
L 1806 1941 
Q 1106 2091 782 2419 
Q 459 2747 459 3303 
Q 459 4000 909 4375 
Q 1359 4750 2203 4750 
Q 2588 4750 2994 4692 
Q 3400 4634 3834 4519 
z
" transform="scale(0.015625)"/>
      <path id="DejaVuSans-Bold-3a" d="M 716 3500 
L 1844 3500 
L 1844 2291 
L 716 2291 
L 716 3500 
z
M 716 1209 
L 1844 1209 
L 1844 0 
L 716 0 
L 716 1209 
z
" transform="scale(0.015625)"/>
      <path id="DejaVuSans-Bold-20" transform="scale(0.015625)"/>
      <path id="DejaVuSans-Bold-54" d="M 31 4666 
L 4331 4666 
L 4331 3756 
L 2784 3756 
L 2784 0 
L 1581 0 
L 1581 3756 
L 31 3756 
L 31 4666 
z
" transform="scale(0.015625)"/>
      <path id="DejaVuSans-Bold-72" d="M 3138 2547 
Q 2991 2616 2845 2648 
Q 2700 2681 2553 2681 
Q 2122 2681 1889 2404 
Q 1656 2128 1656 1613 
L 1656 0 
L 538 0 
L 538 3500 
L 1656 3500 
L 1656 2925 
Q 1872 3269 2151 3426 
Q 2431 3584 2822 3584 
Q 2878 3584 2943 3579 
Q 3009 3575 3134 3559 
L 3138 2547 
z
" transform="scale(0.015625)"/>
      <path id="DejaVuSans-Bold-63" d="M 3366 3391 
L 3366 2478 
Q 3138 2634 2908 2709 
Q 2678 2784 2431 2784 
Q 1963 2784 1702 2511 
Q 1441 2238 1441 1747 
Q 1441 1256 1702 982 
Q 1963 709 2431 709 
Q 2694 709 2930 787 
Q 3166 866 3366 1019 
L 3366 103 
Q 3103 6 2833 -42 
Q 2563 -91 2291 -91 
Q 1344 -91 809 395 
Q 275 881 275 1747 
Q 275 2613 809 3098 
Q 1344 3584 2291 3584 
Q 2566 3584 2833 3536 
Q 3100 3488 3366 3391 
z
" transform="scale(0.015625)"/>
      <path id="DejaVuSans-Bold-68" d="M 4056 2131 
L 4056 0 
L 2931 0 
L 2931 347 
L 2931 1625 
Q 2931 2084 2911 2256 
Q 2891 2428 2841 2509 
Q 2775 2619 2662 2680 
Q 2550 2741 2406 2741 
Q 2056 2741 1856 2470 
Q 1656 2200 1656 1722 
L 1656 0 
L 538 0 
L 538 4863 
L 1656 4863 
L 1656 2988 
Q 1909 3294 2193 3439 
Q 2478 3584 2822 3584 
Q 3428 3584 3742 3212 
Q 4056 2841 4056 2131 
z
" transform="scale(0.015625)"/>
      <path id="DejaVuSans-Bold-69" d="M 538 3500 
L 1656 3500 
L 1656 0 
L 538 0 
L 538 3500 
z
M 538 4863 
L 1656 4863 
L 1656 3950 
L 538 3950 
L 538 4863 
z
" transform="scale(0.015625)"/>
      <path id="DejaVuSans-Bold-74" d="M 1759 4494 
L 1759 3500 
L 2913 3500 
L 2913 2700 
L 1759 2700 
L 1759 1216 
Q 1759 972 1856 886 
Q 1953 800 2241 800 
L 2816 800 
L 2816 0 
L 1856 0 
Q 1194 0 917 276 
Q 641 553 641 1216 
L 641 2700 
L 84 2700 
L 84 3500 
L 641 3500 
L 641 4494 
L 1759 4494 
z
" transform="scale(0.015625)"/>
      <path id="DejaVuSans-Bold-65" d="M 4031 1759 
L 4031 1441 
L 1416 1441 
Q 1456 1047 1700 850 
Q 1944 653 2381 653 
Q 2734 653 3104 758 
Q 3475 863 3866 1075 
L 3866 213 
Q 3469 63 3072 -14 
Q 2675 -91 2278 -91 
Q 1328 -91 801 392 
Q 275 875 275 1747 
Q 275 2603 792 3093 
Q 1309 3584 2216 3584 
Q 3041 3584 3536 3087 
Q 4031 2591 4031 1759 
z
M 2881 2131 
Q 2881 2450 2695 2645 
Q 2509 2841 2209 2841 
Q 1884 2841 1681 2658 
Q 1478 2475 1428 2131 
L 2881 2131 
z
" transform="scale(0.015625)"/>
      <path id="DejaVuSans-Bold-75" d="M 500 1363 
L 500 3500 
L 1625 3500 
L 1625 3150 
Q 1625 2866 1622 2436 
Q 1619 2006 1619 1863 
Q 1619 1441 1641 1255 
Q 1663 1069 1716 984 
Q 1784 875 1895 815 
Q 2006 756 2150 756 
Q 2500 756 2700 1025 
Q 2900 1294 2900 1772 
L 2900 3500 
L 4019 3500 
L 4019 0 
L 2900 0 
L 2900 506 
Q 2647 200 2364 54 
Q 2081 -91 1741 -91 
Q 1134 -91 817 281 
Q 500 653 500 1363 
z
" transform="scale(0.015625)"/>
      <path id="DejaVuSans-Bold-6f" d="M 2203 2784 
Q 1831 2784 1636 2517 
Q 1441 2250 1441 1747 
Q 1441 1244 1636 976 
Q 1831 709 2203 709 
Q 2569 709 2762 976 
Q 2956 1244 2956 1747 
Q 2956 2250 2762 2517 
Q 2569 2784 2203 2784 
z
M 2203 3584 
Q 3106 3584 3614 3096 
Q 4122 2609 4122 1747 
Q 4122 884 3614 396 
Q 3106 -91 2203 -91 
Q 1297 -91 786 396 
Q 275 884 275 1747 
Q 275 2609 786 3096 
Q 1297 3584 2203 3584 
z
" transform="scale(0.015625)"/>
      <path id="DejaVuSans-Bold-66" d="M 2841 4863 
L 2841 4128 
L 2222 4128 
Q 1984 4128 1890 4042 
Q 1797 3956 1797 3744 
L 1797 3500 
L 2753 3500 
L 2753 2700 
L 1797 2700 
L 1797 0 
L 678 0 
L 678 2700 
L 122 2700 
L 122 3500 
L 678 3500 
L 678 3744 
Q 678 4316 997 4589 
Q 1316 4863 1984 4863 
L 2841 4863 
z
" transform="scale(0.015625)"/>
      <path id="DejaVuSans-Bold-6e" d="M 4056 2131 
L 4056 0 
L 2931 0 
L 2931 347 
L 2931 1631 
Q 2931 2084 2911 2256 
Q 2891 2428 2841 2509 
Q 2775 2619 2662 2680 
Q 2550 2741 2406 2741 
Q 2056 2741 1856 2470 
Q 1656 2200 1656 1722 
L 1656 0 
L 538 0 
L 538 3500 
L 1656 3500 
L 1656 2988 
Q 1909 3294 2193 3439 
Q 2478 3584 2822 3584 
Q 3428 3584 3742 3212 
Q 4056 2841 4056 2131 
z
" transform="scale(0.015625)"/>
      <path id="DejaVuSans-Bold-73" d="M 3272 3391 
L 3272 2541 
Q 2913 2691 2578 2766 
Q 2244 2841 1947 2841 
Q 1628 2841 1473 2761 
Q 1319 2681 1319 2516 
Q 1319 2381 1436 2309 
Q 1553 2238 1856 2203 
L 2053 2175 
Q 2913 2066 3209 1816 
Q 3506 1566 3506 1031 
Q 3506 472 3093 190 
Q 2681 -91 1863 -91 
Q 1516 -91 1145 -36 
Q 775 19 384 128 
L 384 978 
Q 719 816 1070 734 
Q 1422 653 1784 653 
Q 2113 653 2278 743 
Q 2444 834 2444 1013 
Q 2444 1163 2330 1236 
Q 2216 1309 1875 1350 
L 1678 1375 
Q 931 1469 631 1722 
Q 331 1975 331 2491 
Q 331 3047 712 3315 
Q 1094 3584 1881 3584 
Q 2191 3584 2531 3537 
Q 2872 3491 3272 3391 
z
" transform="scale(0.015625)"/>
      <path id="DejaVuSans-Bold-61" d="M 2106 1575 
Q 1756 1575 1579 1456 
Q 1403 1338 1403 1106 
Q 1403 894 1545 773 
Q 1688 653 1941 653 
Q 2256 653 2472 879 
Q 2688 1106 2688 1447 
L 2688 1575 
L 2106 1575 
z
M 3816 1997 
L 3816 0 
L 2688 0 
L 2688 519 
Q 2463 200 2181 54 
Q 1900 -91 1497 -91 
Q 953 -91 614 226 
Q 275 544 275 1050 
Q 275 1666 698 1953 
Q 1122 2241 2028 2241 
L 2688 2241 
L 2688 2328 
Q 2688 2594 2478 2717 
Q 2269 2841 1825 2841 
Q 1466 2841 1156 2769 
Q 847 2697 581 2553 
L 581 3406 
Q 941 3494 1303 3539 
Q 1666 3584 2028 3584 
Q 2975 3584 3395 3211 
Q 3816 2838 3816 1997 
z
" transform="scale(0.015625)"/>
      <path id="DejaVuSans-Bold-64" d="M 2919 2988 
L 2919 4863 
L 4044 4863 
L 4044 0 
L 2919 0 
L 2919 506 
Q 2688 197 2409 53 
Q 2131 -91 1766 -91 
Q 1119 -91 703 423 
Q 288 938 288 1747 
Q 288 2556 703 3070 
Q 1119 3584 1766 3584 
Q 2128 3584 2408 3439 
Q 2688 3294 2919 2988 
z
M 2181 722 
Q 2541 722 2730 984 
Q 2919 1247 2919 1747 
Q 2919 2247 2730 2509 
Q 2541 2772 2181 2772 
Q 1825 2772 1636 2509 
Q 1447 2247 1447 1747 
Q 1447 1247 1636 984 
Q 1825 722 2181 722 
z
" transform="scale(0.015625)"/>
      <path id="DejaVuSans-Bold-70" d="M 1656 506 
L 1656 -1331 
L 538 -1331 
L 538 3500 
L 1656 3500 
L 1656 2988 
Q 1888 3294 2169 3439 
Q 2450 3584 2816 3584 
Q 3463 3584 3878 3070 
Q 4294 2556 4294 1747 
Q 4294 938 3878 423 
Q 3463 -91 2816 -91 
Q 2450 -91 2169 54 
Q 1888 200 1656 506 
z
M 2400 2772 
Q 2041 2772 1848 2508 
Q 1656 2244 1656 1747 
Q 1656 1250 1848 986 
Q 2041 722 2400 722 
Q 2759 722 2948 984 
Q 3138 1247 3138 1747 
Q 3138 2247 2948 2509 
Q 2759 2772 2400 2772 
z
" transform="scale(0.015625)"/>
     </defs>
     <use xlink:href="#DejaVuSans-Bold-44"/>
     <use xlink:href="#DejaVuSans-Bold-41" transform="translate(83.007812 0)"/>
     <use xlink:href="#DejaVuSans-Bold-53" transform="translate(160.400391 0)"/>
     <use xlink:href="#DejaVuSans-Bold-41" transform="translate(232.421875 0)"/>
     <use xlink:href="#DejaVuSans-Bold-3a" transform="translate(311.689453 0)"/>
     <use xlink:href="#DejaVuSans-Bold-20" transform="translate(351.679688 0)"/>
     <use xlink:href="#DejaVuSans-Bold-54" transform="translate(386.494141 0)"/>
     <use xlink:href="#DejaVuSans-Bold-41" transform="translate(446.957031 0)"/>
     <use xlink:href="#DejaVuSans-Bold-53" transform="translate(524.349609 0)"/>
     <use xlink:href="#DejaVuSans-Bold-20" transform="translate(596.371094 0)"/>
     <use xlink:href="#DejaVuSans-Bold-41" transform="translate(631.185547 0)"/>
     <use xlink:href="#DejaVuSans-Bold-72" transform="translate(708.578125 0)"/>
     <use xlink:href="#DejaVuSans-Bold-63" transform="translate(757.894531 0)"/>
     <use xlink:href="#DejaVuSans-Bold-68" transform="translate(817.171875 0)"/>
     <use xlink:href="#DejaVuSans-Bold-69" transform="translate(888.363281 0)"/>
     <use xlink:href="#DejaVuSans-Bold-74" transform="translate(922.640625 0)"/>
     <use xlink:href="#DejaVuSans-Bold-65" transform="translate(970.443359 0)"/>
     <use xlink:href="#DejaVuSans-Bold-63" transform="translate(1038.265625 0)"/>
     <use xlink:href="#DejaVuSans-Bold-74" transform="translate(1097.542969 0)"/>
     <use xlink:href="#DejaVuSans-Bold-75" transform="translate(1145.345703 0)"/>
     <use xlink:href="#DejaVuSans-Bold-72" transform="translate(1216.537109 0)"/>
     <use xlink:href="#DejaVuSans-Bold-65" transform="translate(1265.853516 0)"/>
     <use xlink:href="#DejaVuSans-Bold-20" transform="translate(1333.675781 0)"/>
     <use xlink:href="#DejaVuSans-Bold-63" transform="translate(1368.490234 0)"/>
     <use xlink:href="#DejaVuSans-Bold-6f" transform="translate(1427.767578 0)"/>
     <use xlink:href="#DejaVuSans-Bold-65" transform="translate(1496.46875 0)"/>
     <use xlink:href="#DejaVuSans-Bold-66" transform="translate(1564.291016 0)"/>
     <use xlink:href="#DejaVuSans-Bold-66" transform="translate(1607.796875 0)"/>
     <use xlink:href="#DejaVuSans-Bold-69" transform="translate(1651.302734 0)"/>
     <use xlink:href="#DejaVuSans-Bold-63" transform="translate(1685.580078 0)"/>
     <use xlink:href="#DejaVuSans-Bold-69" transform="translate(1744.857422 0)"/>
     <use xlink:href="#DejaVuSans-Bold-65" transform="translate(1779.134766 0)"/>
     <use xlink:href="#DejaVuSans-Bold-6e" transform="translate(1846.957031 0)"/>
     <use xlink:href="#DejaVuSans-Bold-74" transform="translate(1918.148438 0)"/>
     <use xlink:href="#DejaVuSans-Bold-73" transform="translate(1965.951172 0)"/>
     <use xlink:href="#DejaVuSans-Bold-20" transform="translate(2025.472656 0)"/>
     <use xlink:href="#DejaVuSans-Bold-61" transform="translate(2060.287109 0)"/>
     <use xlink:href="#DejaVuSans-Bold-63" transform="translate(2127.767578 0)"/>
     <use xlink:href="#DejaVuSans-Bold-72" transform="translate(2187.044922 0)"/>
     <use xlink:href="#DejaVuSans-Bold-6f" transform="translate(2236.361328 0)"/>
     <use xlink:href="#DejaVuSans-Bold-73" transform="translate(2305.0625 0)"/>
     <use xlink:href="#DejaVuSans-Bold-73" transform="translate(2364.583984 0)"/>
     <use xlink:href="#DejaVuSans-Bold-20" transform="translate(2424.105469 0)"/>
     <use xlink:href="#DejaVuSans-Bold-61" transform="translate(2458.919922 0)"/>
     <use xlink:href="#DejaVuSans-Bold-64" transform="translate(2526.400391 0)"/>
     <use xlink:href="#DejaVuSans-Bold-61" transform="translate(2597.982422 0)"/>
     <use xlink:href="#DejaVuSans-Bold-70" transform="translate(2665.462891 0)"/>
     <use xlink:href="#DejaVuSans-Bold-74" transform="translate(2737.044922 0)"/>
     <use xlink:href="#DejaVuSans-Bold-61" transform="translate(2784.847656 0)"/>
     <use xlink:href="#DejaVuSans-Bold-74" transform="translate(2852.328125 0)"/>
     <use xlink:href="#DejaVuSans-Bold-69" transform="translate(2900.130859 0)"/>
     <use xlink:href="#DejaVuSans-Bold-6f" transform="translate(2934.408203 0)"/>
     <use xlink:href="#DejaVuSans-Bold-6e" transform="translate(3003.109375 0)"/>
     <use xlink:href="#DejaVuSans-Bold-73" transform="translate(3074.300781 0)"/>
    </g>
   </g>
  </g>
  <g id="axes_2">
   <g id="patch_2">
    <path d="M 45.716875 554.413333 
L 826.916875 554.413333 
L 826.916875 100.626667 
L 45.716875 100.626667 
z
" style="fill: #ffffff"/>
   </g>
   <g id="patch_3">
    <path d="M 81.225966 554.413333 
L 110.694091 554.413333 
L 110.694091 548.279746 
L 81.225966 548.279746 
z
" clip-path="url(#p4deb982cb9)" style="fill: #ff0000; opacity: 0.85; stroke: #000000; stroke-width: 0.5; stroke-linejoin: miter"/>
   </g>
   <g id="patch_4">
    <path d="M 272.76878 554.413333 
L 302.236905 554.413333 
L 302.236905 550.505498 
L 272.76878 550.505498 
z
" clip-path="url(#p4deb982cb9)" style="fill: #ff0000; opacity: 0.85; stroke: #000000; stroke-width: 0.5; stroke-linejoin: miter"/>
   </g>
   <g id="patch_5">
    <path d="M 464.311594 554.413333 
L 493.779719 554.413333 
L 493.779719 226.470825 
L 464.311594 226.470825 
z
" clip-path="url(#p4deb982cb9)" style="fill: #ff0000; opacity: 0.85; stroke: #000000; stroke-width: 0.5; stroke-linejoin: miter"/>
   </g>
   <g id="patch_6">
    <path d="M 655.854408 554.413333 
L 685.322533 554.413333 
L 685.322533 548.279746 
L 655.854408 548.279746 
z
" clip-path="url(#p4deb982cb9)" style="fill: #ff0000; opacity: 0.85; stroke: #000000; stroke-width: 0.5; stroke-linejoin: miter"/>
   </g>
   <g id="patch_7">
    <path d="M 116.587716 554.413333 
L 146.055841 554.413333 
L 146.055841 535.214316 
L 116.587716 535.214316 
z
" clip-path="url(#p4deb982cb9)" style="fill: #d4dd80; opacity: 0.85; stroke: #000000; stroke-width: 0.5; stroke-linejoin: miter"/>
   </g>
   <g id="patch_8">
    <path d="M 308.13053 554.413333 
L 337.598655 554.413333 
L 337.598655 550.684742 
L 308.13053 550.684742 
z
" clip-path="url(#p4deb982cb9)" style="fill: #d4dd80; opacity: 0.85; stroke: #000000; stroke-width: 0.5; stroke-linejoin: miter"/>
   </g>
   <g id="patch_9">
    <path d="M 499.673344 554.413333 
L 529.141469 554.413333 
L 529.141469 221.968889 
L 499.673344 221.968889 
z
" clip-path="url(#p4deb982cb9)" style="fill: #d4dd80; opacity: 0.85; stroke: #000000; stroke-width: 0.5; stroke-linejoin: miter"/>
   </g>
   <g id="patch_10">
    <path d="M 691.216158 554.413333 
L 720.684284 554.413333 
L 720.684284 535.214316 
L 691.216158 535.214316 
z
" clip-path="url(#p4deb982cb9)" style="fill: #d4dd80; opacity: 0.85; stroke: #000000; stroke-width: 0.5; stroke-linejoin: miter"/>
   </g>
   <g id="patch_11">
    <path d="M 151.949466 554.413333 
L 181.417592 554.413333 
L 181.417592 548.899906 
L 151.949466 548.899906 
z
" clip-path="url(#p4deb982cb9)" style="fill: #2adddd; opacity: 0.85; stroke: #000000; stroke-width: 0.5; stroke-linejoin: miter"/>
   </g>
   <g id="patch_12">
    <path d="M 343.492281 554.413333 
L 372.960406 554.413333 
L 372.960406 550.878726 
L 343.492281 550.878726 
z
" clip-path="url(#p4deb982cb9)" style="fill: #2adddd; opacity: 0.85; stroke: #000000; stroke-width: 0.5; stroke-linejoin: miter"/>
   </g>
   <g id="patch_13">
    <path d="M 535.035095 554.413333 
L 564.50322 554.413333 
L 564.50322 230.247506 
L 535.035095 230.247506 
z
" clip-path="url(#p4deb982cb9)" style="fill: #2adddd; opacity: 0.85; stroke: #000000; stroke-width: 0.5; stroke-linejoin: miter"/>
   </g>
   <g id="patch_14">
    <path d="M 726.577909 554.413333 
L 756.046034 554.413333 
L 756.046034 548.899906 
L 726.577909 548.899906 
z
" clip-path="url(#p4deb982cb9)" style="fill: #2adddd; opacity: 0.85; stroke: #000000; stroke-width: 0.5; stroke-linejoin: miter"/>
   </g>
   <g id="patch_15">
    <path d="M 187.311217 554.413333 
L 216.779342 554.413333 
L 216.779342 548.899906 
L 187.311217 548.899906 
z
" clip-path="url(#p4deb982cb9)" style="fill: #8000ff; opacity: 0.85; stroke: #000000; stroke-width: 0.5; stroke-linejoin: miter"/>
   </g>
   <g id="patch_16">
    <path d="M 378.854031 554.413333 
L 408.322156 554.413333 
L 408.322156 550.878726 
L 378.854031 550.878726 
z
" clip-path="url(#p4deb982cb9)" style="fill: #8000ff; opacity: 0.85; stroke: #000000; stroke-width: 0.5; stroke-linejoin: miter"/>
   </g>
   <g id="patch_17">
    <path d="M 570.396845 554.413333 
L 599.86497 554.413333 
L 599.86497 230.247506 
L 570.396845 230.247506 
z
" clip-path="url(#p4deb982cb9)" style="fill: #8000ff; opacity: 0.85; stroke: #000000; stroke-width: 0.5; stroke-linejoin: miter"/>
   </g>
   <g id="patch_18">
    <path d="M 761.939659 554.413333 
L 791.407784 554.413333 
L 791.407784 548.899906 
L 761.939659 548.899906 
z
" clip-path="url(#p4deb982cb9)" style="fill: #8000ff; opacity: 0.85; stroke: #000000; stroke-width: 0.5; stroke-linejoin: miter"/>
   </g>
   <g id="matplotlib.axis_1">
    <g id="xtick_1">
     <g id="line2d_1">
      <defs>
       <path id="m6ea15d85f3" d="M 0 0 
L 0 3.5 
" style="stroke: #010101; stroke-width: 0.8"/>
      </defs>
      <g>
       <use xlink:href="#m6ea15d85f3" x="149.002654" y="554.413333" style="fill: #010101; stroke: #010101; stroke-width: 0.8"/>
      </g>
     </g>
     <g id="text_2">
      <!-- $\mathbf{\theta}$ -->
      <g style="fill: #010101" transform="translate(141.987235 571.443773) rotate(-30) scale(0.1 -0.1)">
       <defs>
        <path id="DejaVuSans-Bold-3b8" d="M 1447 2081 
Q 1469 1444 1638 1181 
Q 1922 728 2197 725 
Q 2475 722 2763 1181 
Q 2931 1453 2953 2081 
L 1447 2081 
z
M 2950 2881 
Q 2913 3394 2759 3688 
Q 2522 4144 2200 4144 
Q 1875 4144 1641 3688 
Q 1484 3384 1450 2881 
L 2950 2881 
z
M 2200 4913 
Q 3247 4913 3686 4231 
Q 4125 3550 4125 2403 
Q 4125 1256 3673 592 
Q 3222 -72 2200 -72 
Q 1178 -72 726 592 
Q 275 1256 275 2403 
Q 275 3550 714 4231 
Q 1153 4913 2200 4913 
z
" transform="scale(0.015625)"/>
       </defs>
       <use xlink:href="#DejaVuSans-Bold-3b8" transform="translate(0 0.234375)"/>
      </g>
     </g>
    </g>
    <g id="xtick_2">
     <g id="line2d_2">
      <g>
       <use xlink:href="#m6ea15d85f3" x="340.545468" y="554.413333" style="fill: #010101; stroke: #010101; stroke-width: 0.8"/>
      </g>
     </g>
     <g id="text_3">
      <!-- $\mathbf{\sigma}$ -->
      <g style="fill: #010101" transform="translate(332.750626 571.893773) rotate(-30) scale(0.1 -0.1)">
       <defs>
        <path id="DejaVuSans-Bold-3c3" d="M 2200 2784 
Q 1831 2784 1636 2517 
Q 1441 2250 1441 1747 
Q 1441 1244 1636 976 
Q 1831 709 2200 709 
Q 2569 709 2762 976 
Q 2956 1244 2956 1747 
Q 2956 2250 2762 2517 
Q 2569 2784 2200 2784 
z
M 4650 2700 
L 3916 2700 
Q 4122 2291 4122 1747 
Q 4122 884 3614 396 
Q 3106 -91 2203 -91 
Q 1297 -91 786 396 
Q 275 884 275 1747 
Q 275 2609 788 3097 
Q 1209 3500 2203 3500 
L 4650 3500 
L 4650 2700 
z
" transform="scale(0.015625)"/>
       </defs>
       <use xlink:href="#DejaVuSans-Bold-3c3" transform="translate(0 0.3125)"/>
      </g>
     </g>
    </g>
    <g id="xtick_3">
     <g id="line2d_3">
      <g>
       <use xlink:href="#m6ea15d85f3" x="532.088282" y="554.413333" style="fill: #010101; stroke: #010101; stroke-width: 0.8"/>
      </g>
     </g>
     <g id="text_4">
      <!-- $\mathbf{\eta}$ -->
      <g style="fill: #010101" transform="translate(524.802899 571.576182) rotate(-30) scale(0.1 -0.1)">
       <defs>
        <path id="DejaVuSans-Bold-3b7" d="M 4056 2131 
L 4056 -1331 
L 2931 -1331 
L 2931 347 
L 2931 1631 
Q 2931 2084 2911 2256 
Q 2891 2428 2841 2509 
Q 2775 2619 2662 2680 
Q 2550 2741 2406 2741 
Q 2056 2741 1856 2470 
Q 1656 2200 1656 1722 
L 1656 0 
L 538 0 
L 538 3500 
L 1656 3500 
L 1656 2988 
Q 1909 3294 2193 3439 
Q 2478 3584 2822 3584 
Q 3428 3584 3742 3212 
Q 4056 2841 4056 2131 
z
" transform="scale(0.015625)"/>
       </defs>
       <use xlink:href="#DejaVuSans-Bold-3b7"/>
      </g>
     </g>
    </g>
    <g id="xtick_4">
     <g id="line2d_4">
      <g>
       <use xlink:href="#m6ea15d85f3" x="723.631096" y="554.413333" style="fill: #010101; stroke: #010101; stroke-width: 0.8"/>
      </g>
     </g>
     <g id="text_5">
      <!-- $\mathbf{\phi}$ -->
      <g style="fill: #010101" transform="translate(715.652893 571.995126) rotate(-30) scale(0.1 -0.1)">
       <defs>
        <path id="DejaVuSans-Bold-3d5" d="M 3081 2709 
L 3081 831 
L 3275 975 
Q 3544 1178 3544 1747 
Q 3544 2234 3275 2575 
Q 3169 2709 3081 2709 
z
M 3081 -75 
L 3081 -1331 
L 1969 -1331 
L 1969 -75 
Q 1303 22 913 400 
Q 384 906 384 1747 
Q 384 2550 813 3097 
Q 1125 3488 1969 3566 
L 1969 4863 
L 3081 4863 
L 3081 3566 
Q 3925 3488 4238 3097 
Q 4666 2550 4666 1747 
Q 4666 906 4138 400 
Q 3747 22 3081 -75 
z
M 1969 831 
L 1969 2709 
Q 1881 2709 1775 2575 
Q 1506 2234 1506 1747 
Q 1506 1178 1775 975 
L 1969 831 
z
" transform="scale(0.015625)"/>
       </defs>
       <use xlink:href="#DejaVuSans-Bold-3d5" transform="translate(0 0.015625)"/>
      </g>
     </g>
    </g>
   </g>
   <g id="matplotlib.axis_2">
    <g id="ytick_1">
     <g id="line2d_5">
      <path d="M 45.716875 554.413333 
L 826.916875 554.413333 
" clip-path="url(#p4deb982cb9)" style="fill: none; stroke-dasharray: 2.96,1.28; stroke-dashoffset: 0; stroke: #555555; stroke-opacity: 0.7; stroke-width: 0.8"/>
     </g>
     <g id="line2d_6">
      <defs>
       <path id="mae3b58dcfa" d="M 0 0 
L -3.5 0 
" style="stroke: #010101; stroke-width: 0.8"/>
      </defs>
      <g>
       <use xlink:href="#mae3b58dcfa" x="45.716875" y="554.413333" style="fill: #010101; stroke: #010101; stroke-width: 0.8"/>
      </g>
     </g>
     <g id="text_6">
      <!-- 0.0 -->
      <g style="fill: #010101" transform="translate(22.81375 558.212552) scale(0.1 -0.1)">
       <defs>
        <path id="DejaVuSans-30" d="M 2034 4250 
Q 1547 4250 1301 3770 
Q 1056 3291 1056 2328 
Q 1056 1369 1301 889 
Q 1547 409 2034 409 
Q 2525 409 2770 889 
Q 3016 1369 3016 2328 
Q 3016 3291 2770 3770 
Q 2525 4250 2034 4250 
z
M 2034 4750 
Q 2819 4750 3233 4129 
Q 3647 3509 3647 2328 
Q 3647 1150 3233 529 
Q 2819 -91 2034 -91 
Q 1250 -91 836 529 
Q 422 1150 422 2328 
Q 422 3509 836 4129 
Q 1250 4750 2034 4750 
z
" transform="scale(0.015625)"/>
        <path id="DejaVuSans-2e" d="M 684 794 
L 1344 794 
L 1344 0 
L 684 0 
L 684 794 
z
" transform="scale(0.015625)"/>
       </defs>
       <use xlink:href="#DejaVuSans-30"/>
       <use xlink:href="#DejaVuSans-2e" transform="translate(63.623047 0)"/>
       <use xlink:href="#DejaVuSans-30" transform="translate(95.410156 0)"/>
      </g>
     </g>
    </g>
    <g id="ytick_2">
     <g id="line2d_7">
      <path d="M 45.716875 497.355034 
L 826.916875 497.355034 
" clip-path="url(#p4deb982cb9)" style="fill: none; stroke-dasharray: 2.96,1.28; stroke-dashoffset: 0; stroke: #555555; stroke-opacity: 0.7; stroke-width: 0.8"/>
     </g>
     <g id="line2d_8">
      <g>
       <use xlink:href="#mae3b58dcfa" x="45.716875" y="497.355034" style="fill: #010101; stroke: #010101; stroke-width: 0.8"/>
      </g>
     </g>
     <g id="text_7">
      <!-- 0.5 -->
      <g style="fill: #010101" transform="translate(22.81375 501.154253) scale(0.1 -0.1)">
       <defs>
        <path id="DejaVuSans-35" d="M 691 4666 
L 3169 4666 
L 3169 4134 
L 1269 4134 
L 1269 2991 
Q 1406 3038 1543 3061 
Q 1681 3084 1819 3084 
Q 2600 3084 3056 2656 
Q 3513 2228 3513 1497 
Q 3513 744 3044 326 
Q 2575 -91 1722 -91 
Q 1428 -91 1123 -41 
Q 819 9 494 109 
L 494 744 
Q 775 591 1075 516 
Q 1375 441 1709 441 
Q 2250 441 2565 725 
Q 2881 1009 2881 1497 
Q 2881 1984 2565 2268 
Q 2250 2553 1709 2553 
Q 1456 2553 1204 2497 
Q 953 2441 691 2322 
L 691 4666 
z
" transform="scale(0.015625)"/>
       </defs>
       <use xlink:href="#DejaVuSans-30"/>
       <use xlink:href="#DejaVuSans-2e" transform="translate(63.623047 0)"/>
       <use xlink:href="#DejaVuSans-35" transform="translate(95.410156 0)"/>
      </g>
     </g>
    </g>
    <g id="ytick_3">
     <g id="line2d_9">
      <path d="M 45.716875 440.296735 
L 826.916875 440.296735 
" clip-path="url(#p4deb982cb9)" style="fill: none; stroke-dasharray: 2.96,1.28; stroke-dashoffset: 0; stroke: #555555; stroke-opacity: 0.7; stroke-width: 0.8"/>
     </g>
     <g id="line2d_10">
      <g>
       <use xlink:href="#mae3b58dcfa" x="45.716875" y="440.296735" style="fill: #010101; stroke: #010101; stroke-width: 0.8"/>
      </g>
     </g>
     <g id="text_8">
      <!-- 1.0 -->
      <g style="fill: #010101" transform="translate(22.81375 444.095954) scale(0.1 -0.1)">
       <defs>
        <path id="DejaVuSans-31" d="M 794 531 
L 1825 531 
L 1825 4091 
L 703 3866 
L 703 4441 
L 1819 4666 
L 2450 4666 
L 2450 531 
L 3481 531 
L 3481 0 
L 794 0 
L 794 531 
z
" transform="scale(0.015625)"/>
       </defs>
       <use xlink:href="#DejaVuSans-31"/>
       <use xlink:href="#DejaVuSans-2e" transform="translate(63.623047 0)"/>
       <use xlink:href="#DejaVuSans-30" transform="translate(95.410156 0)"/>
      </g>
     </g>
    </g>
    <g id="ytick_4">
     <g id="line2d_11">
      <path d="M 45.716875 383.238436 
L 826.916875 383.238436 
" clip-path="url(#p4deb982cb9)" style="fill: none; stroke-dasharray: 2.96,1.28; stroke-dashoffset: 0; stroke: #555555; stroke-opacity: 0.7; stroke-width: 0.8"/>
     </g>
     <g id="line2d_12">
      <g>
       <use xlink:href="#mae3b58dcfa" x="45.716875" y="383.238436" style="fill: #010101; stroke: #010101; stroke-width: 0.8"/>
      </g>
     </g>
     <g id="text_9">
      <!-- 1.5 -->
      <g style="fill: #010101" transform="translate(22.81375 387.037655) scale(0.1 -0.1)">
       <use xlink:href="#DejaVuSans-31"/>
       <use xlink:href="#DejaVuSans-2e" transform="translate(63.623047 0)"/>
       <use xlink:href="#DejaVuSans-35" transform="translate(95.410156 0)"/>
      </g>
     </g>
    </g>
    <g id="ytick_5">
     <g id="line2d_13">
      <path d="M 45.716875 326.180137 
L 826.916875 326.180137 
" clip-path="url(#p4deb982cb9)" style="fill: none; stroke-dasharray: 2.96,1.28; stroke-dashoffset: 0; stroke: #555555; stroke-opacity: 0.7; stroke-width: 0.8"/>
     </g>
     <g id="line2d_14">
      <g>
       <use xlink:href="#mae3b58dcfa" x="45.716875" y="326.180137" style="fill: #010101; stroke: #010101; stroke-width: 0.8"/>
      </g>
     </g>
     <g id="text_10">
      <!-- 2.0 -->
      <g style="fill: #010101" transform="translate(22.81375 329.979355) scale(0.1 -0.1)">
       <defs>
        <path id="DejaVuSans-32" d="M 1228 531 
L 3431 531 
L 3431 0 
L 469 0 
L 469 531 
Q 828 903 1448 1529 
Q 2069 2156 2228 2338 
Q 2531 2678 2651 2914 
Q 2772 3150 2772 3378 
Q 2772 3750 2511 3984 
Q 2250 4219 1831 4219 
Q 1534 4219 1204 4116 
Q 875 4013 500 3803 
L 500 4441 
Q 881 4594 1212 4672 
Q 1544 4750 1819 4750 
Q 2544 4750 2975 4387 
Q 3406 4025 3406 3419 
Q 3406 3131 3298 2873 
Q 3191 2616 2906 2266 
Q 2828 2175 2409 1742 
Q 1991 1309 1228 531 
z
" transform="scale(0.015625)"/>
       </defs>
       <use xlink:href="#DejaVuSans-32"/>
       <use xlink:href="#DejaVuSans-2e" transform="translate(63.623047 0)"/>
       <use xlink:href="#DejaVuSans-30" transform="translate(95.410156 0)"/>
      </g>
     </g>
    </g>
    <g id="ytick_6">
     <g id="line2d_15">
      <path d="M 45.716875 269.121838 
L 826.916875 269.121838 
" clip-path="url(#p4deb982cb9)" style="fill: none; stroke-dasharray: 2.96,1.28; stroke-dashoffset: 0; stroke: #555555; stroke-opacity: 0.7; stroke-width: 0.8"/>
     </g>
     <g id="line2d_16">
      <g>
       <use xlink:href="#mae3b58dcfa" x="45.716875" y="269.121838" style="fill: #010101; stroke: #010101; stroke-width: 0.8"/>
      </g>
     </g>
     <g id="text_11">
      <!-- 2.5 -->
      <g style="fill: #010101" transform="translate(22.81375 272.921056) scale(0.1 -0.1)">
       <use xlink:href="#DejaVuSans-32"/>
       <use xlink:href="#DejaVuSans-2e" transform="translate(63.623047 0)"/>
       <use xlink:href="#DejaVuSans-35" transform="translate(95.410156 0)"/>
      </g>
     </g>
    </g>
    <g id="ytick_7">
     <g id="line2d_17">
      <path d="M 45.716875 212.063538 
L 826.916875 212.063538 
" clip-path="url(#p4deb982cb9)" style="fill: none; stroke-dasharray: 2.96,1.28; stroke-dashoffset: 0; stroke: #555555; stroke-opacity: 0.7; stroke-width: 0.8"/>
     </g>
     <g id="line2d_18">
      <g>
       <use xlink:href="#mae3b58dcfa" x="45.716875" y="212.063538" style="fill: #010101; stroke: #010101; stroke-width: 0.8"/>
      </g>
     </g>
     <g id="text_12">
      <!-- 3.0 -->
      <g style="fill: #010101" transform="translate(22.81375 215.862757) scale(0.1 -0.1)">
       <defs>
        <path id="DejaVuSans-33" d="M 2597 2516 
Q 3050 2419 3304 2112 
Q 3559 1806 3559 1356 
Q 3559 666 3084 287 
Q 2609 -91 1734 -91 
Q 1441 -91 1130 -33 
Q 819 25 488 141 
L 488 750 
Q 750 597 1062 519 
Q 1375 441 1716 441 
Q 2309 441 2620 675 
Q 2931 909 2931 1356 
Q 2931 1769 2642 2001 
Q 2353 2234 1838 2234 
L 1294 2234 
L 1294 2753 
L 1863 2753 
Q 2328 2753 2575 2939 
Q 2822 3125 2822 3475 
Q 2822 3834 2567 4026 
Q 2313 4219 1838 4219 
Q 1578 4219 1281 4162 
Q 984 4106 628 3988 
L 628 4550 
Q 988 4650 1302 4700 
Q 1616 4750 1894 4750 
Q 2613 4750 3031 4423 
Q 3450 4097 3450 3541 
Q 3450 3153 3228 2886 
Q 3006 2619 2597 2516 
z
" transform="scale(0.015625)"/>
       </defs>
       <use xlink:href="#DejaVuSans-33"/>
       <use xlink:href="#DejaVuSans-2e" transform="translate(63.623047 0)"/>
       <use xlink:href="#DejaVuSans-30" transform="translate(95.410156 0)"/>
      </g>
     </g>
    </g>
    <g id="ytick_8">
     <g id="line2d_19">
      <path d="M 45.716875 155.005239 
L 826.916875 155.005239 
" clip-path="url(#p4deb982cb9)" style="fill: none; stroke-dasharray: 2.96,1.28; stroke-dashoffset: 0; stroke: #555555; stroke-opacity: 0.7; stroke-width: 0.8"/>
     </g>
     <g id="line2d_20">
      <g>
       <use xlink:href="#mae3b58dcfa" x="45.716875" y="155.005239" style="fill: #010101; stroke: #010101; stroke-width: 0.8"/>
      </g>
     </g>
     <g id="text_13">
      <!-- 3.5 -->
      <g style="fill: #010101" transform="translate(22.81375 158.804458) scale(0.1 -0.1)">
       <use xlink:href="#DejaVuSans-33"/>
       <use xlink:href="#DejaVuSans-2e" transform="translate(63.623047 0)"/>
       <use xlink:href="#DejaVuSans-35" transform="translate(95.410156 0)"/>
      </g>
     </g>
    </g>
    <g id="text_14">
     <!-- Value -->
     <g style="fill: #010101" transform="translate(16.318125 346.280312) rotate(-90) scale(0.12 -0.12)">
      <defs>
       <path id="DejaVuSans-Bold-56" d="M 31 4666 
L 1241 4666 
L 2478 1222 
L 3713 4666 
L 4922 4666 
L 3194 0 
L 1759 0 
L 31 4666 
z
" transform="scale(0.015625)"/>
       <path id="DejaVuSans-Bold-6c" d="M 538 4863 
L 1656 4863 
L 1656 0 
L 538 0 
L 538 4863 
z
" transform="scale(0.015625)"/>
      </defs>
      <use xlink:href="#DejaVuSans-Bold-56"/>
      <use xlink:href="#DejaVuSans-Bold-61" transform="translate(71.892578 0)"/>
      <use xlink:href="#DejaVuSans-Bold-6c" transform="translate(139.373047 0)"/>
      <use xlink:href="#DejaVuSans-Bold-75" transform="translate(173.650391 0)"/>
      <use xlink:href="#DejaVuSans-Bold-65" transform="translate(244.841797 0)"/>
     </g>
    </g>
   </g>
   <g id="patch_19">
    <path d="M 45.716875 554.413333 
L 45.716875 100.626667 
" style="fill: none; stroke: #010101; stroke-width: 0.8; stroke-linejoin: miter; stroke-linecap: square"/>
   </g>
   <g id="patch_20">
    <path d="M 826.916875 554.413333 
L 826.916875 100.626667 
" style="fill: none; stroke: #010101; stroke-width: 0.8; stroke-linejoin: miter; stroke-linecap: square"/>
   </g>
   <g id="patch_21">
    <path d="M 45.716875 554.413333 
L 826.916875 554.413333 
" style="fill: none; stroke: #010101; stroke-width: 0.8; stroke-linejoin: miter; stroke-linecap: square"/>
   </g>
   <g id="patch_22">
    <path d="M 45.716875 100.626667 
L 826.916875 100.626667 
" style="fill: none; stroke: #010101; stroke-width: 0.8; stroke-linejoin: miter; stroke-linecap: square"/>
   </g>
   <g id="text_15">
    <g id="patch_23">
     <path d="M 102.799091 547.973067 
L 102.799091 519.344942 
Q 102.799091 517.344942 100.799091 517.344942 
L 91.120966 517.344942 
Q 89.120966 517.344942 89.120966 519.344942 
L 89.120966 547.973067 
Q 89.120966 549.973067 91.120966 549.973067 
L 100.799091 549.973067 
Q 102.799091 549.973067 102.799091 547.973067 
z
" style="fill: #ffffff; opacity: 0.75"/>
    </g>
    <!-- 0.054 -->
    <g style="fill: #010101" transform="translate(98.719404 547.973067) rotate(-90) scale(0.1 -0.1)">
     <defs>
      <path id="DejaVuSans-34" d="M 2419 4116 
L 825 1625 
L 2419 1625 
L 2419 4116 
z
M 2253 4666 
L 3047 4666 
L 3047 1625 
L 3713 1625 
L 3713 1100 
L 3047 1100 
L 3047 0 
L 2419 0 
L 2419 1100 
L 313 1100 
L 313 1709 
L 2253 4666 
z
" transform="scale(0.015625)"/>
     </defs>
     <use xlink:href="#DejaVuSans-30"/>
     <use xlink:href="#DejaVuSans-2e" transform="translate(63.623047 0)"/>
     <use xlink:href="#DejaVuSans-30" transform="translate(95.410156 0)"/>
     <use xlink:href="#DejaVuSans-35" transform="translate(159.033203 0)"/>
     <use xlink:href="#DejaVuSans-34" transform="translate(222.65625 0)"/>
    </g>
   </g>
   <g id="text_16">
    <g id="patch_24">
     <path d="M 294.341905 550.310106 
L 294.341905 521.681981 
Q 294.341905 519.681981 292.341905 519.681981 
L 282.66378 519.681981 
Q 280.66378 519.681981 280.66378 521.681981 
L 280.66378 550.310106 
Q 280.66378 552.310106 282.66378 552.310106 
L 292.341905 552.310106 
Q 294.341905 552.310106 294.341905 550.310106 
z
" style="fill: #ffffff; opacity: 0.75"/>
    </g>
    <!-- 0.034 -->
    <g style="fill: #010101" transform="translate(290.262218 550.310106) rotate(-90) scale(0.1 -0.1)">
     <use xlink:href="#DejaVuSans-30"/>
     <use xlink:href="#DejaVuSans-2e" transform="translate(63.623047 0)"/>
     <use xlink:href="#DejaVuSans-30" transform="translate(95.410156 0)"/>
     <use xlink:href="#DejaVuSans-33" transform="translate(159.033203 0)"/>
     <use xlink:href="#DejaVuSans-34" transform="translate(222.65625 0)"/>
    </g>
   </g>
   <g id="text_17">
    <g id="patch_25">
     <path d="M 485.884719 210.073699 
L 485.884719 187.808074 
Q 485.884719 185.808074 483.884719 185.808074 
L 474.206594 185.808074 
Q 472.206594 185.808074 472.206594 187.808074 
L 472.206594 210.073699 
Q 472.206594 212.073699 474.206594 212.073699 
L 483.884719 212.073699 
Q 485.884719 212.073699 485.884719 210.073699 
z
" style="fill: #ffffff; opacity: 0.75"/>
    </g>
    <!-- 2.87 -->
    <g style="fill: #010101" transform="translate(481.805032 210.073699) rotate(-90) scale(0.1 -0.1)">
     <defs>
      <path id="DejaVuSans-38" d="M 2034 2216 
Q 1584 2216 1326 1975 
Q 1069 1734 1069 1313 
Q 1069 891 1326 650 
Q 1584 409 2034 409 
Q 2484 409 2743 651 
Q 3003 894 3003 1313 
Q 3003 1734 2745 1975 
Q 2488 2216 2034 2216 
z
M 1403 2484 
Q 997 2584 770 2862 
Q 544 3141 544 3541 
Q 544 4100 942 4425 
Q 1341 4750 2034 4750 
Q 2731 4750 3128 4425 
Q 3525 4100 3525 3541 
Q 3525 3141 3298 2862 
Q 3072 2584 2669 2484 
Q 3125 2378 3379 2068 
Q 3634 1759 3634 1313 
Q 3634 634 3220 271 
Q 2806 -91 2034 -91 
Q 1263 -91 848 271 
Q 434 634 434 1313 
Q 434 1759 690 2068 
Q 947 2378 1403 2484 
z
M 1172 3481 
Q 1172 3119 1398 2916 
Q 1625 2713 2034 2713 
Q 2441 2713 2670 2916 
Q 2900 3119 2900 3481 
Q 2900 3844 2670 4047 
Q 2441 4250 2034 4250 
Q 1625 4250 1398 4047 
Q 1172 3844 1172 3481 
z
" transform="scale(0.015625)"/>
      <path id="DejaVuSans-37" d="M 525 4666 
L 3525 4666 
L 3525 4397 
L 1831 0 
L 1172 0 
L 2766 4134 
L 525 4134 
L 525 4666 
z
" transform="scale(0.015625)"/>
     </defs>
     <use xlink:href="#DejaVuSans-32"/>
     <use xlink:href="#DejaVuSans-2e" transform="translate(63.623047 0)"/>
     <use xlink:href="#DejaVuSans-38" transform="translate(95.410156 0)"/>
     <use xlink:href="#DejaVuSans-37" transform="translate(159.033203 0)"/>
    </g>
   </g>
   <g id="text_18">
    <g id="patch_26">
     <path d="M 677.427533 547.973067 
L 677.427533 519.344942 
Q 677.427533 517.344942 675.427533 517.344942 
L 665.749408 517.344942 
Q 663.749408 517.344942 663.749408 519.344942 
L 663.749408 547.973067 
Q 663.749408 549.973067 665.749408 549.973067 
L 675.427533 549.973067 
Q 677.427533 549.973067 677.427533 547.973067 
z
" style="fill: #ffffff; opacity: 0.75"/>
    </g>
    <!-- 0.054 -->
    <g style="fill: #010101" transform="translate(673.347846 547.973067) rotate(-90) scale(0.1 -0.1)">
     <use xlink:href="#DejaVuSans-30"/>
     <use xlink:href="#DejaVuSans-2e" transform="translate(63.623047 0)"/>
     <use xlink:href="#DejaVuSans-30" transform="translate(95.410156 0)"/>
     <use xlink:href="#DejaVuSans-35" transform="translate(159.033203 0)"/>
     <use xlink:href="#DejaVuSans-34" transform="translate(222.65625 0)"/>
    </g>
   </g>
   <g id="text_19">
    <g id="patch_27">
     <path d="M 138.160841 534.254365 
L 138.160841 505.62624 
Q 138.160841 503.62624 136.160841 503.62624 
L 126.482716 503.62624 
Q 124.482716 503.62624 124.482716 505.62624 
L 124.482716 534.254365 
Q 124.482716 536.254365 126.482716 536.254365 
L 136.160841 536.254365 
Q 138.160841 536.254365 138.160841 534.254365 
z
" style="fill: #ffffff; opacity: 0.75"/>
    </g>
    <!-- 0.168 -->
    <g style="fill: #010101" transform="translate(134.081154 534.254365) rotate(-90) scale(0.1 -0.1)">
     <defs>
      <path id="DejaVuSans-36" d="M 2113 2584 
Q 1688 2584 1439 2293 
Q 1191 2003 1191 1497 
Q 1191 994 1439 701 
Q 1688 409 2113 409 
Q 2538 409 2786 701 
Q 3034 994 3034 1497 
Q 3034 2003 2786 2293 
Q 2538 2584 2113 2584 
z
M 3366 4563 
L 3366 3988 
Q 3128 4100 2886 4159 
Q 2644 4219 2406 4219 
Q 1781 4219 1451 3797 
Q 1122 3375 1075 2522 
Q 1259 2794 1537 2939 
Q 1816 3084 2150 3084 
Q 2853 3084 3261 2657 
Q 3669 2231 3669 1497 
Q 3669 778 3244 343 
Q 2819 -91 2113 -91 
Q 1303 -91 875 529 
Q 447 1150 447 2328 
Q 447 3434 972 4092 
Q 1497 4750 2381 4750 
Q 2619 4750 2861 4703 
Q 3103 4656 3366 4563 
z
" transform="scale(0.015625)"/>
     </defs>
     <use xlink:href="#DejaVuSans-30"/>
     <use xlink:href="#DejaVuSans-2e" transform="translate(63.623047 0)"/>
     <use xlink:href="#DejaVuSans-31" transform="translate(95.410156 0)"/>
     <use xlink:href="#DejaVuSans-36" transform="translate(159.033203 0)"/>
     <use xlink:href="#DejaVuSans-38" transform="translate(222.65625 0)"/>
    </g>
   </g>
   <g id="text_20">
    <g id="patch_28">
     <path d="M 329.703655 550.498312 
L 329.703655 521.870187 
Q 329.703655 519.870187 327.703655 519.870187 
L 318.02553 519.870187 
Q 316.02553 519.870187 316.02553 521.870187 
L 316.02553 550.498312 
Q 316.02553 552.498312 318.02553 552.498312 
L 327.703655 552.498312 
Q 329.703655 552.498312 329.703655 550.498312 
z
" style="fill: #ffffff; opacity: 0.75"/>
    </g>
    <!-- 0.033 -->
    <g style="fill: #010101" transform="translate(325.623968 550.498312) rotate(-90) scale(0.1 -0.1)">
     <use xlink:href="#DejaVuSans-30"/>
     <use xlink:href="#DejaVuSans-2e" transform="translate(63.623047 0)"/>
     <use xlink:href="#DejaVuSans-30" transform="translate(95.410156 0)"/>
     <use xlink:href="#DejaVuSans-33" transform="translate(159.033203 0)"/>
     <use xlink:href="#DejaVuSans-33" transform="translate(222.65625 0)"/>
    </g>
   </g>
   <g id="text_21">
    <g id="patch_29">
     <path d="M 521.246469 205.346667 
L 521.246469 183.081042 
Q 521.246469 181.081042 519.246469 181.081042 
L 509.568344 181.081042 
Q 507.568344 181.081042 507.568344 183.081042 
L 507.568344 205.346667 
Q 507.568344 207.346667 509.568344 207.346667 
L 519.246469 207.346667 
Q 521.246469 207.346667 521.246469 205.346667 
z
" style="fill: #ffffff; opacity: 0.75"/>
    </g>
    <!-- 2.91 -->
    <g style="fill: #010101" transform="translate(517.166782 205.346667) rotate(-90) scale(0.1 -0.1)">
     <defs>
      <path id="DejaVuSans-39" d="M 703 97 
L 703 672 
Q 941 559 1184 500 
Q 1428 441 1663 441 
Q 2288 441 2617 861 
Q 2947 1281 2994 2138 
Q 2813 1869 2534 1725 
Q 2256 1581 1919 1581 
Q 1219 1581 811 2004 
Q 403 2428 403 3163 
Q 403 3881 828 4315 
Q 1253 4750 1959 4750 
Q 2769 4750 3195 4129 
Q 3622 3509 3622 2328 
Q 3622 1225 3098 567 
Q 2575 -91 1691 -91 
Q 1453 -91 1209 -44 
Q 966 3 703 97 
z
M 1959 2075 
Q 2384 2075 2632 2365 
Q 2881 2656 2881 3163 
Q 2881 3666 2632 3958 
Q 2384 4250 1959 4250 
Q 1534 4250 1286 3958 
Q 1038 3666 1038 3163 
Q 1038 2656 1286 2365 
Q 1534 2075 1959 2075 
z
" transform="scale(0.015625)"/>
     </defs>
     <use xlink:href="#DejaVuSans-32"/>
     <use xlink:href="#DejaVuSans-2e" transform="translate(63.623047 0)"/>
     <use xlink:href="#DejaVuSans-39" transform="translate(95.410156 0)"/>
     <use xlink:href="#DejaVuSans-31" transform="translate(159.033203 0)"/>
    </g>
   </g>
   <g id="text_22">
    <g id="patch_30">
     <path d="M 712.789283 534.254365 
L 712.789283 505.62624 
Q 712.789283 503.62624 710.789283 503.62624 
L 701.111158 503.62624 
Q 699.111158 503.62624 699.111158 505.62624 
L 699.111158 534.254365 
Q 699.111158 536.254365 701.111158 536.254365 
L 710.789283 536.254365 
Q 712.789283 536.254365 712.789283 534.254365 
z
" style="fill: #ffffff; opacity: 0.75"/>
    </g>
    <!-- 0.168 -->
    <g style="fill: #010101" transform="translate(708.709596 534.254365) rotate(-90) scale(0.1 -0.1)">
     <use xlink:href="#DejaVuSans-30"/>
     <use xlink:href="#DejaVuSans-2e" transform="translate(63.623047 0)"/>
     <use xlink:href="#DejaVuSans-31" transform="translate(95.410156 0)"/>
     <use xlink:href="#DejaVuSans-36" transform="translate(159.033203 0)"/>
     <use xlink:href="#DejaVuSans-38" transform="translate(222.65625 0)"/>
    </g>
   </g>
   <g id="text_23">
    <g id="patch_31">
     <path d="M 173.522592 548.624235 
L 173.522592 519.99611 
Q 173.522592 517.99611 171.522592 517.99611 
L 161.844467 517.99611 
Q 159.844467 517.99611 159.844467 519.99611 
L 159.844467 548.624235 
Q 159.844467 550.624235 161.844467 550.624235 
L 171.522592 550.624235 
Q 173.522592 550.624235 173.522592 548.624235 
z
" style="fill: #ffffff; opacity: 0.75"/>
    </g>
    <!-- 0.048 -->
    <g style="fill: #010101" transform="translate(169.442904 548.624235) rotate(-90) scale(0.1 -0.1)">
     <use xlink:href="#DejaVuSans-30"/>
     <use xlink:href="#DejaVuSans-2e" transform="translate(63.623047 0)"/>
     <use xlink:href="#DejaVuSans-30" transform="translate(95.410156 0)"/>
     <use xlink:href="#DejaVuSans-34" transform="translate(159.033203 0)"/>
     <use xlink:href="#DejaVuSans-38" transform="translate(222.65625 0)"/>
    </g>
   </g>
   <g id="text_24">
    <g id="patch_32">
     <path d="M 365.065406 550.701995 
L 365.065406 522.07387 
Q 365.065406 520.07387 363.065406 520.07387 
L 353.387281 520.07387 
Q 351.387281 520.07387 351.387281 522.07387 
L 351.387281 550.701995 
Q 351.387281 552.701995 353.387281 552.701995 
L 363.065406 552.701995 
Q 365.065406 552.701995 365.065406 550.701995 
z
" style="fill: #ffffff; opacity: 0.75"/>
    </g>
    <!-- 0.031 -->
    <g style="fill: #010101" transform="translate(360.985718 550.701995) rotate(-90) scale(0.1 -0.1)">
     <use xlink:href="#DejaVuSans-30"/>
     <use xlink:href="#DejaVuSans-2e" transform="translate(63.623047 0)"/>
     <use xlink:href="#DejaVuSans-30" transform="translate(95.410156 0)"/>
     <use xlink:href="#DejaVuSans-33" transform="translate(159.033203 0)"/>
     <use xlink:href="#DejaVuSans-31" transform="translate(222.65625 0)"/>
    </g>
   </g>
   <g id="text_25">
    <g id="patch_33">
     <path d="M 556.60822 214.039215 
L 556.60822 191.77359 
Q 556.60822 189.77359 554.60822 189.77359 
L 544.930095 189.77359 
Q 542.930095 189.77359 542.930095 191.77359 
L 542.930095 214.039215 
Q 542.930095 216.039215 544.930095 216.039215 
L 554.60822 216.039215 
Q 556.60822 216.039215 556.60822 214.039215 
z
" style="fill: #ffffff; opacity: 0.75"/>
    </g>
    <!-- 2.84 -->
    <g style="fill: #010101" transform="translate(552.528532 214.039215) rotate(-90) scale(0.1 -0.1)">
     <use xlink:href="#DejaVuSans-32"/>
     <use xlink:href="#DejaVuSans-2e" transform="translate(63.623047 0)"/>
     <use xlink:href="#DejaVuSans-38" transform="translate(95.410156 0)"/>
     <use xlink:href="#DejaVuSans-34" transform="translate(159.033203 0)"/>
    </g>
   </g>
   <g id="text_26">
    <g id="patch_34">
     <path d="M 748.151034 548.624235 
L 748.151034 519.99611 
Q 748.151034 517.99611 746.151034 517.99611 
L 736.472909 517.99611 
Q 734.472909 517.99611 734.472909 519.99611 
L 734.472909 548.624235 
Q 734.472909 550.624235 736.472909 550.624235 
L 746.151034 550.624235 
Q 748.151034 550.624235 748.151034 548.624235 
z
" style="fill: #ffffff; opacity: 0.75"/>
    </g>
    <!-- 0.048 -->
    <g style="fill: #010101" transform="translate(744.071346 548.624235) rotate(-90) scale(0.1 -0.1)">
     <use xlink:href="#DejaVuSans-30"/>
     <use xlink:href="#DejaVuSans-2e" transform="translate(63.623047 0)"/>
     <use xlink:href="#DejaVuSans-30" transform="translate(95.410156 0)"/>
     <use xlink:href="#DejaVuSans-34" transform="translate(159.033203 0)"/>
     <use xlink:href="#DejaVuSans-38" transform="translate(222.65625 0)"/>
    </g>
   </g>
   <g id="text_27">
    <g id="patch_35">
     <path d="M 208.884342 548.624235 
L 208.884342 519.99611 
Q 208.884342 517.99611 206.884342 517.99611 
L 197.206217 517.99611 
Q 195.206217 517.99611 195.206217 519.99611 
L 195.206217 548.624235 
Q 195.206217 550.624235 197.206217 550.624235 
L 206.884342 550.624235 
Q 208.884342 550.624235 208.884342 548.624235 
z
" style="fill: #ffffff; opacity: 0.75"/>
    </g>
    <!-- 0.048 -->
    <g style="fill: #010101" transform="translate(204.804654 548.624235) rotate(-90) scale(0.1 -0.1)">
     <use xlink:href="#DejaVuSans-30"/>
     <use xlink:href="#DejaVuSans-2e" transform="translate(63.623047 0)"/>
     <use xlink:href="#DejaVuSans-30" transform="translate(95.410156 0)"/>
     <use xlink:href="#DejaVuSans-34" transform="translate(159.033203 0)"/>
     <use xlink:href="#DejaVuSans-38" transform="translate(222.65625 0)"/>
    </g>
   </g>
   <g id="text_28">
    <g id="patch_36">
     <path d="M 400.427156 550.701995 
L 400.427156 522.07387 
Q 400.427156 520.07387 398.427156 520.07387 
L 388.749031 520.07387 
Q 386.749031 520.07387 386.749031 522.07387 
L 386.749031 550.701995 
Q 386.749031 552.701995 388.749031 552.701995 
L 398.427156 552.701995 
Q 400.427156 552.701995 400.427156 550.701995 
z
" style="fill: #ffffff; opacity: 0.75"/>
    </g>
    <!-- 0.031 -->
    <g style="fill: #010101" transform="translate(396.347468 550.701995) rotate(-90) scale(0.1 -0.1)">
     <use xlink:href="#DejaVuSans-30"/>
     <use xlink:href="#DejaVuSans-2e" transform="translate(63.623047 0)"/>
     <use xlink:href="#DejaVuSans-30" transform="translate(95.410156 0)"/>
     <use xlink:href="#DejaVuSans-33" transform="translate(159.033203 0)"/>
     <use xlink:href="#DejaVuSans-31" transform="translate(222.65625 0)"/>
    </g>
   </g>
   <g id="text_29">
    <g id="patch_37">
     <path d="M 591.96997 214.039215 
L 591.96997 191.77359 
Q 591.96997 189.77359 589.96997 189.77359 
L 580.291845 189.77359 
Q 578.291845 189.77359 578.291845 191.77359 
L 578.291845 214.039215 
Q 578.291845 216.039215 580.291845 216.039215 
L 589.96997 216.039215 
Q 591.96997 216.039215 591.96997 214.039215 
z
" style="fill: #ffffff; opacity: 0.75"/>
    </g>
    <!-- 2.84 -->
    <g style="fill: #010101" transform="translate(587.890282 214.039215) rotate(-90) scale(0.1 -0.1)">
     <use xlink:href="#DejaVuSans-32"/>
     <use xlink:href="#DejaVuSans-2e" transform="translate(63.623047 0)"/>
     <use xlink:href="#DejaVuSans-38" transform="translate(95.410156 0)"/>
     <use xlink:href="#DejaVuSans-34" transform="translate(159.033203 0)"/>
    </g>
   </g>
   <g id="text_30">
    <g id="patch_38">
     <path d="M 783.512784 548.624235 
L 783.512784 519.99611 
Q 783.512784 517.99611 781.512784 517.99611 
L 771.834659 517.99611 
Q 769.834659 517.99611 769.834659 519.99611 
L 769.834659 548.624235 
Q 769.834659 550.624235 771.834659 550.624235 
L 781.512784 550.624235 
Q 783.512784 550.624235 783.512784 548.624235 
z
" style="fill: #ffffff; opacity: 0.75"/>
    </g>
    <!-- 0.048 -->
    <g style="fill: #010101" transform="translate(779.433096 548.624235) rotate(-90) scale(0.1 -0.1)">
     <use xlink:href="#DejaVuSans-30"/>
     <use xlink:href="#DejaVuSans-2e" transform="translate(63.623047 0)"/>
     <use xlink:href="#DejaVuSans-30" transform="translate(95.410156 0)"/>
     <use xlink:href="#DejaVuSans-34" transform="translate(159.033203 0)"/>
     <use xlink:href="#DejaVuSans-38" transform="translate(222.65625 0)"/>
    </g>
   </g>
  </g>
  <g id="axes_3">
   <g id="legend_1">
    <g id="patch_39">
     <path d="M 54.116875 674.41099 
L 818.516875 674.41099 
Q 820.916875 674.41099 820.916875 672.01099 
L 820.916875 637.015677 
Q 820.916875 634.615677 818.516875 634.615677 
L 54.116875 634.615677 
Q 51.716875 634.615677 51.716875 637.015677 
L 51.716875 672.01099 
Q 51.716875 674.41099 54.116875 674.41099 
z
" style="fill: #ffffff; opacity: 0.9; stroke: #cccccc; stroke-linejoin: miter"/>
    </g>
    <g id="text_31">
     <!-- Scenario -->
     <g style="fill: #010101" transform="translate(408.059141 649.293646) scale(0.13 -0.13)">
      <defs>
       <path id="DejaVuSans-53" d="M 3425 4513 
L 3425 3897 
Q 3066 4069 2747 4153 
Q 2428 4238 2131 4238 
Q 1616 4238 1336 4038 
Q 1056 3838 1056 3469 
Q 1056 3159 1242 3001 
Q 1428 2844 1947 2747 
L 2328 2669 
Q 3034 2534 3370 2195 
Q 3706 1856 3706 1288 
Q 3706 609 3251 259 
Q 2797 -91 1919 -91 
Q 1588 -91 1214 -16 
Q 841 59 441 206 
L 441 856 
Q 825 641 1194 531 
Q 1563 422 1919 422 
Q 2459 422 2753 634 
Q 3047 847 3047 1241 
Q 3047 1584 2836 1778 
Q 2625 1972 2144 2069 
L 1759 2144 
Q 1053 2284 737 2584 
Q 422 2884 422 3419 
Q 422 4038 858 4394 
Q 1294 4750 2059 4750 
Q 2388 4750 2728 4690 
Q 3069 4631 3425 4513 
z
" transform="scale(0.015625)"/>
       <path id="DejaVuSans-63" d="M 3122 3366 
L 3122 2828 
Q 2878 2963 2633 3030 
Q 2388 3097 2138 3097 
Q 1578 3097 1268 2742 
Q 959 2388 959 1747 
Q 959 1106 1268 751 
Q 1578 397 2138 397 
Q 2388 397 2633 464 
Q 2878 531 3122 666 
L 3122 134 
Q 2881 22 2623 -34 
Q 2366 -91 2075 -91 
Q 1284 -91 818 406 
Q 353 903 353 1747 
Q 353 2603 823 3093 
Q 1294 3584 2113 3584 
Q 2378 3584 2631 3529 
Q 2884 3475 3122 3366 
z
" transform="scale(0.015625)"/>
       <path id="DejaVuSans-65" d="M 3597 1894 
L 3597 1613 
L 953 1613 
Q 991 1019 1311 708 
Q 1631 397 2203 397 
Q 2534 397 2845 478 
Q 3156 559 3463 722 
L 3463 178 
Q 3153 47 2828 -22 
Q 2503 -91 2169 -91 
Q 1331 -91 842 396 
Q 353 884 353 1716 
Q 353 2575 817 3079 
Q 1281 3584 2069 3584 
Q 2775 3584 3186 3129 
Q 3597 2675 3597 1894 
z
M 3022 2063 
Q 3016 2534 2758 2815 
Q 2500 3097 2075 3097 
Q 1594 3097 1305 2825 
Q 1016 2553 972 2059 
L 3022 2063 
z
" transform="scale(0.015625)"/>
       <path id="DejaVuSans-6e" d="M 3513 2113 
L 3513 0 
L 2938 0 
L 2938 2094 
Q 2938 2591 2744 2837 
Q 2550 3084 2163 3084 
Q 1697 3084 1428 2787 
Q 1159 2491 1159 1978 
L 1159 0 
L 581 0 
L 581 3500 
L 1159 3500 
L 1159 2956 
Q 1366 3272 1645 3428 
Q 1925 3584 2291 3584 
Q 2894 3584 3203 3211 
Q 3513 2838 3513 2113 
z
" transform="scale(0.015625)"/>
       <path id="DejaVuSans-61" d="M 2194 1759 
Q 1497 1759 1228 1600 
Q 959 1441 959 1056 
Q 959 750 1161 570 
Q 1363 391 1709 391 
Q 2188 391 2477 730 
Q 2766 1069 2766 1631 
L 2766 1759 
L 2194 1759 
z
M 3341 1997 
L 3341 0 
L 2766 0 
L 2766 531 
Q 2569 213 2275 61 
Q 1981 -91 1556 -91 
Q 1019 -91 701 211 
Q 384 513 384 1019 
Q 384 1609 779 1909 
Q 1175 2209 1959 2209 
L 2766 2209 
L 2766 2266 
Q 2766 2663 2505 2880 
Q 2244 3097 1772 3097 
Q 1472 3097 1187 3025 
Q 903 2953 641 2809 
L 641 3341 
Q 956 3463 1253 3523 
Q 1550 3584 1831 3584 
Q 2591 3584 2966 3190 
Q 3341 2797 3341 1997 
z
" transform="scale(0.015625)"/>
       <path id="DejaVuSans-72" d="M 2631 2963 
Q 2534 3019 2420 3045 
Q 2306 3072 2169 3072 
Q 1681 3072 1420 2755 
Q 1159 2438 1159 1844 
L 1159 0 
L 581 0 
L 581 3500 
L 1159 3500 
L 1159 2956 
Q 1341 3275 1631 3429 
Q 1922 3584 2338 3584 
Q 2397 3584 2469 3576 
Q 2541 3569 2628 3553 
L 2631 2963 
z
" transform="scale(0.015625)"/>
       <path id="DejaVuSans-69" d="M 603 3500 
L 1178 3500 
L 1178 0 
L 603 0 
L 603 3500 
z
M 603 4863 
L 1178 4863 
L 1178 4134 
L 603 4134 
L 603 4863 
z
" transform="scale(0.015625)"/>
       <path id="DejaVuSans-6f" d="M 1959 3097 
Q 1497 3097 1228 2736 
Q 959 2375 959 1747 
Q 959 1119 1226 758 
Q 1494 397 1959 397 
Q 2419 397 2687 759 
Q 2956 1122 2956 1747 
Q 2956 2369 2687 2733 
Q 2419 3097 1959 3097 
z
M 1959 3584 
Q 2709 3584 3137 3096 
Q 3566 2609 3566 1747 
Q 3566 888 3137 398 
Q 2709 -91 1959 -91 
Q 1206 -91 779 398 
Q 353 888 353 1747 
Q 353 2609 779 3096 
Q 1206 3584 1959 3584 
z
" transform="scale(0.015625)"/>
      </defs>
      <use xlink:href="#DejaVuSans-53"/>
      <use xlink:href="#DejaVuSans-63" transform="translate(63.476562 0)"/>
      <use xlink:href="#DejaVuSans-65" transform="translate(118.457031 0)"/>
      <use xlink:href="#DejaVuSans-6e" transform="translate(179.980469 0)"/>
      <use xlink:href="#DejaVuSans-61" transform="translate(243.359375 0)"/>
      <use xlink:href="#DejaVuSans-72" transform="translate(304.638672 0)"/>
      <use xlink:href="#DejaVuSans-69" transform="translate(345.751953 0)"/>
      <use xlink:href="#DejaVuSans-6f" transform="translate(373.535156 0)"/>
     </g>
    </g>
    <g id="patch_40">
     <path d="M 56.516875 667.115365 
L 80.516875 667.115365 
L 80.516875 658.715365 
L 56.516875 658.715365 
z
" style="fill: #ff0000; opacity: 0.85; stroke: #000000; stroke-width: 0.5; stroke-linejoin: miter"/>
    </g>
    <g id="text_32">
     <!-- baseline -->
     <g style="fill: #010101" transform="translate(90.116875 667.115365) scale(0.12 -0.12)">
      <defs>
       <path id="DejaVuSans-62" d="M 3116 1747 
Q 3116 2381 2855 2742 
Q 2594 3103 2138 3103 
Q 1681 3103 1420 2742 
Q 1159 2381 1159 1747 
Q 1159 1113 1420 752 
Q 1681 391 2138 391 
Q 2594 391 2855 752 
Q 3116 1113 3116 1747 
z
M 1159 2969 
Q 1341 3281 1617 3432 
Q 1894 3584 2278 3584 
Q 2916 3584 3314 3078 
Q 3713 2572 3713 1747 
Q 3713 922 3314 415 
Q 2916 -91 2278 -91 
Q 1894 -91 1617 61 
Q 1341 213 1159 525 
L 1159 0 
L 581 0 
L 581 4863 
L 1159 4863 
L 1159 2969 
z
" transform="scale(0.015625)"/>
       <path id="DejaVuSans-73" d="M 2834 3397 
L 2834 2853 
Q 2591 2978 2328 3040 
Q 2066 3103 1784 3103 
Q 1356 3103 1142 2972 
Q 928 2841 928 2578 
Q 928 2378 1081 2264 
Q 1234 2150 1697 2047 
L 1894 2003 
Q 2506 1872 2764 1633 
Q 3022 1394 3022 966 
Q 3022 478 2636 193 
Q 2250 -91 1575 -91 
Q 1294 -91 989 -36 
Q 684 19 347 128 
L 347 722 
Q 666 556 975 473 
Q 1284 391 1588 391 
Q 1994 391 2212 530 
Q 2431 669 2431 922 
Q 2431 1156 2273 1281 
Q 2116 1406 1581 1522 
L 1381 1569 
Q 847 1681 609 1914 
Q 372 2147 372 2553 
Q 372 3047 722 3315 
Q 1072 3584 1716 3584 
Q 2034 3584 2315 3537 
Q 2597 3491 2834 3397 
z
" transform="scale(0.015625)"/>
       <path id="DejaVuSans-6c" d="M 603 4863 
L 1178 4863 
L 1178 0 
L 603 0 
L 603 4863 
z
" transform="scale(0.015625)"/>
      </defs>
      <use xlink:href="#DejaVuSans-62"/>
      <use xlink:href="#DejaVuSans-61" transform="translate(63.476562 0)"/>
      <use xlink:href="#DejaVuSans-73" transform="translate(124.755859 0)"/>
      <use xlink:href="#DejaVuSans-65" transform="translate(176.855469 0)"/>
      <use xlink:href="#DejaVuSans-6c" transform="translate(238.378906 0)"/>
      <use xlink:href="#DejaVuSans-69" transform="translate(266.162109 0)"/>
      <use xlink:href="#DejaVuSans-6e" transform="translate(293.945312 0)"/>
      <use xlink:href="#DejaVuSans-65" transform="translate(357.324219 0)"/>
     </g>
    </g>
    <g id="patch_41">
     <path d="M 302.2025 667.115365 
L 326.2025 667.115365 
L 326.2025 658.715365 
L 302.2025 658.715365 
z
" style="fill: #d4dd80; opacity: 0.85; stroke: #000000; stroke-width: 0.5; stroke-linejoin: miter"/>
    </g>
    <g id="text_33">
     <!-- s1 -->
     <g style="fill: #010101" transform="translate(335.8025 667.115365) scale(0.12 -0.12)">
      <use xlink:href="#DejaVuSans-73"/>
      <use xlink:href="#DejaVuSans-31" transform="translate(52.099609 0)"/>
     </g>
    </g>
    <g id="patch_42">
     <path d="M 511.51125 667.115365 
L 535.51125 667.115365 
L 535.51125 658.715365 
L 511.51125 658.715365 
z
" style="fill: #2adddd; opacity: 0.85; stroke: #000000; stroke-width: 0.5; stroke-linejoin: miter"/>
    </g>
    <g id="text_34">
     <!-- s2 -->
     <g style="fill: #010101" transform="translate(545.11125 667.115365) scale(0.12 -0.12)">
      <use xlink:href="#DejaVuSans-73"/>
      <use xlink:href="#DejaVuSans-32" transform="translate(52.099609 0)"/>
     </g>
    </g>
    <g id="patch_43">
     <path d="M 720.82 667.115365 
L 744.82 667.115365 
L 744.82 658.715365 
L 720.82 658.715365 
z
" style="fill: #8000ff; opacity: 0.85; stroke: #000000; stroke-width: 0.5; stroke-linejoin: miter"/>
    </g>
    <g id="text_35">
     <!-- aggregate -->
     <g style="fill: #010101" transform="translate(754.42 667.115365) scale(0.12 -0.12)">
      <defs>
       <path id="DejaVuSans-67" d="M 2906 1791 
Q 2906 2416 2648 2759 
Q 2391 3103 1925 3103 
Q 1463 3103 1205 2759 
Q 947 2416 947 1791 
Q 947 1169 1205 825 
Q 1463 481 1925 481 
Q 2391 481 2648 825 
Q 2906 1169 2906 1791 
z
M 3481 434 
Q 3481 -459 3084 -895 
Q 2688 -1331 1869 -1331 
Q 1566 -1331 1297 -1286 
Q 1028 -1241 775 -1147 
L 775 -588 
Q 1028 -725 1275 -790 
Q 1522 -856 1778 -856 
Q 2344 -856 2625 -561 
Q 2906 -266 2906 331 
L 2906 616 
Q 2728 306 2450 153 
Q 2172 0 1784 0 
Q 1141 0 747 490 
Q 353 981 353 1791 
Q 353 2603 747 3093 
Q 1141 3584 1784 3584 
Q 2172 3584 2450 3431 
Q 2728 3278 2906 2969 
L 2906 3500 
L 3481 3500 
L 3481 434 
z
" transform="scale(0.015625)"/>
       <path id="DejaVuSans-74" d="M 1172 4494 
L 1172 3500 
L 2356 3500 
L 2356 3053 
L 1172 3053 
L 1172 1153 
Q 1172 725 1289 603 
Q 1406 481 1766 481 
L 2356 481 
L 2356 0 
L 1766 0 
Q 1100 0 847 248 
Q 594 497 594 1153 
L 594 3053 
L 172 3053 
L 172 3500 
L 594 3500 
L 594 4494 
L 1172 4494 
z
" transform="scale(0.015625)"/>
      </defs>
      <use xlink:href="#DejaVuSans-61"/>
      <use xlink:href="#DejaVuSans-67" transform="translate(61.279297 0)"/>
      <use xlink:href="#DejaVuSans-67" transform="translate(124.755859 0)"/>
      <use xlink:href="#DejaVuSans-72" transform="translate(188.232422 0)"/>
      <use xlink:href="#DejaVuSans-65" transform="translate(227.095703 0)"/>
      <use xlink:href="#DejaVuSans-67" transform="translate(288.619141 0)"/>
      <use xlink:href="#DejaVuSans-61" transform="translate(352.095703 0)"/>
      <use xlink:href="#DejaVuSans-74" transform="translate(413.375 0)"/>
      <use xlink:href="#DejaVuSans-65" transform="translate(452.583984 0)"/>
     </g>
    </g>
   </g>
  </g>
 </g>
 <defs>
  <clipPath id="p4deb982cb9">
   <rect x="45.716875" y="100.626667" width="781.2" height="453.786667"/>
  </clipPath>
 </defs>
</svg>
