<?xml version="1.0" encoding="utf-8" standalone="no"?>
<!DOCTYPE svg PUBLIC "-//W3C//DTD SVG 1.1//EN"
  "http://www.w3.org/Graphics/SVG/1.1/DTD/svg11.dtd">
<svg xmlns:xlink="http://www.w3.org/1999/xlink" width="422.585638pt" height="239.52425pt" viewBox="0 0 422.585638 239.52425" xmlns="http://www.w3.org/2000/svg" version="1.1">
 <metadata>
  <rdf:RDF xmlns:dc="http://purl.org/dc/elements/1.1/" xmlns:cc="http://creativecommons.org/ns#" xmlns:rdf="http://www.w3.org/1999/02/22-rdf-syntax-ns#">
   <cc:Work>
    <dc:type rdf:resource="http://purl.org/dc/dcmitype/StillImage"/>
    <dc:date>2026-05-14T01:44:55.147694</dc:date>
    <dc:format>image/svg+xml</dc:format>
    <dc:creator>
     <cc:Agent>
      <dc:title>Matplotlib v3.10.7, https://matplotlib.org/</dc:title>
     </cc:Agent>
    </dc:creator>
   </cc:Work>
  </rdf:RDF>
 </metadata>
 <defs>
  <style type="text/css">*{stroke-linejoin: round; stroke-linecap: butt}</style>
 </defs>
 <g id="figure_1">
  <g id="patch_1">
   <path d="M 0 239.52425 
L 422.585638 239.52425 
L 422.585638 0 
L 0 0 
z
" style="fill: #ffffff"/>
  </g>
  <g id="axes_1">
   <g id="patch_2">
    <path d="M 29.8 198.206125 
L 372.86192 198.206125 
L 372.86192 22.318125 
L 29.8 22.318125 
z
" style="fill: #ffffff"/>
   </g>
   <g id="patch_3">
    <path d="M 29.8 30.313034 
L 167.72625 30.313034 
L 167.72625 63.975809 
L 29.8 63.975809 
z
" clip-path="url(#p5d6c5b0a62)" style="fill: #7445da; opacity: 0.85"/>
   </g>
   <g id="patch_4">
    <path d="M 29.8 72.391503 
L 180.609714 72.391503 
L 180.609714 106.054278 
L 29.8 106.054278 
z
" clip-path="url(#p5d6c5b0a62)" style="fill: #7445da; opacity: 0.85"/>
   </g>
   <g id="patch_5">
    <path d="M 29.8 114.469972 
L 184.843456 114.469972 
L 184.843456 148.132747 
L 29.8 148.132747 
z
" clip-path="url(#p5d6c5b0a62)" style="fill: #7445da; opacity: 0.85"/>
   </g>
   <g id="patch_6">
    <path d="M 29.8 156.548441 
L 313.373002 156.548441 
L 313.373002 190.211216 
L 29.8 190.211216 
z
" clip-path="url(#p5d6c5b0a62)" style="fill: #7445da; opacity: 0.85"/>
   </g>
   <g id="matplotlib.axis_1">
    <g id="xtick_1">
     <g id="line2d_1">
      <path d="M 29.8 198.206125 
L 29.8 22.318125 
" clip-path="url(#p5d6c5b0a62)" style="fill: none; stroke-dasharray: 0.8,1.32; stroke-dashoffset: 0; stroke: #d3d3d3; stroke-opacity: 0.5; stroke-width: 0.8"/>
     </g>
     <g id="line2d_2">
      <defs>
       <path id="m32cc8f4a5e" d="M 0 0 
L 0 3.5 
" style="stroke: #010101; stroke-width: 0.8"/>
      </defs>
      <g>
       <use xlink:href="#m32cc8f4a5e" x="29.8" y="198.206125" style="fill: #010101; stroke: #010101; stroke-width: 0.8"/>
      </g>
     </g>
     <g id="text_1">
      <!-- 0 -->
      <g style="fill: #010101" transform="translate(26.61875 212.804563) scale(0.1 -0.1)">
       <defs>
        <path id="DejaVuSans-30" d="M 2034 4250 
Q 1547 4250 1301 3770 
Q 1056 3291 1056 2328 
Q 1056 1369 1301 889 
Q 1547 409 2034 409 
Q 2525 409 2770 889 
Q 3016 1369 3016 2328 
Q 3016 3291 2770 3770 
Q 2525 4250 2034 4250 
z
M 2034 4750 
Q 2819 4750 3233 4129 
Q 3647 3509 3647 2328 
Q 3647 1150 3233 529 
Q 2819 -91 2034 -91 
Q 1250 -91 836 529 
Q 422 1150 422 2328 
Q 422 3509 836 4129 
Q 1250 4750 2034 4750 
z
" transform="scale(0.015625)"/>
       </defs>
       <use xlink:href="#DejaVuSans-30"/>
      </g>
     </g>
    </g>
    <g id="xtick_2">
     <g id="line2d_3">
      <path d="M 80.784366 198.206125 
L 80.784366 22.318125 
" clip-path="url(#p5d6c5b0a62)" style="fill: none; stroke-dasharray: 0.8,1.32; stroke-dashoffset: 0; stroke: #d3d3d3; stroke-opacity: 0.5; stroke-width: 0.8"/>
     </g>
     <g id="line2d_4">
      <g>
       <use xlink:href="#m32cc8f4a5e" x="80.784366" y="198.206125" style="fill: #010101; stroke: #010101; stroke-width: 0.8"/>
      </g>
     </g>
     <g id="text_2">
      <!-- 5000 -->
      <g style="fill: #010101" transform="translate(68.059366 212.804563) scale(0.1 -0.1)">
       <defs>
        <path id="DejaVuSans-35" d="M 691 4666 
L 3169 4666 
L 3169 4134 
L 1269 4134 
L 1269 2991 
Q 1406 3038 1543 3061 
Q 1681 3084 1819 3084 
Q 2600 3084 3056 2656 
Q 3513 2228 3513 1497 
Q 3513 744 3044 326 
Q 2575 -91 1722 -91 
Q 1428 -91 1123 -41 
Q 819 9 494 109 
L 494 744 
Q 775 591 1075 516 
Q 1375 441 1709 441 
Q 2250 441 2565 725 
Q 2881 1009 2881 1497 
Q 2881 1984 2565 2268 
Q 2250 2553 1709 2553 
Q 1456 2553 1204 2497 
Q 953 2441 691 2322 
L 691 4666 
z
" transform="scale(0.015625)"/>
       </defs>
       <use xlink:href="#DejaVuSans-35"/>
       <use xlink:href="#DejaVuSans-30" transform="translate(63.623047 0)"/>
       <use xlink:href="#DejaVuSans-30" transform="translate(127.246094 0)"/>
       <use xlink:href="#DejaVuSans-30" transform="translate(190.869141 0)"/>
      </g>
     </g>
    </g>
    <g id="xtick_3">
     <g id="line2d_5">
      <path d="M 131.768731 198.206125 
L 131.768731 22.318125 
" clip-path="url(#p5d6c5b0a62)" style="fill: none; stroke-dasharray: 0.8,1.32; stroke-dashoffset: 0; stroke: #d3d3d3; stroke-opacity: 0.5; stroke-width: 0.8"/>
     </g>
     <g id="line2d_6">
      <g>
       <use xlink:href="#m32cc8f4a5e" x="131.768731" y="198.206125" style="fill: #010101; stroke: #010101; stroke-width: 0.8"/>
      </g>
     </g>
     <g id="text_3">
      <!-- 10000 -->
      <g style="fill: #010101" transform="translate(115.862481 212.804563) scale(0.1 -0.1)">
       <defs>
        <path id="DejaVuSans-31" d="M 794 531 
L 1825 531 
L 1825 4091 
L 703 3866 
L 703 4441 
L 1819 4666 
L 2450 4666 
L 2450 531 
L 3481 531 
L 3481 0 
L 794 0 
L 794 531 
z
" transform="scale(0.015625)"/>
       </defs>
       <use xlink:href="#DejaVuSans-31"/>
       <use xlink:href="#DejaVuSans-30" transform="translate(63.623047 0)"/>
       <use xlink:href="#DejaVuSans-30" transform="translate(127.246094 0)"/>
       <use xlink:href="#DejaVuSans-30" transform="translate(190.869141 0)"/>
       <use xlink:href="#DejaVuSans-30" transform="translate(254.492188 0)"/>
      </g>
     </g>
    </g>
    <g id="xtick_4">
     <g id="line2d_7">
      <path d="M 182.753097 198.206125 
L 182.753097 22.318125 
" clip-path="url(#p5d6c5b0a62)" style="fill: none; stroke-dasharray: 0.8,1.32; stroke-dashoffset: 0; stroke: #d3d3d3; stroke-opacity: 0.5; stroke-width: 0.8"/>
     </g>
     <g id="line2d_8">
      <g>
       <use xlink:href="#m32cc8f4a5e" x="182.753097" y="198.206125" style="fill: #010101; stroke: #010101; stroke-width: 0.8"/>
      </g>
     </g>
     <g id="text_4">
      <!-- 15000 -->
      <g style="fill: #010101" transform="translate(166.846847 212.804563) scale(0.1 -0.1)">
       <use xlink:href="#DejaVuSans-31"/>
       <use xlink:href="#DejaVuSans-35" transform="translate(63.623047 0)"/>
       <use xlink:href="#DejaVuSans-30" transform="translate(127.246094 0)"/>
       <use xlink:href="#DejaVuSans-30" transform="translate(190.869141 0)"/>
       <use xlink:href="#DejaVuSans-30" transform="translate(254.492188 0)"/>
      </g>
     </g>
    </g>
    <g id="xtick_5">
     <g id="line2d_9">
      <path d="M 233.737462 198.206125 
L 233.737462 22.318125 
" clip-path="url(#p5d6c5b0a62)" style="fill: none; stroke-dasharray: 0.8,1.32; stroke-dashoffset: 0; stroke: #d3d3d3; stroke-opacity: 0.5; stroke-width: 0.8"/>
     </g>
     <g id="line2d_10">
      <g>
       <use xlink:href="#m32cc8f4a5e" x="233.737462" y="198.206125" style="fill: #010101; stroke: #010101; stroke-width: 0.8"/>
      </g>
     </g>
     <g id="text_5">
      <!-- 20000 -->
      <g style="fill: #010101" transform="translate(217.831212 212.804563) scale(0.1 -0.1)">
       <defs>
        <path id="DejaVuSans-32" d="M 1228 531 
L 3431 531 
L 3431 0 
L 469 0 
L 469 531 
Q 828 903 1448 1529 
Q 2069 2156 2228 2338 
Q 2531 2678 2651 2914 
Q 2772 3150 2772 3378 
Q 2772 3750 2511 3984 
Q 2250 4219 1831 4219 
Q 1534 4219 1204 4116 
Q 875 4013 500 3803 
L 500 4441 
Q 881 4594 1212 4672 
Q 1544 4750 1819 4750 
Q 2544 4750 2975 4387 
Q 3406 4025 3406 3419 
Q 3406 3131 3298 2873 
Q 3191 2616 2906 2266 
Q 2828 2175 2409 1742 
Q 1991 1309 1228 531 
z
" transform="scale(0.015625)"/>
       </defs>
       <use xlink:href="#DejaVuSans-32"/>
       <use xlink:href="#DejaVuSans-30" transform="translate(63.623047 0)"/>
       <use xlink:href="#DejaVuSans-30" transform="translate(127.246094 0)"/>
       <use xlink:href="#DejaVuSans-30" transform="translate(190.869141 0)"/>
       <use xlink:href="#DejaVuSans-30" transform="translate(254.492188 0)"/>
      </g>
     </g>
    </g>
    <g id="xtick_6">
     <g id="line2d_11">
      <path d="M 284.721828 198.206125 
L 284.721828 22.318125 
" clip-path="url(#p5d6c5b0a62)" style="fill: none; stroke-dasharray: 0.8,1.32; stroke-dashoffset: 0; stroke: #d3d3d3; stroke-opacity: 0.5; stroke-width: 0.8"/>
     </g>
     <g id="line2d_12">
      <g>
       <use xlink:href="#m32cc8f4a5e" x="284.721828" y="198.206125" style="fill: #010101; stroke: #010101; stroke-width: 0.8"/>
      </g>
     </g>
     <g id="text_6">
      <!-- 25000 -->
      <g style="fill: #010101" transform="translate(268.815578 212.804563) scale(0.1 -0.1)">
       <use xlink:href="#DejaVuSans-32"/>
       <use xlink:href="#DejaVuSans-35" transform="translate(63.623047 0)"/>
       <use xlink:href="#DejaVuSans-30" transform="translate(127.246094 0)"/>
       <use xlink:href="#DejaVuSans-30" transform="translate(190.869141 0)"/>
       <use xlink:href="#DejaVuSans-30" transform="translate(254.492188 0)"/>
      </g>
     </g>
    </g>
    <g id="xtick_7">
     <g id="line2d_13">
      <path d="M 335.706194 198.206125 
L 335.706194 22.318125 
" clip-path="url(#p5d6c5b0a62)" style="fill: none; stroke-dasharray: 0.8,1.32; stroke-dashoffset: 0; stroke: #d3d3d3; stroke-opacity: 0.5; stroke-width: 0.8"/>
     </g>
     <g id="line2d_14">
      <g>
       <use xlink:href="#m32cc8f4a5e" x="335.706194" y="198.206125" style="fill: #010101; stroke: #010101; stroke-width: 0.8"/>
      </g>
     </g>
     <g id="text_7">
      <!-- 30000 -->
      <g style="fill: #010101" transform="translate(319.799944 212.804563) scale(0.1 -0.1)">
       <defs>
        <path id="DejaVuSans-33" d="M 2597 2516 
Q 3050 2419 3304 2112 
Q 3559 1806 3559 1356 
Q 3559 666 3084 287 
Q 2609 -91 1734 -91 
Q 1441 -91 1130 -33 
Q 819 25 488 141 
L 488 750 
Q 750 597 1062 519 
Q 1375 441 1716 441 
Q 2309 441 2620 675 
Q 2931 909 2931 1356 
Q 2931 1769 2642 2001 
Q 2353 2234 1838 2234 
L 1294 2234 
L 1294 2753 
L 1863 2753 
Q 2328 2753 2575 2939 
Q 2822 3125 2822 3475 
Q 2822 3834 2567 4026 
Q 2313 4219 1838 4219 
Q 1578 4219 1281 4162 
Q 984 4106 628 3988 
L 628 4550 
Q 988 4650 1302 4700 
Q 1616 4750 1894 4750 
Q 2613 4750 3031 4423 
Q 3450 4097 3450 3541 
Q 3450 3153 3228 2886 
Q 3006 2619 2597 2516 
z
" transform="scale(0.015625)"/>
       </defs>
       <use xlink:href="#DejaVuSans-33"/>
       <use xlink:href="#DejaVuSans-30" transform="translate(63.623047 0)"/>
       <use xlink:href="#DejaVuSans-30" transform="translate(127.246094 0)"/>
       <use xlink:href="#DejaVuSans-30" transform="translate(190.869141 0)"/>
       <use xlink:href="#DejaVuSans-30" transform="translate(254.492188 0)"/>
      </g>
     </g>
    </g>
    <g id="text_8">
     <!-- $[\mu s]$ (actual $-$ target; caps: $s^{2}$) -->
     <g style="fill: #010101" transform="translate(109.41096 229.80425) scale(0.12 -0.12)">
      <defs>
       <path id="DejaVuSans-5b" d="M 550 4863 
L 1875 4863 
L 1875 4416 
L 1125 4416 
L 1125 -397 
L 1875 -397 
L 1875 -844 
L 550 -844 
L 550 4863 
z
" transform="scale(0.015625)"/>
       <path id="DejaVuSans-Oblique-3bc" d="M -84 -1331 
L 856 3500 
L 1434 3500 
L 1009 1322 
Q 997 1256 987 1175 
Q 978 1094 978 1013 
Q 978 722 1161 565 
Q 1344 409 1684 409 
Q 2147 409 2431 671 
Q 2716 934 2816 1459 
L 3213 3500 
L 3788 3500 
L 3266 809 
Q 3253 750 3248 706 
Q 3244 663 3244 628 
Q 3244 531 3283 486 
Q 3322 441 3406 441 
Q 3438 441 3492 456 
Q 3547 472 3647 513 
L 3559 50 
Q 3422 -19 3297 -55 
Q 3172 -91 3053 -91 
Q 2847 -91 2730 40 
Q 2613 172 2613 403 
Q 2438 153 2195 31 
Q 1953 -91 1625 -91 
Q 1334 -91 1117 43 
Q 900 178 831 397 
L 494 -1331 
L -84 -1331 
z
" transform="scale(0.015625)"/>
       <path id="DejaVuSans-Oblique-73" d="M 3200 3397 
L 3091 2853 
Q 2863 2978 2609 3040 
Q 2356 3103 2088 3103 
Q 1634 3103 1373 2948 
Q 1113 2794 1113 2528 
Q 1113 2219 1719 2053 
Q 1766 2041 1788 2034 
L 1972 1978 
Q 2547 1819 2739 1644 
Q 2931 1469 2931 1166 
Q 2931 609 2489 259 
Q 2047 -91 1331 -91 
Q 1053 -91 747 -37 
Q 441 16 72 128 
L 184 722 
Q 500 559 806 475 
Q 1113 391 1394 391 
Q 1816 391 2080 572 
Q 2344 753 2344 1031 
Q 2344 1331 1650 1516 
L 1591 1531 
L 1394 1581 
Q 956 1697 753 1886 
Q 550 2075 550 2369 
Q 550 2928 970 3256 
Q 1391 3584 2113 3584 
Q 2397 3584 2667 3537 
Q 2938 3491 3200 3397 
z
" transform="scale(0.015625)"/>
       <path id="DejaVuSans-5d" d="M 1947 4863 
L 1947 -844 
L 622 -844 
L 622 -397 
L 1369 -397 
L 1369 4416 
L 622 4416 
L 622 4863 
L 1947 4863 
z
" transform="scale(0.015625)"/>
       <path id="DejaVuSans-20" transform="scale(0.015625)"/>
       <path id="DejaVuSans-28" d="M 1984 4856 
Q 1566 4138 1362 3434 
Q 1159 2731 1159 2009 
Q 1159 1288 1364 580 
Q 1569 -128 1984 -844 
L 1484 -844 
Q 1016 -109 783 600 
Q 550 1309 550 2009 
Q 550 2706 781 3412 
Q 1013 4119 1484 4856 
L 1984 4856 
z
" transform="scale(0.015625)"/>
       <path id="DejaVuSans-61" d="M 2194 1759 
Q 1497 1759 1228 1600 
Q 959 1441 959 1056 
Q 959 750 1161 570 
Q 1363 391 1709 391 
Q 2188 391 2477 730 
Q 2766 1069 2766 1631 
L 2766 1759 
L 2194 1759 
z
M 3341 1997 
L 3341 0 
L 2766 0 
L 2766 531 
Q 2569 213 2275 61 
Q 1981 -91 1556 -91 
Q 1019 -91 701 211 
Q 384 513 384 1019 
Q 384 1609 779 1909 
Q 1175 2209 1959 2209 
L 2766 2209 
L 2766 2266 
Q 2766 2663 2505 2880 
Q 2244 3097 1772 3097 
Q 1472 3097 1187 3025 
Q 903 2953 641 2809 
L 641 3341 
Q 956 3463 1253 3523 
Q 1550 3584 1831 3584 
Q 2591 3584 2966 3190 
Q 3341 2797 3341 1997 
z
" transform="scale(0.015625)"/>
       <path id="DejaVuSans-63" d="M 3122 3366 
L 3122 2828 
Q 2878 2963 2633 3030 
Q 2388 3097 2138 3097 
Q 1578 3097 1268 2742 
Q 959 2388 959 1747 
Q 959 1106 1268 751 
Q 1578 397 2138 397 
Q 2388 397 2633 464 
Q 2878 531 3122 666 
L 3122 134 
Q 2881 22 2623 -34 
Q 2366 -91 2075 -91 
Q 1284 -91 818 406 
Q 353 903 353 1747 
Q 353 2603 823 3093 
Q 1294 3584 2113 3584 
Q 2378 3584 2631 3529 
Q 2884 3475 3122 3366 
z
" transform="scale(0.015625)"/>
       <path id="DejaVuSans-74" d="M 1172 4494 
L 1172 3500 
L 2356 3500 
L 2356 3053 
L 1172 3053 
L 1172 1153 
Q 1172 725 1289 603 
Q 1406 481 1766 481 
L 2356 481 
L 2356 0 
L 1766 0 
Q 1100 0 847 248 
Q 594 497 594 1153 
L 594 3053 
L 172 3053 
L 172 3500 
L 594 3500 
L 594 4494 
L 1172 4494 
z
" transform="scale(0.015625)"/>
       <path id="DejaVuSans-75" d="M 544 1381 
L 544 3500 
L 1119 3500 
L 1119 1403 
Q 1119 906 1312 657 
Q 1506 409 1894 409 
Q 2359 409 2629 706 
Q 2900 1003 2900 1516 
L 2900 3500 
L 3475 3500 
L 3475 0 
L 2900 0 
L 2900 538 
Q 2691 219 2414 64 
Q 2138 -91 1772 -91 
Q 1169 -91 856 284 
Q 544 659 544 1381 
z
M 1991 3584 
L 1991 3584 
z
" transform="scale(0.015625)"/>
       <path id="DejaVuSans-6c" d="M 603 4863 
L 1178 4863 
L 1178 0 
L 603 0 
L 603 4863 
z
" transform="scale(0.015625)"/>
       <path id="DejaVuSans-2212" d="M 678 2272 
L 4684 2272 
L 4684 1741 
L 678 1741 
L 678 2272 
z
" transform="scale(0.015625)"/>
       <path id="DejaVuSans-72" d="M 2631 2963 
Q 2534 3019 2420 3045 
Q 2306 3072 2169 3072 
Q 1681 3072 1420 2755 
Q 1159 2438 1159 1844 
L 1159 0 
L 581 0 
L 581 3500 
L 1159 3500 
L 1159 2956 
Q 1341 3275 1631 3429 
Q 1922 3584 2338 3584 
Q 2397 3584 2469 3576 
Q 2541 3569 2628 3553 
L 2631 2963 
z
" transform="scale(0.015625)"/>
       <path id="DejaVuSans-67" d="M 2906 1791 
Q 2906 2416 2648 2759 
Q 2391 3103 1925 3103 
Q 1463 3103 1205 2759 
Q 947 2416 947 1791 
Q 947 1169 1205 825 
Q 1463 481 1925 481 
Q 2391 481 2648 825 
Q 2906 1169 2906 1791 
z
M 3481 434 
Q 3481 -459 3084 -895 
Q 2688 -1331 1869 -1331 
Q 1566 -1331 1297 -1286 
Q 1028 -1241 775 -1147 
L 775 -588 
Q 1028 -725 1275 -790 
Q 1522 -856 1778 -856 
Q 2344 -856 2625 -561 
Q 2906 -266 2906 331 
L 2906 616 
Q 2728 306 2450 153 
Q 2172 0 1784 0 
Q 1141 0 747 490 
Q 353 981 353 1791 
Q 353 2603 747 3093 
Q 1141 3584 1784 3584 
Q 2172 3584 2450 3431 
Q 2728 3278 2906 2969 
L 2906 3500 
L 3481 3500 
L 3481 434 
z
" transform="scale(0.015625)"/>
       <path id="DejaVuSans-65" d="M 3597 1894 
L 3597 1613 
L 953 1613 
Q 991 1019 1311 708 
Q 1631 397 2203 397 
Q 2534 397 2845 478 
Q 3156 559 3463 722 
L 3463 178 
Q 3153 47 2828 -22 
Q 2503 -91 2169 -91 
Q 1331 -91 842 396 
Q 353 884 353 1716 
Q 353 2575 817 3079 
Q 1281 3584 2069 3584 
Q 2775 3584 3186 3129 
Q 3597 2675 3597 1894 
z
M 3022 2063 
Q 3016 2534 2758 2815 
Q 2500 3097 2075 3097 
Q 1594 3097 1305 2825 
Q 1016 2553 972 2059 
L 3022 2063 
z
" transform="scale(0.015625)"/>
       <path id="DejaVuSans-3b" d="M 750 3309 
L 1409 3309 
L 1409 2516 
L 750 2516 
L 750 3309 
z
M 750 794 
L 1409 794 
L 1409 256 
L 897 -744 
L 494 -744 
L 750 256 
L 750 794 
z
" transform="scale(0.015625)"/>
       <path id="DejaVuSans-70" d="M 1159 525 
L 1159 -1331 
L 581 -1331 
L 581 3500 
L 1159 3500 
L 1159 2969 
Q 1341 3281 1617 3432 
Q 1894 3584 2278 3584 
Q 2916 3584 3314 3078 
Q 3713 2572 3713 1747 
Q 3713 922 3314 415 
Q 2916 -91 2278 -91 
Q 1894 -91 1617 61 
Q 1341 213 1159 525 
z
M 3116 1747 
Q 3116 2381 2855 2742 
Q 2594 3103 2138 3103 
Q 1681 3103 1420 2742 
Q 1159 2381 1159 1747 
Q 1159 1113 1420 752 
Q 1681 391 2138 391 
Q 2594 391 2855 752 
Q 3116 1113 3116 1747 
z
" transform="scale(0.015625)"/>
       <path id="DejaVuSans-73" d="M 2834 3397 
L 2834 2853 
Q 2591 2978 2328 3040 
Q 2066 3103 1784 3103 
Q 1356 3103 1142 2972 
Q 928 2841 928 2578 
Q 928 2378 1081 2264 
Q 1234 2150 1697 2047 
L 1894 2003 
Q 2506 1872 2764 1633 
Q 3022 1394 3022 966 
Q 3022 478 2636 193 
Q 2250 -91 1575 -91 
Q 1294 -91 989 -36 
Q 684 19 347 128 
L 347 722 
Q 666 556 975 473 
Q 1284 391 1588 391 
Q 1994 391 2212 530 
Q 2431 669 2431 922 
Q 2431 1156 2273 1281 
Q 2116 1406 1581 1522 
L 1381 1569 
Q 847 1681 609 1914 
Q 372 2147 372 2553 
Q 372 3047 722 3315 
Q 1072 3584 1716 3584 
Q 2034 3584 2315 3537 
Q 2597 3491 2834 3397 
z
" transform="scale(0.015625)"/>
       <path id="DejaVuSans-3a" d="M 750 794 
L 1409 794 
L 1409 0 
L 750 0 
L 750 794 
z
M 750 3309 
L 1409 3309 
L 1409 2516 
L 750 2516 
L 750 3309 
z
" transform="scale(0.015625)"/>
       <path id="DejaVuSans-29" d="M 513 4856 
L 1013 4856 
Q 1481 4119 1714 3412 
Q 1947 2706 1947 2009 
Q 1947 1309 1714 600 
Q 1481 -109 1013 -844 
L 513 -844 
Q 928 -128 1133 580 
Q 1338 1288 1338 2009 
Q 1338 2731 1133 3434 
Q 928 4138 513 4856 
z
" transform="scale(0.015625)"/>
      </defs>
      <use xlink:href="#DejaVuSans-5b" transform="translate(0 0.765625)"/>
      <use xlink:href="#DejaVuSans-Oblique-3bc" transform="translate(39.013672 0.765625)"/>
      <use xlink:href="#DejaVuSans-Oblique-73" transform="translate(102.636719 0.765625)"/>
      <use xlink:href="#DejaVuSans-5d" transform="translate(154.736328 0.765625)"/>
      <use xlink:href="#DejaVuSans-20" transform="translate(193.75 0.765625)"/>
      <use xlink:href="#DejaVuSans-28" transform="translate(225.537109 0.765625)"/>
      <use xlink:href="#DejaVuSans-61" transform="translate(264.550781 0.765625)"/>
      <use xlink:href="#DejaVuSans-63" transform="translate(325.830078 0.765625)"/>
      <use xlink:href="#DejaVuSans-74" transform="translate(380.810547 0.765625)"/>
      <use xlink:href="#DejaVuSans-75" transform="translate(420.019531 0.765625)"/>
      <use xlink:href="#DejaVuSans-61" transform="translate(483.398438 0.765625)"/>
      <use xlink:href="#DejaVuSans-6c" transform="translate(544.677734 0.765625)"/>
      <use xlink:href="#DejaVuSans-20" transform="translate(572.460938 0.765625)"/>
      <use xlink:href="#DejaVuSans-2212" transform="translate(604.248047 0.765625)"/>
      <use xlink:href="#DejaVuSans-20" transform="translate(688.037109 0.765625)"/>
      <use xlink:href="#DejaVuSans-74" transform="translate(719.824219 0.765625)"/>
      <use xlink:href="#DejaVuSans-61" transform="translate(759.033203 0.765625)"/>
      <use xlink:href="#DejaVuSans-72" transform="translate(820.3125 0.765625)"/>
      <use xlink:href="#DejaVuSans-67" transform="translate(861.425781 0.765625)"/>
      <use xlink:href="#DejaVuSans-65" transform="translate(924.902344 0.765625)"/>
      <use xlink:href="#DejaVuSans-74" transform="translate(986.425781 0.765625)"/>
      <use xlink:href="#DejaVuSans-3b" transform="translate(1025.634766 0.765625)"/>
      <use xlink:href="#DejaVuSans-20" transform="translate(1059.326172 0.765625)"/>
      <use xlink:href="#DejaVuSans-63" transform="translate(1091.113281 0.765625)"/>
      <use xlink:href="#DejaVuSans-61" transform="translate(1146.09375 0.765625)"/>
      <use xlink:href="#DejaVuSans-70" transform="translate(1207.373047 0.765625)"/>
      <use xlink:href="#DejaVuSans-73" transform="translate(1270.849609 0.765625)"/>
      <use xlink:href="#DejaVuSans-3a" transform="translate(1322.949219 0.765625)"/>
      <use xlink:href="#DejaVuSans-20" transform="translate(1356.640625 0.765625)"/>
      <use xlink:href="#DejaVuSans-Oblique-73" transform="translate(1388.427734 0.765625)"/>
      <use xlink:href="#DejaVuSans-32" transform="translate(1445.17724 39.046875) scale(0.7)"/>
      <use xlink:href="#DejaVuSans-29" transform="translate(1492.447747 0.765625)"/>
     </g>
    </g>
   </g>
   <g id="matplotlib.axis_2">
    <g id="ytick_1">
     <g id="line2d_15">
      <defs>
       <path id="mb4b2638b0d" d="M 0 0 
L -3.5 0 
" style="stroke: #010101; stroke-width: 0.8"/>
      </defs>
      <g>
       <use xlink:href="#mb4b2638b0d" x="29.8" y="47.144422" style="fill: #010101; stroke: #010101; stroke-width: 0.8"/>
      </g>
     </g>
     <g id="text_9">
      <!-- $\overline{\chi}$ -->
      <g style="fill: #010101" transform="translate(16.8 51.144422) scale(0.1 -0.1)">
       <defs>
        <path id="DejaVuSans-Oblique-3c7" d="M 1922 -781 
L 1691 416 
L 394 -1334 
L -284 -1334 
L 1553 1141 
L 1269 2613 
Q 1194 3006 713 3006 
L 559 3006 
L 653 3500 
L 872 3494 
Q 1675 3472 1775 2950 
L 2006 1753 
L 3303 3503 
L 3981 3503 
L 2144 1028 
L 2428 -444 
Q 2503 -838 2984 -838 
L 3138 -838 
L 3044 -1331 
L 2825 -1325 
Q 2022 -1303 1922 -781 
z
" transform="scale(0.015625)"/>
       </defs>
       <use xlink:href="#DejaVuSans-Oblique-3c7" transform="translate(0 1.015625)"/>
       <path d="M 0 67.5 
L 0 73.75 
L 59.179688 73.75 
L 59.179688 67.5 
L 0 67.5 
z
"/>
      </g>
     </g>
    </g>
    <g id="ytick_2">
     <g id="line2d_16">
      <g>
       <use xlink:href="#mb4b2638b0d" x="29.8" y="89.222891" style="fill: #010101; stroke: #010101; stroke-width: 0.8"/>
      </g>
     </g>
     <g id="text_10">
      <!-- $\Phi$ -->
      <g style="fill: #010101" transform="translate(14.9 93.022109) scale(0.1 -0.1)">
       <defs>
        <path id="DejaVuSans-3a6" d="M 2206 3644 
Q 1738 3578 1431 3306 
Q 1025 2947 1025 2328 
Q 1025 1713 1431 1353 
Q 1738 1081 2206 1016 
L 2206 3644 
z
M 2838 1016 
Q 3306 1081 3613 1353 
Q 4013 1713 4013 2328 
Q 4013 2947 3613 3306 
Q 3306 3578 2838 3644 
L 2838 1016 
z
M 2206 494 
Q 1444 563 950 981 
Q 359 1481 359 2328 
Q 359 3175 950 3678 
Q 1441 4100 2206 4169 
L 2206 4666 
L 2838 4666 
L 2838 4169 
Q 3600 4097 4091 3678 
Q 4678 3175 4678 2328 
Q 4678 1484 4091 981 
Q 3600 563 2838 491 
L 2838 0 
L 2206 0 
L 2206 494 
z
" transform="scale(0.015625)"/>
       </defs>
       <use xlink:href="#DejaVuSans-3a6" transform="translate(0 0.09375)"/>
      </g>
     </g>
    </g>
    <g id="ytick_3">
     <g id="line2d_17">
      <g>
       <use xlink:href="#mb4b2638b0d" x="29.8" y="131.301359" style="fill: #010101; stroke: #010101; stroke-width: 0.8"/>
      </g>
     </g>
     <g id="text_11">
      <!-- $p_{95}$ -->
      <g style="fill: #010101" transform="translate(7.2 135.090422) scale(0.1 -0.1)">
       <defs>
        <path id="DejaVuSans-Oblique-70" d="M 3175 2156 
Q 3175 2616 2975 2859 
Q 2775 3103 2400 3103 
Q 2144 3103 1911 2972 
Q 1678 2841 1497 2591 
Q 1319 2344 1212 1994 
Q 1106 1644 1106 1300 
Q 1106 863 1306 627 
Q 1506 391 1875 391 
Q 2147 391 2380 519 
Q 2613 647 2778 891 
Q 2956 1147 3065 1494 
Q 3175 1841 3175 2156 
z
M 1394 2969 
Q 1625 3272 1939 3428 
Q 2253 3584 2638 3584 
Q 3175 3584 3472 3232 
Q 3769 2881 3769 2247 
Q 3769 1728 3584 1258 
Q 3400 788 3053 416 
Q 2822 169 2531 39 
Q 2241 -91 1919 -91 
Q 1547 -91 1294 64 
Q 1041 219 916 525 
L 556 -1331 
L -19 -1331 
L 922 3500 
L 1497 3500 
L 1394 2969 
z
" transform="scale(0.015625)"/>
        <path id="DejaVuSans-39" d="M 703 97 
L 703 672 
Q 941 559 1184 500 
Q 1428 441 1663 441 
Q 2288 441 2617 861 
Q 2947 1281 2994 2138 
Q 2813 1869 2534 1725 
Q 2256 1581 1919 1581 
Q 1219 1581 811 2004 
Q 403 2428 403 3163 
Q 403 3881 828 4315 
Q 1253 4750 1959 4750 
Q 2769 4750 3195 4129 
Q 3622 3509 3622 2328 
Q 3622 1225 3098 567 
Q 2575 -91 1691 -91 
Q 1453 -91 1209 -44 
Q 966 3 703 97 
z
M 1959 2075 
Q 2384 2075 2632 2365 
Q 2881 2656 2881 3163 
Q 2881 3666 2632 3958 
Q 2384 4250 1959 4250 
Q 1534 4250 1286 3958 
Q 1038 3666 1038 3163 
Q 1038 2656 1286 2365 
Q 1534 2075 1959 2075 
z
" transform="scale(0.015625)"/>
       </defs>
       <use xlink:href="#DejaVuSans-Oblique-70"/>
       <use xlink:href="#DejaVuSans-39" transform="translate(63.476562 -16.40625) scale(0.7)"/>
       <use xlink:href="#DejaVuSans-35" transform="translate(108.012695 -16.40625) scale(0.7)"/>
      </g>
     </g>
    </g>
    <g id="ytick_4">
     <g id="line2d_18">
      <g>
       <use xlink:href="#mb4b2638b0d" x="29.8" y="173.379828" style="fill: #010101; stroke: #010101; stroke-width: 0.8"/>
      </g>
     </g>
     <g id="text_12">
      <!-- $p_{99}$ -->
      <g style="fill: #010101" transform="translate(7.2 177.168891) scale(0.1 -0.1)">
       <use xlink:href="#DejaVuSans-Oblique-70"/>
       <use xlink:href="#DejaVuSans-39" transform="translate(63.476562 -16.40625) scale(0.7)"/>
       <use xlink:href="#DejaVuSans-39" transform="translate(108.012695 -16.40625) scale(0.7)"/>
      </g>
     </g>
    </g>
   </g>
   <g id="LineCollection_1">
    <path d="M 124.573614 47.144422 
L 210.878886 47.144422 
" clip-path="url(#p5d6c5b0a62)" style="fill: none; stroke: #010101"/>
    <path d="M 137.457078 89.222891 
L 223.76235 89.222891 
" clip-path="url(#p5d6c5b0a62)" style="fill: none; stroke: #010101"/>
    <path d="M 141.69082 131.301359 
L 227.996092 131.301359 
" clip-path="url(#p5d6c5b0a62)" style="fill: none; stroke: #010101"/>
    <path d="M 270.220366 173.379828 
L 356.525638 173.379828 
" clip-path="url(#p5d6c5b0a62)" style="fill: none; stroke: #010101"/>
   </g>
   <g id="line2d_19">
    <defs>
     <path id="m261697ec45" d="M 0 3 
L 0 -3 
" style="stroke: #010101"/>
    </defs>
    <g clip-path="url(#p5d6c5b0a62)">
     <use xlink:href="#m261697ec45" x="124.573614" y="47.144422" style="fill: #8dd3c7; stroke: #010101"/>
     <use xlink:href="#m261697ec45" x="137.457078" y="89.222891" style="fill: #8dd3c7; stroke: #010101"/>
     <use xlink:href="#m261697ec45" x="141.69082" y="131.301359" style="fill: #8dd3c7; stroke: #010101"/>
     <use xlink:href="#m261697ec45" x="270.220366" y="173.379828" style="fill: #8dd3c7; stroke: #010101"/>
    </g>
   </g>
   <g id="line2d_20">
    <g clip-path="url(#p5d6c5b0a62)">
     <use xlink:href="#m261697ec45" x="210.878886" y="47.144422" style="fill: #8dd3c7; stroke: #010101"/>
     <use xlink:href="#m261697ec45" x="223.76235" y="89.222891" style="fill: #8dd3c7; stroke: #010101"/>
     <use xlink:href="#m261697ec45" x="227.996092" y="131.301359" style="fill: #8dd3c7; stroke: #010101"/>
     <use xlink:href="#m261697ec45" x="356.525638" y="173.379828" style="fill: #8dd3c7; stroke: #010101"/>
    </g>
   </g>
   <g id="patch_7">
    <path d="M 29.8 198.206125 
L 29.8 22.318125 
" style="fill: none; stroke: #010101; stroke-width: 0.8; stroke-linejoin: miter; stroke-linecap: square"/>
   </g>
   <g id="patch_8">
    <path d="M 372.86192 198.206125 
L 372.86192 22.318125 
" style="fill: none; stroke: #010101; stroke-width: 0.8; stroke-linejoin: miter; stroke-linecap: square"/>
   </g>
   <g id="patch_9">
    <path d="M 29.8 198.206125 
L 372.86192 198.206125 
" style="fill: none; stroke: #010101; stroke-width: 0.8; stroke-linejoin: miter; stroke-linecap: square"/>
   </g>
   <g id="patch_10">
    <path d="M 29.8 22.318125 
L 372.86192 22.318125 
" style="fill: none; stroke: #010101; stroke-width: 0.8; stroke-linejoin: miter; stroke-linecap: square"/>
   </g>
   <g id="text_13">
    <!--   13,526.3 $\mu s$ -->
    <g style="fill: #010101" transform="translate(210.878886 49.609578) scale(0.09 -0.09)">
     <defs>
      <path id="DejaVuSans-2c" d="M 750 794 
L 1409 794 
L 1409 256 
L 897 -744 
L 494 -744 
L 750 256 
L 750 794 
z
" transform="scale(0.015625)"/>
      <path id="DejaVuSans-36" d="M 2113 2584 
Q 1688 2584 1439 2293 
Q 1191 2003 1191 1497 
Q 1191 994 1439 701 
Q 1688 409 2113 409 
Q 2538 409 2786 701 
Q 3034 994 3034 1497 
Q 3034 2003 2786 2293 
Q 2538 2584 2113 2584 
z
M 3366 4563 
L 3366 3988 
Q 3128 4100 2886 4159 
Q 2644 4219 2406 4219 
Q 1781 4219 1451 3797 
Q 1122 3375 1075 2522 
Q 1259 2794 1537 2939 
Q 1816 3084 2150 3084 
Q 2853 3084 3261 2657 
Q 3669 2231 3669 1497 
Q 3669 778 3244 343 
Q 2819 -91 2113 -91 
Q 1303 -91 875 529 
Q 447 1150 447 2328 
Q 447 3434 972 4092 
Q 1497 4750 2381 4750 
Q 2619 4750 2861 4703 
Q 3103 4656 3366 4563 
z
" transform="scale(0.015625)"/>
      <path id="DejaVuSans-2e" d="M 684 794 
L 1344 794 
L 1344 0 
L 684 0 
L 684 794 
z
" transform="scale(0.015625)"/>
     </defs>
     <use xlink:href="#DejaVuSans-20" transform="translate(0 0.78125)"/>
     <use xlink:href="#DejaVuSans-20" transform="translate(31.787109 0.78125)"/>
     <use xlink:href="#DejaVuSans-31" transform="translate(63.574219 0.78125)"/>
     <use xlink:href="#DejaVuSans-33" transform="translate(127.197266 0.78125)"/>
     <use xlink:href="#DejaVuSans-2c" transform="translate(190.820312 0.78125)"/>
     <use xlink:href="#DejaVuSans-35" transform="translate(222.607422 0.78125)"/>
     <use xlink:href="#DejaVuSans-32" transform="translate(286.230469 0.78125)"/>
     <use xlink:href="#DejaVuSans-36" transform="translate(349.853516 0.78125)"/>
     <use xlink:href="#DejaVuSans-2e" transform="translate(413.476562 0.78125)"/>
     <use xlink:href="#DejaVuSans-33" transform="translate(445.263672 0.78125)"/>
     <use xlink:href="#DejaVuSans-20" transform="translate(508.886719 0.78125)"/>
     <use xlink:href="#DejaVuSans-Oblique-3bc" transform="translate(540.673828 0.78125)"/>
     <use xlink:href="#DejaVuSans-Oblique-73" transform="translate(604.296875 0.78125)"/>
    </g>
   </g>
   <g id="text_14">
    <!--   14,789.8 $\mu s$ -->
    <g style="fill: #010101" transform="translate(223.76235 91.688047) scale(0.09 -0.09)">
     <defs>
      <path id="DejaVuSans-34" d="M 2419 4116 
L 825 1625 
L 2419 1625 
L 2419 4116 
z
M 2253 4666 
L 3047 4666 
L 3047 1625 
L 3713 1625 
L 3713 1100 
L 3047 1100 
L 3047 0 
L 2419 0 
L 2419 1100 
L 313 1100 
L 313 1709 
L 2253 4666 
z
" transform="scale(0.015625)"/>
      <path id="DejaVuSans-37" d="M 525 4666 
L 3525 4666 
L 3525 4397 
L 1831 0 
L 1172 0 
L 2766 4134 
L 525 4134 
L 525 4666 
z
" transform="scale(0.015625)"/>
      <path id="DejaVuSans-38" d="M 2034 2216 
Q 1584 2216 1326 1975 
Q 1069 1734 1069 1313 
Q 1069 891 1326 650 
Q 1584 409 2034 409 
Q 2484 409 2743 651 
Q 3003 894 3003 1313 
Q 3003 1734 2745 1975 
Q 2488 2216 2034 2216 
z
M 1403 2484 
Q 997 2584 770 2862 
Q 544 3141 544 3541 
Q 544 4100 942 4425 
Q 1341 4750 2034 4750 
Q 2731 4750 3128 4425 
Q 3525 4100 3525 3541 
Q 3525 3141 3298 2862 
Q 3072 2584 2669 2484 
Q 3125 2378 3379 2068 
Q 3634 1759 3634 1313 
Q 3634 634 3220 271 
Q 2806 -91 2034 -91 
Q 1263 -91 848 271 
Q 434 634 434 1313 
Q 434 1759 690 2068 
Q 947 2378 1403 2484 
z
M 1172 3481 
Q 1172 3119 1398 2916 
Q 1625 2713 2034 2713 
Q 2441 2713 2670 2916 
Q 2900 3119 2900 3481 
Q 2900 3844 2670 4047 
Q 2441 4250 2034 4250 
Q 1625 4250 1398 4047 
Q 1172 3844 1172 3481 
z
" transform="scale(0.015625)"/>
     </defs>
     <use xlink:href="#DejaVuSans-20" transform="translate(0 0.78125)"/>
     <use xlink:href="#DejaVuSans-20" transform="translate(31.787109 0.78125)"/>
     <use xlink:href="#DejaVuSans-31" transform="translate(63.574219 0.78125)"/>
     <use xlink:href="#DejaVuSans-34" transform="translate(127.197266 0.78125)"/>
     <use xlink:href="#DejaVuSans-2c" transform="translate(190.820312 0.78125)"/>
     <use xlink:href="#DejaVuSans-37" transform="translate(222.607422 0.78125)"/>
     <use xlink:href="#DejaVuSans-38" transform="translate(286.230469 0.78125)"/>
     <use xlink:href="#DejaVuSans-39" transform="translate(349.853516 0.78125)"/>
     <use xlink:href="#DejaVuSans-2e" transform="translate(413.476562 0.78125)"/>
     <use xlink:href="#DejaVuSans-38" transform="translate(442.638672 0.78125)"/>
     <use xlink:href="#DejaVuSans-20" transform="translate(506.261719 0.78125)"/>
     <use xlink:href="#DejaVuSans-Oblique-3bc" transform="translate(538.048828 0.78125)"/>
     <use xlink:href="#DejaVuSans-Oblique-73" transform="translate(601.671875 0.78125)"/>
    </g>
   </g>
   <g id="text_15">
    <!--   15,205 $\mu s$ -->
    <g style="fill: #010101" transform="translate(227.996092 133.766516) scale(0.09 -0.09)">
     <use xlink:href="#DejaVuSans-20" transform="translate(0 0.78125)"/>
     <use xlink:href="#DejaVuSans-20" transform="translate(31.787109 0.78125)"/>
     <use xlink:href="#DejaVuSans-31" transform="translate(63.574219 0.78125)"/>
     <use xlink:href="#DejaVuSans-35" transform="translate(127.197266 0.78125)"/>
     <use xlink:href="#DejaVuSans-2c" transform="translate(190.820312 0.78125)"/>
     <use xlink:href="#DejaVuSans-32" transform="translate(222.607422 0.78125)"/>
     <use xlink:href="#DejaVuSans-30" transform="translate(286.230469 0.78125)"/>
     <use xlink:href="#DejaVuSans-35" transform="translate(349.853516 0.78125)"/>
     <use xlink:href="#DejaVuSans-20" transform="translate(413.476562 0.78125)"/>
     <use xlink:href="#DejaVuSans-Oblique-3bc" transform="translate(445.263672 0.78125)"/>
     <use xlink:href="#DejaVuSans-Oblique-73" transform="translate(508.886719 0.78125)"/>
    </g>
   </g>
   <g id="text_16">
    <!--   27,809.8 $\mu s$ -->
    <g style="fill: #010101" transform="translate(356.525638 175.844985) scale(0.09 -0.09)">
     <use xlink:href="#DejaVuSans-20" transform="translate(0 0.78125)"/>
     <use xlink:href="#DejaVuSans-20" transform="translate(31.787109 0.78125)"/>
     <use xlink:href="#DejaVuSans-32" transform="translate(63.574219 0.78125)"/>
     <use xlink:href="#DejaVuSans-37" transform="translate(127.197266 0.78125)"/>
     <use xlink:href="#DejaVuSans-2c" transform="translate(190.820312 0.78125)"/>
     <use xlink:href="#DejaVuSans-38" transform="translate(222.607422 0.78125)"/>
     <use xlink:href="#DejaVuSans-30" transform="translate(286.230469 0.78125)"/>
     <use xlink:href="#DejaVuSans-39" transform="translate(349.853516 0.78125)"/>
     <use xlink:href="#DejaVuSans-2e" transform="translate(413.476562 0.78125)"/>
     <use xlink:href="#DejaVuSans-38" transform="translate(442.638672 0.78125)"/>
     <use xlink:href="#DejaVuSans-20" transform="translate(506.261719 0.78125)"/>
     <use xlink:href="#DejaVuSans-Oblique-3bc" transform="translate(538.048828 0.78125)"/>
     <use xlink:href="#DejaVuSans-Oblique-73" transform="translate(601.671875 0.78125)"/>
    </g>
   </g>
   <g id="text_17">
    <!-- Calibration: Jitter, Multiprocess -->
    <g style="fill: #010101" transform="translate(95.752523 16.318125) scale(0.12 -0.12)">
     <defs>
      <path id="DejaVuSans-Bold-43" d="M 4288 256 
Q 3956 84 3597 -3 
Q 3238 -91 2847 -91 
Q 1681 -91 1000 561 
Q 319 1213 319 2328 
Q 319 3447 1000 4098 
Q 1681 4750 2847 4750 
Q 3238 4750 3597 4662 
Q 3956 4575 4288 4403 
L 4288 3438 
Q 3953 3666 3628 3772 
Q 3303 3878 2944 3878 
Q 2300 3878 1931 3465 
Q 1563 3053 1563 2328 
Q 1563 1606 1931 1193 
Q 2300 781 2944 781 
Q 3303 781 3628 887 
Q 3953 994 4288 1222 
L 4288 256 
z
" transform="scale(0.015625)"/>
      <path id="DejaVuSans-Bold-61" d="M 2106 1575 
Q 1756 1575 1579 1456 
Q 1403 1338 1403 1106 
Q 1403 894 1545 773 
Q 1688 653 1941 653 
Q 2256 653 2472 879 
Q 2688 1106 2688 1447 
L 2688 1575 
L 2106 1575 
z
M 3816 1997 
L 3816 0 
L 2688 0 
L 2688 519 
Q 2463 200 2181 54 
Q 1900 -91 1497 -91 
Q 953 -91 614 226 
Q 275 544 275 1050 
Q 275 1666 698 1953 
Q 1122 2241 2028 2241 
L 2688 2241 
L 2688 2328 
Q 2688 2594 2478 2717 
Q 2269 2841 1825 2841 
Q 1466 2841 1156 2769 
Q 847 2697 581 2553 
L 581 3406 
Q 941 3494 1303 3539 
Q 1666 3584 2028 3584 
Q 2975 3584 3395 3211 
Q 3816 2838 3816 1997 
z
" transform="scale(0.015625)"/>
      <path id="DejaVuSans-Bold-6c" d="M 538 4863 
L 1656 4863 
L 1656 0 
L 538 0 
L 538 4863 
z
" transform="scale(0.015625)"/>
      <path id="DejaVuSans-Bold-69" d="M 538 3500 
L 1656 3500 
L 1656 0 
L 538 0 
L 538 3500 
z
M 538 4863 
L 1656 4863 
L 1656 3950 
L 538 3950 
L 538 4863 
z
" transform="scale(0.015625)"/>
      <path id="DejaVuSans-Bold-62" d="M 2400 722 
Q 2759 722 2948 984 
Q 3138 1247 3138 1747 
Q 3138 2247 2948 2509 
Q 2759 2772 2400 2772 
Q 2041 2772 1848 2508 
Q 1656 2244 1656 1747 
Q 1656 1250 1848 986 
Q 2041 722 2400 722 
z
M 1656 2988 
Q 1888 3294 2169 3439 
Q 2450 3584 2816 3584 
Q 3463 3584 3878 3070 
Q 4294 2556 4294 1747 
Q 4294 938 3878 423 
Q 3463 -91 2816 -91 
Q 2450 -91 2169 54 
Q 1888 200 1656 506 
L 1656 0 
L 538 0 
L 538 4863 
L 1656 4863 
L 1656 2988 
z
" transform="scale(0.015625)"/>
      <path id="DejaVuSans-Bold-72" d="M 3138 2547 
Q 2991 2616 2845 2648 
Q 2700 2681 2553 2681 
Q 2122 2681 1889 2404 
Q 1656 2128 1656 1613 
L 1656 0 
L 538 0 
L 538 3500 
L 1656 3500 
L 1656 2925 
Q 1872 3269 2151 3426 
Q 2431 3584 2822 3584 
Q 2878 3584 2943 3579 
Q 3009 3575 3134 3559 
L 3138 2547 
z
" transform="scale(0.015625)"/>
      <path id="DejaVuSans-Bold-74" d="M 1759 4494 
L 1759 3500 
L 2913 3500 
L 2913 2700 
L 1759 2700 
L 1759 1216 
Q 1759 972 1856 886 
Q 1953 800 2241 800 
L 2816 800 
L 2816 0 
L 1856 0 
Q 1194 0 917 276 
Q 641 553 641 1216 
L 641 2700 
L 84 2700 
L 84 3500 
L 641 3500 
L 641 4494 
L 1759 4494 
z
" transform="scale(0.015625)"/>
      <path id="DejaVuSans-Bold-6f" d="M 2203 2784 
Q 1831 2784 1636 2517 
Q 1441 2250 1441 1747 
Q 1441 1244 1636 976 
Q 1831 709 2203 709 
Q 2569 709 2762 976 
Q 2956 1244 2956 1747 
Q 2956 2250 2762 2517 
Q 2569 2784 2203 2784 
z
M 2203 3584 
Q 3106 3584 3614 3096 
Q 4122 2609 4122 1747 
Q 4122 884 3614 396 
Q 3106 -91 2203 -91 
Q 1297 -91 786 396 
Q 275 884 275 1747 
Q 275 2609 786 3096 
Q 1297 3584 2203 3584 
z
" transform="scale(0.015625)"/>
      <path id="DejaVuSans-Bold-6e" d="M 4056 2131 
L 4056 0 
L 2931 0 
L 2931 347 
L 2931 1631 
Q 2931 2084 2911 2256 
Q 2891 2428 2841 2509 
Q 2775 2619 2662 2680 
Q 2550 2741 2406 2741 
Q 2056 2741 1856 2470 
Q 1656 2200 1656 1722 
L 1656 0 
L 538 0 
L 538 3500 
L 1656 3500 
L 1656 2988 
Q 1909 3294 2193 3439 
Q 2478 3584 2822 3584 
Q 3428 3584 3742 3212 
Q 4056 2841 4056 2131 
z
" transform="scale(0.015625)"/>
      <path id="DejaVuSans-Bold-3a" d="M 716 3500 
L 1844 3500 
L 1844 2291 
L 716 2291 
L 716 3500 
z
M 716 1209 
L 1844 1209 
L 1844 0 
L 716 0 
L 716 1209 
z
" transform="scale(0.015625)"/>
      <path id="DejaVuSans-Bold-20" transform="scale(0.015625)"/>
      <path id="DejaVuSans-Bold-4a" d="M 588 4666 
L 1791 4666 
L 1791 453 
Q 1791 -419 1317 -850 
Q 844 -1281 -116 -1281 
L -359 -1281 
L -359 -372 
L -172 -372 
Q 203 -372 395 -162 
Q 588 47 588 453 
L 588 4666 
z
" transform="scale(0.015625)"/>
      <path id="DejaVuSans-Bold-65" d="M 4031 1759 
L 4031 1441 
L 1416 1441 
Q 1456 1047 1700 850 
Q 1944 653 2381 653 
Q 2734 653 3104 758 
Q 3475 863 3866 1075 
L 3866 213 
Q 3469 63 3072 -14 
Q 2675 -91 2278 -91 
Q 1328 -91 801 392 
Q 275 875 275 1747 
Q 275 2603 792 3093 
Q 1309 3584 2216 3584 
Q 3041 3584 3536 3087 
Q 4031 2591 4031 1759 
z
M 2881 2131 
Q 2881 2450 2695 2645 
Q 2509 2841 2209 2841 
Q 1884 2841 1681 2658 
Q 1478 2475 1428 2131 
L 2881 2131 
z
" transform="scale(0.015625)"/>
      <path id="DejaVuSans-Bold-2c" d="M 653 1209 
L 1778 1209 
L 1778 256 
L 1006 -909 
L 341 -909 
L 653 256 
L 653 1209 
z
" transform="scale(0.015625)"/>
      <path id="DejaVuSans-Bold-4d" d="M 588 4666 
L 2119 4666 
L 3181 2169 
L 4250 4666 
L 5778 4666 
L 5778 0 
L 4641 0 
L 4641 3413 
L 3566 897 
L 2803 897 
L 1728 3413 
L 1728 0 
L 588 0 
L 588 4666 
z
" transform="scale(0.015625)"/>
      <path id="DejaVuSans-Bold-75" d="M 500 1363 
L 500 3500 
L 1625 3500 
L 1625 3150 
Q 1625 2866 1622 2436 
Q 1619 2006 1619 1863 
Q 1619 1441 1641 1255 
Q 1663 1069 1716 984 
Q 1784 875 1895 815 
Q 2006 756 2150 756 
Q 2500 756 2700 1025 
Q 2900 1294 2900 1772 
L 2900 3500 
L 4019 3500 
L 4019 0 
L 2900 0 
L 2900 506 
Q 2647 200 2364 54 
Q 2081 -91 1741 -91 
Q 1134 -91 817 281 
Q 500 653 500 1363 
z
" transform="scale(0.015625)"/>
      <path id="DejaVuSans-Bold-70" d="M 1656 506 
L 1656 -1331 
L 538 -1331 
L 538 3500 
L 1656 3500 
L 1656 2988 
Q 1888 3294 2169 3439 
Q 2450 3584 2816 3584 
Q 3463 3584 3878 3070 
Q 4294 2556 4294 1747 
Q 4294 938 3878 423 
Q 3463 -91 2816 -91 
Q 2450 -91 2169 54 
Q 1888 200 1656 506 
z
M 2400 2772 
Q 2041 2772 1848 2508 
Q 1656 2244 1656 1747 
Q 1656 1250 1848 986 
Q 2041 722 2400 722 
Q 2759 722 2948 984 
Q 3138 1247 3138 1747 
Q 3138 2247 2948 2509 
Q 2759 2772 2400 2772 
z
" transform="scale(0.015625)"/>
      <path id="DejaVuSans-Bold-63" d="M 3366 3391 
L 3366 2478 
Q 3138 2634 2908 2709 
Q 2678 2784 2431 2784 
Q 1963 2784 1702 2511 
Q 1441 2238 1441 1747 
Q 1441 1256 1702 982 
Q 1963 709 2431 709 
Q 2694 709 2930 787 
Q 3166 866 3366 1019 
L 3366 103 
Q 3103 6 2833 -42 
Q 2563 -91 2291 -91 
Q 1344 -91 809 395 
Q 275 881 275 1747 
Q 275 2613 809 3098 
Q 1344 3584 2291 3584 
Q 2566 3584 2833 3536 
Q 3100 3488 3366 3391 
z
" transform="scale(0.015625)"/>
      <path id="DejaVuSans-Bold-73" d="M 3272 3391 
L 3272 2541 
Q 2913 2691 2578 2766 
Q 2244 2841 1947 2841 
Q 1628 2841 1473 2761 
Q 1319 2681 1319 2516 
Q 1319 2381 1436 2309 
Q 1553 2238 1856 2203 
L 2053 2175 
Q 2913 2066 3209 1816 
Q 3506 1566 3506 1031 
Q 3506 472 3093 190 
Q 2681 -91 1863 -91 
Q 1516 -91 1145 -36 
Q 775 19 384 128 
L 384 978 
Q 719 816 1070 734 
Q 1422 653 1784 653 
Q 2113 653 2278 743 
Q 2444 834 2444 1013 
Q 2444 1163 2330 1236 
Q 2216 1309 1875 1350 
L 1678 1375 
Q 931 1469 631 1722 
Q 331 1975 331 2491 
Q 331 3047 712 3315 
Q 1094 3584 1881 3584 
Q 2191 3584 2531 3537 
Q 2872 3491 3272 3391 
z
" transform="scale(0.015625)"/>
     </defs>
     <use xlink:href="#DejaVuSans-Bold-43"/>
     <use xlink:href="#DejaVuSans-Bold-61" transform="translate(73.388672 0)"/>
     <use xlink:href="#DejaVuSans-Bold-6c" transform="translate(140.869141 0)"/>
     <use xlink:href="#DejaVuSans-Bold-69" transform="translate(175.146484 0)"/>
     <use xlink:href="#DejaVuSans-Bold-62" transform="translate(209.423828 0)"/>
     <use xlink:href="#DejaVuSans-Bold-72" transform="translate(281.005859 0)"/>
     <use xlink:href="#DejaVuSans-Bold-61" transform="translate(330.322266 0)"/>
     <use xlink:href="#DejaVuSans-Bold-74" transform="translate(397.802734 0)"/>
     <use xlink:href="#DejaVuSans-Bold-69" transform="translate(445.605469 0)"/>
     <use xlink:href="#DejaVuSans-Bold-6f" transform="translate(479.882812 0)"/>
     <use xlink:href="#DejaVuSans-Bold-6e" transform="translate(548.583984 0)"/>
     <use xlink:href="#DejaVuSans-Bold-3a" transform="translate(619.775391 0)"/>
     <use xlink:href="#DejaVuSans-Bold-20" transform="translate(659.765625 0)"/>
     <use xlink:href="#DejaVuSans-Bold-4a" transform="translate(694.580078 0)"/>
     <use xlink:href="#DejaVuSans-Bold-69" transform="translate(731.787109 0)"/>
     <use xlink:href="#DejaVuSans-Bold-74" transform="translate(766.064453 0)"/>
     <use xlink:href="#DejaVuSans-Bold-74" transform="translate(813.867188 0)"/>
     <use xlink:href="#DejaVuSans-Bold-65" transform="translate(861.669922 0)"/>
     <use xlink:href="#DejaVuSans-Bold-72" transform="translate(929.492188 0)"/>
     <use xlink:href="#DejaVuSans-Bold-2c" transform="translate(964.058594 0)"/>
     <use xlink:href="#DejaVuSans-Bold-20" transform="translate(1002.046875 0)"/>
     <use xlink:href="#DejaVuSans-Bold-4d" transform="translate(1036.861328 0)"/>
     <use xlink:href="#DejaVuSans-Bold-75" transform="translate(1136.373047 0)"/>
     <use xlink:href="#DejaVuSans-Bold-6c" transform="translate(1207.564453 0)"/>
     <use xlink:href="#DejaVuSans-Bold-74" transform="translate(1241.841797 0)"/>
     <use xlink:href="#DejaVuSans-Bold-69" transform="translate(1289.644531 0)"/>
     <use xlink:href="#DejaVuSans-Bold-70" transform="translate(1323.921875 0)"/>
     <use xlink:href="#DejaVuSans-Bold-72" transform="translate(1395.503906 0)"/>
     <use xlink:href="#DejaVuSans-Bold-6f" transform="translate(1444.820312 0)"/>
     <use xlink:href="#DejaVuSans-Bold-63" transform="translate(1513.521484 0)"/>
     <use xlink:href="#DejaVuSans-Bold-65" transform="translate(1572.798828 0)"/>
     <use xlink:href="#DejaVuSans-Bold-73" transform="translate(1640.621094 0)"/>
     <use xlink:href="#DejaVuSans-Bold-73" transform="translate(1700.142578 0)"/>
    </g>
   </g>
  </g>
 </g>
 <defs>
  <clipPath id="p5d6c5b0a62">
   <rect x="29.8" y="22.318125" width="343.06192" height="175.888"/>
  </clipPath>
 </defs>
</svg>
