<?xml version="1.0" encoding="utf-8" standalone="no"?>
<!DOCTYPE svg PUBLIC "-//W3C//DTD SVG 1.1//EN"
  "http://www.w3.org/Graphics/SVG/1.1/DTD/svg11.dtd">
<svg xmlns:xlink="http://www.w3.org/1999/xlink" width="863.684687pt" height="421.337152pt" viewBox="0 0 863.684687 421.337152" xmlns="http://www.w3.org/2000/svg" version="1.1">
 <metadata>
  <rdf:RDF xmlns:dc="http://purl.org/dc/elements/1.1/" xmlns:cc="http://creativecommons.org/ns#" xmlns:rdf="http://www.w3.org/1999/02/22-rdf-syntax-ns#">
   <cc:Work>
    <dc:type rdf:resource="http://purl.org/dc/dcmitype/StillImage"/>
    <dc:date>2026-04-22T22:30:00.156789</dc:date>
    <dc:format>image/svg+xml</dc:format>
    <dc:creator>
     <cc:Agent>
      <dc:title>Matplotlib v3.10.7, https://matplotlib.org/</dc:title>
     </cc:Agent>
    </dc:creator>
   </cc:Work>
  </rdf:RDF>
 </metadata>
 <defs>
  <style type="text/css">*{stroke-linejoin: round; stroke-linecap: butt}</style>
 </defs>
 <g id="figure_1">
  <g id="patch_1">
   <path d="M 0 421.337152 
L 863.684687 421.337152 
L 863.684687 0 
L 0 0 
z
" style="fill: #ffffff"/>
  </g>
  <g id="axes_1">
   <g id="patch_2">
    <path d="M 46.684688 381.484644 
L 856.484687 381.484644 
L 856.484687 37.84 
L 46.684688 37.84 
z
" style="fill: #ffffff"/>
   </g>
   <g id="matplotlib.axis_1">
    <g id="xtick_1">
     <g id="line2d_1">
      <defs>
       <path id="mb8281c5602" d="M 0 0 
L 0 3.5 
" style="stroke: #010101; stroke-width: 0.8"/>
      </defs>
      <g>
       <use xlink:href="#mb8281c5602" x="83.493778" y="381.484644" style="fill: #010101; stroke: #010101; stroke-width: 0.8"/>
      </g>
     </g>
     <g id="text_1">
      <!-- $TAS_{1}$ -->
      <g style="fill: #010101" transform="translate(64.981944 410.898824) rotate(-45) scale(0.1 -0.1)">
       <defs>
        <path id="DejaVuSans-Oblique-54" d="M 378 4666 
L 4325 4666 
L 4225 4134 
L 2559 4134 
L 1759 0 
L 1125 0 
L 1925 4134 
L 275 4134 
L 378 4666 
z
" transform="scale(0.015625)"/>
        <path id="DejaVuSans-Oblique-41" d="M 2356 4666 
L 3072 4666 
L 3938 0 
L 3278 0 
L 3084 1197 
L 984 1197 
L 325 0 
L -341 0 
L 2356 4666 
z
M 2584 4044 
L 1275 1722 
L 2988 1722 
L 2584 4044 
z
" transform="scale(0.015625)"/>
        <path id="DejaVuSans-Oblique-53" d="M 3859 4513 
L 3738 3897 
Q 3422 4066 3111 4152 
Q 2800 4238 2509 4238 
Q 1944 4238 1609 3991 
Q 1275 3744 1275 3334 
Q 1275 3109 1398 2989 
Q 1522 2869 2034 2731 
L 2413 2638 
Q 3053 2472 3303 2217 
Q 3553 1963 3553 1503 
Q 3553 797 2998 353 
Q 2444 -91 1538 -91 
Q 1166 -91 791 -17 
Q 416 56 38 206 
L 166 856 
Q 513 641 861 531 
Q 1209 422 1556 422 
Q 2147 422 2503 684 
Q 2859 947 2859 1369 
Q 2859 1650 2717 1795 
Q 2575 1941 2106 2059 
L 1728 2156 
Q 1081 2325 845 2545 
Q 609 2766 609 3163 
Q 609 3859 1145 4304 
Q 1681 4750 2541 4750 
Q 2875 4750 3203 4690 
Q 3531 4631 3859 4513 
z
" transform="scale(0.015625)"/>
        <path id="DejaVuSans-31" d="M 794 531 
L 1825 531 
L 1825 4091 
L 703 3866 
L 703 4441 
L 1819 4666 
L 2450 4666 
L 2450 531 
L 3481 531 
L 3481 0 
L 794 0 
L 794 531 
z
" transform="scale(0.015625)"/>
       </defs>
       <use xlink:href="#DejaVuSans-Oblique-54" transform="translate(0 0.78125)"/>
       <use xlink:href="#DejaVuSans-Oblique-41" transform="translate(61.083984 0.78125)"/>
       <use xlink:href="#DejaVuSans-Oblique-53" transform="translate(129.492188 0.78125)"/>
       <use xlink:href="#DejaVuSans-31" transform="translate(192.96875 -15.625) scale(0.7)"/>
      </g>
     </g>
    </g>
    <g id="xtick_2">
     <g id="line2d_2">
      <g>
       <use xlink:href="#mb8281c5602" x="144.842263" y="381.484644" style="fill: #010101; stroke: #010101; stroke-width: 0.8"/>
      </g>
     </g>
     <g id="text_2">
      <!-- $TAS_{2}$ -->
      <g style="fill: #010101" transform="translate(126.330429 410.898824) rotate(-45) scale(0.1 -0.1)">
       <defs>
        <path id="DejaVuSans-32" d="M 1228 531 
L 3431 531 
L 3431 0 
L 469 0 
L 469 531 
Q 828 903 1448 1529 
Q 2069 2156 2228 2338 
Q 2531 2678 2651 2914 
Q 2772 3150 2772 3378 
Q 2772 3750 2511 3984 
Q 2250 4219 1831 4219 
Q 1534 4219 1204 4116 
Q 875 4013 500 3803 
L 500 4441 
Q 881 4594 1212 4672 
Q 1544 4750 1819 4750 
Q 2544 4750 2975 4387 
Q 3406 4025 3406 3419 
Q 3406 3131 3298 2873 
Q 3191 2616 2906 2266 
Q 2828 2175 2409 1742 
Q 1991 1309 1228 531 
z
" transform="scale(0.015625)"/>
       </defs>
       <use xlink:href="#DejaVuSans-Oblique-54" transform="translate(0 0.78125)"/>
       <use xlink:href="#DejaVuSans-Oblique-41" transform="translate(61.083984 0.78125)"/>
       <use xlink:href="#DejaVuSans-Oblique-53" transform="translate(129.492188 0.78125)"/>
       <use xlink:href="#DejaVuSans-32" transform="translate(192.96875 -15.625) scale(0.7)"/>
      </g>
     </g>
    </g>
    <g id="xtick_3">
     <g id="line2d_3">
      <g>
       <use xlink:href="#mb8281c5602" x="206.190748" y="381.484644" style="fill: #010101; stroke: #010101; stroke-width: 0.8"/>
      </g>
     </g>
     <g id="text_3">
      <!-- $TAS_{3}$ -->
      <g style="fill: #010101" transform="translate(187.678914 410.898824) rotate(-45) scale(0.1 -0.1)">
       <defs>
        <path id="DejaVuSans-33" d="M 2597 2516 
Q 3050 2419 3304 2112 
Q 3559 1806 3559 1356 
Q 3559 666 3084 287 
Q 2609 -91 1734 -91 
Q 1441 -91 1130 -33 
Q 819 25 488 141 
L 488 750 
Q 750 597 1062 519 
Q 1375 441 1716 441 
Q 2309 441 2620 675 
Q 2931 909 2931 1356 
Q 2931 1769 2642 2001 
Q 2353 2234 1838 2234 
L 1294 2234 
L 1294 2753 
L 1863 2753 
Q 2328 2753 2575 2939 
Q 2822 3125 2822 3475 
Q 2822 3834 2567 4026 
Q 2313 4219 1838 4219 
Q 1578 4219 1281 4162 
Q 984 4106 628 3988 
L 628 4550 
Q 988 4650 1302 4700 
Q 1616 4750 1894 4750 
Q 2613 4750 3031 4423 
Q 3450 4097 3450 3541 
Q 3450 3153 3228 2886 
Q 3006 2619 2597 2516 
z
" transform="scale(0.015625)"/>
       </defs>
       <use xlink:href="#DejaVuSans-Oblique-54" transform="translate(0 0.78125)"/>
       <use xlink:href="#DejaVuSans-Oblique-41" transform="translate(61.083984 0.78125)"/>
       <use xlink:href="#DejaVuSans-Oblique-53" transform="translate(129.492188 0.78125)"/>
       <use xlink:href="#DejaVuSans-33" transform="translate(192.96875 -15.625) scale(0.7)"/>
      </g>
     </g>
    </g>
    <g id="xtick_4">
     <g id="line2d_4">
      <g>
       <use xlink:href="#mb8281c5602" x="267.539233" y="381.484644" style="fill: #010101; stroke: #010101; stroke-width: 0.8"/>
      </g>
     </g>
     <g id="text_4">
      <!-- $MAS_{1}$ -->
      <g style="fill: #010101" transform="translate(247.259631 412.666591) rotate(-45) scale(0.1 -0.1)">
       <defs>
        <path id="DejaVuSans-Oblique-4d" d="M 1081 4666 
L 2028 4666 
L 2572 1522 
L 4378 4666 
L 5350 4666 
L 4441 0 
L 3828 0 
L 4622 4091 
L 2791 897 
L 2175 897 
L 1581 4103 
L 788 0 
L 172 0 
L 1081 4666 
z
" transform="scale(0.015625)"/>
       </defs>
       <use xlink:href="#DejaVuSans-Oblique-4d" transform="translate(0 0.78125)"/>
       <use xlink:href="#DejaVuSans-Oblique-41" transform="translate(86.279297 0.78125)"/>
       <use xlink:href="#DejaVuSans-Oblique-53" transform="translate(154.6875 0.78125)"/>
       <use xlink:href="#DejaVuSans-31" transform="translate(218.164062 -15.625) scale(0.7)"/>
      </g>
     </g>
    </g>
    <g id="xtick_5">
     <g id="line2d_5">
      <g>
       <use xlink:href="#mb8281c5602" x="328.887718" y="381.484644" style="fill: #010101; stroke: #010101; stroke-width: 0.8"/>
      </g>
     </g>
     <g id="text_5">
      <!-- $MAS_{2}$ -->
      <g style="fill: #010101" transform="translate(308.608116 412.666591) rotate(-45) scale(0.1 -0.1)">
       <use xlink:href="#DejaVuSans-Oblique-4d" transform="translate(0 0.78125)"/>
       <use xlink:href="#DejaVuSans-Oblique-41" transform="translate(86.279297 0.78125)"/>
       <use xlink:href="#DejaVuSans-Oblique-53" transform="translate(154.6875 0.78125)"/>
       <use xlink:href="#DejaVuSans-32" transform="translate(218.164062 -15.625) scale(0.7)"/>
      </g>
     </g>
    </g>
    <g id="xtick_6">
     <g id="line2d_6">
      <g>
       <use xlink:href="#mb8281c5602" x="390.236203" y="381.484644" style="fill: #010101; stroke: #010101; stroke-width: 0.8"/>
      </g>
     </g>
     <g id="text_6">
      <!-- $MAS_{3}$ -->
      <g style="fill: #010101" transform="translate(369.956601 412.666591) rotate(-45) scale(0.1 -0.1)">
       <use xlink:href="#DejaVuSans-Oblique-4d" transform="translate(0 0.78125)"/>
       <use xlink:href="#DejaVuSans-Oblique-41" transform="translate(86.279297 0.78125)"/>
       <use xlink:href="#DejaVuSans-Oblique-53" transform="translate(154.6875 0.78125)"/>
       <use xlink:href="#DejaVuSans-33" transform="translate(218.164062 -15.625) scale(0.7)"/>
      </g>
     </g>
    </g>
    <g id="xtick_7">
     <g id="line2d_7">
      <g>
       <use xlink:href="#mb8281c5602" x="451.584687" y="381.484644" style="fill: #010101; stroke: #010101; stroke-width: 0.8"/>
      </g>
     </g>
     <g id="text_7">
      <!-- $AS_{1}$ -->
      <g style="fill: #010101" transform="translate(437.386204 406.585473) rotate(-45) scale(0.1 -0.1)">
       <use xlink:href="#DejaVuSans-Oblique-41" transform="translate(0 0.78125)"/>
       <use xlink:href="#DejaVuSans-Oblique-53" transform="translate(68.408203 0.78125)"/>
       <use xlink:href="#DejaVuSans-31" transform="translate(131.884766 -15.625) scale(0.7)"/>
      </g>
     </g>
    </g>
    <g id="xtick_8">
     <g id="line2d_8">
      <g>
       <use xlink:href="#mb8281c5602" x="512.933172" y="381.484644" style="fill: #010101; stroke: #010101; stroke-width: 0.8"/>
      </g>
     </g>
     <g id="text_8">
      <!-- $AS_{2}$ -->
      <g style="fill: #010101" transform="translate(498.734689 406.585473) rotate(-45) scale(0.1 -0.1)">
       <use xlink:href="#DejaVuSans-Oblique-41" transform="translate(0 0.78125)"/>
       <use xlink:href="#DejaVuSans-Oblique-53" transform="translate(68.408203 0.78125)"/>
       <use xlink:href="#DejaVuSans-32" transform="translate(131.884766 -15.625) scale(0.7)"/>
      </g>
     </g>
    </g>
    <g id="xtick_9">
     <g id="line2d_9">
      <g>
       <use xlink:href="#mb8281c5602" x="574.281657" y="381.484644" style="fill: #010101; stroke: #010101; stroke-width: 0.8"/>
      </g>
     </g>
     <g id="text_9">
      <!-- $AS_{3}$ -->
      <g style="fill: #010101" transform="translate(560.083174 406.585473) rotate(-45) scale(0.1 -0.1)">
       <use xlink:href="#DejaVuSans-Oblique-41" transform="translate(0 0.78125)"/>
       <use xlink:href="#DejaVuSans-Oblique-53" transform="translate(68.408203 0.78125)"/>
       <use xlink:href="#DejaVuSans-33" transform="translate(131.884766 -15.625) scale(0.7)"/>
      </g>
     </g>
    </g>
    <g id="xtick_10">
     <g id="line2d_10">
      <g>
       <use xlink:href="#mb8281c5602" x="635.630142" y="381.484644" style="fill: #010101; stroke: #010101; stroke-width: 0.8"/>
      </g>
     </g>
     <g id="text_10">
      <!-- $TAS_{4}$ -->
      <g style="fill: #010101" transform="translate(617.118307 410.898824) rotate(-45) scale(0.1 -0.1)">
       <defs>
        <path id="DejaVuSans-34" d="M 2419 4116 
L 825 1625 
L 2419 1625 
L 2419 4116 
z
M 2253 4666 
L 3047 4666 
L 3047 1625 
L 3713 1625 
L 3713 1100 
L 3047 1100 
L 3047 0 
L 2419 0 
L 2419 1100 
L 313 1100 
L 313 1709 
L 2253 4666 
z
" transform="scale(0.015625)"/>
       </defs>
       <use xlink:href="#DejaVuSans-Oblique-54" transform="translate(0 0.78125)"/>
       <use xlink:href="#DejaVuSans-Oblique-41" transform="translate(61.083984 0.78125)"/>
       <use xlink:href="#DejaVuSans-Oblique-53" transform="translate(129.492188 0.78125)"/>
       <use xlink:href="#DejaVuSans-34" transform="translate(192.96875 -15.625) scale(0.7)"/>
      </g>
     </g>
    </g>
    <g id="xtick_11">
     <g id="line2d_11">
      <g>
       <use xlink:href="#mb8281c5602" x="696.978627" y="381.484644" style="fill: #010101; stroke: #010101; stroke-width: 0.8"/>
      </g>
     </g>
     <g id="text_11">
      <!-- $DS_{3}$ -->
      <g style="fill: #010101" transform="translate(682.214458 407.151158) rotate(-45) scale(0.1 -0.1)">
       <defs>
        <path id="DejaVuSans-Oblique-44" d="M 1081 4666 
L 2438 4666 
Q 3519 4666 4070 4208 
Q 4622 3750 4622 2847 
Q 4622 2250 4412 1698 
Q 4203 1147 3834 769 
Q 3463 381 2891 190 
Q 2319 0 1538 0 
L 172 0 
L 1081 4666 
z
M 1613 4147 
L 909 519 
L 1734 519 
Q 2794 519 3375 1128 
Q 3956 1738 3956 2847 
Q 3956 3519 3581 3833 
Q 3206 4147 2406 4147 
L 1613 4147 
z
" transform="scale(0.015625)"/>
       </defs>
       <use xlink:href="#DejaVuSans-Oblique-44" transform="translate(0 0.78125)"/>
       <use xlink:href="#DejaVuSans-Oblique-53" transform="translate(77.001953 0.78125)"/>
       <use xlink:href="#DejaVuSans-33" transform="translate(140.478516 -15.625) scale(0.7)"/>
      </g>
     </g>
    </g>
    <g id="xtick_12">
     <g id="line2d_12">
      <g>
       <use xlink:href="#mb8281c5602" x="758.327112" y="381.484644" style="fill: #010101; stroke: #010101; stroke-width: 0.8"/>
      </g>
     </g>
     <g id="text_12">
      <!-- $TAS_{5}$ -->
      <g style="fill: #010101" transform="translate(739.815277 410.898824) rotate(-45) scale(0.1 -0.1)">
       <defs>
        <path id="DejaVuSans-35" d="M 691 4666 
L 3169 4666 
L 3169 4134 
L 1269 4134 
L 1269 2991 
Q 1406 3038 1543 3061 
Q 1681 3084 1819 3084 
Q 2600 3084 3056 2656 
Q 3513 2228 3513 1497 
Q 3513 744 3044 326 
Q 2575 -91 1722 -91 
Q 1428 -91 1123 -41 
Q 819 9 494 109 
L 494 744 
Q 775 591 1075 516 
Q 1375 441 1709 441 
Q 2250 441 2565 725 
Q 2881 1009 2881 1497 
Q 2881 1984 2565 2268 
Q 2250 2553 1709 2553 
Q 1456 2553 1204 2497 
Q 953 2441 691 2322 
L 691 4666 
z
" transform="scale(0.015625)"/>
       </defs>
       <use xlink:href="#DejaVuSans-Oblique-54" transform="translate(0 0.78125)"/>
       <use xlink:href="#DejaVuSans-Oblique-41" transform="translate(61.083984 0.78125)"/>
       <use xlink:href="#DejaVuSans-Oblique-53" transform="translate(129.492188 0.78125)"/>
       <use xlink:href="#DejaVuSans-35" transform="translate(192.96875 -15.625) scale(0.7)"/>
      </g>
     </g>
    </g>
    <g id="xtick_13">
     <g id="line2d_13">
      <g>
       <use xlink:href="#mb8281c5602" x="819.675597" y="381.484644" style="fill: #010101; stroke: #010101; stroke-width: 0.8"/>
      </g>
     </g>
     <g id="text_13">
      <!-- $TAS_{6}$ -->
      <g style="fill: #010101" transform="translate(801.163762 410.898824) rotate(-45) scale(0.1 -0.1)">
       <defs>
        <path id="DejaVuSans-36" d="M 2113 2584 
Q 1688 2584 1439 2293 
Q 1191 2003 1191 1497 
Q 1191 994 1439 701 
Q 1688 409 2113 409 
Q 2538 409 2786 701 
Q 3034 994 3034 1497 
Q 3034 2003 2786 2293 
Q 2538 2584 2113 2584 
z
M 3366 4563 
L 3366 3988 
Q 3128 4100 2886 4159 
Q 2644 4219 2406 4219 
Q 1781 4219 1451 3797 
Q 1122 3375 1075 2522 
Q 1259 2794 1537 2939 
Q 1816 3084 2150 3084 
Q 2853 3084 3261 2657 
Q 3669 2231 3669 1497 
Q 3669 778 3244 343 
Q 2819 -91 2113 -91 
Q 1303 -91 875 529 
Q 447 1150 447 2328 
Q 447 3434 972 4092 
Q 1497 4750 2381 4750 
Q 2619 4750 2861 4703 
Q 3103 4656 3366 4563 
z
" transform="scale(0.015625)"/>
       </defs>
       <use xlink:href="#DejaVuSans-Oblique-54" transform="translate(0 0.78125)"/>
       <use xlink:href="#DejaVuSans-Oblique-41" transform="translate(61.083984 0.78125)"/>
       <use xlink:href="#DejaVuSans-Oblique-53" transform="translate(129.492188 0.78125)"/>
       <use xlink:href="#DejaVuSans-36" transform="translate(192.96875 -15.625) scale(0.7)"/>
      </g>
     </g>
    </g>
   </g>
   <g id="matplotlib.axis_2">
    <g id="ytick_1">
     <g id="line2d_14">
      <path d="M 46.684688 339.18863 
L 856.484687 339.18863 
" clip-path="url(#p22ce5dea65)" style="fill: none; stroke-dasharray: 2.96,1.28; stroke-dashoffset: 0; stroke: #555555; stroke-opacity: 0.7; stroke-width: 0.8"/>
     </g>
     <g id="line2d_15">
      <defs>
       <path id="m5188400a66" d="M 0 0 
L -3.5 0 
" style="stroke: #010101; stroke-width: 0.8"/>
      </defs>
      <g>
       <use xlink:href="#m5188400a66" x="46.684688" y="339.18863" style="fill: #010101; stroke: #010101; stroke-width: 0.8"/>
      </g>
     </g>
     <g id="text_14">
      <!-- 0.1 -->
      <g style="fill: #010101" transform="translate(23.781562 342.987848) scale(0.1 -0.1)">
       <defs>
        <path id="DejaVuSans-30" d="M 2034 4250 
Q 1547 4250 1301 3770 
Q 1056 3291 1056 2328 
Q 1056 1369 1301 889 
Q 1547 409 2034 409 
Q 2525 409 2770 889 
Q 3016 1369 3016 2328 
Q 3016 3291 2770 3770 
Q 2525 4250 2034 4250 
z
M 2034 4750 
Q 2819 4750 3233 4129 
Q 3647 3509 3647 2328 
Q 3647 1150 3233 529 
Q 2819 -91 2034 -91 
Q 1250 -91 836 529 
Q 422 1150 422 2328 
Q 422 3509 836 4129 
Q 1250 4750 2034 4750 
z
" transform="scale(0.015625)"/>
        <path id="DejaVuSans-2e" d="M 684 794 
L 1344 794 
L 1344 0 
L 684 0 
L 684 794 
z
" transform="scale(0.015625)"/>
       </defs>
       <use xlink:href="#DejaVuSans-30"/>
       <use xlink:href="#DejaVuSans-2e" transform="translate(63.623047 0)"/>
       <use xlink:href="#DejaVuSans-31" transform="translate(95.410156 0)"/>
      </g>
     </g>
    </g>
    <g id="ytick_2">
     <g id="line2d_16">
      <path d="M 46.684688 292.245081 
L 856.484687 292.245081 
" clip-path="url(#p22ce5dea65)" style="fill: none; stroke-dasharray: 2.96,1.28; stroke-dashoffset: 0; stroke: #555555; stroke-opacity: 0.7; stroke-width: 0.8"/>
     </g>
     <g id="line2d_17">
      <g>
       <use xlink:href="#m5188400a66" x="46.684688" y="292.245081" style="fill: #010101; stroke: #010101; stroke-width: 0.8"/>
      </g>
     </g>
     <g id="text_15">
      <!-- 0.2 -->
      <g style="fill: #010101" transform="translate(23.781562 296.0443) scale(0.1 -0.1)">
       <use xlink:href="#DejaVuSans-30"/>
       <use xlink:href="#DejaVuSans-2e" transform="translate(63.623047 0)"/>
       <use xlink:href="#DejaVuSans-32" transform="translate(95.410156 0)"/>
      </g>
     </g>
    </g>
    <g id="ytick_3">
     <g id="line2d_18">
      <path d="M 46.684688 245.301533 
L 856.484687 245.301533 
" clip-path="url(#p22ce5dea65)" style="fill: none; stroke-dasharray: 2.96,1.28; stroke-dashoffset: 0; stroke: #555555; stroke-opacity: 0.7; stroke-width: 0.8"/>
     </g>
     <g id="line2d_19">
      <g>
       <use xlink:href="#m5188400a66" x="46.684688" y="245.301533" style="fill: #010101; stroke: #010101; stroke-width: 0.8"/>
      </g>
     </g>
     <g id="text_16">
      <!-- 0.3 -->
      <g style="fill: #010101" transform="translate(23.781562 249.100752) scale(0.1 -0.1)">
       <use xlink:href="#DejaVuSans-30"/>
       <use xlink:href="#DejaVuSans-2e" transform="translate(63.623047 0)"/>
       <use xlink:href="#DejaVuSans-33" transform="translate(95.410156 0)"/>
      </g>
     </g>
    </g>
    <g id="ytick_4">
     <g id="line2d_20">
      <path d="M 46.684688 198.357985 
L 856.484687 198.357985 
" clip-path="url(#p22ce5dea65)" style="fill: none; stroke-dasharray: 2.96,1.28; stroke-dashoffset: 0; stroke: #555555; stroke-opacity: 0.7; stroke-width: 0.8"/>
     </g>
     <g id="line2d_21">
      <g>
       <use xlink:href="#m5188400a66" x="46.684688" y="198.357985" style="fill: #010101; stroke: #010101; stroke-width: 0.8"/>
      </g>
     </g>
     <g id="text_17">
      <!-- 0.4 -->
      <g style="fill: #010101" transform="translate(23.781562 202.157204) scale(0.1 -0.1)">
       <use xlink:href="#DejaVuSans-30"/>
       <use xlink:href="#DejaVuSans-2e" transform="translate(63.623047 0)"/>
       <use xlink:href="#DejaVuSans-34" transform="translate(95.410156 0)"/>
      </g>
     </g>
    </g>
    <g id="ytick_5">
     <g id="line2d_22">
      <path d="M 46.684688 151.414437 
L 856.484687 151.414437 
" clip-path="url(#p22ce5dea65)" style="fill: none; stroke-dasharray: 2.96,1.28; stroke-dashoffset: 0; stroke: #555555; stroke-opacity: 0.7; stroke-width: 0.8"/>
     </g>
     <g id="line2d_23">
      <g>
       <use xlink:href="#m5188400a66" x="46.684688" y="151.414437" style="fill: #010101; stroke: #010101; stroke-width: 0.8"/>
      </g>
     </g>
     <g id="text_18">
      <!-- 0.5 -->
      <g style="fill: #010101" transform="translate(23.781562 155.213656) scale(0.1 -0.1)">
       <use xlink:href="#DejaVuSans-30"/>
       <use xlink:href="#DejaVuSans-2e" transform="translate(63.623047 0)"/>
       <use xlink:href="#DejaVuSans-35" transform="translate(95.410156 0)"/>
      </g>
     </g>
    </g>
    <g id="ytick_6">
     <g id="line2d_24">
      <path d="M 46.684688 104.470889 
L 856.484687 104.470889 
" clip-path="url(#p22ce5dea65)" style="fill: none; stroke-dasharray: 2.96,1.28; stroke-dashoffset: 0; stroke: #555555; stroke-opacity: 0.7; stroke-width: 0.8"/>
     </g>
     <g id="line2d_25">
      <g>
       <use xlink:href="#m5188400a66" x="46.684688" y="104.470889" style="fill: #010101; stroke: #010101; stroke-width: 0.8"/>
      </g>
     </g>
     <g id="text_19">
      <!-- 0.6 -->
      <g style="fill: #010101" transform="translate(23.781562 108.270108) scale(0.1 -0.1)">
       <use xlink:href="#DejaVuSans-30"/>
       <use xlink:href="#DejaVuSans-2e" transform="translate(63.623047 0)"/>
       <use xlink:href="#DejaVuSans-36" transform="translate(95.410156 0)"/>
      </g>
     </g>
    </g>
    <g id="ytick_7">
     <g id="line2d_26">
      <path d="M 46.684688 57.527341 
L 856.484687 57.527341 
" clip-path="url(#p22ce5dea65)" style="fill: none; stroke-dasharray: 2.96,1.28; stroke-dashoffset: 0; stroke: #555555; stroke-opacity: 0.7; stroke-width: 0.8"/>
     </g>
     <g id="line2d_27">
      <g>
       <use xlink:href="#m5188400a66" x="46.684688" y="57.527341" style="fill: #010101; stroke: #010101; stroke-width: 0.8"/>
      </g>
     </g>
     <g id="text_20">
      <!-- 0.7 -->
      <g style="fill: #010101" transform="translate(23.781562 61.32656) scale(0.1 -0.1)">
       <defs>
        <path id="DejaVuSans-37" d="M 525 4666 
L 3525 4666 
L 3525 4397 
L 1831 0 
L 1172 0 
L 2766 4134 
L 525 4134 
L 525 4666 
z
" transform="scale(0.015625)"/>
       </defs>
       <use xlink:href="#DejaVuSans-30"/>
       <use xlink:href="#DejaVuSans-2e" transform="translate(63.623047 0)"/>
       <use xlink:href="#DejaVuSans-37" transform="translate(95.410156 0)"/>
      </g>
     </g>
    </g>
    <g id="text_21">
     <!-- $\rho$ -->
     <g style="fill: #010101" transform="translate(17.051562 213.822322) rotate(-90) scale(0.13 -0.13)">
      <defs>
       <path id="DejaVuSans-Oblique-3c1" d="M 1203 2875 
Q 1453 3194 1981 3475 
Q 2188 3584 2756 3584 
Q 3394 3584 3694 3078 
Q 3994 2572 3834 1747 
Q 3672 922 3175 415 
Q 2678 -91 2041 -91 
Q 1656 -91 1409 63 
Q 1163 213 1044 525 
L 681 -1331 
L 103 -1331 
L 697 1716 
Q 838 2438 1203 2875 
z
M 3238 1747 
Q 3359 2381 3169 2744 
Q 2978 3103 2522 3103 
Q 2066 3103 1734 2744 
Q 1403 2381 1281 1747 
Q 1156 1113 1347 750 
Q 1538 391 1994 391 
Q 2450 391 2781 750 
Q 3113 1113 3238 1747 
z
" transform="scale(0.015625)"/>
      </defs>
      <use xlink:href="#DejaVuSans-Oblique-3c1"/>
     </g>
    </g>
   </g>
   <g id="LineCollection_1">
    <path d="M 83.493778 206.737797 
L 83.493778 203.506072 
" clip-path="url(#p22ce5dea65)" style="fill: none; stroke: #010101; stroke-width: 1.5"/>
    <path d="M 144.842263 214.802128 
L 144.842263 210.845238 
" clip-path="url(#p22ce5dea65)" style="fill: none; stroke: #010101; stroke-width: 1.5"/>
    <path d="M 206.190748 271.361317 
L 206.190748 267.902495 
" clip-path="url(#p22ce5dea65)" style="fill: none; stroke: #010101; stroke-width: 1.5"/>
    <path d="M 267.539233 136.512429 
L 267.539233 125.637206 
" clip-path="url(#p22ce5dea65)" style="fill: none; stroke: #010101; stroke-width: 1.5"/>
    <path d="M 328.887718 305.175108 
L 328.887718 302.199126 
" clip-path="url(#p22ce5dea65)" style="fill: none; stroke: #010101; stroke-width: 1.5"/>
    <path d="M 390.236203 68.051982 
L 390.236203 53.460211 
" clip-path="url(#p22ce5dea65)" style="fill: none; stroke: #010101; stroke-width: 1.5"/>
    <path d="M 451.584687 344.166145 
L 451.584687 342.524244 
" clip-path="url(#p22ce5dea65)" style="fill: none; stroke: #010101; stroke-width: 1.5"/>
    <path d="M 512.933172 318.891429 
L 512.933172 317.58286 
" clip-path="url(#p22ce5dea65)" style="fill: none; stroke: #010101; stroke-width: 1.5"/>
    <path d="M 574.281657 365.864433 
L 574.281657 365.075382 
" clip-path="url(#p22ce5dea65)" style="fill: none; stroke: #010101; stroke-width: 1.5"/>
    <path d="M 635.630142 216.542426 
L 635.630142 212.827609 
" clip-path="url(#p22ce5dea65)" style="fill: none; stroke: #010101; stroke-width: 1.5"/>
    <path d="M 696.978627 235.835542 
L 696.978627 232.634533 
" clip-path="url(#p22ce5dea65)" style="fill: none; stroke: #010101; stroke-width: 1.5"/>
    <path d="M 758.327112 273.195107 
L 758.327112 269.072238 
" clip-path="url(#p22ce5dea65)" style="fill: none; stroke: #010101; stroke-width: 1.5"/>
    <path d="M 819.675597 274.309267 
L 819.675597 270.878206 
" clip-path="url(#p22ce5dea65)" style="fill: none; stroke: #010101; stroke-width: 1.5"/>
   </g>
   <g id="line2d_28">
    <defs>
     <path id="m3b471c5352" d="M 5 0 
L -5 -0 
" style="stroke: #010101; stroke-width: 1.5"/>
    </defs>
    <g clip-path="url(#p22ce5dea65)">
     <use xlink:href="#m3b471c5352" x="83.493778" y="206.737797" style="fill: #427abe; stroke: #010101; stroke-width: 1.5"/>
     <use xlink:href="#m3b471c5352" x="144.842263" y="214.802128" style="fill: #427abe; stroke: #010101; stroke-width: 1.5"/>
     <use xlink:href="#m3b471c5352" x="206.190748" y="271.361317" style="fill: #427abe; stroke: #010101; stroke-width: 1.5"/>
     <use xlink:href="#m3b471c5352" x="267.539233" y="136.512429" style="fill: #427abe; stroke: #010101; stroke-width: 1.5"/>
     <use xlink:href="#m3b471c5352" x="328.887718" y="305.175108" style="fill: #427abe; stroke: #010101; stroke-width: 1.5"/>
     <use xlink:href="#m3b471c5352" x="390.236203" y="68.051982" style="fill: #427abe; stroke: #010101; stroke-width: 1.5"/>
     <use xlink:href="#m3b471c5352" x="451.584687" y="344.166145" style="fill: #427abe; stroke: #010101; stroke-width: 1.5"/>
     <use xlink:href="#m3b471c5352" x="512.933172" y="318.891429" style="fill: #427abe; stroke: #010101; stroke-width: 1.5"/>
     <use xlink:href="#m3b471c5352" x="574.281657" y="365.864433" style="fill: #427abe; stroke: #010101; stroke-width: 1.5"/>
     <use xlink:href="#m3b471c5352" x="635.630142" y="216.542426" style="fill: #427abe; stroke: #010101; stroke-width: 1.5"/>
     <use xlink:href="#m3b471c5352" x="696.978627" y="235.835542" style="fill: #427abe; stroke: #010101; stroke-width: 1.5"/>
     <use xlink:href="#m3b471c5352" x="758.327112" y="273.195107" style="fill: #427abe; stroke: #010101; stroke-width: 1.5"/>
     <use xlink:href="#m3b471c5352" x="819.675597" y="274.309267" style="fill: #427abe; stroke: #010101; stroke-width: 1.5"/>
    </g>
   </g>
   <g id="line2d_29">
    <g clip-path="url(#p22ce5dea65)">
     <use xlink:href="#m3b471c5352" x="83.493778" y="203.506072" style="fill: #427abe; stroke: #010101; stroke-width: 1.5"/>
     <use xlink:href="#m3b471c5352" x="144.842263" y="210.845238" style="fill: #427abe; stroke: #010101; stroke-width: 1.5"/>
     <use xlink:href="#m3b471c5352" x="206.190748" y="267.902495" style="fill: #427abe; stroke: #010101; stroke-width: 1.5"/>
     <use xlink:href="#m3b471c5352" x="267.539233" y="125.637206" style="fill: #427abe; stroke: #010101; stroke-width: 1.5"/>
     <use xlink:href="#m3b471c5352" x="328.887718" y="302.199126" style="fill: #427abe; stroke: #010101; stroke-width: 1.5"/>
     <use xlink:href="#m3b471c5352" x="390.236203" y="53.460211" style="fill: #427abe; stroke: #010101; stroke-width: 1.5"/>
     <use xlink:href="#m3b471c5352" x="451.584687" y="342.524244" style="fill: #427abe; stroke: #010101; stroke-width: 1.5"/>
     <use xlink:href="#m3b471c5352" x="512.933172" y="317.58286" style="fill: #427abe; stroke: #010101; stroke-width: 1.5"/>
     <use xlink:href="#m3b471c5352" x="574.281657" y="365.075382" style="fill: #427abe; stroke: #010101; stroke-width: 1.5"/>
     <use xlink:href="#m3b471c5352" x="635.630142" y="212.827609" style="fill: #427abe; stroke: #010101; stroke-width: 1.5"/>
     <use xlink:href="#m3b471c5352" x="696.978627" y="232.634533" style="fill: #427abe; stroke: #010101; stroke-width: 1.5"/>
     <use xlink:href="#m3b471c5352" x="758.327112" y="269.072238" style="fill: #427abe; stroke: #010101; stroke-width: 1.5"/>
     <use xlink:href="#m3b471c5352" x="819.675597" y="270.878206" style="fill: #427abe; stroke: #010101; stroke-width: 1.5"/>
    </g>
   </g>
   <g id="line2d_30">
    <defs>
     <path id="m245dcb9c7b" d="M -5 5 
L 5 -5 
M -5 -5 
L 5 5 
" style="stroke: #f0ab7e; stroke-width: 2"/>
    </defs>
    <g clip-path="url(#p22ce5dea65)">
     <use xlink:href="#m245dcb9c7b" x="83.493778" y="206.18191" style="fill: #f0ab7e; stroke: #f0ab7e; stroke-width: 2"/>
     <use xlink:href="#m245dcb9c7b" x="144.842263" y="212.608705" style="fill: #f0ab7e; stroke: #f0ab7e; stroke-width: 2"/>
     <use xlink:href="#m245dcb9c7b" x="206.190748" y="269.883019" style="fill: #f0ab7e; stroke: #f0ab7e; stroke-width: 2"/>
     <use xlink:href="#m245dcb9c7b" x="267.539233" y="133.077114" style="fill: #f0ab7e; stroke: #f0ab7e; stroke-width: 2"/>
     <use xlink:href="#m245dcb9c7b" x="328.887718" y="304.809552" style="fill: #f0ab7e; stroke: #f0ab7e; stroke-width: 2"/>
     <use xlink:href="#m245dcb9c7b" x="390.236203" y="60.246632" style="fill: #f0ab7e; stroke: #f0ab7e; stroke-width: 2"/>
     <use xlink:href="#m245dcb9c7b" x="451.584687" y="343.028557" style="fill: #f0ab7e; stroke: #f0ab7e; stroke-width: 2"/>
     <use xlink:href="#m245dcb9c7b" x="512.933172" y="317.906681" style="fill: #f0ab7e; stroke: #f0ab7e; stroke-width: 2"/>
     <use xlink:href="#m245dcb9c7b" x="574.281657" y="365.405444" style="fill: #f0ab7e; stroke: #f0ab7e; stroke-width: 2"/>
     <use xlink:href="#m245dcb9c7b" x="635.630142" y="214.34394" style="fill: #f0ab7e; stroke: #f0ab7e; stroke-width: 2"/>
     <use xlink:href="#m245dcb9c7b" x="696.978627" y="234.235209" style="fill: #f0ab7e; stroke: #f0ab7e; stroke-width: 2"/>
     <use xlink:href="#m245dcb9c7b" x="758.327112" y="271.045511" style="fill: #f0ab7e; stroke: #f0ab7e; stroke-width: 2"/>
     <use xlink:href="#m245dcb9c7b" x="819.675597" y="272.751941" style="fill: #f0ab7e; stroke: #f0ab7e; stroke-width: 2"/>
    </g>
   </g>
   <g id="line2d_31">
    <defs>
     <path id="mb40e8a0bd8" d="M 0 4 
C 1.060812 4 2.078319 3.578535 2.828427 2.828427 
C 3.578535 2.078319 4 1.060812 4 0 
C 4 -1.060812 3.578535 -2.078319 2.828427 -2.828427 
C 2.078319 -3.578535 1.060812 -4 0 -4 
C -1.060812 -4 -2.078319 -3.578535 -2.828427 -2.828427 
C -3.578535 -2.078319 -4 -1.060812 -4 0 
C -4 1.060812 -3.578535 2.078319 -2.828427 2.828427 
C -2.078319 3.578535 -1.060812 4 0 4 
z
" style="stroke: #427abe"/>
    </defs>
    <g clip-path="url(#p22ce5dea65)">
     <use xlink:href="#mb40e8a0bd8" x="83.493778" y="205.121934" style="fill: #427abe; stroke: #427abe"/>
     <use xlink:href="#mb40e8a0bd8" x="144.842263" y="212.823683" style="fill: #427abe; stroke: #427abe"/>
     <use xlink:href="#mb40e8a0bd8" x="206.190748" y="269.631906" style="fill: #427abe; stroke: #427abe"/>
     <use xlink:href="#mb40e8a0bd8" x="267.539233" y="131.074818" style="fill: #427abe; stroke: #427abe"/>
     <use xlink:href="#mb40e8a0bd8" x="328.887718" y="303.687117" style="fill: #427abe; stroke: #427abe"/>
     <use xlink:href="#mb40e8a0bd8" x="390.236203" y="60.756096" style="fill: #427abe; stroke: #427abe"/>
     <use xlink:href="#mb40e8a0bd8" x="451.584687" y="343.345194" style="fill: #427abe; stroke: #427abe"/>
     <use xlink:href="#mb40e8a0bd8" x="512.933172" y="318.237144" style="fill: #427abe; stroke: #427abe"/>
     <use xlink:href="#mb40e8a0bd8" x="574.281657" y="365.469908" style="fill: #427abe; stroke: #427abe"/>
     <use xlink:href="#mb40e8a0bd8" x="635.630142" y="214.685017" style="fill: #427abe; stroke: #427abe"/>
     <use xlink:href="#mb40e8a0bd8" x="696.978627" y="234.235037" style="fill: #427abe; stroke: #427abe"/>
     <use xlink:href="#mb40e8a0bd8" x="758.327112" y="271.133672" style="fill: #427abe; stroke: #427abe"/>
     <use xlink:href="#mb40e8a0bd8" x="819.675597" y="272.593737" style="fill: #427abe; stroke: #427abe"/>
    </g>
   </g>
   <g id="patch_3">
    <path d="M 46.684688 381.484644 
L 46.684688 37.84 
" style="fill: none; stroke: #010101; stroke-width: 0.8; stroke-linejoin: miter; stroke-linecap: square"/>
   </g>
   <g id="patch_4">
    <path d="M 856.484687 381.484644 
L 856.484687 37.84 
" style="fill: none; stroke: #010101; stroke-width: 0.8; stroke-linejoin: miter; stroke-linecap: square"/>
   </g>
   <g id="patch_5">
    <path d="M 46.684687 381.484644 
L 856.484687 381.484644 
" style="fill: none; stroke: #010101; stroke-width: 0.8; stroke-linejoin: miter; stroke-linecap: square"/>
   </g>
   <g id="patch_6">
    <path d="M 46.684687 37.84 
L 856.484687 37.84 
" style="fill: none; stroke: #010101; stroke-width: 0.8; stroke-linejoin: miter; stroke-linecap: square"/>
   </g>
   <g id="text_22">
    <!-- Before Adaptation - Per-node $\rho$ (95% CI) -->
    <g style="fill: #010101" transform="translate(292.964687 17.84) scale(0.14 -0.14)">
     <defs>
      <path id="DejaVuSans-Bold-42" d="M 2456 2859 
Q 2741 2859 2887 2984 
Q 3034 3109 3034 3353 
Q 3034 3594 2887 3720 
Q 2741 3847 2456 3847 
L 1791 3847 
L 1791 2859 
L 2456 2859 
z
M 2497 819 
Q 2859 819 3042 972 
Q 3225 1125 3225 1434 
Q 3225 1738 3044 1889 
Q 2863 2041 2497 2041 
L 1791 2041 
L 1791 819 
L 2497 819 
z
M 3616 2497 
Q 4003 2384 4215 2081 
Q 4428 1778 4428 1338 
Q 4428 663 3972 331 
Q 3516 0 2584 0 
L 588 0 
L 588 4666 
L 2394 4666 
Q 3366 4666 3802 4372 
Q 4238 4078 4238 3431 
Q 4238 3091 4078 2852 
Q 3919 2613 3616 2497 
z
" transform="scale(0.015625)"/>
      <path id="DejaVuSans-Bold-65" d="M 4031 1759 
L 4031 1441 
L 1416 1441 
Q 1456 1047 1700 850 
Q 1944 653 2381 653 
Q 2734 653 3104 758 
Q 3475 863 3866 1075 
L 3866 213 
Q 3469 63 3072 -14 
Q 2675 -91 2278 -91 
Q 1328 -91 801 392 
Q 275 875 275 1747 
Q 275 2603 792 3093 
Q 1309 3584 2216 3584 
Q 3041 3584 3536 3087 
Q 4031 2591 4031 1759 
z
M 2881 2131 
Q 2881 2450 2695 2645 
Q 2509 2841 2209 2841 
Q 1884 2841 1681 2658 
Q 1478 2475 1428 2131 
L 2881 2131 
z
" transform="scale(0.015625)"/>
      <path id="DejaVuSans-Bold-66" d="M 2841 4863 
L 2841 4128 
L 2222 4128 
Q 1984 4128 1890 4042 
Q 1797 3956 1797 3744 
L 1797 3500 
L 2753 3500 
L 2753 2700 
L 1797 2700 
L 1797 0 
L 678 0 
L 678 2700 
L 122 2700 
L 122 3500 
L 678 3500 
L 678 3744 
Q 678 4316 997 4589 
Q 1316 4863 1984 4863 
L 2841 4863 
z
" transform="scale(0.015625)"/>
      <path id="DejaVuSans-Bold-6f" d="M 2203 2784 
Q 1831 2784 1636 2517 
Q 1441 2250 1441 1747 
Q 1441 1244 1636 976 
Q 1831 709 2203 709 
Q 2569 709 2762 976 
Q 2956 1244 2956 1747 
Q 2956 2250 2762 2517 
Q 2569 2784 2203 2784 
z
M 2203 3584 
Q 3106 3584 3614 3096 
Q 4122 2609 4122 1747 
Q 4122 884 3614 396 
Q 3106 -91 2203 -91 
Q 1297 -91 786 396 
Q 275 884 275 1747 
Q 275 2609 786 3096 
Q 1297 3584 2203 3584 
z
" transform="scale(0.015625)"/>
      <path id="DejaVuSans-Bold-72" d="M 3138 2547 
Q 2991 2616 2845 2648 
Q 2700 2681 2553 2681 
Q 2122 2681 1889 2404 
Q 1656 2128 1656 1613 
L 1656 0 
L 538 0 
L 538 3500 
L 1656 3500 
L 1656 2925 
Q 1872 3269 2151 3426 
Q 2431 3584 2822 3584 
Q 2878 3584 2943 3579 
Q 3009 3575 3134 3559 
L 3138 2547 
z
" transform="scale(0.015625)"/>
      <path id="DejaVuSans-Bold-20" transform="scale(0.015625)"/>
      <path id="DejaVuSans-Bold-41" d="M 3419 850 
L 1538 850 
L 1241 0 
L 31 0 
L 1759 4666 
L 3194 4666 
L 4922 0 
L 3713 0 
L 3419 850 
z
M 1838 1716 
L 3116 1716 
L 2478 3572 
L 1838 1716 
z
" transform="scale(0.015625)"/>
      <path id="DejaVuSans-Bold-64" d="M 2919 2988 
L 2919 4863 
L 4044 4863 
L 4044 0 
L 2919 0 
L 2919 506 
Q 2688 197 2409 53 
Q 2131 -91 1766 -91 
Q 1119 -91 703 423 
Q 288 938 288 1747 
Q 288 2556 703 3070 
Q 1119 3584 1766 3584 
Q 2128 3584 2408 3439 
Q 2688 3294 2919 2988 
z
M 2181 722 
Q 2541 722 2730 984 
Q 2919 1247 2919 1747 
Q 2919 2247 2730 2509 
Q 2541 2772 2181 2772 
Q 1825 2772 1636 2509 
Q 1447 2247 1447 1747 
Q 1447 1247 1636 984 
Q 1825 722 2181 722 
z
" transform="scale(0.015625)"/>
      <path id="DejaVuSans-Bold-61" d="M 2106 1575 
Q 1756 1575 1579 1456 
Q 1403 1338 1403 1106 
Q 1403 894 1545 773 
Q 1688 653 1941 653 
Q 2256 653 2472 879 
Q 2688 1106 2688 1447 
L 2688 1575 
L 2106 1575 
z
M 3816 1997 
L 3816 0 
L 2688 0 
L 2688 519 
Q 2463 200 2181 54 
Q 1900 -91 1497 -91 
Q 953 -91 614 226 
Q 275 544 275 1050 
Q 275 1666 698 1953 
Q 1122 2241 2028 2241 
L 2688 2241 
L 2688 2328 
Q 2688 2594 2478 2717 
Q 2269 2841 1825 2841 
Q 1466 2841 1156 2769 
Q 847 2697 581 2553 
L 581 3406 
Q 941 3494 1303 3539 
Q 1666 3584 2028 3584 
Q 2975 3584 3395 3211 
Q 3816 2838 3816 1997 
z
" transform="scale(0.015625)"/>
      <path id="DejaVuSans-Bold-70" d="M 1656 506 
L 1656 -1331 
L 538 -1331 
L 538 3500 
L 1656 3500 
L 1656 2988 
Q 1888 3294 2169 3439 
Q 2450 3584 2816 3584 
Q 3463 3584 3878 3070 
Q 4294 2556 4294 1747 
Q 4294 938 3878 423 
Q 3463 -91 2816 -91 
Q 2450 -91 2169 54 
Q 1888 200 1656 506 
z
M 2400 2772 
Q 2041 2772 1848 2508 
Q 1656 2244 1656 1747 
Q 1656 1250 1848 986 
Q 2041 722 2400 722 
Q 2759 722 2948 984 
Q 3138 1247 3138 1747 
Q 3138 2247 2948 2509 
Q 2759 2772 2400 2772 
z
" transform="scale(0.015625)"/>
      <path id="DejaVuSans-Bold-74" d="M 1759 4494 
L 1759 3500 
L 2913 3500 
L 2913 2700 
L 1759 2700 
L 1759 1216 
Q 1759 972 1856 886 
Q 1953 800 2241 800 
L 2816 800 
L 2816 0 
L 1856 0 
Q 1194 0 917 276 
Q 641 553 641 1216 
L 641 2700 
L 84 2700 
L 84 3500 
L 641 3500 
L 641 4494 
L 1759 4494 
z
" transform="scale(0.015625)"/>
      <path id="DejaVuSans-Bold-69" d="M 538 3500 
L 1656 3500 
L 1656 0 
L 538 0 
L 538 3500 
z
M 538 4863 
L 1656 4863 
L 1656 3950 
L 538 3950 
L 538 4863 
z
" transform="scale(0.015625)"/>
      <path id="DejaVuSans-Bold-6e" d="M 4056 2131 
L 4056 0 
L 2931 0 
L 2931 347 
L 2931 1631 
Q 2931 2084 2911 2256 
Q 2891 2428 2841 2509 
Q 2775 2619 2662 2680 
Q 2550 2741 2406 2741 
Q 2056 2741 1856 2470 
Q 1656 2200 1656 1722 
L 1656 0 
L 538 0 
L 538 3500 
L 1656 3500 
L 1656 2988 
Q 1909 3294 2193 3439 
Q 2478 3584 2822 3584 
Q 3428 3584 3742 3212 
Q 4056 2841 4056 2131 
z
" transform="scale(0.015625)"/>
      <path id="DejaVuSans-Bold-2d" d="M 347 2297 
L 2309 2297 
L 2309 1388 
L 347 1388 
L 347 2297 
z
" transform="scale(0.015625)"/>
      <path id="DejaVuSans-Bold-50" d="M 588 4666 
L 2584 4666 
Q 3475 4666 3951 4270 
Q 4428 3875 4428 3144 
Q 4428 2409 3951 2014 
Q 3475 1619 2584 1619 
L 1791 1619 
L 1791 0 
L 588 0 
L 588 4666 
z
M 1791 3794 
L 1791 2491 
L 2456 2491 
Q 2806 2491 2997 2661 
Q 3188 2831 3188 3144 
Q 3188 3456 2997 3625 
Q 2806 3794 2456 3794 
L 1791 3794 
z
" transform="scale(0.015625)"/>
      <path id="DejaVuSans-Bold-28" d="M 2413 -844 
L 1484 -844 
Q 1006 -72 778 623 
Q 550 1319 550 2003 
Q 550 2688 779 3389 
Q 1009 4091 1484 4856 
L 2413 4856 
Q 2013 4116 1813 3408 
Q 1613 2700 1613 2009 
Q 1613 1319 1811 609 
Q 2009 -100 2413 -844 
z
" transform="scale(0.015625)"/>
      <path id="DejaVuSans-Bold-39" d="M 641 103 
L 641 966 
Q 928 831 1190 764 
Q 1453 697 1709 697 
Q 2247 697 2547 995 
Q 2847 1294 2900 1881 
Q 2688 1725 2447 1647 
Q 2206 1569 1925 1569 
Q 1209 1569 770 1986 
Q 331 2403 331 3084 
Q 331 3838 820 4291 
Q 1309 4744 2131 4744 
Q 3044 4744 3544 4128 
Q 4044 3513 4044 2388 
Q 4044 1231 3459 570 
Q 2875 -91 1856 -91 
Q 1528 -91 1228 -42 
Q 928 6 641 103 
z
M 2125 2350 
Q 2441 2350 2600 2554 
Q 2759 2759 2759 3169 
Q 2759 3575 2600 3781 
Q 2441 3988 2125 3988 
Q 1809 3988 1650 3781 
Q 1491 3575 1491 3169 
Q 1491 2759 1650 2554 
Q 1809 2350 2125 2350 
z
" transform="scale(0.015625)"/>
      <path id="DejaVuSans-Bold-35" d="M 678 4666 
L 3669 4666 
L 3669 3781 
L 1638 3781 
L 1638 3059 
Q 1775 3097 1914 3117 
Q 2053 3138 2203 3138 
Q 3056 3138 3531 2711 
Q 4006 2284 4006 1522 
Q 4006 766 3489 337 
Q 2972 -91 2053 -91 
Q 1656 -91 1267 -14 
Q 878 63 494 219 
L 494 1166 
Q 875 947 1217 837 
Q 1559 728 1863 728 
Q 2300 728 2551 942 
Q 2803 1156 2803 1522 
Q 2803 1891 2551 2103 
Q 2300 2316 1863 2316 
Q 1603 2316 1309 2248 
Q 1016 2181 678 2041 
L 678 4666 
z
" transform="scale(0.015625)"/>
      <path id="DejaVuSans-Bold-25" d="M 4959 1925 
Q 4738 1925 4616 1733 
Q 4494 1541 4494 1184 
Q 4494 825 4614 633 
Q 4734 441 4959 441 
Q 5184 441 5303 633 
Q 5422 825 5422 1184 
Q 5422 1541 5301 1733 
Q 5181 1925 4959 1925 
z
M 4959 2450 
Q 5541 2450 5875 2112 
Q 6209 1775 6209 1184 
Q 6209 594 5875 251 
Q 5541 -91 4959 -91 
Q 4378 -91 4042 251 
Q 3706 594 3706 1184 
Q 3706 1772 4042 2111 
Q 4378 2450 4959 2450 
z
M 2094 -91 
L 1403 -91 
L 4319 4750 
L 5013 4750 
L 2094 -91 
z
M 1453 4750 
Q 2034 4750 2367 4411 
Q 2700 4072 2700 3481 
Q 2700 2891 2367 2550 
Q 2034 2209 1453 2209 
Q 872 2209 539 2550 
Q 206 2891 206 3481 
Q 206 4072 539 4411 
Q 872 4750 1453 4750 
z
M 1453 4225 
Q 1228 4225 1106 4031 
Q 984 3838 984 3481 
Q 984 3122 1106 2926 
Q 1228 2731 1453 2731 
Q 1678 2731 1798 2926 
Q 1919 3122 1919 3481 
Q 1919 3838 1797 4031 
Q 1675 4225 1453 4225 
z
" transform="scale(0.015625)"/>
      <path id="DejaVuSans-Bold-43" d="M 4288 256 
Q 3956 84 3597 -3 
Q 3238 -91 2847 -91 
Q 1681 -91 1000 561 
Q 319 1213 319 2328 
Q 319 3447 1000 4098 
Q 1681 4750 2847 4750 
Q 3238 4750 3597 4662 
Q 3956 4575 4288 4403 
L 4288 3438 
Q 3953 3666 3628 3772 
Q 3303 3878 2944 3878 
Q 2300 3878 1931 3465 
Q 1563 3053 1563 2328 
Q 1563 1606 1931 1193 
Q 2300 781 2944 781 
Q 3303 781 3628 887 
Q 3953 994 4288 1222 
L 4288 256 
z
" transform="scale(0.015625)"/>
      <path id="DejaVuSans-Bold-49" d="M 588 4666 
L 1791 4666 
L 1791 0 
L 588 0 
L 588 4666 
z
" transform="scale(0.015625)"/>
      <path id="DejaVuSans-Bold-29" d="M 513 -844 
Q 913 -100 1113 609 
Q 1313 1319 1313 2009 
Q 1313 2700 1113 3408 
Q 913 4116 513 4856 
L 1441 4856 
Q 1916 4091 2145 3389 
Q 2375 2688 2375 2003 
Q 2375 1319 2147 623 
Q 1919 -72 1441 -844 
L 513 -844 
z
" transform="scale(0.015625)"/>
     </defs>
     <use xlink:href="#DejaVuSans-Bold-42" transform="translate(0 0.015625)"/>
     <use xlink:href="#DejaVuSans-Bold-65" transform="translate(76.220703 0.015625)"/>
     <use xlink:href="#DejaVuSans-Bold-66" transform="translate(144.042969 0.015625)"/>
     <use xlink:href="#DejaVuSans-Bold-6f" transform="translate(187.548828 0.015625)"/>
     <use xlink:href="#DejaVuSans-Bold-72" transform="translate(256.25 0.015625)"/>
     <use xlink:href="#DejaVuSans-Bold-65" transform="translate(305.566406 0.015625)"/>
     <use xlink:href="#DejaVuSans-Bold-20" transform="translate(373.388672 0.015625)"/>
     <use xlink:href="#DejaVuSans-Bold-41" transform="translate(408.203125 0.015625)"/>
     <use xlink:href="#DejaVuSans-Bold-64" transform="translate(485.595703 0.015625)"/>
     <use xlink:href="#DejaVuSans-Bold-61" transform="translate(557.177734 0.015625)"/>
     <use xlink:href="#DejaVuSans-Bold-70" transform="translate(624.658203 0.015625)"/>
     <use xlink:href="#DejaVuSans-Bold-74" transform="translate(696.240234 0.015625)"/>
     <use xlink:href="#DejaVuSans-Bold-61" transform="translate(744.042969 0.015625)"/>
     <use xlink:href="#DejaVuSans-Bold-74" transform="translate(811.523438 0.015625)"/>
     <use xlink:href="#DejaVuSans-Bold-69" transform="translate(859.326172 0.015625)"/>
     <use xlink:href="#DejaVuSans-Bold-6f" transform="translate(893.603516 0.015625)"/>
     <use xlink:href="#DejaVuSans-Bold-6e" transform="translate(962.304688 0.015625)"/>
     <use xlink:href="#DejaVuSans-Bold-20" transform="translate(1033.496094 0.015625)"/>
     <use xlink:href="#DejaVuSans-Bold-2d" transform="translate(1068.310547 0.015625)"/>
     <use xlink:href="#DejaVuSans-Bold-20" transform="translate(1109.814453 0.015625)"/>
     <use xlink:href="#DejaVuSans-Bold-50" transform="translate(1144.628906 0.015625)"/>
     <use xlink:href="#DejaVuSans-Bold-65" transform="translate(1217.919922 0.015625)"/>
     <use xlink:href="#DejaVuSans-Bold-72" transform="translate(1285.742188 0.015625)"/>
     <use xlink:href="#DejaVuSans-Bold-2d" transform="translate(1335.058594 0.015625)"/>
     <use xlink:href="#DejaVuSans-Bold-6e" transform="translate(1376.5625 0.015625)"/>
     <use xlink:href="#DejaVuSans-Bold-6f" transform="translate(1447.753906 0.015625)"/>
     <use xlink:href="#DejaVuSans-Bold-64" transform="translate(1516.455078 0.015625)"/>
     <use xlink:href="#DejaVuSans-Bold-65" transform="translate(1588.037109 0.015625)"/>
     <use xlink:href="#DejaVuSans-Bold-20" transform="translate(1655.859375 0.015625)"/>
     <use xlink:href="#DejaVuSans-Oblique-3c1" transform="translate(1690.673828 0.015625)"/>
     <use xlink:href="#DejaVuSans-Bold-20" transform="translate(1754.150391 0.015625)"/>
     <use xlink:href="#DejaVuSans-Bold-28" transform="translate(1788.964844 0.015625)"/>
     <use xlink:href="#DejaVuSans-Bold-39" transform="translate(1834.667969 0.015625)"/>
     <use xlink:href="#DejaVuSans-Bold-35" transform="translate(1904.248047 0.015625)"/>
     <use xlink:href="#DejaVuSans-Bold-25" transform="translate(1973.828125 0.015625)"/>
     <use xlink:href="#DejaVuSans-Bold-20" transform="translate(2074.023438 0.015625)"/>
     <use xlink:href="#DejaVuSans-Bold-43" transform="translate(2108.837891 0.015625)"/>
     <use xlink:href="#DejaVuSans-Bold-49" transform="translate(2182.226562 0.015625)"/>
     <use xlink:href="#DejaVuSans-Bold-29" transform="translate(2219.433594 0.015625)"/>
    </g>
   </g>
   <g id="legend_1">
    <g id="patch_7">
     <path d="M 634.14875 77.19625 
L 851.484687 77.19625 
Q 853.484687 77.19625 853.484687 75.19625 
L 853.484687 46.84 
Q 853.484687 44.84 851.484687 44.84 
L 634.14875 44.84 
Q 632.14875 44.84 632.14875 46.84 
L 632.14875 75.19625 
Q 632.14875 77.19625 634.14875 77.19625 
z
" style="fill: #4d4d4d; opacity: 0.5; stroke: #4d4d4d; stroke-linejoin: miter"/>
    </g>
    <g id="patch_8">
     <path d="M 632.14875 75.19625 
L 849.484687 75.19625 
Q 851.484687 75.19625 851.484687 73.19625 
L 851.484687 44.84 
Q 851.484687 42.84 849.484687 42.84 
L 632.14875 42.84 
Q 630.14875 42.84 630.14875 44.84 
L 630.14875 73.19625 
Q 630.14875 75.19625 632.14875 75.19625 
z
" style="fill: #ffffff; stroke: #cccccc; stroke-linejoin: miter"/>
    </g>
    <g id="line2d_32">
     <g>
      <use xlink:href="#m245dcb9c7b" x="644.14875" y="50.938437" style="fill: #f0ab7e; stroke: #f0ab7e; stroke-width: 2"/>
     </g>
    </g>
    <g id="text_23">
     <!-- analytic mean -->
     <g style="fill: #010101" transform="translate(662.14875 54.438437) scale(0.1 -0.1)">
      <defs>
       <path id="DejaVuSans-61" d="M 2194 1759 
Q 1497 1759 1228 1600 
Q 959 1441 959 1056 
Q 959 750 1161 570 
Q 1363 391 1709 391 
Q 2188 391 2477 730 
Q 2766 1069 2766 1631 
L 2766 1759 
L 2194 1759 
z
M 3341 1997 
L 3341 0 
L 2766 0 
L 2766 531 
Q 2569 213 2275 61 
Q 1981 -91 1556 -91 
Q 1019 -91 701 211 
Q 384 513 384 1019 
Q 384 1609 779 1909 
Q 1175 2209 1959 2209 
L 2766 2209 
L 2766 2266 
Q 2766 2663 2505 2880 
Q 2244 3097 1772 3097 
Q 1472 3097 1187 3025 
Q 903 2953 641 2809 
L 641 3341 
Q 956 3463 1253 3523 
Q 1550 3584 1831 3584 
Q 2591 3584 2966 3190 
Q 3341 2797 3341 1997 
z
" transform="scale(0.015625)"/>
       <path id="DejaVuSans-6e" d="M 3513 2113 
L 3513 0 
L 2938 0 
L 2938 2094 
Q 2938 2591 2744 2837 
Q 2550 3084 2163 3084 
Q 1697 3084 1428 2787 
Q 1159 2491 1159 1978 
L 1159 0 
L 581 0 
L 581 3500 
L 1159 3500 
L 1159 2956 
Q 1366 3272 1645 3428 
Q 1925 3584 2291 3584 
Q 2894 3584 3203 3211 
Q 3513 2838 3513 2113 
z
" transform="scale(0.015625)"/>
       <path id="DejaVuSans-6c" d="M 603 4863 
L 1178 4863 
L 1178 0 
L 603 0 
L 603 4863 
z
" transform="scale(0.015625)"/>
       <path id="DejaVuSans-79" d="M 2059 -325 
Q 1816 -950 1584 -1140 
Q 1353 -1331 966 -1331 
L 506 -1331 
L 506 -850 
L 844 -850 
Q 1081 -850 1212 -737 
Q 1344 -625 1503 -206 
L 1606 56 
L 191 3500 
L 800 3500 
L 1894 763 
L 2988 3500 
L 3597 3500 
L 2059 -325 
z
" transform="scale(0.015625)"/>
       <path id="DejaVuSans-74" d="M 1172 4494 
L 1172 3500 
L 2356 3500 
L 2356 3053 
L 1172 3053 
L 1172 1153 
Q 1172 725 1289 603 
Q 1406 481 1766 481 
L 2356 481 
L 2356 0 
L 1766 0 
Q 1100 0 847 248 
Q 594 497 594 1153 
L 594 3053 
L 172 3053 
L 172 3500 
L 594 3500 
L 594 4494 
L 1172 4494 
z
" transform="scale(0.015625)"/>
       <path id="DejaVuSans-69" d="M 603 3500 
L 1178 3500 
L 1178 0 
L 603 0 
L 603 3500 
z
M 603 4863 
L 1178 4863 
L 1178 4134 
L 603 4134 
L 603 4863 
z
" transform="scale(0.015625)"/>
       <path id="DejaVuSans-63" d="M 3122 3366 
L 3122 2828 
Q 2878 2963 2633 3030 
Q 2388 3097 2138 3097 
Q 1578 3097 1268 2742 
Q 959 2388 959 1747 
Q 959 1106 1268 751 
Q 1578 397 2138 397 
Q 2388 397 2633 464 
Q 2878 531 3122 666 
L 3122 134 
Q 2881 22 2623 -34 
Q 2366 -91 2075 -91 
Q 1284 -91 818 406 
Q 353 903 353 1747 
Q 353 2603 823 3093 
Q 1294 3584 2113 3584 
Q 2378 3584 2631 3529 
Q 2884 3475 3122 3366 
z
" transform="scale(0.015625)"/>
       <path id="DejaVuSans-20" transform="scale(0.015625)"/>
       <path id="DejaVuSans-6d" d="M 3328 2828 
Q 3544 3216 3844 3400 
Q 4144 3584 4550 3584 
Q 5097 3584 5394 3201 
Q 5691 2819 5691 2113 
L 5691 0 
L 5113 0 
L 5113 2094 
Q 5113 2597 4934 2840 
Q 4756 3084 4391 3084 
Q 3944 3084 3684 2787 
Q 3425 2491 3425 1978 
L 3425 0 
L 2847 0 
L 2847 2094 
Q 2847 2600 2669 2842 
Q 2491 3084 2119 3084 
Q 1678 3084 1418 2786 
Q 1159 2488 1159 1978 
L 1159 0 
L 581 0 
L 581 3500 
L 1159 3500 
L 1159 2956 
Q 1356 3278 1631 3431 
Q 1906 3584 2284 3584 
Q 2666 3584 2933 3390 
Q 3200 3197 3328 2828 
z
" transform="scale(0.015625)"/>
       <path id="DejaVuSans-65" d="M 3597 1894 
L 3597 1613 
L 953 1613 
Q 991 1019 1311 708 
Q 1631 397 2203 397 
Q 2534 397 2845 478 
Q 3156 559 3463 722 
L 3463 178 
Q 3153 47 2828 -22 
Q 2503 -91 2169 -91 
Q 1331 -91 842 396 
Q 353 884 353 1716 
Q 353 2575 817 3079 
Q 1281 3584 2069 3584 
Q 2775 3584 3186 3129 
Q 3597 2675 3597 1894 
z
M 3022 2063 
Q 3016 2534 2758 2815 
Q 2500 3097 2075 3097 
Q 1594 3097 1305 2825 
Q 1016 2553 972 2059 
L 3022 2063 
z
" transform="scale(0.015625)"/>
      </defs>
      <use xlink:href="#DejaVuSans-61"/>
      <use xlink:href="#DejaVuSans-6e" transform="translate(61.279297 0)"/>
      <use xlink:href="#DejaVuSans-61" transform="translate(124.658203 0)"/>
      <use xlink:href="#DejaVuSans-6c" transform="translate(185.9375 0)"/>
      <use xlink:href="#DejaVuSans-79" transform="translate(213.720703 0)"/>
      <use xlink:href="#DejaVuSans-74" transform="translate(272.900391 0)"/>
      <use xlink:href="#DejaVuSans-69" transform="translate(312.109375 0)"/>
      <use xlink:href="#DejaVuSans-63" transform="translate(339.892578 0)"/>
      <use xlink:href="#DejaVuSans-20" transform="translate(394.873047 0)"/>
      <use xlink:href="#DejaVuSans-6d" transform="translate(426.660156 0)"/>
      <use xlink:href="#DejaVuSans-65" transform="translate(524.072266 0)"/>
      <use xlink:href="#DejaVuSans-61" transform="translate(585.595703 0)"/>
      <use xlink:href="#DejaVuSans-6e" transform="translate(646.875 0)"/>
     </g>
    </g>
    <g id="LineCollection_2">
     <path d="M 644.14875 70.616562 
L 644.14875 60.616562 
" style="fill: none; stroke: #010101; stroke-width: 1.5"/>
    </g>
    <g id="line2d_33">
     <g>
      <use xlink:href="#m3b471c5352" x="644.14875" y="70.616562" style="fill: #427abe; stroke: #010101; stroke-width: 1.5"/>
     </g>
    </g>
    <g id="line2d_34">
     <g>
      <use xlink:href="#m3b471c5352" x="644.14875" y="60.616562" style="fill: #427abe; stroke: #010101; stroke-width: 1.5"/>
     </g>
    </g>
    <g id="line2d_35"/>
    <g id="line2d_36">
     <g>
      <use xlink:href="#mb40e8a0bd8" x="644.14875" y="65.616562" style="fill: #427abe; stroke: #427abe"/>
     </g>
    </g>
    <g id="text_24">
     <!-- stochastic mean  (95% CI (reps=10)) -->
     <g style="fill: #010101" transform="translate(662.14875 69.116562) scale(0.1 -0.1)">
      <defs>
       <path id="DejaVuSans-73" d="M 2834 3397 
L 2834 2853 
Q 2591 2978 2328 3040 
Q 2066 3103 1784 3103 
Q 1356 3103 1142 2972 
Q 928 2841 928 2578 
Q 928 2378 1081 2264 
Q 1234 2150 1697 2047 
L 1894 2003 
Q 2506 1872 2764 1633 
Q 3022 1394 3022 966 
Q 3022 478 2636 193 
Q 2250 -91 1575 -91 
Q 1294 -91 989 -36 
Q 684 19 347 128 
L 347 722 
Q 666 556 975 473 
Q 1284 391 1588 391 
Q 1994 391 2212 530 
Q 2431 669 2431 922 
Q 2431 1156 2273 1281 
Q 2116 1406 1581 1522 
L 1381 1569 
Q 847 1681 609 1914 
Q 372 2147 372 2553 
Q 372 3047 722 3315 
Q 1072 3584 1716 3584 
Q 2034 3584 2315 3537 
Q 2597 3491 2834 3397 
z
" transform="scale(0.015625)"/>
       <path id="DejaVuSans-6f" d="M 1959 3097 
Q 1497 3097 1228 2736 
Q 959 2375 959 1747 
Q 959 1119 1226 758 
Q 1494 397 1959 397 
Q 2419 397 2687 759 
Q 2956 1122 2956 1747 
Q 2956 2369 2687 2733 
Q 2419 3097 1959 3097 
z
M 1959 3584 
Q 2709 3584 3137 3096 
Q 3566 2609 3566 1747 
Q 3566 888 3137 398 
Q 2709 -91 1959 -91 
Q 1206 -91 779 398 
Q 353 888 353 1747 
Q 353 2609 779 3096 
Q 1206 3584 1959 3584 
z
" transform="scale(0.015625)"/>
       <path id="DejaVuSans-68" d="M 3513 2113 
L 3513 0 
L 2938 0 
L 2938 2094 
Q 2938 2591 2744 2837 
Q 2550 3084 2163 3084 
Q 1697 3084 1428 2787 
Q 1159 2491 1159 1978 
L 1159 0 
L 581 0 
L 581 4863 
L 1159 4863 
L 1159 2956 
Q 1366 3272 1645 3428 
Q 1925 3584 2291 3584 
Q 2894 3584 3203 3211 
Q 3513 2838 3513 2113 
z
" transform="scale(0.015625)"/>
       <path id="DejaVuSans-28" d="M 1984 4856 
Q 1566 4138 1362 3434 
Q 1159 2731 1159 2009 
Q 1159 1288 1364 580 
Q 1569 -128 1984 -844 
L 1484 -844 
Q 1016 -109 783 600 
Q 550 1309 550 2009 
Q 550 2706 781 3412 
Q 1013 4119 1484 4856 
L 1984 4856 
z
" transform="scale(0.015625)"/>
       <path id="DejaVuSans-39" d="M 703 97 
L 703 672 
Q 941 559 1184 500 
Q 1428 441 1663 441 
Q 2288 441 2617 861 
Q 2947 1281 2994 2138 
Q 2813 1869 2534 1725 
Q 2256 1581 1919 1581 
Q 1219 1581 811 2004 
Q 403 2428 403 3163 
Q 403 3881 828 4315 
Q 1253 4750 1959 4750 
Q 2769 4750 3195 4129 
Q 3622 3509 3622 2328 
Q 3622 1225 3098 567 
Q 2575 -91 1691 -91 
Q 1453 -91 1209 -44 
Q 966 3 703 97 
z
M 1959 2075 
Q 2384 2075 2632 2365 
Q 2881 2656 2881 3163 
Q 2881 3666 2632 3958 
Q 2384 4250 1959 4250 
Q 1534 4250 1286 3958 
Q 1038 3666 1038 3163 
Q 1038 2656 1286 2365 
Q 1534 2075 1959 2075 
z
" transform="scale(0.015625)"/>
       <path id="DejaVuSans-25" d="M 4653 2053 
Q 4381 2053 4226 1822 
Q 4072 1591 4072 1178 
Q 4072 772 4226 539 
Q 4381 306 4653 306 
Q 4919 306 5073 539 
Q 5228 772 5228 1178 
Q 5228 1588 5073 1820 
Q 4919 2053 4653 2053 
z
M 4653 2450 
Q 5147 2450 5437 2106 
Q 5728 1763 5728 1178 
Q 5728 594 5436 251 
Q 5144 -91 4653 -91 
Q 4153 -91 3862 251 
Q 3572 594 3572 1178 
Q 3572 1766 3864 2108 
Q 4156 2450 4653 2450 
z
M 1428 4353 
Q 1159 4353 1004 4120 
Q 850 3888 850 3481 
Q 850 3069 1003 2837 
Q 1156 2606 1428 2606 
Q 1700 2606 1854 2837 
Q 2009 3069 2009 3481 
Q 2009 3884 1853 4118 
Q 1697 4353 1428 4353 
z
M 4250 4750 
L 4750 4750 
L 1831 -91 
L 1331 -91 
L 4250 4750 
z
M 1428 4750 
Q 1922 4750 2215 4408 
Q 2509 4066 2509 3481 
Q 2509 2891 2217 2550 
Q 1925 2209 1428 2209 
Q 931 2209 642 2551 
Q 353 2894 353 3481 
Q 353 4063 643 4406 
Q 934 4750 1428 4750 
z
" transform="scale(0.015625)"/>
       <path id="DejaVuSans-43" d="M 4122 4306 
L 4122 3641 
Q 3803 3938 3442 4084 
Q 3081 4231 2675 4231 
Q 1875 4231 1450 3742 
Q 1025 3253 1025 2328 
Q 1025 1406 1450 917 
Q 1875 428 2675 428 
Q 3081 428 3442 575 
Q 3803 722 4122 1019 
L 4122 359 
Q 3791 134 3420 21 
Q 3050 -91 2638 -91 
Q 1578 -91 968 557 
Q 359 1206 359 2328 
Q 359 3453 968 4101 
Q 1578 4750 2638 4750 
Q 3056 4750 3426 4639 
Q 3797 4528 4122 4306 
z
" transform="scale(0.015625)"/>
       <path id="DejaVuSans-49" d="M 628 4666 
L 1259 4666 
L 1259 0 
L 628 0 
L 628 4666 
z
" transform="scale(0.015625)"/>
       <path id="DejaVuSans-72" d="M 2631 2963 
Q 2534 3019 2420 3045 
Q 2306 3072 2169 3072 
Q 1681 3072 1420 2755 
Q 1159 2438 1159 1844 
L 1159 0 
L 581 0 
L 581 3500 
L 1159 3500 
L 1159 2956 
Q 1341 3275 1631 3429 
Q 1922 3584 2338 3584 
Q 2397 3584 2469 3576 
Q 2541 3569 2628 3553 
L 2631 2963 
z
" transform="scale(0.015625)"/>
       <path id="DejaVuSans-70" d="M 1159 525 
L 1159 -1331 
L 581 -1331 
L 581 3500 
L 1159 3500 
L 1159 2969 
Q 1341 3281 1617 3432 
Q 1894 3584 2278 3584 
Q 2916 3584 3314 3078 
Q 3713 2572 3713 1747 
Q 3713 922 3314 415 
Q 2916 -91 2278 -91 
Q 1894 -91 1617 61 
Q 1341 213 1159 525 
z
M 3116 1747 
Q 3116 2381 2855 2742 
Q 2594 3103 2138 3103 
Q 1681 3103 1420 2742 
Q 1159 2381 1159 1747 
Q 1159 1113 1420 752 
Q 1681 391 2138 391 
Q 2594 391 2855 752 
Q 3116 1113 3116 1747 
z
" transform="scale(0.015625)"/>
       <path id="DejaVuSans-3d" d="M 678 2906 
L 4684 2906 
L 4684 2381 
L 678 2381 
L 678 2906 
z
M 678 1631 
L 4684 1631 
L 4684 1100 
L 678 1100 
L 678 1631 
z
" transform="scale(0.015625)"/>
       <path id="DejaVuSans-29" d="M 513 4856 
L 1013 4856 
Q 1481 4119 1714 3412 
Q 1947 2706 1947 2009 
Q 1947 1309 1714 600 
Q 1481 -109 1013 -844 
L 513 -844 
Q 928 -128 1133 580 
Q 1338 1288 1338 2009 
Q 1338 2731 1133 3434 
Q 928 4138 513 4856 
z
" transform="scale(0.015625)"/>
      </defs>
      <use xlink:href="#DejaVuSans-73"/>
      <use xlink:href="#DejaVuSans-74" transform="translate(52.099609 0)"/>
      <use xlink:href="#DejaVuSans-6f" transform="translate(91.308594 0)"/>
      <use xlink:href="#DejaVuSans-63" transform="translate(152.490234 0)"/>
      <use xlink:href="#DejaVuSans-68" transform="translate(207.470703 0)"/>
      <use xlink:href="#DejaVuSans-61" transform="translate(270.849609 0)"/>
      <use xlink:href="#DejaVuSans-73" transform="translate(332.128906 0)"/>
      <use xlink:href="#DejaVuSans-74" transform="translate(384.228516 0)"/>
      <use xlink:href="#DejaVuSans-69" transform="translate(423.4375 0)"/>
      <use xlink:href="#DejaVuSans-63" transform="translate(451.220703 0)"/>
      <use xlink:href="#DejaVuSans-20" transform="translate(506.201172 0)"/>
      <use xlink:href="#DejaVuSans-6d" transform="translate(537.988281 0)"/>
      <use xlink:href="#DejaVuSans-65" transform="translate(635.400391 0)"/>
      <use xlink:href="#DejaVuSans-61" transform="translate(696.923828 0)"/>
      <use xlink:href="#DejaVuSans-6e" transform="translate(758.203125 0)"/>
      <use xlink:href="#DejaVuSans-20" transform="translate(821.582031 0)"/>
      <use xlink:href="#DejaVuSans-20" transform="translate(853.369141 0)"/>
      <use xlink:href="#DejaVuSans-28" transform="translate(885.15625 0)"/>
      <use xlink:href="#DejaVuSans-39" transform="translate(924.169922 0)"/>
      <use xlink:href="#DejaVuSans-35" transform="translate(987.792969 0)"/>
      <use xlink:href="#DejaVuSans-25" transform="translate(1051.416016 0)"/>
      <use xlink:href="#DejaVuSans-20" transform="translate(1146.435547 0)"/>
      <use xlink:href="#DejaVuSans-43" transform="translate(1178.222656 0)"/>
      <use xlink:href="#DejaVuSans-49" transform="translate(1248.046875 0)"/>
      <use xlink:href="#DejaVuSans-20" transform="translate(1277.539062 0)"/>
      <use xlink:href="#DejaVuSans-28" transform="translate(1309.326172 0)"/>
      <use xlink:href="#DejaVuSans-72" transform="translate(1348.339844 0)"/>
      <use xlink:href="#DejaVuSans-65" transform="translate(1387.203125 0)"/>
      <use xlink:href="#DejaVuSans-70" transform="translate(1448.726562 0)"/>
      <use xlink:href="#DejaVuSans-73" transform="translate(1512.203125 0)"/>
      <use xlink:href="#DejaVuSans-3d" transform="translate(1564.302734 0)"/>
      <use xlink:href="#DejaVuSans-31" transform="translate(1648.091797 0)"/>
      <use xlink:href="#DejaVuSans-30" transform="translate(1711.714844 0)"/>
      <use xlink:href="#DejaVuSans-29" transform="translate(1775.337891 0)"/>
      <use xlink:href="#DejaVuSans-29" transform="translate(1814.351562 0)"/>
     </g>
    </g>
   </g>
  </g>
 </g>
 <defs>
  <clipPath id="p22ce5dea65">
   <rect x="46.684688" y="37.84" width="809.8" height="343.644644"/>
  </clipPath>
 </defs>
</svg>
