<svg xmlns="http://www.w3.org/2000/svg" xmlns:xlink="http://www.w3.org/1999/xlink" xmlns:lucid="lucid" width="3379.14" height="1698.12"><g transform="translate(981 1481)" lucid:page-tab-id="Ij_dyH4dQHx-"><path d="M-1000-1500h3500V500h-3500z" fill="#fff"/><g class="lucid-layer" lucid:layer-id="Ij_dGlmchl5X" display="block"><path d="M-980-1474a6 6 0 0 1 6-6h2788a6 6 0 0 1 6 6v1328a6 6 0 0 1-6 6H-974a6 6 0 0 1-6-6z" stroke="#000" stroke-width="2" fill-opacity="0"/><use xlink:href="#a" transform="matrix(1,0,0,1,-972,-1472) translate(943.9270833333334 44.40104166666667)"/><use xlink:href="#b" transform="matrix(1,0,0,1,-972,-1472) translate(1103.953125 44.40104166666667)"/><use xlink:href="#c" transform="matrix(1,0,0,1,-972,-1472) translate(1488.015625 44.40104166666667)"/><path d="M418.53-682.1v81.56" stroke="#3a414a" stroke-width="3" fill="none"/><path d="M418.53-696.6l7.5 13h-15zM418.53-586.05l-7.5-13h15z" stroke="#3a414a" stroke-width="3" fill="#3a414a"/><path d="M-930-956.57a16 16 0 0 1 16-16h2665.07a16 16 0 0 1 16 16v239.98a16 16 0 0 1-16 16H-914a16 16 0 0 1-16-16z" stroke="#000" stroke-width="2" fill="#edf5ff"/><use xlink:href="#d" transform="matrix(1,0,0,1,-918,-960.5685795162615) translate(1288.9921875 33.30078125)"/><path d="M-848-919.94c0 17.93-14.54 32.47-32.46 32.47-17.93 0-32.47-14.54-32.47-32.47 0-17.92 14.54-32.47 32.47-32.47 17.92 0 32.47 14.54 32.47 32.46z" stroke="#000" stroke-opacity="0" stroke-width="2.34" fill="#321d71"/><path d="M-865.9-904.1h-29.2c-.7 0-1.27-.56-1.27-1.26v-29.22c0-.7.57-1.27 1.27-1.27h29.2c.7 0 1.28.57 1.28 1.27v29.22c0 .7-.57 1.27-1.27 1.27zm-27.93-2.53h26.67v-26.68h-26.67v26.67z" stroke="#000" stroke-opacity="0" stroke-width="2.34" fill="#fff"/><path d="M-870.93-926.87h-2.9l-3.14-3.25c-.46-.44-1.27-.44-1.75 0l-3.36 3.25h-4.87l-2.2-2.2c-.48-.45-1.3-.45-1.74 0-.45.46-.45 1.3 0 1.75l1.5 1.5v.25l-1.5 1.6c-.45.48-.45 1.28 0 1.75.25.24.6.34.94.34.33 0 .68-.1.92-.34l2.2-2.2h4.9l3.22 3.24c.24.24.6.36.94.36.35 0 .7-.12.94-.36l3.25-3.25h1.62v10.1h-4.4v-.35c0-.7-.6-1.27-1.3-1.27-.7 0-1.26.57-1.26 1.27v.36h-4.64c-.6-1.5-1.97-2.57-3.6-2.57-2.1 0-3.82 1.75-3.82 3.86 0 2.08 1.72 3.82 3.82 3.82 1.63 0 3-1.04 3.6-2.55h4.64v.34c0 .7.57 1.27 1.27 1.27.7 0 1.3-.57 1.3-1.27v-.34h5.66c.7 0 1.28-.6 1.28-1.27v-12.53c-.24-.7-.8-1.3-1.5-1.3zm-6.96-.57l1.74 1.74-1.73 1.74-1.74-1.74 1.75-1.74zm-10.8 14.5c0-.7.6-1.27 1.3-1.27.67 0 1.26.56 1.26 1.26s-.6 1.28-1.26 1.28c-.7 0-1.3-.58-1.3-1.28z" stroke="#000" stroke-opacity="0" stroke-width="2.34" fill="#fff"/><path d="M299.7-855.47a16 16 0 0 1 16-16h219.82a16 16 0 0 1 16 16v88a16 16 0 0 1-16 16h-219.8a16 16 0 0 1-16-16z" stroke="#000" stroke-width="2" fill="#fff"/><use xlink:href="#e" transform="matrix(1,0,0,1,311.7142809300202,-859.4660523892412) translate(89.99609375 43.1875)"/><use xlink:href="#f" transform="matrix(1,0,0,1,311.7142809300202,-859.4660523892412) translate(25.985677083333343 71.29947916666667)"/><path d="M282.9-871.47a16 16 0 0 1 16-16h219.8a16 16 0 0 1 16 16v88a16 16 0 0 1-16 16H298.9a16 16 0 0 1-16-16z" stroke="#000" stroke-width="2" fill="#fff"/><use xlink:href="#e" transform="matrix(1,0,0,1,294.90476031000674,-875.4660523892412) translate(89.99609375 43.1875)"/><use xlink:href="#f" transform="matrix(1,0,0,1,294.90476031000674,-875.4660523892412) translate(25.985677083333343 71.29947916666667)"/><path d="M266.1-887.47a16 16 0 0 1 16-16h219.8a16 16 0 0 1 16 16v88a16 16 0 0 1-16 16H282.1a16 16 0 0 1-16-16z" stroke="#000" stroke-width="2" fill="#fff"/><use xlink:href="#g" transform="matrix(1,0,0,1,278.0952396899934,-891.4660523892412) translate(81.99479166666666 28.1875)"/><use xlink:href="#h" transform="matrix(1,0,0,1,278.0952396899934,-891.4660523892412) translate(33.98697916666667 56.29947916666667)"/><use xlink:href="#i" transform="matrix(1,0,0,1,278.0952396899934,-891.4660523892412) translate(57.99088541666666 84.41145833333334)"/><path d="M418.53-1089.53v90" stroke="#3a414a" stroke-width="3" fill="none"/><path d="M418.53-1104.02l7.5 13h-15zM418.53-985.02l-7.5-13h15z" stroke="#3a414a" stroke-width="3" fill="#3a414a"/><path d="M-930-1364a16 16 0 0 1 16-16h2665.07a16 16 0 0 1 16 16v239.98a16 16 0 0 1-16 16H-914a16 16 0 0 1-16-16z" stroke="#000" stroke-width="2" fill="#fff"/><use xlink:href="#j" transform="matrix(1,0,0,1,-918,-1368) translate(1168.97265625 33.30078125)"/><use xlink:href="#k" transform="matrix(1,0,0,1,-918,-1368) translate(1361.00390625 33.30078125)"/><path d="M-848-1323.8c0 17.93-14.54 32.48-32.46 32.48-17.93 0-32.47-14.55-32.47-32.47 0-17.9 14.54-32.46 32.47-32.46 17.92 0 32.47 14.55 32.47 32.47z" stroke="#000" stroke-opacity="0" stroke-width="2.34" fill="#dd7a01"/><path d="M-874.32-1334.46c-.8-.47-1.74-.24-2.2.58-.47.8-.24 1.74.58 2.2.23.12.46.23.8.23.6 0 1.05-.23 1.4-.8.46-.82.23-1.87-.58-2.2zM-891.24-1322.17c.92 0 1.62-.7 1.62-1.62 0-.92-.7-1.6-1.62-1.6-.93 0-1.63.68-1.63 1.6 0 .94.7 1.63 1.63 1.63zM-871.04-1327.62c.23 0 .58-.1.8-.23.82-.46 1.05-1.4.6-2.2-.48-.82-1.4-1.05-2.2-.58-.83.46-1.06 1.4-.6 2.2.24.58.82.82 1.4.82zM-890.7-1327.72c.23.12.47.24.82.24.58 0 1.04-.24 1.4-.82.45-.8.1-1.74-.6-2.2-.8-.47-1.73-.24-2.2.58-.35.8-.1 1.74.58 2.2zM-870.36-1319.72c-.8-.47-1.74-.23-2.2.58-.47.8-.24 1.74.58 2.2.23.12.46.24.8.24.6 0 1.05-.24 1.4-.82.46-.8.23-1.85-.58-2.2zM-869.68-1325.4c-.93 0-1.63.68-1.63 1.6 0 .82.7 1.63 1.62 1.63.93 0 1.62-.7 1.62-1.62 0-.92-.7-1.6-1.62-1.6zM-880.46-1336.2c-.93 0-1.63.7-1.63 1.63 0 .93.7 1.62 1.64 1.62.93 0 1.62-.7 1.62-1.62 0-.93-.7-1.62-1.62-1.62zM-886.73-1334.46c-.8.46-1.04 1.4-.57 2.2.34.46.8.8 1.38.8.24 0 .58-.1.8-.22.83-.46 1.06-1.4.6-2.2-.47-.82-1.4-1.05-2.2-.58zM-890.56-1319.72c-.8.47-1.04 1.4-.58 2.2.24.47.8.7 1.4.7.23 0 .57-.1.8-.23.82-.46 1.05-1.4.58-2.2-.46-.7-1.5-.93-2.2-.47z" stroke="#000" stroke-opacity="0" stroke-width="2.34" fill="#fff"/><path d="M-880.46-1341.52c-9.75 0-17.73 7.98-17.73 17.73 0 9.76 8 17.74 17.74 17.74 9.75 0 17.73-7.98 17.73-17.73 0-9.74-7.98-17.72-17.73-17.72zm9.04 30c-.46-2.87-2.2-5.32-4.75-6.7 1.63-1.28 2.66-3.26 2.66-5.57 0-3.82-3.13-6.94-6.96-6.94s-6.95 3.12-6.95 6.95c0 2.2 1.02 4.3 2.65 5.58-2.56 1.27-4.3 3.83-4.75 6.7-3.7-2.77-6.14-7.16-6.14-12.27 0-8.32 6.84-15.17 15.18-15.17 8.33 0 15.17 6.85 15.17 15.18 0 5-2.43 9.5-6.12 12.28zm-9.04 2.9c-2.3 0-4.65-.56-6.6-1.48v-.14c0-3.6 3.02-6.6 6.6-6.6 3.58 0 6.6 3 6.6 6.6v.14c-1.96 1.02-4.3 1.5-6.6 1.5zm-4.4-15.17c0-2.44 1.95-4.4 4.4-4.4 2.44 0 4.4 1.96 4.4 4.4 0 2.46-1.96 4.4-4.4 4.4-2.45 0-4.4-1.94-4.4-4.4z" stroke="#000" stroke-opacity="0" stroke-width="2.34" fill="#fff"/><path d="M292.63-1290.58a16 16 0 0 1 16-16h219.8a16 16 0 0 1 16 16v93.13a16 16 0 0 1-16 16h-219.8a16 16 0 0 1-16-16z" stroke="#000" stroke-width="2" fill="#fff"/><use xlink:href="#l" transform="matrix(1,0,0,1,304.62821562625544,-1294.57693870597) translate(25.985677083333314 31.75)"/><use xlink:href="#m" transform="matrix(1,0,0,1,304.62821562625544,-1294.57693870597) translate(122.00130208333333 31.75)"/><use xlink:href="#n" transform="matrix(1,0,0,1,304.62821562625544,-1294.57693870597) translate(41.98828125 59.86197916666667)"/><use xlink:href="#i" transform="matrix(1,0,0,1,304.62821562625544,-1294.57693870597) translate(57.99088541666666 87.97395833333334)"/><path d="M-930-566.05a16 16 0 0 1 16-16h2665.07a16 16 0 0 1 16 16V-216a16 16 0 0 1-16 16H-914a16 16 0 0 1-16-16z" stroke="#000" stroke-width="2" fill="#fff"/><use xlink:href="#o" transform="matrix(1,0,0,1,-918,-570.0467903294129) translate(1072.95703125 33.30078125)"/><use xlink:href="#p" transform="matrix(1,0,0,1,-918,-570.0467903294129) translate(1361.00390625 33.30078125)"/><use xlink:href="#q" transform="matrix(1,0,0,1,-918,-570.0467903294129) translate(1409.01171875 33.30078125)"/><path d="M-850.02-529.56c0 16.8-13.64 30.44-30.44 30.44s-30.44-13.64-30.44-30.44S-897.27-560-880.46-560c16.8 0 30.44 13.64 30.44 30.44z" stroke="#000" stroke-opacity="0" fill="#59575c"/><path d="M-872.5-539.6h-14.1c-1.4 0-2.45 1.1-2.45 2.43v.36c0 .24.2.42.37.42h12.9c1.34 0 2.44 1.1 2.44 2.43v14.5c0 .24.18.42.37.42h.42c1.34 0 2.44-1.1 2.44-2.44v-15.7c.05-1.34-1.1-2.44-2.4-2.44z" stroke="#000" stroke-opacity="0" fill="#fff"/><path d="M-867.25-544.78h-14.13c-1.4 0-2.43 1.1-2.43 2.43v.37c0 .18.17.43.4.43h12.86c1.4 0 2.43 1.1 2.43 2.43v14.5c0 .17.18.42.42.42h.37c1.4 0 2.42-1.16 2.42-2.44v-15.7c.06-1.34-1.03-2.44-2.37-2.44z" stroke="#000" stroke-opacity="0" fill="#fff"/><path d="M-875.6-531.8c0-1.3-1.1-2.45-2.43-2.45h-14.6c-1.35 0-2.44 1.16-2.44 2.44v16.12c0 1.34 1.15 2.43 2.43 2.43h14.6c1.4 0 2.45-1.1 2.45-2.43v-16.13z" stroke="#000" stroke-opacity="0" fill="#fff"/><path d="M-792.93-484a16 16 0 0 1 16-16h928a16 16 0 0 1 16 16v208a16 16 0 0 1-16 16h-928a16 16 0 0 1-16-16z" stroke="#000" stroke-width="2" fill="#f2f2ff"/><use xlink:href="#r" transform="matrix(1,0,0,1,-780.9340481274758,-488) translate(243.96354166666663 25.900607638888893)"/><use xlink:href="#s" transform="matrix(1,0,0,1,-780.9340481274758,-488) translate(393.32118055555554 25.900607638888893)"/><use xlink:href="#t" transform="matrix(1,0,0,1,-780.9340481274758,-488) translate(561.3485243055555 25.900607638888893)"/><path d="M-749.48-480c-17.93 0-32.47 14.55-32.47 32.47 0 17.92 14.54 32.47 32.47 32.47 17.92 0 32.47-14.55 32.47-32.47 0-17.92-14.56-32.47-32.48-32.47z" stroke="#000" stroke-opacity="0" stroke-width="2.34" fill="#032d60"/><path d="M-749.45-465.26c-9.8 0-17.76 7.96-17.76 17.76s7.95 17.77 17.75 17.77 17.76-7.96 17.76-17.77c0-9.8-7.94-17.76-17.75-17.76zm0 32.97c-8.42 0-15.2-6.78-15.2-15.2 0-8.42 6.78-15.2 15.2-15.2 8.42 0 15.2 6.78 15.2 15.2 0 8.42-6.78 15.2-15.2 15.2z" stroke="#000" stroke-opacity="0" stroke-width="2.34" fill="#fff"/><path d="M-741.83-452.58h-2.54v-2.54c0-1.4-1.14-2.54-2.54-2.54h-5.1c-1.4 0-2.53 1.14-2.53 2.54v2.54h-2.54c-1.4 0-2.54 1.14-2.54 2.54v5.1c0 1.4 1.13 2.52 2.53 2.52h2.54v2.55c0 1.4 1.14 2.54 2.54 2.54h5.1c1.4 0 2.53-1.14 2.53-2.54v-2.55h2.54c1.4 0 2.54-1.13 2.54-2.53v-5.1c0-1.4-1.12-2.53-2.53-2.53zm0 7.63h-5.08v5.08h-5.1v-5.08h-5.07v-5.1h5.08v-5.07h5.1v5.08h5.07z" stroke="#000" stroke-opacity="0" stroke-width="2.34" fill="#fff"/><path d="M-134.96-426.56a16 16 0 0 1 16-16h219.8a16 16 0 0 1 16 16v93.13a16 16 0 0 1-16 16h-219.8a16 16 0 0 1-16-16z" stroke="#000" stroke-width="2" fill="#fff"/><use xlink:href="#u" transform="matrix(1,0,0,1,-122.9602187232575,-430.56524112361654) translate(73.99348958333333 60.4375)"/><use xlink:href="#v" transform="matrix(1,0,0,1,-122.9602187232575,-430.56524112361654) translate(138.00390625 60.4375)"/><path d="M-418.84-426.56a16 16 0 0 1 16-16h219.8a16 16 0 0 1 16 16v93.13a16 16 0 0 1-16 16h-219.8a16 16 0 0 1-16-16z" stroke="#000" stroke-width="2" fill="#fff"/><use xlink:href="#u" transform="matrix(1,0,0,1,-406.8388084374824,-430.56524112361654) translate(73.99348958333333 60.4375)"/><use xlink:href="#w" transform="matrix(1,0,0,1,-406.8388084374824,-430.56524112361654) translate(138.00390625 60.4375)"/><path d="M-702.72-426.56a16 16 0 0 1 16-16h219.8a16 16 0 0 1 16 16v93.13a16 16 0 0 1-16 16h-219.8a16 16 0 0 1-16-16z" stroke="#000" stroke-width="2" fill="#fff"/><use xlink:href="#u" transform="matrix(1,0,0,1,-690.7173981517075,-430.56524112361654) translate(73.99348958333333 60.4375)"/><use xlink:href="#x" transform="matrix(1,0,0,1,-690.7173981517075,-430.56524112361654) translate(138.00390625 60.4375)"/><path d="M237.07-484a16 16 0 0 1 16-16h928a16 16 0 0 1 16 16v208a16 16 0 0 1-16 16h-928a16 16 0 0 1-16-16z" stroke="#000" stroke-width="2" fill="#fff3d9"/><g><use xlink:href="#y" transform="matrix(1,0,0,1,249.06595187252424,-488) translate(309.30750868055554 25.900607638888893)"/><use xlink:href="#z" transform="matrix(1,0,0,1,249.06595187252424,-488) translate(496.0045572916667 25.900607638888893)"/></g><path d="M310.1-447.6c0 17.25-14 31.24-31.24 31.24-17.23 0-31.22-14-31.22-31.23 0-17.22 14-31.2 31.23-31.2s31.22 13.98 31.22 31.2z" stroke="#000" stroke-opacity="0" stroke-width="2.34" fill="#8a033e"/><path d="M293.35-457.94c-3.36-3.35-8.94-3.35-12.3 0l-2.2 2.22-2.22-2.22c-3.35-3.23-8.6-3.23-11.95 0-3.45 3.35-3.56 8.83-.34 12.3l13.6 13.7c.24.22.58.34.92.34.3 0 .64-.12.88-.35l13.6-13.6c3.36-3.45 3.36-8.93 0-12.4zm-1.8 10.62l-12.82 12.8-12.83-12.8c-1.22-1.24-1.76-2.8-1.76-4.48 0-3.46 2.77-6.25 6.23-6.25 1.7 0 3.24.66 4.46 1.78l3.12 3.12c.44.46 1.22.46 1.7 0l3.1-3.12c2.44-2.33 6.23-2.33 8.6 0 2.54 2.46 2.54 6.47.2 8.95z" stroke="#000" stroke-opacity="0" stroke-width="2.34" fill="#fff"/><path d="M270.87-455.64c-2.35 0-4.24 1.9-4.24 4.24 0 .66.55 1.22 1.22 1.22.67 0 1.23-.56 1.23-1.22 0-1 .78-1.8 1.8-1.8.65 0 1.2-.55 1.2-1.22 0-.66-.55-1.22-1.2-1.22z" stroke="#000" stroke-opacity="0" stroke-width="2.34" fill="#fff"/><path d="M895.04-426.56a16 16 0 0 1 16-16h219.8a16 16 0 0 1 16 16v93.13a16 16 0 0 1-16 16h-219.8a16 16 0 0 1-16-16z" stroke="#000" stroke-width="2" fill="#fff"/><g><use xlink:href="#A" transform="matrix(1,0,0,1,907.0397812767427,-430.56524112361654) translate(81.99479166666666 60.4375)"/><use xlink:href="#v" transform="matrix(1,0,0,1,907.0397812767427,-430.56524112361654) translate(130.00260416666666 60.4375)"/></g><path d="M611.16-426.56a16 16 0 0 1 16-16h219.8a16 16 0 0 1 16 16v93.13a16 16 0 0 1-16 16h-219.8a16 16 0 0 1-16-16z" stroke="#000" stroke-width="2" fill="#fff"/><g><use xlink:href="#A" transform="matrix(1,0,0,1,623.161191562518,-430.56524112361654) translate(81.99479166666666 60.4375)"/><use xlink:href="#w" transform="matrix(1,0,0,1,623.161191562518,-430.56524112361654) translate(130.00260416666666 60.4375)"/></g><path d="M327.28-426.56a16 16 0 0 1 16-16h219.8a16 16 0 0 1 16 16v93.13a16 16 0 0 1-16 16H343.3a16 16 0 0 1-16-16z" stroke="#000" stroke-width="2" fill="#fff"/><g><use xlink:href="#A" transform="matrix(1,0,0,1,339.28260184829276,-430.56524112361654) translate(81.99479166666666 60.4375)"/><use xlink:href="#x" transform="matrix(1,0,0,1,339.28260184829276,-430.56524112361654) translate(130.00260416666666 60.4375)"/></g><path d="M1267.07-484a16 16 0 0 1 16-16h388a16 16 0 0 1 16 16v208a16 16 0 0 1-16 16h-388a16 16 0 0 1-16-16z" stroke="#000" stroke-width="2" fill="#e3fae3"/><g><use xlink:href="#B" transform="matrix(1,0,0,1,1279.0659518725242,-488) translate(85.98177083333331 25.900607638888893)"/><use xlink:href="#C" transform="matrix(1,0,0,1,1279.0659518725242,-488) translate(132.6560329861111 58.7131076388889)"/></g><path d="M1343-447.64c0 17.92-14.56 32.47-32.48 32.47-17.93 0-32.47-14.55-32.47-32.47 0-17.93 14.54-32.48 32.47-32.48 17.92 0 32.47 14.55 32.47 32.48z" stroke="#000" stroke-opacity="0" stroke-width="2.34" fill="#0b827c"/><path d="M1326.97-460.96h-32.9c-.7 0-1.28.6-1.28 1.28v24.13c0 .7.56 1.3 1.27 1.3h32.9c.7 0 1.28-.6 1.28-1.3v-24.13c0-.7-.57-1.28-1.28-1.28zm-1.28 20.66l-7.98-6.96 7.97-5.58v12.54zm0-18.1v2.54l-15.18 10.57-15.18-10.56v-2.53h30.35zm-30.36 5.56l7.98 5.58-7.98 6.96v-12.54zm0 16v-.2l.1-.13 9.87-8.7 4.4 3c.46.36 1.07.36 1.4 0l4.42-3 10.07 8.7c.1 0 .1.13.2.13v.2h-30.46z" stroke="#000" stroke-opacity="0" stroke-width="2.34" fill="#fff"/><path d="M1367.07-404a16 16 0 0 1 16-16h219.8a16 16 0 0 1 16 16v93.13a16 16 0 0 1-16 16h-219.8a16 16 0 0 1-16-16z" stroke="#000" stroke-width="2" fill="#fff"/><g><use xlink:href="#D" transform="matrix(1,0,0,1,1379.0659518725242,-408.00000000000006) translate(81.99479166666666 60.4375)"/><use xlink:href="#x" transform="matrix(1,0,0,1,1379.0659518725242,-408.00000000000006) translate(130.00260416666666 60.4375)"/></g></g><g class="lucid-layer" lucid:layer-id="Ij_d0vEsS4mS" display="block"><path d="M1873.97-960h523.17v464.34h-523.17z" stroke="#4c535d" stroke-width="2" fill="#fff"/><use xlink:href="#E" transform="matrix(1,0,0,1,1878.9727453155538,-955) translate(160.984375 44.40104166666667)"/><path d="M1898.68-829.35a16 16 0 0 1 16-16h441.75a16 16 0 0 1 16 16v148.33a16 16 0 0 1-16 16H1914.7a16 16 0 0 1-16.02-16z" stroke="#000" stroke-width="2" fill="#fff"/><use xlink:href="#F" transform="matrix(1,0,0,1,1910.6846036900156,-833.3481186871235) translate(75.64236111111109 25.900607638888893)"/><use xlink:href="#G" transform="matrix(1,0,0,1,1910.6846036900156,-833.3481186871235) translate(281.00911458333337 25.900607638888893)"/><path d="M2056.66-775.25a16 16 0 0 1 16-16h256.6a16 16 0 0 1 16 16v51.44a16 16 0 0 1-16 16h-256.6a16 16 0 0 1-16-16z" stroke="#000" stroke-width="2" fill="#fff"/><use xlink:href="#H" transform="matrix(1,0,0,1,2068.665458744246,-779.2497580313858) translate(67.1560329861111 40.88541666666667)"/><path d="M2018.96-755.18c0 19.9-16.73 36.06-37.37 36.06-20.65 0-37.38-16.15-37.38-36.06 0-19.92 16.73-36.07 37.37-36.07 20.63 0 37.36 16.15 37.36 36.07z" stroke="#000" stroke-width="3"/><path d="M1917.24-704.84a6 6 0 0 1 6-6h116.7a6 6 0 0 1 6 6v42.1a6 6 0 0 1-6 6h-116.7a6 6 0 0 1-6-6z" stroke="#000" stroke-opacity="0" stroke-width="3" fill="#fff" fill-opacity="0"/><use xlink:href="#I" transform="matrix(1,0,0,1,1922.235701866444,-705.8393739411987) translate(22.16059027777777 31.510416666666668)"/><path d="M2246.77-580h-222.42" stroke="#4c535d" stroke-width="3" stroke-linejoin="round" fill="none"/><path d="M2262.53-580l-14.26 4.63v-9.26zM2008.58-580l14.27-4.63v9.26z" stroke="#4c535d" stroke-width="3" fill="#4c535d"/><use xlink:href="#J" transform="matrix(1,0,0,1,2014.2041153785485,-571.3647450843757) translate(0.0049999999999954525 25.885416666666668)"/><path d="M-20-85.93h990.28v302.05H-20z" stroke="#4c535d" stroke-width="2" fill="#fff"/><use xlink:href="#E" transform="matrix(1,0,0,1,-15,-80.92837431087139) translate(394.484375 44.40104166666667)"/><path d="M325.8 91.75H103.38" stroke="#4c535d" stroke-width="3" stroke-linejoin="round" fill="none"/><path d="M341.57 91.75L327.3 96.4v-9.3zM87.62 91.75l14.27-4.64-.02 9.3z" stroke="#4c535d" stroke-width="3" fill="#4c535d"/><use xlink:href="#J" transform="matrix(1,0,0,1,93.2405206321897,100.38451564631725) translate(0.0049999999999954525 25.885416666666668)"/><path d="M393.77 17.59a16 16 0 0 1 16-16.02h441.75a16 16 0 0 1 16 16v148.33a16 16 0 0 1-16 16H409.77a16 16 0 0 1-16-16z" stroke="#000" stroke-width="2" fill="#fff"/><use xlink:href="#F" transform="matrix(1,0,0,1,405.7734887042262,13.585326304463564) translate(75.64236111111109 25.900607638888893)"/><use xlink:href="#G" transform="matrix(1,0,0,1,405.7734887042262,13.585326304463564) translate(281.00911458333337 25.900607638888893)"/><path d="M551.75 71.68a16 16 0 0 1 16-16h256.6a16 16 0 0 1 16 16v51.44a16 16 0 0 1-16 16h-256.6a16 16 0 0 1-16-16z" stroke="#000" stroke-width="2" fill="#fff"/><use xlink:href="#H" transform="matrix(1,0,0,1,563.7543437584561,67.68368696020127) translate(67.1560329861111 40.88541666666667)"/><path d="M514.05 91.75c0 19.92-16.73 36.06-37.37 36.06-20.64.02-37.37-16.13-37.37-36.05 0-19.92 16.74-36.07 37.38-36.07 20.64 0 37.37 16.15 37.37 36.07z" stroke="#000" stroke-width="3"/><path d="M412.32 142.1a6 6 0 0 1 6-6h116.7a6 6 0 0 1 6 6v42.1a6 6 0 0 1-6 6h-116.7a6 6 0 0 1-6-6z" stroke="#000" stroke-opacity="0" stroke-width="3" fill="#fff" fill-opacity="0"/><g><use xlink:href="#I" transform="matrix(1,0,0,1,417.3245868806543,141.09407105038838) translate(22.16059027777777 31.510416666666668)"/></g></g><defs><path fill="#3a414a" d="M762-1121V0H467v-1121H61v-228h1107v228H762" id="K"/><path fill="#3a414a" d="M137 0v-1349h968v228H432v324h612v228H432v341h714V0H137" id="L"/><path fill="#3a414a" d="M211 0v-1349h295v1121h616V0H211" id="M"/><g id="a"><use transform="matrix(0.026041666666666668,0,0,0.026041666666666668,0,0)" xlink:href="#K"/><use transform="matrix(0.026041666666666668,0,0,0.026041666666666668,32.005208333333336,0)" xlink:href="#L"/><use transform="matrix(0.026041666666666668,0,0,0.026041666666666668,64.01041666666667,0)" xlink:href="#M"/><use transform="matrix(0.026041666666666668,0,0,0.026041666666666668,96.015625,0)" xlink:href="#L"/></g><path fill="#3a414a" d="M616-1349c316 3 526 118 526 426 0 301-201 442-514 447H431V0H136v-1349h480zm-25 646c164 1 254-62 254-215 0-157-99-200-262-202H431v417h160" id="N"/><path fill="#3a414a" d="M1157-949c0 209-118 316-279 368L1227 0H895L605-515H432V0H137v-1349h494c317-2 526 111 526 400zM608-744c158 1 248-51 252-193 5-207-223-184-428-183v376h176" id="O"/><path fill="#3a414a" d="M462-1121v384h621v228H462V0H167v-1349h939v228H462" id="P"/><path fill="#3a414a" d="M615-1370c385 0 542 273 542 691 0 230-47 404-140 522S790 20 615 20C231 20 72-262 72-679c0-419 158-691 543-691zM797-330c77-133 78-564 0-695-44-73-101-113-182-113s-139 40-183 114c-79 133-78 560 0 694 45 77 102 118 183 118s138-41 182-118" id="Q"/><path fill="#3a414a" d="M305-1169c27 366 9 780 14 1169H99v-1349h347c49 189 108 371 150 564 12 56 15 107 23 166 33-270 117-487 176-730h335V0H908c5-390-13-801 16-1169-52 285-130 541-199 809H507c-70-267-148-525-202-809" id="R"/><path fill="#3a414a" d="M1229 0H935l-92-330H387L295 0H0l443-1349h344zM615-1167c-46 213-110 412-166 615h332c-56-204-119-401-166-615" id="S"/><path fill="#3a414a" d="M865-312c-44-312-23-686-28-1037h257V0H748L364-1010c44 304 24 668 28 1010H135v-1349h337" id="T"/><path fill="#3a414a" d="M872-915c-35-112-84-223-220-223-91 0-156 41-204 116-89 137-87 550 2 688 51 79 116 122 209 122 150 0 197-126 240-244l273 52C1094-168 961 20 656 20 239 20 80-262 80-681c0-418 154-689 568-689 289 0 425 167 496 389" id="U"/><g id="b"><use transform="matrix(0.026041666666666668,0,0,0.026041666666666668,0,0)" xlink:href="#N"/><use transform="matrix(0.026041666666666668,0,0,0.026041666666666668,32.005208333333336,0)" xlink:href="#L"/><use transform="matrix(0.026041666666666668,0,0,0.026041666666666668,64.01041666666667,0)" xlink:href="#O"/><use transform="matrix(0.026041666666666668,0,0,0.026041666666666668,96.015625,0)" xlink:href="#P"/><use transform="matrix(0.026041666666666668,0,0,0.026041666666666668,128.02083333333334,0)" xlink:href="#Q"/><use transform="matrix(0.026041666666666668,0,0,0.026041666666666668,160.02604166666669,0)" xlink:href="#O"/><use transform="matrix(0.026041666666666668,0,0,0.026041666666666668,192.03125000000003,0)" xlink:href="#R"/><use transform="matrix(0.026041666666666668,0,0,0.026041666666666668,224.0364583333334,0)" xlink:href="#S"/><use transform="matrix(0.026041666666666668,0,0,0.026041666666666668,256.0416666666667,0)" xlink:href="#T"/><use transform="matrix(0.026041666666666668,0,0,0.026041666666666668,288.046875,0)" xlink:href="#U"/><use transform="matrix(0.026041666666666668,0,0,0.026041666666666668,320.0520833333333,0)" xlink:href="#L"/></g><path fill="#3a414a" d="M609-1161c-125 0-218 36-218 153 0 149 166 161 290 196 235 67 484 129 484 421 0 300-239 408-554 411C302 23 93-114 38-367l285-37c32 128 131 205 296 203 143-2 259-31 259-173 0-164-197-172-333-212-218-64-441-131-441-405 0-276 231-379 511-379 299 0 463 114 513 363l-286 29c-28-115-96-183-233-183" id="V"/><path fill="#3a414a" d="M761-556V0H467v-556L3-1349h309l300 566 304-566h309" id="W"/><path fill="#3a414a" d="M621-530c0 421 127 700 301 955H641C466 173 344-110 344-531s122-702 297-953h281c-174 254-301 534-301 954" id="X"/><path fill="#3a414a" d="M885-531c0 421-122 704-297 956H307c174-255 301-534 301-955 0-420-127-700-301-954h281c175 251 297 532 297 953" id="Y"/><g id="c"><use transform="matrix(0.026041666666666668,0,0,0.026041666666666668,0,0)" xlink:href="#V"/><use transform="matrix(0.026041666666666668,0,0,0.026041666666666668,32.005208333333336,0)" xlink:href="#W"/><use transform="matrix(0.026041666666666668,0,0,0.026041666666666668,64.01041666666667,0)" xlink:href="#V"/><use transform="matrix(0.026041666666666668,0,0,0.026041666666666668,96.015625,0)" xlink:href="#K"/><use transform="matrix(0.026041666666666668,0,0,0.026041666666666668,128.02083333333334,0)" xlink:href="#L"/><use transform="matrix(0.026041666666666668,0,0,0.026041666666666668,160.02604166666669,0)" xlink:href="#R"/><use transform="matrix(0.026041666666666668,0,0,0.026041666666666668,192.03125000000003,0)" xlink:href="#X"/><use transform="matrix(0.026041666666666668,0,0,0.026041666666666668,224.0364583333334,0)" xlink:href="#K"/><use transform="matrix(0.026041666666666668,0,0,0.026041666666666668,256.0416666666667,0)" xlink:href="#S"/><use transform="matrix(0.026041666666666668,0,0,0.026041666666666668,288.046875,0)" xlink:href="#V"/><use transform="matrix(0.026041666666666668,0,0,0.026041666666666668,320.0520833333333,0)" xlink:href="#Y"/></g><path fill="#3a414a" d="M616-1102c361 0 521 202 521 560 0 354-171 562-527 562C259 20 92-192 92-542c0-351 169-560 524-560zm-9 930c200-2 236-165 236-370 0-199-27-367-223-367-195 0-233 146-233 367 0 129 18 223 55 282s92 88 165 88" id="Z"/><path fill="#3a414a" d="M875-1102c70 0 148 7 206 17v237c-110-17-267-37-359 15-123 69-192 207-192 395V0H250c-10-367 32-789-52-1082h271c19 69 36 149 46 228h4c52-151 151-250 356-248" id="aa"/><path fill="#3a414a" d="M1113-274C1038-96 884 20 626 20c-352 0-526-209-526-566 0-358 185-556 530-556 358 0 496 251 499 615H395c5 180 68 319 245 319 102 0 186-45 208-129zM857-663c-6-177-128-307-315-247-94 30-141 121-145 247h460" id="ab"/><g id="d"><use transform="matrix(0.01953125,0,0,0.01953125,0,0)" xlink:href="#U"/><use transform="matrix(0.01953125,0,0,0.01953125,24.00390625,0)" xlink:href="#Z"/><use transform="matrix(0.01953125,0,0,0.01953125,48.0078125,0)" xlink:href="#aa"/><use transform="matrix(0.01953125,0,0,0.01953125,72.01171875,0)" xlink:href="#ab"/></g><path fill="#3a414a" d="M709-1193V0H519v-1193H76v-156h1076v156H709" id="ac"/><path fill="#3a414a" d="M1034 0L896-382H333L196 0H0l510-1349h217L1228 0h-194zM847-531c-77-225-157-447-231-674-69 231-154 451-232 674h463" id="ad"/><path fill="#3a414a" d="M614-1226c-167 1-283 53-283 213 0 183 186 193 334 234 230 63 463 120 463 409 0 286-219 387-518 390C309 23 131-98 79-338l185-37c34 165 149 248 351 246 184-2 324-58 324-238 0-203-207-221-372-266-210-57-422-111-422-377 0-267 201-356 470-360 279-5 430 101 480 324l-188 33c-28-141-121-215-293-213" id="ae"/><g id="e"><use transform="matrix(0.013020833333333334,0,0,0.013020833333333334,0,0)" xlink:href="#ac"/><use transform="matrix(0.013020833333333334,0,0,0.013020833333333334,16.002604166666668,0)" xlink:href="#ad"/><use transform="matrix(0.013020833333333334,0,0,0.013020833333333334,32.005208333333336,0)" xlink:href="#ae"/></g><path fill="#3a414a" d="M162 0v-1349h919v156H353v422h668v154H353v461h769V0H162" id="af"/><path fill="#3a414a" d="M904-1102c199 0 220 177 220 381V0H956v-686c-3-114 0-215-60-264-70-33-125-4-158 71-26 56-39 140-39 252V0H531v-686c-3-114-1-215-61-264-78-41-136 24-157 84-24 69-39 159-39 259V0H105c-3-360 6-732-6-1082h149c6 50 3 123 8 175 36-100 83-195 216-195 135 0 166 79 196 196 42-105 93-196 236-196" id="ag"/><path fill="#3a414a" d="M617-1102c355 0 481 238 477 599H322c5 222 84 388 301 388 144 0 244-59 284-166l158 45C1002-72 854 20 623 20c-342 0-490-220-490-568 0-346 151-554 484-554zm291 461c-18-192-90-328-289-328-194 0-287 128-295 328h584" id="ah"/><path fill="#3a414a" d="M839-1102c70 0 148 7 206 17v167c-112-18-268-36-363 15-129 69-208 203-208 395V0H294c-10-367 32-789-52-1082h171c21 75 41 161 48 250h5c67-152 152-270 373-270" id="ai"/><path fill="#3a414a" d="M1048-32c-2 300-135 456-433 456-222-1-358-88-400-267l184-25c22 99 100 157 222 156 184-2 248-125 248-315 0-64 3-133-2-194C807-100 706-13 524-12c-306 0-381-228-381-537 0-318 85-550 400-550 164 0 271 83 325 202h3c1-60 3-134 12-185h171c-13 339-4 702-6 1050zM585-145c210-8 284-178 284-406 0-192-52-331-177-392-33-16-69-22-104-22-223 2-259 184-259 414 0 229 31 415 256 406" id="aj"/><path fill="#3a414a" d="M706-1102c241 0 344 136 343 381V0H868v-695c1-168-57-273-220-268-190 6-283 138-283 336V0H185c-3-360 6-732-6-1082h170c4 54 7 126 8 185h3c63-121 164-204 346-205" id="ak"/><path fill="#3a414a" d="M631 20c-350 0-501-215-501-562 0-355 162-560 502-560 250 0 399 118 446 323l-192 14c-23-124-109-196-262-196-242 0-305 171-305 415 1 245 61 427 304 427 151 0 248-77 267-215l190 12C1039-107 883 20 631 20" id="al"/><path fill="#3a414a" d="M745-142h380V0H143v-142h422v-798H246v-142h499v940zM545-1292v-192h200v192H545" id="am"/><path fill="#3a414a" d="M873-819c-18-114-119-146-250-146-163 0-245 50-245 151 0 151 170 148 294 185 182 54 388 94 388 320 0 240-189 325-439 329-245 4-410-69-454-268l159-31c24 133 136 168 295 165 144-2 270-31 270-171 0-164-195-160-331-202-167-52-350-87-350-299 0-218 173-315 413-313 220 2 373 77 412 260" id="an"/><g id="f"><use transform="matrix(0.013020833333333334,0,0,0.013020833333333334,0,0)" xlink:href="#af"/><use transform="matrix(0.013020833333333334,0,0,0.013020833333333334,16.002604166666668,0)" xlink:href="#ag"/><use transform="matrix(0.013020833333333334,0,0,0.013020833333333334,32.005208333333336,0)" xlink:href="#ah"/><use transform="matrix(0.013020833333333334,0,0,0.013020833333333334,48.0078125,0)" xlink:href="#ai"/><use transform="matrix(0.013020833333333334,0,0,0.013020833333333334,64.01041666666667,0)" xlink:href="#aj"/><use transform="matrix(0.013020833333333334,0,0,0.013020833333333334,80.01302083333334,0)" xlink:href="#ah"/><use transform="matrix(0.013020833333333334,0,0,0.013020833333333334,96.01562500000001,0)" xlink:href="#ak"/><use transform="matrix(0.013020833333333334,0,0,0.013020833333333334,112.0182291666667,0)" xlink:href="#al"/><use transform="matrix(0.013020833333333334,0,0,0.013020833333333334,128.02083333333334,0)" xlink:href="#am"/><use transform="matrix(0.013020833333333334,0,0,0.013020833333333334,144.0234375,0)" xlink:href="#ah"/><use transform="matrix(0.013020833333333334,0,0,0.013020833333333334,160.02604166666666,0)" xlink:href="#an"/></g><path fill="#3a414a" d="M736-142h380V0H134v-142h422v-1200H267v-142h469v1342" id="ao"/><g id="g"><use transform="matrix(0.013020833333333334,0,0,0.013020833333333334,0,0)" xlink:href="#ac"/><use transform="matrix(0.013020833333333334,0,0,0.013020833333333334,16.002604166666668,0)" xlink:href="#ah"/><use transform="matrix(0.013020833333333334,0,0,0.013020833333333334,32.005208333333336,0)" xlink:href="#ao"/><use transform="matrix(0.013020833333333334,0,0,0.013020833333333334,48.0078125,0)" xlink:href="#ah"/></g><path fill="#3a414a" d="M682 16c-209 0-323-80-324-285v-671H190v-142h170l58-282h120v282h432v142H538v652c2 114 60 155 182 155 106 0 209-16 297-34v137C921-4 806 16 682 16" id="ap"/><path fill="#3a414a" d="M1000-272c3 95 12 159 101 161 21 0 41-3 59-7V-6c-44 10-86 16-139 16-141 2-191-84-197-217h-6C748-76 648 20 446 20c-207 0-318-120-318-322 0-266 194-348 454-354l236-4c12-191-40-305-222-305-140 0-220 47-232 172l-188-17c33-204 181-292 423-292 255 0 401 118 401 364v466zm-683-27c0 109 63 184 175 182 166-3 259-96 306-217 24-65 20-120 20-200-232 7-501-28-501 235" id="aq"/><g id="h"><use transform="matrix(0.013020833333333334,0,0,0.013020833333333334,0,0)" xlink:href="#ad"/><use transform="matrix(0.013020833333333334,0,0,0.013020833333333334,16.002604166666668,0)" xlink:href="#an"/><use transform="matrix(0.013020833333333334,0,0,0.013020833333333334,32.005208333333336,0)" xlink:href="#an"/><use transform="matrix(0.013020833333333334,0,0,0.013020833333333334,48.0078125,0)" xlink:href="#am"/><use transform="matrix(0.013020833333333334,0,0,0.013020833333333334,64.01041666666667,0)" xlink:href="#an"/><use transform="matrix(0.013020833333333334,0,0,0.013020833333333334,80.01302083333334,0)" xlink:href="#ap"/><use transform="matrix(0.013020833333333334,0,0,0.013020833333333334,96.01562500000001,0)" xlink:href="#aq"/><use transform="matrix(0.013020833333333334,0,0,0.013020833333333334,112.0182291666667,0)" xlink:href="#ak"/><use transform="matrix(0.013020833333333334,0,0,0.013020833333333334,128.02083333333334,0)" xlink:href="#al"/><use transform="matrix(0.013020833333333334,0,0,0.013020833333333334,144.0234375,0)" xlink:href="#ah"/></g><path fill="#3a414a" d="M715 0H502L69-1082h202c94 253 197 500 285 758 19 57 36 126 52 183 96-335 234-626 350-941h201" id="ar"/><g id="i"><use transform="matrix(0.013020833333333334,0,0,0.013020833333333334,0,0)" xlink:href="#ae"/><use transform="matrix(0.013020833333333334,0,0,0.013020833333333334,16.002604166666668,0)" xlink:href="#ah"/><use transform="matrix(0.013020833333333334,0,0,0.013020833333333334,32.005208333333336,0)" xlink:href="#ai"/><use transform="matrix(0.013020833333333334,0,0,0.013020833333333334,48.0078125,0)" xlink:href="#ar"/><use transform="matrix(0.013020833333333334,0,0,0.013020833333333334,64.01041666666667,0)" xlink:href="#am"/><use transform="matrix(0.013020833333333334,0,0,0.013020833333333334,80.01302083333334,0)" xlink:href="#al"/><use transform="matrix(0.013020833333333334,0,0,0.013020833333333334,96.01562500000001,0)" xlink:href="#ah"/></g><path fill="#3a414a" d="M775-193C708-75 621 20 439 20 226 20 106-93 106-306c0-251 170-341 417-346l223-4c4-143-12-264-148-264-103 0-141 58-150 153l-293-14c37-219 194-321 455-321 263 0 418 130 417 390v392c1 84 5 161 89 160 21 0 42-2 62-6v152c-57 15-108 27-180 26-145 0-202-73-217-205h-6zm-256 17c168 0 234-139 227-325-166 4-347-25-347 173 0 94 33 152 120 152" id="as"/><path fill="#3a414a" d="M711 13c-250 0-386-99-385-349l2-556H161v-190h181l88-282h176v282h385v190H606v530c-10 130 45 186 174 184 91-2 176-11 255-27v186C933-1 833 13 711 13" id="at"/><path fill="#3a414a" d="M794-190h353V0H118v-190h395v-702H223v-190h571v892zM513-1277v-207h281v207H513" id="au"/><path fill="#3a414a" d="M768-1103c247 0 336 167 336 416V0H824v-619c-3-164-24-273-171-273-164 0-229 142-229 312V0H143c-4-359 9-736-8-1082h268c7 63 12 146 13 215h4c67-145 160-236 348-236" id="av"/><g id="j"><use transform="matrix(0.01953125,0,0,0.01953125,0,0)" xlink:href="#N"/><use transform="matrix(0.01953125,0,0,0.01953125,24.00390625,0)" xlink:href="#as"/><use transform="matrix(0.01953125,0,0,0.01953125,48.0078125,0)" xlink:href="#at"/><use transform="matrix(0.01953125,0,0,0.01953125,72.01171875,0)" xlink:href="#au"/><use transform="matrix(0.01953125,0,0,0.01953125,96.015625,0)" xlink:href="#ab"/><use transform="matrix(0.01953125,0,0,0.01953125,120.01953125,0)" xlink:href="#av"/><use transform="matrix(0.01953125,0,0,0.01953125,144.0234375,0)" xlink:href="#at"/></g><path fill="#3a414a" d="M496-1349c439 0 656 222 653 664C1146-265 969 0 556 0H135v-1349h361zm36 1121c245-7 319-187 320-457 1-273-91-439-361-436h-61v893h102" id="aw"/><path fill="#3a414a" d="M774 0H438L31-1082h297c94 290 200 568 280 872 83-304 194-581 291-872h294" id="ax"/><path fill="#3a414a" d="M1109-360C1066-122 902 20 624 20c-347 0-514-209-514-555 0-353 168-567 518-567 270 0 425 136 473 361l-283 14c-16-106-75-183-196-182-75 0-130 31-165 93s-52 152-52 270c0 249 74 374 221 374 120 0 188-82 201-201" id="ay"/><g id="k"><use transform="matrix(0.01953125,0,0,0.01953125,0,0)" xlink:href="#aw"/><use transform="matrix(0.01953125,0,0,0.01953125,24.00390625,0)" xlink:href="#ab"/><use transform="matrix(0.01953125,0,0,0.01953125,48.0078125,0)" xlink:href="#ax"/><use transform="matrix(0.01953125,0,0,0.01953125,72.01171875,0)" xlink:href="#au"/><use transform="matrix(0.01953125,0,0,0.01953125,96.015625,0)" xlink:href="#ay"/><use transform="matrix(0.01953125,0,0,0.01953125,120.01953125,0)" xlink:href="#ab"/></g><path fill="#3a414a" d="M713 0H515L10-1349h201C345-955 498-579 615-168c116-411 269-787 402-1181h201" id="az"/><g id="l"><use transform="matrix(0.013020833333333334,0,0,0.013020833333333334,0,0)" xlink:href="#az"/><use transform="matrix(0.013020833333333334,0,0,0.013020833333333334,16.002604166666668,0)" xlink:href="#am"/><use transform="matrix(0.013020833333333334,0,0,0.013020833333333334,32.005208333333336,0)" xlink:href="#ap"/><use transform="matrix(0.013020833333333334,0,0,0.013020833333333334,48.0078125,0)" xlink:href="#aq"/><use transform="matrix(0.013020833333333334,0,0,0.013020833333333334,64.01041666666667,0)" xlink:href="#ao"/></g><g id="m"><use transform="matrix(0.013020833333333334,0,0,0.013020833333333334,0,0)" xlink:href="#ae"/><use transform="matrix(0.013020833333333334,0,0,0.013020833333333334,16.002604166666668,0)" xlink:href="#am"/><use transform="matrix(0.013020833333333334,0,0,0.013020833333333334,32.005208333333336,0)" xlink:href="#aj"/><use transform="matrix(0.013020833333333334,0,0,0.013020833333333334,48.0078125,0)" xlink:href="#ak"/><use transform="matrix(0.013020833333333334,0,0,0.013020833333333334,64.01041666666667,0)" xlink:href="#an"/></g><path fill="#3a414a" d="M168 279c222 39 310-114 368-290L66-1082h192c120 299 249 590 362 896 115-301 235-597 351-896h190L705 0c-65 164-130 320-275 396-67 36-177 35-262 18V279" id="aA"/><g id="n"><use transform="matrix(0.013020833333333334,0,0,0.013020833333333334,0,0)" xlink:href="#ac"/><use transform="matrix(0.013020833333333334,0,0,0.013020833333333334,16.002604166666668,0)" xlink:href="#ah"/><use transform="matrix(0.013020833333333334,0,0,0.013020833333333334,32.005208333333336,0)" xlink:href="#ao"/><use transform="matrix(0.013020833333333334,0,0,0.013020833333333334,48.0078125,0)" xlink:href="#ah"/><use transform="matrix(0.013020833333333334,0,0,0.013020833333333334,64.01041666666667,0)" xlink:href="#ag"/><use transform="matrix(0.013020833333333334,0,0,0.013020833333333334,80.01302083333334,0)" xlink:href="#ah"/><use transform="matrix(0.013020833333333334,0,0,0.013020833333333334,96.01562500000001,0)" xlink:href="#ap"/><use transform="matrix(0.013020833333333334,0,0,0.013020833333333334,112.0182291666667,0)" xlink:href="#ai"/><use transform="matrix(0.013020833333333334,0,0,0.013020833333333334,128.02083333333334,0)" xlink:href="#aA"/></g><path fill="#3a414a" d="M424-1484c-2 206 5 424-8 618h4c67-145 160-234 348-236 251-3 335 167 336 416V0H824v-621c0-150-23-276-173-270-163 7-227 142-227 312V0H143v-1484h281" id="aB"/><path fill="#3a414a" d="M802-909c-3-189-2-383-2-575h281v1248c-1 83 4 168 8 236H817c-9-50-14-117-15-176h-4C735-49 651 20 482 20 191 20 97-238 97-539c0-243 66-432 221-519 50-28 108-42 175-42 162 2 253 78 309 191zm-70 658c91-113 93-462 2-584-46-61-145-100-224-53-96 56-119 190-120 349 0 123 17 214 52 275 46 82 130 115 222 74 25-12 46-33 68-61" id="aC"/><path fill="#3a414a" d="M324-409v-244h580v244H324" id="aD"/><path fill="#3a414a" d="M143 212c82 12 185 12 233-31 50-45 83-117 110-192L38-1082h297c100 284 211 557 291 861 72-305 176-578 270-861h294L742 57c-80 192-156 368-417 368-60 0-131-4-182-13V212" id="aE"/><g id="o"><use transform="matrix(0.01953125,0,0,0.01953125,0,0)" xlink:href="#K"/><use transform="matrix(0.01953125,0,0,0.01953125,24.00390625,0)" xlink:href="#aB"/><use transform="matrix(0.01953125,0,0,0.01953125,48.0078125,0)" xlink:href="#au"/><use transform="matrix(0.01953125,0,0,0.01953125,72.01171875,0)" xlink:href="#aa"/><use transform="matrix(0.01953125,0,0,0.01953125,96.015625,0)" xlink:href="#aC"/><use transform="matrix(0.01953125,0,0,0.01953125,120.01953125,0)" xlink:href="#aD"/><use transform="matrix(0.01953125,0,0,0.01953125,144.0234375,0)" xlink:href="#N"/><use transform="matrix(0.01953125,0,0,0.01953125,168.02734375,0)" xlink:href="#as"/><use transform="matrix(0.01953125,0,0,0.01953125,192.03125,0)" xlink:href="#aa"/><use transform="matrix(0.01953125,0,0,0.01953125,216.03515625,0)" xlink:href="#at"/><use transform="matrix(0.01953125,0,0,0.01953125,240.0390625,0)" xlink:href="#aE"/></g><path fill="#3a414a" d="M959-262c59 58 164 96 262 56v196c-22 13-62 21-95 21-136-2-224-53-300-115C735-36 625 19 467 19 193 19 24-102 24-369c0-221 148-330 302-410-35-71-71-170-71-267 0-214 138-311 361-311 198 0 337 89 337 284 0 164-121 237-231 303-43 26-88 47-134 68 64 112 131 207 214 302 50-98 85-203 108-324l204 27c-29 159-84 311-155 435zM267-373c0 134 74 207 210 210 82 2 151-41 194-76-98-109-188-228-262-360-74 46-142 109-142 226zm347-822c-133 0-177 123-136 245 11 32 22 62 37 91 79-39 165-72 206-145 48-85 0-191-107-191" id="aF"/><use transform="matrix(0.01953125,0,0,0.01953125,0,0)" xlink:href="#aF" id="p"/><path fill="#3a414a" d="M874 0L612-392 348 0H49l406-559-387-523h303l241 354 240-354h305L770-562 1179 0H874" id="aG"/><path fill="#3a414a" d="M794-190h353V0H118v-190h395v-1104H223v-190h571v1294" id="aH"/><g id="q"><use transform="matrix(0.01953125,0,0,0.01953125,0,0)" xlink:href="#L"/><use transform="matrix(0.01953125,0,0,0.01953125,24.00390625,0)" xlink:href="#aG"/><use transform="matrix(0.01953125,0,0,0.01953125,48.0078125,0)" xlink:href="#at"/><use transform="matrix(0.01953125,0,0,0.01953125,72.01171875,0)" xlink:href="#ab"/><use transform="matrix(0.01953125,0,0,0.01953125,96.015625,0)" xlink:href="#aa"/><use transform="matrix(0.01953125,0,0,0.01953125,120.01953125,0)" xlink:href="#av"/><use transform="matrix(0.01953125,0,0,0.01953125,144.0234375,0)" xlink:href="#as"/><use transform="matrix(0.01953125,0,0,0.01953125,168.02734375,0)" xlink:href="#aH"/></g><g id="r"><use transform="matrix(0.015190972222222224,0,0,0.015190972222222224,0,0)" xlink:href="#R"/><use transform="matrix(0.015190972222222224,0,0,0.015190972222222224,18.669704861111114,0)" xlink:href="#ab"/><use transform="matrix(0.015190972222222224,0,0,0.015190972222222224,37.33940972222223,0)" xlink:href="#aC"/><use transform="matrix(0.015190972222222224,0,0,0.015190972222222224,56.00911458333334,0)" xlink:href="#au"/><use transform="matrix(0.015190972222222224,0,0,0.015190972222222224,74.67881944444446,0)" xlink:href="#ay"/><use transform="matrix(0.015190972222222224,0,0,0.015190972222222224,93.34852430555557,0)" xlink:href="#as"/><use transform="matrix(0.015190972222222224,0,0,0.015190972222222224,112.01822916666669,0)" xlink:href="#aH"/></g><path fill="#3a414a" d="M622-916c-112 2-200 14-200 111 0 90 89 101 168 121 234 58 514 77 514 368C1104-4 751 54 434 5 267-21 161-112 121-270l247-37c24 111 113 145 252 141 114-3 226-12 226-124 0-101-103-113-192-134-225-54-490-76-490-351 0-247 201-328 458-328 245 0 413 88 457 292l-249 26c-16-98-92-133-208-131" id="aI"/><g id="s"><use transform="matrix(0.015190972222222224,0,0,0.015190972222222224,0,0)" xlink:href="#S"/><use transform="matrix(0.015190972222222224,0,0,0.015190972222222224,18.669704861111114,0)" xlink:href="#av"/><use transform="matrix(0.015190972222222224,0,0,0.015190972222222224,37.33940972222223,0)" xlink:href="#as"/><use transform="matrix(0.015190972222222224,0,0,0.015190972222222224,56.00911458333334,0)" xlink:href="#aH"/><use transform="matrix(0.015190972222222224,0,0,0.015190972222222224,74.67881944444446,0)" xlink:href="#aE"/><use transform="matrix(0.015190972222222224,0,0,0.015190972222222224,93.34852430555557,0)" xlink:href="#aI"/><use transform="matrix(0.015190972222222224,0,0,0.015190972222222224,112.01822916666669,0)" xlink:href="#au"/><use transform="matrix(0.015190972222222224,0,0,0.015190972222222224,130.6879340277778,0)" xlink:href="#aI"/></g><g id="t"><use transform="matrix(0.015190972222222224,0,0,0.015190972222222224,0,0)" xlink:href="#V"/><use transform="matrix(0.015190972222222224,0,0,0.015190972222222224,18.669704861111114,0)" xlink:href="#ab"/><use transform="matrix(0.015190972222222224,0,0,0.015190972222222224,37.33940972222223,0)" xlink:href="#aa"/><use transform="matrix(0.015190972222222224,0,0,0.015190972222222224,56.00911458333334,0)" xlink:href="#ax"/><use transform="matrix(0.015190972222222224,0,0,0.015190972222222224,74.67881944444446,0)" xlink:href="#au"/><use transform="matrix(0.015190972222222224,0,0,0.015190972222222224,93.34852430555557,0)" xlink:href="#ay"/><use transform="matrix(0.015190972222222224,0,0,0.015190972222222224,112.01822916666669,0)" xlink:href="#ab"/></g><path fill="#3a414a" d="M285-1169c8 382 2 780 4 1169H129v-1349h237c86 239 188 461 253 720 69-258 169-481 255-720h225V0H937c2-390-5-788 6-1169-75 255-170 488-259 729H547c-90-240-185-475-262-729" id="aJ"/><g id="u"><use transform="matrix(0.013020833333333334,0,0,0.013020833333333334,0,0)" xlink:href="#aJ"/><use transform="matrix(0.013020833333333334,0,0,0.013020833333333334,16.002604166666668,0)" xlink:href="#ad"/><use transform="matrix(0.013020833333333334,0,0,0.013020833333333334,32.005208333333336,0)" xlink:href="#ae"/></g><path fill="#3a414a" d="M1060-1016c0 191-128 285-295 323v4c154 18 262 91 313 209 14 35 21 72 21 110 0 277-194 390-478 390-292 0-457-129-493-382l186-17c24 161 121 250 307 250 172 1 298-80 291-247-8-208-220-239-446-233v-156c217 9 409-34 409-232 0-152-102-225-264-225-159 0-264 88-278 233l-181-14c33-239 196-367 461-367 264 0 447 102 447 354" id="aK"/><use transform="matrix(0.013020833333333334,0,0,0.013020833333333334,0,0)" xlink:href="#aK" id="v"/><path fill="#3a414a" d="M611-1370c266 0 451 106 451 368 0 147-77 243-154 327-132 144-316 255-451 395-42 44-75 87-96 134h723V0H144v-117c124-264 387-411 582-603 73-72 151-147 151-271 0-161-104-231-266-231-163 0-249 90-268 238l-184-17c35-233 185-369 452-369" id="aL"/><use transform="matrix(0.013020833333333334,0,0,0.013020833333333334,0,0)" xlink:href="#aL" id="w"/><path fill="#3a414a" d="M148-1120c216-7 379-89 463-229h166v1204h353V0H157v-145h439v-1021c-79 124-254 184-448 194v-148" id="aM"/><use transform="matrix(0.013020833333333334,0,0,0.013020833333333334,0,0)" xlink:href="#aM" id="x"/><path fill="#3a414a" d="M934-1102c199 0 220 177 220 381V0H926c-2-260 10-533-4-785-4-72-14-138-83-138-34 0-61 27-81 81s-29 134-29 241V0H501c-2-260 9-533-5-785-4-72-13-138-82-138-46 0-65 47-80 93-21 67-30 155-30 248V0H75c-3-360 6-732-6-1082h209c6 50 3 123 8 175 36-100 83-195 216-195 135 0 166 79 196 196 42-105 93-196 236-196" id="aN"/><path fill="#3a414a" d="M1108-33c-3 314-178 467-492 467-243 0-400-94-447-291l281-33c17 79 82 141 174 141 176 0 212-155 205-347-2-40 5-80 0-115C773-85 665-12 501-12c-288 0-377-242-377-538 0-242 65-426 223-510 50-26 108-39 175-39 160 0 253 78 307 191h5c1-58 5-125 14-174h266c-12 335-3 703-6 1049zM811-384c25-82 27-259 1-342-30-99-77-180-190-180-172 0-205 171-205 356 0 116 18 202 54 258 48 76 129 107 221 70 62-25 96-86 119-162" id="aO"/><g id="y"><use transform="matrix(0.015190972222222224,0,0,0.015190972222222224,0,0)" xlink:href="#L"/><use transform="matrix(0.015190972222222224,0,0,0.015190972222222224,18.669704861111114,0)" xlink:href="#aN"/><use transform="matrix(0.015190972222222224,0,0,0.015190972222222224,37.33940972222223,0)" xlink:href="#ab"/><use transform="matrix(0.015190972222222224,0,0,0.015190972222222224,56.00911458333334,0)" xlink:href="#aa"/><use transform="matrix(0.015190972222222224,0,0,0.015190972222222224,74.67881944444446,0)" xlink:href="#aO"/><use transform="matrix(0.015190972222222224,0,0,0.015190972222222224,93.34852430555557,0)" xlink:href="#ab"/><use transform="matrix(0.015190972222222224,0,0,0.015190972222222224,112.01822916666669,0)" xlink:href="#av"/><use transform="matrix(0.015190972222222224,0,0,0.015190972222222224,130.6879340277778,0)" xlink:href="#ay"/><use transform="matrix(0.015190972222222224,0,0,0.015190972222222224,149.3576388888889,0)" xlink:href="#aE"/></g><g id="z"><use transform="matrix(0.015190972222222224,0,0,0.015190972222222224,0,0)" xlink:href="#V"/><use transform="matrix(0.015190972222222224,0,0,0.015190972222222224,18.669704861111114,0)" xlink:href="#ab"/><use transform="matrix(0.015190972222222224,0,0,0.015190972222222224,37.33940972222223,0)" xlink:href="#aa"/><use transform="matrix(0.015190972222222224,0,0,0.015190972222222224,56.00911458333334,0)" xlink:href="#ax"/><use transform="matrix(0.015190972222222224,0,0,0.015190972222222224,74.67881944444446,0)" xlink:href="#au"/><use transform="matrix(0.015190972222222224,0,0,0.015190972222222224,93.34852430555557,0)" xlink:href="#ay"/><use transform="matrix(0.015190972222222224,0,0,0.015190972222222224,112.01822916666669,0)" xlink:href="#ab"/></g><g id="A"><use transform="matrix(0.013020833333333334,0,0,0.013020833333333334,0,0)" xlink:href="#ad"/><use transform="matrix(0.013020833333333334,0,0,0.013020833333333334,16.002604166666668,0)" xlink:href="#ae"/></g><path fill="#3a414a" d="M427-171c3 195 2 397 2 596H148V-846c1-83-4-168-8-236h272c10 49 14 118 15 176h4c59-114 151-197 316-197 291 0 385 259 385 560 0 243-65 433-220 521-50 28-109 42-176 42-162-2-253-78-309-191zm69-661c-91 113-92 463-1 586 46 62 145 101 225 54 96-57 118-191 119-351 0-123-18-215-53-276-46-82-128-115-220-74-25 12-48 33-70 61" id="aP"/><g id="B"><use transform="matrix(0.015190972222222224,0,0,0.015190972222222224,0,0)" xlink:href="#N"/><use transform="matrix(0.015190972222222224,0,0,0.015190972222222224,18.669704861111114,0)" xlink:href="#aa"/><use transform="matrix(0.015190972222222224,0,0,0.015190972222222224,37.33940972222223,0)" xlink:href="#ab"/><use transform="matrix(0.015190972222222224,0,0,0.015190972222222224,56.00911458333334,0)" xlink:href="#aI"/><use transform="matrix(0.015190972222222224,0,0,0.015190972222222224,74.67881944444446,0)" xlink:href="#ay"/><use transform="matrix(0.015190972222222224,0,0,0.015190972222222224,93.34852430555557,0)" xlink:href="#aa"/><use transform="matrix(0.015190972222222224,0,0,0.015190972222222224,112.01822916666669,0)" xlink:href="#au"/><use transform="matrix(0.015190972222222224,0,0,0.015190972222222224,130.6879340277778,0)" xlink:href="#aP"/><use transform="matrix(0.015190972222222224,0,0,0.015190972222222224,149.3576388888889,0)" xlink:href="#at"/><use transform="matrix(0.015190972222222224,0,0,0.015190972222222224,168.02734375000003,0)" xlink:href="#au"/><use transform="matrix(0.015190972222222224,0,0,0.015190972222222224,186.69704861111114,0)" xlink:href="#Z"/><use transform="matrix(0.015190972222222224,0,0,0.015190972222222224,205.36675347222226,0)" xlink:href="#av"/></g><g id="C"><use transform="matrix(0.015190972222222224,0,0,0.015190972222222224,0,0)" xlink:href="#V"/><use transform="matrix(0.015190972222222224,0,0,0.015190972222222224,18.669704861111114,0)" xlink:href="#ab"/><use transform="matrix(0.015190972222222224,0,0,0.015190972222222224,37.33940972222223,0)" xlink:href="#aa"/><use transform="matrix(0.015190972222222224,0,0,0.015190972222222224,56.00911458333334,0)" xlink:href="#ax"/><use transform="matrix(0.015190972222222224,0,0,0.015190972222222224,74.67881944444446,0)" xlink:href="#au"/><use transform="matrix(0.015190972222222224,0,0,0.015190972222222224,93.34852430555557,0)" xlink:href="#ay"/><use transform="matrix(0.015190972222222224,0,0,0.015190972222222224,112.01822916666669,0)" xlink:href="#ab"/></g><path fill="#3a414a" d="M473-1349c438-1 655 221 652 661C1122-268 945-8 532 0H162v-1349h311zm42 1193c308-4 416-205 418-532 2-330-131-509-459-505H353v1037h162" id="aQ"/><g id="D"><use transform="matrix(0.013020833333333334,0,0,0.013020833333333334,0,0)" xlink:href="#aQ"/><use transform="matrix(0.013020833333333334,0,0,0.013020833333333334,16.002604166666668,0)" xlink:href="#ae"/></g><path fill="#3a414a" d="M650-216c90 0 157-35 208-74v-235H584v-218h544v558C1004-84 858 20 635 20 235 20 80-276 80-681c0-416 146-689 558-689 277 0 398 160 462 375l-274 54c-31-108-73-197-185-197-231 0-262 217-262 457 0 149 22 263 67 344s113 121 204 121" id="aR"/><g id="E"><use transform="matrix(0.026041666666666668,0,0,0.026041666666666668,0,0)" xlink:href="#M"/><use transform="matrix(0.026041666666666668,0,0,0.026041666666666668,32.005208333333336,0)" xlink:href="#L"/><use transform="matrix(0.026041666666666668,0,0,0.026041666666666668,64.01041666666667,0)" xlink:href="#aR"/><use transform="matrix(0.026041666666666668,0,0,0.026041666666666668,96.015625,0)" xlink:href="#L"/><use transform="matrix(0.026041666666666668,0,0,0.026041666666666668,128.02083333333334,0)" xlink:href="#T"/><use transform="matrix(0.026041666666666668,0,0,0.026041666666666668,160.02604166666669,0)" xlink:href="#aw"/></g><path fill="#3a414a" d="M471 20c-247 0-336-169-336-415v-687h281v607c4 148 31 285 172 285 152 0 207-150 207-312v-580h281c4 359-9 736 8 1082H816c-7-63-11-146-12-215h-5C736-76 644 20 471 20" id="aS"/><g id="F"><use transform="matrix(0.015190972222222224,0,0,0.015190972222222224,0,0)" xlink:href="#P"/><use transform="matrix(0.015190972222222224,0,0,0.015190972222222224,18.669704861111114,0)" xlink:href="#aS"/><use transform="matrix(0.015190972222222224,0,0,0.015190972222222224,37.33940972222223,0)" xlink:href="#av"/><use transform="matrix(0.015190972222222224,0,0,0.015190972222222224,56.00911458333334,0)" xlink:href="#ay"/><use transform="matrix(0.015190972222222224,0,0,0.015190972222222224,74.67881944444446,0)" xlink:href="#at"/><use transform="matrix(0.015190972222222224,0,0,0.015190972222222224,93.34852430555557,0)" xlink:href="#au"/><use transform="matrix(0.015190972222222224,0,0,0.015190972222222224,112.01822916666669,0)" xlink:href="#Z"/><use transform="matrix(0.015190972222222224,0,0,0.015190972222222224,130.6879340277778,0)" xlink:href="#av"/><use transform="matrix(0.015190972222222224,0,0,0.015190972222222224,149.3576388888889,0)" xlink:href="#as"/><use transform="matrix(0.015190972222222224,0,0,0.015190972222222224,168.02734375000003,0)" xlink:href="#aH"/></g><g id="G"><use transform="matrix(0.015190972222222224,0,0,0.015190972222222224,0,0)" xlink:href="#aR"/><use transform="matrix(0.015190972222222224,0,0,0.015190972222222224,18.669704861111114,0)" xlink:href="#aa"/><use transform="matrix(0.015190972222222224,0,0,0.015190972222222224,37.33940972222223,0)" xlink:href="#Z"/><use transform="matrix(0.015190972222222224,0,0,0.015190972222222224,56.00911458333334,0)" xlink:href="#aS"/><use transform="matrix(0.015190972222222224,0,0,0.015190972222222224,74.67881944444446,0)" xlink:href="#aP"/></g><path fill="#3a414a" d="M747-1226c-195 1-328 74-328 254 0 150 168 158 292 193 206 58 444 122 384 409-56 265-271 388-594 390C217 22 49-81 40-338l192-37c3 179 117 247 303 246 215-2 375-80 375-283 0-168-187-179-325-221-168-51-357-87-357-299 0-308 229-433 548-438 258-4 409 81 417 324l-194 33c-2-154-93-214-252-213" id="aT"/><path fill="#3a414a" d="M726-1102c256 0 385 126 386 379 1 67-11 147-25 220H315c-7 39-13 78-13 121 2 164 74 267 238 267 154 0 260-65 317-166l149 45C916-82 760 20 514 20c-259 0-398-131-398-390 0-357 148-615 421-704 62-20 125-28 189-28zm202 461c22-192-41-335-226-328-212 9-312 142-358 328h584" id="aU"/><path fill="#3a414a" d="M523-832c93-143 191-271 425-270 69 0 147 7 203 17l-33 167c-114-19-266-34-366 15-148 73-248 213-284 395L369 0H189l136-701c21-116 30-253 22-381h171c8 76 8 174 0 250h5" id="aV"/><path fill="#3a414a" d="M610 0H397L174-1082h202l131 704c10 72 16 162 23 237 161-331 356-627 533-941h201" id="aW"/><path fill="#3a414a" d="M668-142h380L1020 0H38l28-142h422l155-798H324l27-142h499zm23-1150l37-192h200l-37 192H691" id="aX"/><path fill="#3a414a" d="M522 20c-267 0-410-127-410-389 0-365 156-619 438-707 169-53 390-23 481 68 54 54 92 128 93 229l-194 14c0-132-80-198-224-196-263 3-339 192-386 415-13 63-19 121-19 174-1 166 74 255 240 253 161-2 266-84 309-215l188 12C961-121 793 20 522 20" id="aY"/><g id="H"><use transform="matrix(0.015190972222222224,0,0,0.015190972222222224,0,0)" xlink:href="#aT"/><use transform="matrix(0.015190972222222224,0,0,0.015190972222222224,18.669704861111114,0)" xlink:href="#aU"/><use transform="matrix(0.015190972222222224,0,0,0.015190972222222224,37.33940972222223,0)" xlink:href="#aV"/><use transform="matrix(0.015190972222222224,0,0,0.015190972222222224,56.00911458333334,0)" xlink:href="#aW"/><use transform="matrix(0.015190972222222224,0,0,0.015190972222222224,74.67881944444446,0)" xlink:href="#aX"/><use transform="matrix(0.015190972222222224,0,0,0.015190972222222224,93.34852430555557,0)" xlink:href="#aY"/><use transform="matrix(0.015190972222222224,0,0,0.015190972222222224,112.01822916666669,0)" xlink:href="#aU"/></g><path fill="#3a414a" d="M202-1349h823v156H709v1037h316V0H202v-156h316v-1037H202v-156" id="aZ"/><path fill="#3a414a" d="M615-1102c343 0 484 203 482 560-1 347-147 562-488 562-336 0-475-219-479-562-4-349 156-560 485-560zm-8 989c240 0 301-180 301-429 0-245-55-427-290-427-236 0-299 181-299 427 0 243 61 429 288 429" id="ba"/><g id="I"><use transform="matrix(0.015190972222222224,0,0,0.015190972222222224,0,0)" xlink:href="#aZ"/><use transform="matrix(0.015190972222222224,0,0,0.015190972222222224,18.669704861111114,0)" xlink:href="#al"/><use transform="matrix(0.015190972222222224,0,0,0.015190972222222224,37.33940972222223,0)" xlink:href="#ba"/><use transform="matrix(0.015190972222222224,0,0,0.015190972222222224,56.00911458333334,0)" xlink:href="#ak"/></g><path fill="#3a414a" d="M650-1214c-281 0-336 244-336 533 0 295 60 546 347 546 188 0 263-142 322-282l159 65C1058-155 935 20 659 20c-401 0-546-295-546-701 0-407 135-689 536-689 264 0 391 146 466 335l-168 65c-47-129-127-244-297-244" id="bb"/><path fill="#3a414a" d="M528 20c-247 0-343-132-343-381v-721h180v686c-4 177 45 284 224 277 194-8 279-136 279-336v-627h181c3 360-6 732 6 1082H885c-4-54-7-126-8-185h-3C809-64 714 20 528 20" id="bc"/><g id="J"><use transform="matrix(0.015190972222222224,0,0,0.015190972222222224,0,0)" xlink:href="#bb"/><use transform="matrix(0.015190972222222224,0,0,0.015190972222222224,18.669704861111114,0)" xlink:href="#ba"/><use transform="matrix(0.015190972222222224,0,0,0.015190972222222224,37.33940972222223,0)" xlink:href="#ag"/><use transform="matrix(0.015190972222222224,0,0,0.015190972222222224,56.00911458333334,0)" xlink:href="#ag"/><use transform="matrix(0.015190972222222224,0,0,0.015190972222222224,74.67881944444446,0)" xlink:href="#bc"/><use transform="matrix(0.015190972222222224,0,0,0.015190972222222224,93.34852430555557,0)" xlink:href="#ak"/><use transform="matrix(0.015190972222222224,0,0,0.015190972222222224,112.01822916666669,0)" xlink:href="#am"/><use transform="matrix(0.015190972222222224,0,0,0.015190972222222224,130.6879340277778,0)" xlink:href="#al"/><use transform="matrix(0.015190972222222224,0,0,0.015190972222222224,149.3576388888889,0)" xlink:href="#aq"/><use transform="matrix(0.015190972222222224,0,0,0.015190972222222224,168.02734375000003,0)" xlink:href="#ap"/><use transform="matrix(0.015190972222222224,0,0,0.015190972222222224,186.69704861111114,0)" xlink:href="#am"/><use transform="matrix(0.015190972222222224,0,0,0.015190972222222224,205.36675347222226,0)" xlink:href="#ba"/><use transform="matrix(0.015190972222222224,0,0,0.015190972222222224,224.03645833333337,0)" xlink:href="#ak"/></g></defs></g></svg>