<?xml version="1.0" encoding="utf-8" standalone="no"?>
<!DOCTYPE svg PUBLIC "-//W3C//DTD SVG 1.1//EN"
  "http://www.w3.org/Graphics/SVG/1.1/DTD/svg11.dtd">
<svg xmlns:xlink="http://www.w3.org/1999/xlink" width="860.958125pt" height="421.241693pt" viewBox="0 0 860.958125 421.241693" xmlns="http://www.w3.org/2000/svg" version="1.1">
 <metadata>
  <rdf:RDF xmlns:dc="http://purl.org/dc/elements/1.1/" xmlns:cc="http://creativecommons.org/ns#" xmlns:rdf="http://www.w3.org/1999/02/22-rdf-syntax-ns#">
   <cc:Work>
    <dc:type rdf:resource="http://purl.org/dc/dcmitype/StillImage"/>
    <dc:date>2026-04-22T22:30:11.820174</dc:date>
    <dc:format>image/svg+xml</dc:format>
    <dc:creator>
     <cc:Agent>
      <dc:title>Matplotlib v3.10.7, https://matplotlib.org/</dc:title>
     </cc:Agent>
    </dc:creator>
   </cc:Work>
  </rdf:RDF>
 </metadata>
 <defs>
  <style type="text/css">*{stroke-linejoin: round; stroke-linecap: butt}</style>
 </defs>
 <g id="figure_1">
  <g id="patch_1">
   <path d="M 0 421.241693 
L 860.958125 421.241693 
L 860.958125 0 
L 0 0 
z
" style="fill: #ffffff"/>
  </g>
  <g id="axes_1">
   <g id="patch_2">
    <path d="M 59.438125 381.389184 
L 853.758125 381.389184 
L 853.758125 37.84 
L 59.438125 37.84 
z
" style="fill: #ffffff"/>
   </g>
   <g id="matplotlib.axis_1">
    <g id="xtick_1">
     <g id="line2d_1">
      <defs>
       <path id="m62a0489dd1" d="M 0 0 
L 0 3.5 
" style="stroke: #010101; stroke-width: 0.8"/>
      </defs>
      <g>
       <use xlink:href="#m62a0489dd1" x="95.54358" y="381.389184" style="fill: #010101; stroke: #010101; stroke-width: 0.8"/>
      </g>
     </g>
     <g id="text_1">
      <!-- $TAS_{1}$ -->
      <g style="fill: #010101" transform="translate(77.031745 410.803365) rotate(-45) scale(0.1 -0.1)">
       <defs>
        <path id="DejaVuSans-Oblique-54" d="M 378 4666 
L 4325 4666 
L 4225 4134 
L 2559 4134 
L 1759 0 
L 1125 0 
L 1925 4134 
L 275 4134 
L 378 4666 
z
" transform="scale(0.015625)"/>
        <path id="DejaVuSans-Oblique-41" d="M 2356 4666 
L 3072 4666 
L 3938 0 
L 3278 0 
L 3084 1197 
L 984 1197 
L 325 0 
L -341 0 
L 2356 4666 
z
M 2584 4044 
L 1275 1722 
L 2988 1722 
L 2584 4044 
z
" transform="scale(0.015625)"/>
        <path id="DejaVuSans-Oblique-53" d="M 3859 4513 
L 3738 3897 
Q 3422 4066 3111 4152 
Q 2800 4238 2509 4238 
Q 1944 4238 1609 3991 
Q 1275 3744 1275 3334 
Q 1275 3109 1398 2989 
Q 1522 2869 2034 2731 
L 2413 2638 
Q 3053 2472 3303 2217 
Q 3553 1963 3553 1503 
Q 3553 797 2998 353 
Q 2444 -91 1538 -91 
Q 1166 -91 791 -17 
Q 416 56 38 206 
L 166 856 
Q 513 641 861 531 
Q 1209 422 1556 422 
Q 2147 422 2503 684 
Q 2859 947 2859 1369 
Q 2859 1650 2717 1795 
Q 2575 1941 2106 2059 
L 1728 2156 
Q 1081 2325 845 2545 
Q 609 2766 609 3163 
Q 609 3859 1145 4304 
Q 1681 4750 2541 4750 
Q 2875 4750 3203 4690 
Q 3531 4631 3859 4513 
z
" transform="scale(0.015625)"/>
        <path id="DejaVuSans-31" d="M 794 531 
L 1825 531 
L 1825 4091 
L 703 3866 
L 703 4441 
L 1819 4666 
L 2450 4666 
L 2450 531 
L 3481 531 
L 3481 0 
L 794 0 
L 794 531 
z
" transform="scale(0.015625)"/>
       </defs>
       <use xlink:href="#DejaVuSans-Oblique-54" transform="translate(0 0.78125)"/>
       <use xlink:href="#DejaVuSans-Oblique-41" transform="translate(61.083984 0.78125)"/>
       <use xlink:href="#DejaVuSans-Oblique-53" transform="translate(129.492188 0.78125)"/>
       <use xlink:href="#DejaVuSans-31" transform="translate(192.96875 -15.625) scale(0.7)"/>
      </g>
     </g>
    </g>
    <g id="xtick_2">
     <g id="line2d_2">
      <g>
       <use xlink:href="#m62a0489dd1" x="155.719337" y="381.389184" style="fill: #010101; stroke: #010101; stroke-width: 0.8"/>
      </g>
     </g>
     <g id="text_2">
      <!-- $TAS_{2}$ -->
      <g style="fill: #010101" transform="translate(137.207503 410.803365) rotate(-45) scale(0.1 -0.1)">
       <defs>
        <path id="DejaVuSans-32" d="M 1228 531 
L 3431 531 
L 3431 0 
L 469 0 
L 469 531 
Q 828 903 1448 1529 
Q 2069 2156 2228 2338 
Q 2531 2678 2651 2914 
Q 2772 3150 2772 3378 
Q 2772 3750 2511 3984 
Q 2250 4219 1831 4219 
Q 1534 4219 1204 4116 
Q 875 4013 500 3803 
L 500 4441 
Q 881 4594 1212 4672 
Q 1544 4750 1819 4750 
Q 2544 4750 2975 4387 
Q 3406 4025 3406 3419 
Q 3406 3131 3298 2873 
Q 3191 2616 2906 2266 
Q 2828 2175 2409 1742 
Q 1991 1309 1228 531 
z
" transform="scale(0.015625)"/>
       </defs>
       <use xlink:href="#DejaVuSans-Oblique-54" transform="translate(0 0.78125)"/>
       <use xlink:href="#DejaVuSans-Oblique-41" transform="translate(61.083984 0.78125)"/>
       <use xlink:href="#DejaVuSans-Oblique-53" transform="translate(129.492188 0.78125)"/>
       <use xlink:href="#DejaVuSans-32" transform="translate(192.96875 -15.625) scale(0.7)"/>
      </g>
     </g>
    </g>
    <g id="xtick_3">
     <g id="line2d_3">
      <g>
       <use xlink:href="#m62a0489dd1" x="215.895095" y="381.389184" style="fill: #010101; stroke: #010101; stroke-width: 0.8"/>
      </g>
     </g>
     <g id="text_3">
      <!-- $TAS_{3}$ -->
      <g style="fill: #010101" transform="translate(197.38326 410.803365) rotate(-45) scale(0.1 -0.1)">
       <defs>
        <path id="DejaVuSans-33" d="M 2597 2516 
Q 3050 2419 3304 2112 
Q 3559 1806 3559 1356 
Q 3559 666 3084 287 
Q 2609 -91 1734 -91 
Q 1441 -91 1130 -33 
Q 819 25 488 141 
L 488 750 
Q 750 597 1062 519 
Q 1375 441 1716 441 
Q 2309 441 2620 675 
Q 2931 909 2931 1356 
Q 2931 1769 2642 2001 
Q 2353 2234 1838 2234 
L 1294 2234 
L 1294 2753 
L 1863 2753 
Q 2328 2753 2575 2939 
Q 2822 3125 2822 3475 
Q 2822 3834 2567 4026 
Q 2313 4219 1838 4219 
Q 1578 4219 1281 4162 
Q 984 4106 628 3988 
L 628 4550 
Q 988 4650 1302 4700 
Q 1616 4750 1894 4750 
Q 2613 4750 3031 4423 
Q 3450 4097 3450 3541 
Q 3450 3153 3228 2886 
Q 3006 2619 2597 2516 
z
" transform="scale(0.015625)"/>
       </defs>
       <use xlink:href="#DejaVuSans-Oblique-54" transform="translate(0 0.78125)"/>
       <use xlink:href="#DejaVuSans-Oblique-41" transform="translate(61.083984 0.78125)"/>
       <use xlink:href="#DejaVuSans-Oblique-53" transform="translate(129.492188 0.78125)"/>
       <use xlink:href="#DejaVuSans-33" transform="translate(192.96875 -15.625) scale(0.7)"/>
      </g>
     </g>
    </g>
    <g id="xtick_4">
     <g id="line2d_4">
      <g>
       <use xlink:href="#m62a0489dd1" x="276.070852" y="381.389184" style="fill: #010101; stroke: #010101; stroke-width: 0.8"/>
      </g>
     </g>
     <g id="text_4">
      <!-- $MAS_{1}$ -->
      <g style="fill: #010101" transform="translate(255.791251 412.571131) rotate(-45) scale(0.1 -0.1)">
       <defs>
        <path id="DejaVuSans-Oblique-4d" d="M 1081 4666 
L 2028 4666 
L 2572 1522 
L 4378 4666 
L 5350 4666 
L 4441 0 
L 3828 0 
L 4622 4091 
L 2791 897 
L 2175 897 
L 1581 4103 
L 788 0 
L 172 0 
L 1081 4666 
z
" transform="scale(0.015625)"/>
       </defs>
       <use xlink:href="#DejaVuSans-Oblique-4d" transform="translate(0 0.78125)"/>
       <use xlink:href="#DejaVuSans-Oblique-41" transform="translate(86.279297 0.78125)"/>
       <use xlink:href="#DejaVuSans-Oblique-53" transform="translate(154.6875 0.78125)"/>
       <use xlink:href="#DejaVuSans-31" transform="translate(218.164062 -15.625) scale(0.7)"/>
      </g>
     </g>
    </g>
    <g id="xtick_5">
     <g id="line2d_5">
      <g>
       <use xlink:href="#m62a0489dd1" x="336.24661" y="381.389184" style="fill: #010101; stroke: #010101; stroke-width: 0.8"/>
      </g>
     </g>
     <g id="text_5">
      <!-- $MAS_{2}$ -->
      <g style="fill: #010101" transform="translate(315.967008 412.571131) rotate(-45) scale(0.1 -0.1)">
       <use xlink:href="#DejaVuSans-Oblique-4d" transform="translate(0 0.78125)"/>
       <use xlink:href="#DejaVuSans-Oblique-41" transform="translate(86.279297 0.78125)"/>
       <use xlink:href="#DejaVuSans-Oblique-53" transform="translate(154.6875 0.78125)"/>
       <use xlink:href="#DejaVuSans-32" transform="translate(218.164062 -15.625) scale(0.7)"/>
      </g>
     </g>
    </g>
    <g id="xtick_6">
     <g id="line2d_6">
      <g>
       <use xlink:href="#m62a0489dd1" x="396.422367" y="381.389184" style="fill: #010101; stroke: #010101; stroke-width: 0.8"/>
      </g>
     </g>
     <g id="text_6">
      <!-- $MAS_{4}$ -->
      <g style="fill: #010101" transform="translate(376.142766 412.571131) rotate(-45) scale(0.1 -0.1)">
       <defs>
        <path id="DejaVuSans-34" d="M 2419 4116 
L 825 1625 
L 2419 1625 
L 2419 4116 
z
M 2253 4666 
L 3047 4666 
L 3047 1625 
L 3713 1625 
L 3713 1100 
L 3047 1100 
L 3047 0 
L 2419 0 
L 2419 1100 
L 313 1100 
L 313 1709 
L 2253 4666 
z
" transform="scale(0.015625)"/>
       </defs>
       <use xlink:href="#DejaVuSans-Oblique-4d" transform="translate(0 0.78125)"/>
       <use xlink:href="#DejaVuSans-Oblique-41" transform="translate(86.279297 0.78125)"/>
       <use xlink:href="#DejaVuSans-Oblique-53" transform="translate(154.6875 0.78125)"/>
       <use xlink:href="#DejaVuSans-34" transform="translate(218.164062 -15.625) scale(0.7)"/>
      </g>
     </g>
    </g>
    <g id="xtick_7">
     <g id="line2d_7">
      <g>
       <use xlink:href="#m62a0489dd1" x="456.598125" y="381.389184" style="fill: #010101; stroke: #010101; stroke-width: 0.8"/>
      </g>
     </g>
     <g id="text_7">
      <!-- $AS_{1}$ -->
      <g style="fill: #010101" transform="translate(442.399642 406.490013) rotate(-45) scale(0.1 -0.1)">
       <use xlink:href="#DejaVuSans-Oblique-41" transform="translate(0 0.78125)"/>
       <use xlink:href="#DejaVuSans-Oblique-53" transform="translate(68.408203 0.78125)"/>
       <use xlink:href="#DejaVuSans-31" transform="translate(131.884766 -15.625) scale(0.7)"/>
      </g>
     </g>
    </g>
    <g id="xtick_8">
     <g id="line2d_8">
      <g>
       <use xlink:href="#m62a0489dd1" x="516.773883" y="381.389184" style="fill: #010101; stroke: #010101; stroke-width: 0.8"/>
      </g>
     </g>
     <g id="text_8">
      <!-- $AS_{2}$ -->
      <g style="fill: #010101" transform="translate(502.575399 406.490013) rotate(-45) scale(0.1 -0.1)">
       <use xlink:href="#DejaVuSans-Oblique-41" transform="translate(0 0.78125)"/>
       <use xlink:href="#DejaVuSans-Oblique-53" transform="translate(68.408203 0.78125)"/>
       <use xlink:href="#DejaVuSans-32" transform="translate(131.884766 -15.625) scale(0.7)"/>
      </g>
     </g>
    </g>
    <g id="xtick_9">
     <g id="line2d_9">
      <g>
       <use xlink:href="#m62a0489dd1" x="576.94964" y="381.389184" style="fill: #010101; stroke: #010101; stroke-width: 0.8"/>
      </g>
     </g>
     <g id="text_9">
      <!-- $AS_{4}$ -->
      <g style="fill: #010101" transform="translate(562.751157 406.490013) rotate(-45) scale(0.1 -0.1)">
       <use xlink:href="#DejaVuSans-Oblique-41" transform="translate(0 0.78125)"/>
       <use xlink:href="#DejaVuSans-Oblique-53" transform="translate(68.408203 0.78125)"/>
       <use xlink:href="#DejaVuSans-34" transform="translate(131.884766 -15.625) scale(0.7)"/>
      </g>
     </g>
    </g>
    <g id="xtick_10">
     <g id="line2d_10">
      <g>
       <use xlink:href="#m62a0489dd1" x="637.125398" y="381.389184" style="fill: #010101; stroke: #010101; stroke-width: 0.8"/>
      </g>
     </g>
     <g id="text_10">
      <!-- $TAS_{4}$ -->
      <g style="fill: #010101" transform="translate(618.613563 410.803365) rotate(-45) scale(0.1 -0.1)">
       <use xlink:href="#DejaVuSans-Oblique-54" transform="translate(0 0.78125)"/>
       <use xlink:href="#DejaVuSans-Oblique-41" transform="translate(61.083984 0.78125)"/>
       <use xlink:href="#DejaVuSans-Oblique-53" transform="translate(129.492188 0.78125)"/>
       <use xlink:href="#DejaVuSans-34" transform="translate(192.96875 -15.625) scale(0.7)"/>
      </g>
     </g>
    </g>
    <g id="xtick_11">
     <g id="line2d_11">
      <g>
       <use xlink:href="#m62a0489dd1" x="697.301155" y="381.389184" style="fill: #010101; stroke: #010101; stroke-width: 0.8"/>
      </g>
     </g>
     <g id="text_11">
      <!-- $DS_{1}$ -->
      <g style="fill: #010101" transform="translate(682.536987 407.055699) rotate(-45) scale(0.1 -0.1)">
       <defs>
        <path id="DejaVuSans-Oblique-44" d="M 1081 4666 
L 2438 4666 
Q 3519 4666 4070 4208 
Q 4622 3750 4622 2847 
Q 4622 2250 4412 1698 
Q 4203 1147 3834 769 
Q 3463 381 2891 190 
Q 2319 0 1538 0 
L 172 0 
L 1081 4666 
z
M 1613 4147 
L 909 519 
L 1734 519 
Q 2794 519 3375 1128 
Q 3956 1738 3956 2847 
Q 3956 3519 3581 3833 
Q 3206 4147 2406 4147 
L 1613 4147 
z
" transform="scale(0.015625)"/>
       </defs>
       <use xlink:href="#DejaVuSans-Oblique-44" transform="translate(0 0.78125)"/>
       <use xlink:href="#DejaVuSans-Oblique-53" transform="translate(77.001953 0.78125)"/>
       <use xlink:href="#DejaVuSans-31" transform="translate(140.478516 -15.625) scale(0.7)"/>
      </g>
     </g>
    </g>
    <g id="xtick_12">
     <g id="line2d_12">
      <g>
       <use xlink:href="#m62a0489dd1" x="757.476913" y="381.389184" style="fill: #010101; stroke: #010101; stroke-width: 0.8"/>
      </g>
     </g>
     <g id="text_12">
      <!-- $TAS_{5}$ -->
      <g style="fill: #010101" transform="translate(738.965078 410.803365) rotate(-45) scale(0.1 -0.1)">
       <defs>
        <path id="DejaVuSans-35" d="M 691 4666 
L 3169 4666 
L 3169 4134 
L 1269 4134 
L 1269 2991 
Q 1406 3038 1543 3061 
Q 1681 3084 1819 3084 
Q 2600 3084 3056 2656 
Q 3513 2228 3513 1497 
Q 3513 744 3044 326 
Q 2575 -91 1722 -91 
Q 1428 -91 1123 -41 
Q 819 9 494 109 
L 494 744 
Q 775 591 1075 516 
Q 1375 441 1709 441 
Q 2250 441 2565 725 
Q 2881 1009 2881 1497 
Q 2881 1984 2565 2268 
Q 2250 2553 1709 2553 
Q 1456 2553 1204 2497 
Q 953 2441 691 2322 
L 691 4666 
z
" transform="scale(0.015625)"/>
       </defs>
       <use xlink:href="#DejaVuSans-Oblique-54" transform="translate(0 0.78125)"/>
       <use xlink:href="#DejaVuSans-Oblique-41" transform="translate(61.083984 0.78125)"/>
       <use xlink:href="#DejaVuSans-Oblique-53" transform="translate(129.492188 0.78125)"/>
       <use xlink:href="#DejaVuSans-35" transform="translate(192.96875 -15.625) scale(0.7)"/>
      </g>
     </g>
    </g>
    <g id="xtick_13">
     <g id="line2d_13">
      <g>
       <use xlink:href="#m62a0489dd1" x="817.65267" y="381.389184" style="fill: #010101; stroke: #010101; stroke-width: 0.8"/>
      </g>
     </g>
     <g id="text_13">
      <!-- $TAS_{6}$ -->
      <g style="fill: #010101" transform="translate(799.140836 410.803365) rotate(-45) scale(0.1 -0.1)">
       <defs>
        <path id="DejaVuSans-36" d="M 2113 2584 
Q 1688 2584 1439 2293 
Q 1191 2003 1191 1497 
Q 1191 994 1439 701 
Q 1688 409 2113 409 
Q 2538 409 2786 701 
Q 3034 994 3034 1497 
Q 3034 2003 2786 2293 
Q 2538 2584 2113 2584 
z
M 3366 4563 
L 3366 3988 
Q 3128 4100 2886 4159 
Q 2644 4219 2406 4219 
Q 1781 4219 1451 3797 
Q 1122 3375 1075 2522 
Q 1259 2794 1537 2939 
Q 1816 3084 2150 3084 
Q 2853 3084 3261 2657 
Q 3669 2231 3669 1497 
Q 3669 778 3244 343 
Q 2819 -91 2113 -91 
Q 1303 -91 875 529 
Q 447 1150 447 2328 
Q 447 3434 972 4092 
Q 1497 4750 2381 4750 
Q 2619 4750 2861 4703 
Q 3103 4656 3366 4563 
z
" transform="scale(0.015625)"/>
       </defs>
       <use xlink:href="#DejaVuSans-Oblique-54" transform="translate(0 0.78125)"/>
       <use xlink:href="#DejaVuSans-Oblique-41" transform="translate(61.083984 0.78125)"/>
       <use xlink:href="#DejaVuSans-Oblique-53" transform="translate(129.492188 0.78125)"/>
       <use xlink:href="#DejaVuSans-36" transform="translate(192.96875 -15.625) scale(0.7)"/>
      </g>
     </g>
    </g>
   </g>
   <g id="matplotlib.axis_2">
    <g id="ytick_1">
     <g id="line2d_14">
      <path d="M 59.438125 345.499515 
L 853.758125 345.499515 
" clip-path="url(#pb834b05112)" style="fill: none; stroke-dasharray: 2.96,1.28; stroke-dashoffset: 0; stroke: #555555; stroke-opacity: 0.7; stroke-width: 0.8"/>
     </g>
     <g id="line2d_15">
      <defs>
       <path id="mdca7e31be0" d="M 0 0 
L -3.5 0 
" style="stroke: #010101; stroke-width: 0.8"/>
      </defs>
      <g>
       <use xlink:href="#mdca7e31be0" x="59.438125" y="345.499515" style="fill: #010101; stroke: #010101; stroke-width: 0.8"/>
      </g>
     </g>
     <g id="text_14">
      <!-- 0.002 -->
      <g style="fill: #010101" transform="translate(23.81 349.298734) scale(0.1 -0.1)">
       <defs>
        <path id="DejaVuSans-30" d="M 2034 4250 
Q 1547 4250 1301 3770 
Q 1056 3291 1056 2328 
Q 1056 1369 1301 889 
Q 1547 409 2034 409 
Q 2525 409 2770 889 
Q 3016 1369 3016 2328 
Q 3016 3291 2770 3770 
Q 2525 4250 2034 4250 
z
M 2034 4750 
Q 2819 4750 3233 4129 
Q 3647 3509 3647 2328 
Q 3647 1150 3233 529 
Q 2819 -91 2034 -91 
Q 1250 -91 836 529 
Q 422 1150 422 2328 
Q 422 3509 836 4129 
Q 1250 4750 2034 4750 
z
" transform="scale(0.015625)"/>
        <path id="DejaVuSans-2e" d="M 684 794 
L 1344 794 
L 1344 0 
L 684 0 
L 684 794 
z
" transform="scale(0.015625)"/>
       </defs>
       <use xlink:href="#DejaVuSans-30"/>
       <use xlink:href="#DejaVuSans-2e" transform="translate(63.623047 0)"/>
       <use xlink:href="#DejaVuSans-30" transform="translate(95.410156 0)"/>
       <use xlink:href="#DejaVuSans-30" transform="translate(159.033203 0)"/>
       <use xlink:href="#DejaVuSans-32" transform="translate(222.65625 0)"/>
      </g>
     </g>
    </g>
    <g id="ytick_2">
     <g id="line2d_16">
      <path d="M 59.438125 289.30116 
L 853.758125 289.30116 
" clip-path="url(#pb834b05112)" style="fill: none; stroke-dasharray: 2.96,1.28; stroke-dashoffset: 0; stroke: #555555; stroke-opacity: 0.7; stroke-width: 0.8"/>
     </g>
     <g id="line2d_17">
      <g>
       <use xlink:href="#mdca7e31be0" x="59.438125" y="289.30116" style="fill: #010101; stroke: #010101; stroke-width: 0.8"/>
      </g>
     </g>
     <g id="text_15">
      <!-- 0.004 -->
      <g style="fill: #010101" transform="translate(23.81 293.100379) scale(0.1 -0.1)">
       <use xlink:href="#DejaVuSans-30"/>
       <use xlink:href="#DejaVuSans-2e" transform="translate(63.623047 0)"/>
       <use xlink:href="#DejaVuSans-30" transform="translate(95.410156 0)"/>
       <use xlink:href="#DejaVuSans-30" transform="translate(159.033203 0)"/>
       <use xlink:href="#DejaVuSans-34" transform="translate(222.65625 0)"/>
      </g>
     </g>
    </g>
    <g id="ytick_3">
     <g id="line2d_18">
      <path d="M 59.438125 233.102805 
L 853.758125 233.102805 
" clip-path="url(#pb834b05112)" style="fill: none; stroke-dasharray: 2.96,1.28; stroke-dashoffset: 0; stroke: #555555; stroke-opacity: 0.7; stroke-width: 0.8"/>
     </g>
     <g id="line2d_19">
      <g>
       <use xlink:href="#mdca7e31be0" x="59.438125" y="233.102805" style="fill: #010101; stroke: #010101; stroke-width: 0.8"/>
      </g>
     </g>
     <g id="text_16">
      <!-- 0.006 -->
      <g style="fill: #010101" transform="translate(23.81 236.902024) scale(0.1 -0.1)">
       <use xlink:href="#DejaVuSans-30"/>
       <use xlink:href="#DejaVuSans-2e" transform="translate(63.623047 0)"/>
       <use xlink:href="#DejaVuSans-30" transform="translate(95.410156 0)"/>
       <use xlink:href="#DejaVuSans-30" transform="translate(159.033203 0)"/>
       <use xlink:href="#DejaVuSans-36" transform="translate(222.65625 0)"/>
      </g>
     </g>
    </g>
    <g id="ytick_4">
     <g id="line2d_20">
      <path d="M 59.438125 176.904449 
L 853.758125 176.904449 
" clip-path="url(#pb834b05112)" style="fill: none; stroke-dasharray: 2.96,1.28; stroke-dashoffset: 0; stroke: #555555; stroke-opacity: 0.7; stroke-width: 0.8"/>
     </g>
     <g id="line2d_21">
      <g>
       <use xlink:href="#mdca7e31be0" x="59.438125" y="176.904449" style="fill: #010101; stroke: #010101; stroke-width: 0.8"/>
      </g>
     </g>
     <g id="text_17">
      <!-- 0.008 -->
      <g style="fill: #010101" transform="translate(23.81 180.703668) scale(0.1 -0.1)">
       <defs>
        <path id="DejaVuSans-38" d="M 2034 2216 
Q 1584 2216 1326 1975 
Q 1069 1734 1069 1313 
Q 1069 891 1326 650 
Q 1584 409 2034 409 
Q 2484 409 2743 651 
Q 3003 894 3003 1313 
Q 3003 1734 2745 1975 
Q 2488 2216 2034 2216 
z
M 1403 2484 
Q 997 2584 770 2862 
Q 544 3141 544 3541 
Q 544 4100 942 4425 
Q 1341 4750 2034 4750 
Q 2731 4750 3128 4425 
Q 3525 4100 3525 3541 
Q 3525 3141 3298 2862 
Q 3072 2584 2669 2484 
Q 3125 2378 3379 2068 
Q 3634 1759 3634 1313 
Q 3634 634 3220 271 
Q 2806 -91 2034 -91 
Q 1263 -91 848 271 
Q 434 634 434 1313 
Q 434 1759 690 2068 
Q 947 2378 1403 2484 
z
M 1172 3481 
Q 1172 3119 1398 2916 
Q 1625 2713 2034 2713 
Q 2441 2713 2670 2916 
Q 2900 3119 2900 3481 
Q 2900 3844 2670 4047 
Q 2441 4250 2034 4250 
Q 1625 4250 1398 4047 
Q 1172 3844 1172 3481 
z
" transform="scale(0.015625)"/>
       </defs>
       <use xlink:href="#DejaVuSans-30"/>
       <use xlink:href="#DejaVuSans-2e" transform="translate(63.623047 0)"/>
       <use xlink:href="#DejaVuSans-30" transform="translate(95.410156 0)"/>
       <use xlink:href="#DejaVuSans-30" transform="translate(159.033203 0)"/>
       <use xlink:href="#DejaVuSans-38" transform="translate(222.65625 0)"/>
      </g>
     </g>
    </g>
    <g id="ytick_5">
     <g id="line2d_22">
      <path d="M 59.438125 120.706094 
L 853.758125 120.706094 
" clip-path="url(#pb834b05112)" style="fill: none; stroke-dasharray: 2.96,1.28; stroke-dashoffset: 0; stroke: #555555; stroke-opacity: 0.7; stroke-width: 0.8"/>
     </g>
     <g id="line2d_23">
      <g>
       <use xlink:href="#mdca7e31be0" x="59.438125" y="120.706094" style="fill: #010101; stroke: #010101; stroke-width: 0.8"/>
      </g>
     </g>
     <g id="text_18">
      <!-- 0.010 -->
      <g style="fill: #010101" transform="translate(23.81 124.505313) scale(0.1 -0.1)">
       <use xlink:href="#DejaVuSans-30"/>
       <use xlink:href="#DejaVuSans-2e" transform="translate(63.623047 0)"/>
       <use xlink:href="#DejaVuSans-30" transform="translate(95.410156 0)"/>
       <use xlink:href="#DejaVuSans-31" transform="translate(159.033203 0)"/>
       <use xlink:href="#DejaVuSans-30" transform="translate(222.65625 0)"/>
      </g>
     </g>
    </g>
    <g id="ytick_6">
     <g id="line2d_24">
      <path d="M 59.438125 64.507739 
L 853.758125 64.507739 
" clip-path="url(#pb834b05112)" style="fill: none; stroke-dasharray: 2.96,1.28; stroke-dashoffset: 0; stroke: #555555; stroke-opacity: 0.7; stroke-width: 0.8"/>
     </g>
     <g id="line2d_25">
      <g>
       <use xlink:href="#mdca7e31be0" x="59.438125" y="64.507739" style="fill: #010101; stroke: #010101; stroke-width: 0.8"/>
      </g>
     </g>
     <g id="text_19">
      <!-- 0.012 -->
      <g style="fill: #010101" transform="translate(23.81 68.306958) scale(0.1 -0.1)">
       <use xlink:href="#DejaVuSans-30"/>
       <use xlink:href="#DejaVuSans-2e" transform="translate(63.623047 0)"/>
       <use xlink:href="#DejaVuSans-30" transform="translate(95.410156 0)"/>
       <use xlink:href="#DejaVuSans-31" transform="translate(159.033203 0)"/>
       <use xlink:href="#DejaVuSans-32" transform="translate(222.65625 0)"/>
      </g>
     </g>
    </g>
    <g id="text_20">
     <!-- $W$ [s/req] -->
     <g style="fill: #010101" transform="translate(17.08 242.764592) rotate(-90) scale(0.13 -0.13)">
      <defs>
       <path id="DejaVuSans-Oblique-57" d="M 616 4666 
L 1228 4666 
L 1453 697 
L 3213 4666 
L 3916 4666 
L 4147 697 
L 5888 4666 
L 6528 4666 
L 4453 0 
L 3659 0 
L 3444 3891 
L 1697 0 
L 903 0 
L 616 4666 
z
" transform="scale(0.015625)"/>
       <path id="DejaVuSans-Bold-20" transform="scale(0.015625)"/>
       <path id="DejaVuSans-Bold-5b" d="M 550 4863 
L 2491 4863 
L 2491 4159 
L 1613 4159 
L 1613 -141 
L 2491 -141 
L 2491 -844 
L 550 -844 
L 550 4863 
z
" transform="scale(0.015625)"/>
       <path id="DejaVuSans-Bold-73" d="M 3272 3391 
L 3272 2541 
Q 2913 2691 2578 2766 
Q 2244 2841 1947 2841 
Q 1628 2841 1473 2761 
Q 1319 2681 1319 2516 
Q 1319 2381 1436 2309 
Q 1553 2238 1856 2203 
L 2053 2175 
Q 2913 2066 3209 1816 
Q 3506 1566 3506 1031 
Q 3506 472 3093 190 
Q 2681 -91 1863 -91 
Q 1516 -91 1145 -36 
Q 775 19 384 128 
L 384 978 
Q 719 816 1070 734 
Q 1422 653 1784 653 
Q 2113 653 2278 743 
Q 2444 834 2444 1013 
Q 2444 1163 2330 1236 
Q 2216 1309 1875 1350 
L 1678 1375 
Q 931 1469 631 1722 
Q 331 1975 331 2491 
Q 331 3047 712 3315 
Q 1094 3584 1881 3584 
Q 2191 3584 2531 3537 
Q 2872 3491 3272 3391 
z
" transform="scale(0.015625)"/>
       <path id="DejaVuSans-Bold-2f" d="M 1644 4666 
L 2338 4666 
L 691 -594 
L 0 -594 
L 1644 4666 
z
" transform="scale(0.015625)"/>
       <path id="DejaVuSans-Bold-72" d="M 3138 2547 
Q 2991 2616 2845 2648 
Q 2700 2681 2553 2681 
Q 2122 2681 1889 2404 
Q 1656 2128 1656 1613 
L 1656 0 
L 538 0 
L 538 3500 
L 1656 3500 
L 1656 2925 
Q 1872 3269 2151 3426 
Q 2431 3584 2822 3584 
Q 2878 3584 2943 3579 
Q 3009 3575 3134 3559 
L 3138 2547 
z
" transform="scale(0.015625)"/>
       <path id="DejaVuSans-Bold-65" d="M 4031 1759 
L 4031 1441 
L 1416 1441 
Q 1456 1047 1700 850 
Q 1944 653 2381 653 
Q 2734 653 3104 758 
Q 3475 863 3866 1075 
L 3866 213 
Q 3469 63 3072 -14 
Q 2675 -91 2278 -91 
Q 1328 -91 801 392 
Q 275 875 275 1747 
Q 275 2603 792 3093 
Q 1309 3584 2216 3584 
Q 3041 3584 3536 3087 
Q 4031 2591 4031 1759 
z
M 2881 2131 
Q 2881 2450 2695 2645 
Q 2509 2841 2209 2841 
Q 1884 2841 1681 2658 
Q 1478 2475 1428 2131 
L 2881 2131 
z
" transform="scale(0.015625)"/>
       <path id="DejaVuSans-Bold-71" d="M 2181 2772 
Q 1825 2772 1636 2509 
Q 1447 2247 1447 1747 
Q 1447 1247 1636 984 
Q 1825 722 2181 722 
Q 2541 722 2730 984 
Q 2919 1247 2919 1747 
Q 2919 2247 2730 2509 
Q 2541 2772 2181 2772 
z
M 2919 506 
Q 2688 197 2409 53 
Q 2131 -91 1766 -91 
Q 1119 -91 703 423 
Q 288 938 288 1747 
Q 288 2556 703 3067 
Q 1119 3578 1766 3578 
Q 2131 3578 2409 3434 
Q 2688 3291 2919 2981 
L 2919 3500 
L 4044 3500 
L 4044 -1331 
L 2919 -1331 
L 2919 506 
z
" transform="scale(0.015625)"/>
       <path id="DejaVuSans-Bold-5d" d="M 2375 -844 
L 434 -844 
L 434 -141 
L 1313 -141 
L 1313 4159 
L 434 4159 
L 434 4863 
L 2375 4863 
L 2375 -844 
z
" transform="scale(0.015625)"/>
      </defs>
      <use xlink:href="#DejaVuSans-Oblique-57" transform="translate(0 0.015625)"/>
      <use xlink:href="#DejaVuSans-Bold-20" transform="translate(98.876953 0.015625)"/>
      <use xlink:href="#DejaVuSans-Bold-5b" transform="translate(133.691406 0.015625)"/>
      <use xlink:href="#DejaVuSans-Bold-73" transform="translate(179.394531 0.015625)"/>
      <use xlink:href="#DejaVuSans-Bold-2f" transform="translate(238.916016 0.015625)"/>
      <use xlink:href="#DejaVuSans-Bold-72" transform="translate(275.439453 0.015625)"/>
      <use xlink:href="#DejaVuSans-Bold-65" transform="translate(324.755859 0.015625)"/>
      <use xlink:href="#DejaVuSans-Bold-71" transform="translate(392.578125 0.015625)"/>
      <use xlink:href="#DejaVuSans-Bold-5d" transform="translate(464.160156 0.015625)"/>
     </g>
    </g>
   </g>
   <g id="LineCollection_1">
    <path d="M 95.54358 352.316895 
L 95.54358 350.386512 
" clip-path="url(#pb834b05112)" style="fill: none; stroke: #010101; stroke-width: 1.5"/>
    <path d="M 155.719337 339.922689 
L 155.719337 337.757241 
" clip-path="url(#pb834b05112)" style="fill: none; stroke: #010101; stroke-width: 1.5"/>
    <path d="M 215.895095 349.287997 
L 215.895095 348.299153 
" clip-path="url(#pb834b05112)" style="fill: none; stroke: #010101; stroke-width: 1.5"/>
    <path d="M 276.070852 184.558217 
L 276.070852 159.900633 
" clip-path="url(#pb834b05112)" style="fill: none; stroke: #010101; stroke-width: 1.5"/>
    <path d="M 336.24661 334.902723 
L 336.24661 331.906594 
" clip-path="url(#pb834b05112)" style="fill: none; stroke: #010101; stroke-width: 1.5"/>
    <path d="M 396.422367 365.773312 
L 396.422367 364.396359 
" clip-path="url(#pb834b05112)" style="fill: none; stroke: #010101; stroke-width: 1.5"/>
    <path d="M 456.598125 357.159703 
L 456.598125 356.005596 
" clip-path="url(#pb834b05112)" style="fill: none; stroke: #010101; stroke-width: 1.5"/>
    <path d="M 516.773883 320.057087 
L 516.773883 316.396497 
" clip-path="url(#pb834b05112)" style="fill: none; stroke: #010101; stroke-width: 1.5"/>
    <path d="M 576.94964 240.443031 
L 576.94964 235.126689 
" clip-path="url(#pb834b05112)" style="fill: none; stroke: #010101; stroke-width: 1.5"/>
    <path d="M 637.125398 339.130907 
L 637.125398 337.495741 
" clip-path="url(#pb834b05112)" style="fill: none; stroke: #010101; stroke-width: 1.5"/>
    <path d="M 697.301155 79.426111 
L 697.301155 53.455872 
" clip-path="url(#pb834b05112)" style="fill: none; stroke: #010101; stroke-width: 1.5"/>
    <path d="M 757.476913 348.883587 
L 757.476913 347.179268 
" clip-path="url(#pb834b05112)" style="fill: none; stroke: #010101; stroke-width: 1.5"/>
    <path d="M 817.65267 349.688329 
L 817.65267 347.94975 
" clip-path="url(#pb834b05112)" style="fill: none; stroke: #010101; stroke-width: 1.5"/>
   </g>
   <g id="line2d_26">
    <defs>
     <path id="md9ffd37712" d="M 5 0 
L -5 -0 
" style="stroke: #010101; stroke-width: 1.5"/>
    </defs>
    <g clip-path="url(#pb834b05112)">
     <use xlink:href="#md9ffd37712" x="95.54358" y="352.316895" style="fill: #427abe; stroke: #010101; stroke-width: 1.5"/>
     <use xlink:href="#md9ffd37712" x="155.719337" y="339.922689" style="fill: #427abe; stroke: #010101; stroke-width: 1.5"/>
     <use xlink:href="#md9ffd37712" x="215.895095" y="349.287997" style="fill: #427abe; stroke: #010101; stroke-width: 1.5"/>
     <use xlink:href="#md9ffd37712" x="276.070852" y="184.558217" style="fill: #427abe; stroke: #010101; stroke-width: 1.5"/>
     <use xlink:href="#md9ffd37712" x="336.24661" y="334.902723" style="fill: #427abe; stroke: #010101; stroke-width: 1.5"/>
     <use xlink:href="#md9ffd37712" x="396.422367" y="365.773312" style="fill: #427abe; stroke: #010101; stroke-width: 1.5"/>
     <use xlink:href="#md9ffd37712" x="456.598125" y="357.159703" style="fill: #427abe; stroke: #010101; stroke-width: 1.5"/>
     <use xlink:href="#md9ffd37712" x="516.773883" y="320.057087" style="fill: #427abe; stroke: #010101; stroke-width: 1.5"/>
     <use xlink:href="#md9ffd37712" x="576.94964" y="240.443031" style="fill: #427abe; stroke: #010101; stroke-width: 1.5"/>
     <use xlink:href="#md9ffd37712" x="637.125398" y="339.130907" style="fill: #427abe; stroke: #010101; stroke-width: 1.5"/>
     <use xlink:href="#md9ffd37712" x="697.301155" y="79.426111" style="fill: #427abe; stroke: #010101; stroke-width: 1.5"/>
     <use xlink:href="#md9ffd37712" x="757.476913" y="348.883587" style="fill: #427abe; stroke: #010101; stroke-width: 1.5"/>
     <use xlink:href="#md9ffd37712" x="817.65267" y="349.688329" style="fill: #427abe; stroke: #010101; stroke-width: 1.5"/>
    </g>
   </g>
   <g id="line2d_27">
    <g clip-path="url(#pb834b05112)">
     <use xlink:href="#md9ffd37712" x="95.54358" y="350.386512" style="fill: #427abe; stroke: #010101; stroke-width: 1.5"/>
     <use xlink:href="#md9ffd37712" x="155.719337" y="337.757241" style="fill: #427abe; stroke: #010101; stroke-width: 1.5"/>
     <use xlink:href="#md9ffd37712" x="215.895095" y="348.299153" style="fill: #427abe; stroke: #010101; stroke-width: 1.5"/>
     <use xlink:href="#md9ffd37712" x="276.070852" y="159.900633" style="fill: #427abe; stroke: #010101; stroke-width: 1.5"/>
     <use xlink:href="#md9ffd37712" x="336.24661" y="331.906594" style="fill: #427abe; stroke: #010101; stroke-width: 1.5"/>
     <use xlink:href="#md9ffd37712" x="396.422367" y="364.396359" style="fill: #427abe; stroke: #010101; stroke-width: 1.5"/>
     <use xlink:href="#md9ffd37712" x="456.598125" y="356.005596" style="fill: #427abe; stroke: #010101; stroke-width: 1.5"/>
     <use xlink:href="#md9ffd37712" x="516.773883" y="316.396497" style="fill: #427abe; stroke: #010101; stroke-width: 1.5"/>
     <use xlink:href="#md9ffd37712" x="576.94964" y="235.126689" style="fill: #427abe; stroke: #010101; stroke-width: 1.5"/>
     <use xlink:href="#md9ffd37712" x="637.125398" y="337.495741" style="fill: #427abe; stroke: #010101; stroke-width: 1.5"/>
     <use xlink:href="#md9ffd37712" x="697.301155" y="53.455872" style="fill: #427abe; stroke: #010101; stroke-width: 1.5"/>
     <use xlink:href="#md9ffd37712" x="757.476913" y="347.179268" style="fill: #427abe; stroke: #010101; stroke-width: 1.5"/>
     <use xlink:href="#md9ffd37712" x="817.65267" y="347.94975" style="fill: #427abe; stroke: #010101; stroke-width: 1.5"/>
    </g>
   </g>
   <g id="line2d_28">
    <defs>
     <path id="m940e0acda2" d="M 0 4 
C 1.060812 4 2.078319 3.578535 2.828427 2.828427 
C 3.578535 2.078319 4 1.060812 4 0 
C 4 -1.060812 3.578535 -2.078319 2.828427 -2.828427 
C 2.078319 -3.578535 1.060812 -4 0 -4 
C -1.060812 -4 -2.078319 -3.578535 -2.828427 -2.828427 
C -3.578535 -2.078319 -4 -1.060812 -4 0 
C -4 1.060812 -3.578535 2.078319 -2.828427 2.828427 
C -2.078319 3.578535 -1.060812 4 0 4 
z
" style="stroke: #427abe"/>
    </defs>
    <g clip-path="url(#pb834b05112)">
     <use xlink:href="#m940e0acda2" x="95.54358" y="351.351704" style="fill: #427abe; stroke: #427abe"/>
     <use xlink:href="#m940e0acda2" x="155.719337" y="338.839965" style="fill: #427abe; stroke: #427abe"/>
     <use xlink:href="#m940e0acda2" x="215.895095" y="348.793575" style="fill: #427abe; stroke: #427abe"/>
     <use xlink:href="#m940e0acda2" x="276.070852" y="172.229425" style="fill: #427abe; stroke: #427abe"/>
     <use xlink:href="#m940e0acda2" x="336.24661" y="333.404659" style="fill: #427abe; stroke: #427abe"/>
     <use xlink:href="#m940e0acda2" x="396.422367" y="365.084836" style="fill: #427abe; stroke: #427abe"/>
     <use xlink:href="#m940e0acda2" x="456.598125" y="356.58265" style="fill: #427abe; stroke: #427abe"/>
     <use xlink:href="#m940e0acda2" x="516.773883" y="318.226792" style="fill: #427abe; stroke: #427abe"/>
     <use xlink:href="#m940e0acda2" x="576.94964" y="237.78486" style="fill: #427abe; stroke: #427abe"/>
     <use xlink:href="#m940e0acda2" x="637.125398" y="338.313324" style="fill: #427abe; stroke: #427abe"/>
     <use xlink:href="#m940e0acda2" x="697.301155" y="66.440992" style="fill: #427abe; stroke: #427abe"/>
     <use xlink:href="#m940e0acda2" x="757.476913" y="348.031427" style="fill: #427abe; stroke: #427abe"/>
     <use xlink:href="#m940e0acda2" x="817.65267" y="348.819039" style="fill: #427abe; stroke: #427abe"/>
    </g>
   </g>
   <g id="patch_3">
    <path d="M 59.438125 381.389184 
L 59.438125 37.84 
" style="fill: none; stroke: #010101; stroke-width: 0.8; stroke-linejoin: miter; stroke-linecap: square"/>
   </g>
   <g id="patch_4">
    <path d="M 853.758125 381.389184 
L 853.758125 37.84 
" style="fill: none; stroke: #010101; stroke-width: 0.8; stroke-linejoin: miter; stroke-linecap: square"/>
   </g>
   <g id="patch_5">
    <path d="M 59.438125 381.389184 
L 853.758125 381.389184 
" style="fill: none; stroke: #010101; stroke-width: 0.8; stroke-linejoin: miter; stroke-linecap: square"/>
   </g>
   <g id="patch_6">
    <path d="M 59.438125 37.84 
L 853.758125 37.84 
" style="fill: none; stroke: #010101; stroke-width: 0.8; stroke-linejoin: miter; stroke-linecap: square"/>
   </g>
   <g id="text_21">
    <!-- After Adaptation - Per-node $W$ (95% CI) -->
    <g style="fill: #010101" transform="translate(301.688125 17.84) scale(0.14 -0.14)">
     <defs>
      <path id="DejaVuSans-Bold-41" d="M 3419 850 
L 1538 850 
L 1241 0 
L 31 0 
L 1759 4666 
L 3194 4666 
L 4922 0 
L 3713 0 
L 3419 850 
z
M 1838 1716 
L 3116 1716 
L 2478 3572 
L 1838 1716 
z
" transform="scale(0.015625)"/>
      <path id="DejaVuSans-Bold-66" d="M 2841 4863 
L 2841 4128 
L 2222 4128 
Q 1984 4128 1890 4042 
Q 1797 3956 1797 3744 
L 1797 3500 
L 2753 3500 
L 2753 2700 
L 1797 2700 
L 1797 0 
L 678 0 
L 678 2700 
L 122 2700 
L 122 3500 
L 678 3500 
L 678 3744 
Q 678 4316 997 4589 
Q 1316 4863 1984 4863 
L 2841 4863 
z
" transform="scale(0.015625)"/>
      <path id="DejaVuSans-Bold-74" d="M 1759 4494 
L 1759 3500 
L 2913 3500 
L 2913 2700 
L 1759 2700 
L 1759 1216 
Q 1759 972 1856 886 
Q 1953 800 2241 800 
L 2816 800 
L 2816 0 
L 1856 0 
Q 1194 0 917 276 
Q 641 553 641 1216 
L 641 2700 
L 84 2700 
L 84 3500 
L 641 3500 
L 641 4494 
L 1759 4494 
z
" transform="scale(0.015625)"/>
      <path id="DejaVuSans-Bold-64" d="M 2919 2988 
L 2919 4863 
L 4044 4863 
L 4044 0 
L 2919 0 
L 2919 506 
Q 2688 197 2409 53 
Q 2131 -91 1766 -91 
Q 1119 -91 703 423 
Q 288 938 288 1747 
Q 288 2556 703 3070 
Q 1119 3584 1766 3584 
Q 2128 3584 2408 3439 
Q 2688 3294 2919 2988 
z
M 2181 722 
Q 2541 722 2730 984 
Q 2919 1247 2919 1747 
Q 2919 2247 2730 2509 
Q 2541 2772 2181 2772 
Q 1825 2772 1636 2509 
Q 1447 2247 1447 1747 
Q 1447 1247 1636 984 
Q 1825 722 2181 722 
z
" transform="scale(0.015625)"/>
      <path id="DejaVuSans-Bold-61" d="M 2106 1575 
Q 1756 1575 1579 1456 
Q 1403 1338 1403 1106 
Q 1403 894 1545 773 
Q 1688 653 1941 653 
Q 2256 653 2472 879 
Q 2688 1106 2688 1447 
L 2688 1575 
L 2106 1575 
z
M 3816 1997 
L 3816 0 
L 2688 0 
L 2688 519 
Q 2463 200 2181 54 
Q 1900 -91 1497 -91 
Q 953 -91 614 226 
Q 275 544 275 1050 
Q 275 1666 698 1953 
Q 1122 2241 2028 2241 
L 2688 2241 
L 2688 2328 
Q 2688 2594 2478 2717 
Q 2269 2841 1825 2841 
Q 1466 2841 1156 2769 
Q 847 2697 581 2553 
L 581 3406 
Q 941 3494 1303 3539 
Q 1666 3584 2028 3584 
Q 2975 3584 3395 3211 
Q 3816 2838 3816 1997 
z
" transform="scale(0.015625)"/>
      <path id="DejaVuSans-Bold-70" d="M 1656 506 
L 1656 -1331 
L 538 -1331 
L 538 3500 
L 1656 3500 
L 1656 2988 
Q 1888 3294 2169 3439 
Q 2450 3584 2816 3584 
Q 3463 3584 3878 3070 
Q 4294 2556 4294 1747 
Q 4294 938 3878 423 
Q 3463 -91 2816 -91 
Q 2450 -91 2169 54 
Q 1888 200 1656 506 
z
M 2400 2772 
Q 2041 2772 1848 2508 
Q 1656 2244 1656 1747 
Q 1656 1250 1848 986 
Q 2041 722 2400 722 
Q 2759 722 2948 984 
Q 3138 1247 3138 1747 
Q 3138 2247 2948 2509 
Q 2759 2772 2400 2772 
z
" transform="scale(0.015625)"/>
      <path id="DejaVuSans-Bold-69" d="M 538 3500 
L 1656 3500 
L 1656 0 
L 538 0 
L 538 3500 
z
M 538 4863 
L 1656 4863 
L 1656 3950 
L 538 3950 
L 538 4863 
z
" transform="scale(0.015625)"/>
      <path id="DejaVuSans-Bold-6f" d="M 2203 2784 
Q 1831 2784 1636 2517 
Q 1441 2250 1441 1747 
Q 1441 1244 1636 976 
Q 1831 709 2203 709 
Q 2569 709 2762 976 
Q 2956 1244 2956 1747 
Q 2956 2250 2762 2517 
Q 2569 2784 2203 2784 
z
M 2203 3584 
Q 3106 3584 3614 3096 
Q 4122 2609 4122 1747 
Q 4122 884 3614 396 
Q 3106 -91 2203 -91 
Q 1297 -91 786 396 
Q 275 884 275 1747 
Q 275 2609 786 3096 
Q 1297 3584 2203 3584 
z
" transform="scale(0.015625)"/>
      <path id="DejaVuSans-Bold-6e" d="M 4056 2131 
L 4056 0 
L 2931 0 
L 2931 347 
L 2931 1631 
Q 2931 2084 2911 2256 
Q 2891 2428 2841 2509 
Q 2775 2619 2662 2680 
Q 2550 2741 2406 2741 
Q 2056 2741 1856 2470 
Q 1656 2200 1656 1722 
L 1656 0 
L 538 0 
L 538 3500 
L 1656 3500 
L 1656 2988 
Q 1909 3294 2193 3439 
Q 2478 3584 2822 3584 
Q 3428 3584 3742 3212 
Q 4056 2841 4056 2131 
z
" transform="scale(0.015625)"/>
      <path id="DejaVuSans-Bold-2d" d="M 347 2297 
L 2309 2297 
L 2309 1388 
L 347 1388 
L 347 2297 
z
" transform="scale(0.015625)"/>
      <path id="DejaVuSans-Bold-50" d="M 588 4666 
L 2584 4666 
Q 3475 4666 3951 4270 
Q 4428 3875 4428 3144 
Q 4428 2409 3951 2014 
Q 3475 1619 2584 1619 
L 1791 1619 
L 1791 0 
L 588 0 
L 588 4666 
z
M 1791 3794 
L 1791 2491 
L 2456 2491 
Q 2806 2491 2997 2661 
Q 3188 2831 3188 3144 
Q 3188 3456 2997 3625 
Q 2806 3794 2456 3794 
L 1791 3794 
z
" transform="scale(0.015625)"/>
      <path id="DejaVuSans-Bold-28" d="M 2413 -844 
L 1484 -844 
Q 1006 -72 778 623 
Q 550 1319 550 2003 
Q 550 2688 779 3389 
Q 1009 4091 1484 4856 
L 2413 4856 
Q 2013 4116 1813 3408 
Q 1613 2700 1613 2009 
Q 1613 1319 1811 609 
Q 2009 -100 2413 -844 
z
" transform="scale(0.015625)"/>
      <path id="DejaVuSans-Bold-39" d="M 641 103 
L 641 966 
Q 928 831 1190 764 
Q 1453 697 1709 697 
Q 2247 697 2547 995 
Q 2847 1294 2900 1881 
Q 2688 1725 2447 1647 
Q 2206 1569 1925 1569 
Q 1209 1569 770 1986 
Q 331 2403 331 3084 
Q 331 3838 820 4291 
Q 1309 4744 2131 4744 
Q 3044 4744 3544 4128 
Q 4044 3513 4044 2388 
Q 4044 1231 3459 570 
Q 2875 -91 1856 -91 
Q 1528 -91 1228 -42 
Q 928 6 641 103 
z
M 2125 2350 
Q 2441 2350 2600 2554 
Q 2759 2759 2759 3169 
Q 2759 3575 2600 3781 
Q 2441 3988 2125 3988 
Q 1809 3988 1650 3781 
Q 1491 3575 1491 3169 
Q 1491 2759 1650 2554 
Q 1809 2350 2125 2350 
z
" transform="scale(0.015625)"/>
      <path id="DejaVuSans-Bold-35" d="M 678 4666 
L 3669 4666 
L 3669 3781 
L 1638 3781 
L 1638 3059 
Q 1775 3097 1914 3117 
Q 2053 3138 2203 3138 
Q 3056 3138 3531 2711 
Q 4006 2284 4006 1522 
Q 4006 766 3489 337 
Q 2972 -91 2053 -91 
Q 1656 -91 1267 -14 
Q 878 63 494 219 
L 494 1166 
Q 875 947 1217 837 
Q 1559 728 1863 728 
Q 2300 728 2551 942 
Q 2803 1156 2803 1522 
Q 2803 1891 2551 2103 
Q 2300 2316 1863 2316 
Q 1603 2316 1309 2248 
Q 1016 2181 678 2041 
L 678 4666 
z
" transform="scale(0.015625)"/>
      <path id="DejaVuSans-Bold-25" d="M 4959 1925 
Q 4738 1925 4616 1733 
Q 4494 1541 4494 1184 
Q 4494 825 4614 633 
Q 4734 441 4959 441 
Q 5184 441 5303 633 
Q 5422 825 5422 1184 
Q 5422 1541 5301 1733 
Q 5181 1925 4959 1925 
z
M 4959 2450 
Q 5541 2450 5875 2112 
Q 6209 1775 6209 1184 
Q 6209 594 5875 251 
Q 5541 -91 4959 -91 
Q 4378 -91 4042 251 
Q 3706 594 3706 1184 
Q 3706 1772 4042 2111 
Q 4378 2450 4959 2450 
z
M 2094 -91 
L 1403 -91 
L 4319 4750 
L 5013 4750 
L 2094 -91 
z
M 1453 4750 
Q 2034 4750 2367 4411 
Q 2700 4072 2700 3481 
Q 2700 2891 2367 2550 
Q 2034 2209 1453 2209 
Q 872 2209 539 2550 
Q 206 2891 206 3481 
Q 206 4072 539 4411 
Q 872 4750 1453 4750 
z
M 1453 4225 
Q 1228 4225 1106 4031 
Q 984 3838 984 3481 
Q 984 3122 1106 2926 
Q 1228 2731 1453 2731 
Q 1678 2731 1798 2926 
Q 1919 3122 1919 3481 
Q 1919 3838 1797 4031 
Q 1675 4225 1453 4225 
z
" transform="scale(0.015625)"/>
      <path id="DejaVuSans-Bold-43" d="M 4288 256 
Q 3956 84 3597 -3 
Q 3238 -91 2847 -91 
Q 1681 -91 1000 561 
Q 319 1213 319 2328 
Q 319 3447 1000 4098 
Q 1681 4750 2847 4750 
Q 3238 4750 3597 4662 
Q 3956 4575 4288 4403 
L 4288 3438 
Q 3953 3666 3628 3772 
Q 3303 3878 2944 3878 
Q 2300 3878 1931 3465 
Q 1563 3053 1563 2328 
Q 1563 1606 1931 1193 
Q 2300 781 2944 781 
Q 3303 781 3628 887 
Q 3953 994 4288 1222 
L 4288 256 
z
" transform="scale(0.015625)"/>
      <path id="DejaVuSans-Bold-49" d="M 588 4666 
L 1791 4666 
L 1791 0 
L 588 0 
L 588 4666 
z
" transform="scale(0.015625)"/>
      <path id="DejaVuSans-Bold-29" d="M 513 -844 
Q 913 -100 1113 609 
Q 1313 1319 1313 2009 
Q 1313 2700 1113 3408 
Q 913 4116 513 4856 
L 1441 4856 
Q 1916 4091 2145 3389 
Q 2375 2688 2375 2003 
Q 2375 1319 2147 623 
Q 1919 -72 1441 -844 
L 513 -844 
z
" transform="scale(0.015625)"/>
     </defs>
     <use xlink:href="#DejaVuSans-Bold-41" transform="translate(0 0.015625)"/>
     <use xlink:href="#DejaVuSans-Bold-66" transform="translate(77.392578 0.015625)"/>
     <use xlink:href="#DejaVuSans-Bold-74" transform="translate(120.898438 0.015625)"/>
     <use xlink:href="#DejaVuSans-Bold-65" transform="translate(168.701172 0.015625)"/>
     <use xlink:href="#DejaVuSans-Bold-72" transform="translate(236.523438 0.015625)"/>
     <use xlink:href="#DejaVuSans-Bold-20" transform="translate(285.839844 0.015625)"/>
     <use xlink:href="#DejaVuSans-Bold-41" transform="translate(320.654297 0.015625)"/>
     <use xlink:href="#DejaVuSans-Bold-64" transform="translate(398.046875 0.015625)"/>
     <use xlink:href="#DejaVuSans-Bold-61" transform="translate(469.628906 0.015625)"/>
     <use xlink:href="#DejaVuSans-Bold-70" transform="translate(537.109375 0.015625)"/>
     <use xlink:href="#DejaVuSans-Bold-74" transform="translate(608.691406 0.015625)"/>
     <use xlink:href="#DejaVuSans-Bold-61" transform="translate(656.494141 0.015625)"/>
     <use xlink:href="#DejaVuSans-Bold-74" transform="translate(723.974609 0.015625)"/>
     <use xlink:href="#DejaVuSans-Bold-69" transform="translate(771.777344 0.015625)"/>
     <use xlink:href="#DejaVuSans-Bold-6f" transform="translate(806.054688 0.015625)"/>
     <use xlink:href="#DejaVuSans-Bold-6e" transform="translate(874.755859 0.015625)"/>
     <use xlink:href="#DejaVuSans-Bold-20" transform="translate(945.947266 0.015625)"/>
     <use xlink:href="#DejaVuSans-Bold-2d" transform="translate(980.761719 0.015625)"/>
     <use xlink:href="#DejaVuSans-Bold-20" transform="translate(1022.265625 0.015625)"/>
     <use xlink:href="#DejaVuSans-Bold-50" transform="translate(1057.080078 0.015625)"/>
     <use xlink:href="#DejaVuSans-Bold-65" transform="translate(1130.371094 0.015625)"/>
     <use xlink:href="#DejaVuSans-Bold-72" transform="translate(1198.193359 0.015625)"/>
     <use xlink:href="#DejaVuSans-Bold-2d" transform="translate(1247.509766 0.015625)"/>
     <use xlink:href="#DejaVuSans-Bold-6e" transform="translate(1289.013672 0.015625)"/>
     <use xlink:href="#DejaVuSans-Bold-6f" transform="translate(1360.205078 0.015625)"/>
     <use xlink:href="#DejaVuSans-Bold-64" transform="translate(1428.90625 0.015625)"/>
     <use xlink:href="#DejaVuSans-Bold-65" transform="translate(1500.488281 0.015625)"/>
     <use xlink:href="#DejaVuSans-Bold-20" transform="translate(1568.310547 0.015625)"/>
     <use xlink:href="#DejaVuSans-Oblique-57" transform="translate(1603.125 0.015625)"/>
     <use xlink:href="#DejaVuSans-Bold-20" transform="translate(1702.001953 0.015625)"/>
     <use xlink:href="#DejaVuSans-Bold-28" transform="translate(1736.816406 0.015625)"/>
     <use xlink:href="#DejaVuSans-Bold-39" transform="translate(1782.519531 0.015625)"/>
     <use xlink:href="#DejaVuSans-Bold-35" transform="translate(1852.099609 0.015625)"/>
     <use xlink:href="#DejaVuSans-Bold-25" transform="translate(1921.679688 0.015625)"/>
     <use xlink:href="#DejaVuSans-Bold-20" transform="translate(2021.875 0.015625)"/>
     <use xlink:href="#DejaVuSans-Bold-43" transform="translate(2056.689453 0.015625)"/>
     <use xlink:href="#DejaVuSans-Bold-49" transform="translate(2130.078125 0.015625)"/>
     <use xlink:href="#DejaVuSans-Bold-29" transform="translate(2167.285156 0.015625)"/>
    </g>
   </g>
   <g id="legend_1">
    <g id="patch_7">
     <path d="M 68.438125 62.518125 
L 285.774063 62.518125 
Q 287.774063 62.518125 287.774063 60.518125 
L 287.774063 46.84 
Q 287.774063 44.84 285.774063 44.84 
L 68.438125 44.84 
Q 66.438125 44.84 66.438125 46.84 
L 66.438125 60.518125 
Q 66.438125 62.518125 68.438125 62.518125 
z
" style="fill: #4d4d4d; opacity: 0.5; stroke: #4d4d4d; stroke-linejoin: miter"/>
    </g>
    <g id="patch_8">
     <path d="M 66.438125 60.518125 
L 283.774063 60.518125 
Q 285.774063 60.518125 285.774063 58.518125 
L 285.774063 44.84 
Q 285.774063 42.84 283.774063 42.84 
L 66.438125 42.84 
Q 64.438125 42.84 64.438125 44.84 
L 64.438125 58.518125 
Q 64.438125 60.518125 66.438125 60.518125 
z
" style="fill: #ffffff; stroke: #cccccc; stroke-linejoin: miter"/>
    </g>
    <g id="LineCollection_2">
     <path d="M 78.438125 55.938438 
L 78.438125 45.938438 
" style="fill: none; stroke: #010101; stroke-width: 1.5"/>
    </g>
    <g id="line2d_29">
     <g>
      <use xlink:href="#md9ffd37712" x="78.438125" y="55.938438" style="fill: #427abe; stroke: #010101; stroke-width: 1.5"/>
     </g>
    </g>
    <g id="line2d_30">
     <g>
      <use xlink:href="#md9ffd37712" x="78.438125" y="45.938438" style="fill: #427abe; stroke: #010101; stroke-width: 1.5"/>
     </g>
    </g>
    <g id="line2d_31"/>
    <g id="line2d_32">
     <g>
      <use xlink:href="#m940e0acda2" x="78.438125" y="50.938438" style="fill: #427abe; stroke: #427abe"/>
     </g>
    </g>
    <g id="text_22">
     <!-- stochastic mean  (95% CI (reps=10)) -->
     <g style="fill: #010101" transform="translate(96.438125 54.438438) scale(0.1 -0.1)">
      <defs>
       <path id="DejaVuSans-73" d="M 2834 3397 
L 2834 2853 
Q 2591 2978 2328 3040 
Q 2066 3103 1784 3103 
Q 1356 3103 1142 2972 
Q 928 2841 928 2578 
Q 928 2378 1081 2264 
Q 1234 2150 1697 2047 
L 1894 2003 
Q 2506 1872 2764 1633 
Q 3022 1394 3022 966 
Q 3022 478 2636 193 
Q 2250 -91 1575 -91 
Q 1294 -91 989 -36 
Q 684 19 347 128 
L 347 722 
Q 666 556 975 473 
Q 1284 391 1588 391 
Q 1994 391 2212 530 
Q 2431 669 2431 922 
Q 2431 1156 2273 1281 
Q 2116 1406 1581 1522 
L 1381 1569 
Q 847 1681 609 1914 
Q 372 2147 372 2553 
Q 372 3047 722 3315 
Q 1072 3584 1716 3584 
Q 2034 3584 2315 3537 
Q 2597 3491 2834 3397 
z
" transform="scale(0.015625)"/>
       <path id="DejaVuSans-74" d="M 1172 4494 
L 1172 3500 
L 2356 3500 
L 2356 3053 
L 1172 3053 
L 1172 1153 
Q 1172 725 1289 603 
Q 1406 481 1766 481 
L 2356 481 
L 2356 0 
L 1766 0 
Q 1100 0 847 248 
Q 594 497 594 1153 
L 594 3053 
L 172 3053 
L 172 3500 
L 594 3500 
L 594 4494 
L 1172 4494 
z
" transform="scale(0.015625)"/>
       <path id="DejaVuSans-6f" d="M 1959 3097 
Q 1497 3097 1228 2736 
Q 959 2375 959 1747 
Q 959 1119 1226 758 
Q 1494 397 1959 397 
Q 2419 397 2687 759 
Q 2956 1122 2956 1747 
Q 2956 2369 2687 2733 
Q 2419 3097 1959 3097 
z
M 1959 3584 
Q 2709 3584 3137 3096 
Q 3566 2609 3566 1747 
Q 3566 888 3137 398 
Q 2709 -91 1959 -91 
Q 1206 -91 779 398 
Q 353 888 353 1747 
Q 353 2609 779 3096 
Q 1206 3584 1959 3584 
z
" transform="scale(0.015625)"/>
       <path id="DejaVuSans-63" d="M 3122 3366 
L 3122 2828 
Q 2878 2963 2633 3030 
Q 2388 3097 2138 3097 
Q 1578 3097 1268 2742 
Q 959 2388 959 1747 
Q 959 1106 1268 751 
Q 1578 397 2138 397 
Q 2388 397 2633 464 
Q 2878 531 3122 666 
L 3122 134 
Q 2881 22 2623 -34 
Q 2366 -91 2075 -91 
Q 1284 -91 818 406 
Q 353 903 353 1747 
Q 353 2603 823 3093 
Q 1294 3584 2113 3584 
Q 2378 3584 2631 3529 
Q 2884 3475 3122 3366 
z
" transform="scale(0.015625)"/>
       <path id="DejaVuSans-68" d="M 3513 2113 
L 3513 0 
L 2938 0 
L 2938 2094 
Q 2938 2591 2744 2837 
Q 2550 3084 2163 3084 
Q 1697 3084 1428 2787 
Q 1159 2491 1159 1978 
L 1159 0 
L 581 0 
L 581 4863 
L 1159 4863 
L 1159 2956 
Q 1366 3272 1645 3428 
Q 1925 3584 2291 3584 
Q 2894 3584 3203 3211 
Q 3513 2838 3513 2113 
z
" transform="scale(0.015625)"/>
       <path id="DejaVuSans-61" d="M 2194 1759 
Q 1497 1759 1228 1600 
Q 959 1441 959 1056 
Q 959 750 1161 570 
Q 1363 391 1709 391 
Q 2188 391 2477 730 
Q 2766 1069 2766 1631 
L 2766 1759 
L 2194 1759 
z
M 3341 1997 
L 3341 0 
L 2766 0 
L 2766 531 
Q 2569 213 2275 61 
Q 1981 -91 1556 -91 
Q 1019 -91 701 211 
Q 384 513 384 1019 
Q 384 1609 779 1909 
Q 1175 2209 1959 2209 
L 2766 2209 
L 2766 2266 
Q 2766 2663 2505 2880 
Q 2244 3097 1772 3097 
Q 1472 3097 1187 3025 
Q 903 2953 641 2809 
L 641 3341 
Q 956 3463 1253 3523 
Q 1550 3584 1831 3584 
Q 2591 3584 2966 3190 
Q 3341 2797 3341 1997 
z
" transform="scale(0.015625)"/>
       <path id="DejaVuSans-69" d="M 603 3500 
L 1178 3500 
L 1178 0 
L 603 0 
L 603 3500 
z
M 603 4863 
L 1178 4863 
L 1178 4134 
L 603 4134 
L 603 4863 
z
" transform="scale(0.015625)"/>
       <path id="DejaVuSans-20" transform="scale(0.015625)"/>
       <path id="DejaVuSans-6d" d="M 3328 2828 
Q 3544 3216 3844 3400 
Q 4144 3584 4550 3584 
Q 5097 3584 5394 3201 
Q 5691 2819 5691 2113 
L 5691 0 
L 5113 0 
L 5113 2094 
Q 5113 2597 4934 2840 
Q 4756 3084 4391 3084 
Q 3944 3084 3684 2787 
Q 3425 2491 3425 1978 
L 3425 0 
L 2847 0 
L 2847 2094 
Q 2847 2600 2669 2842 
Q 2491 3084 2119 3084 
Q 1678 3084 1418 2786 
Q 1159 2488 1159 1978 
L 1159 0 
L 581 0 
L 581 3500 
L 1159 3500 
L 1159 2956 
Q 1356 3278 1631 3431 
Q 1906 3584 2284 3584 
Q 2666 3584 2933 3390 
Q 3200 3197 3328 2828 
z
" transform="scale(0.015625)"/>
       <path id="DejaVuSans-65" d="M 3597 1894 
L 3597 1613 
L 953 1613 
Q 991 1019 1311 708 
Q 1631 397 2203 397 
Q 2534 397 2845 478 
Q 3156 559 3463 722 
L 3463 178 
Q 3153 47 2828 -22 
Q 2503 -91 2169 -91 
Q 1331 -91 842 396 
Q 353 884 353 1716 
Q 353 2575 817 3079 
Q 1281 3584 2069 3584 
Q 2775 3584 3186 3129 
Q 3597 2675 3597 1894 
z
M 3022 2063 
Q 3016 2534 2758 2815 
Q 2500 3097 2075 3097 
Q 1594 3097 1305 2825 
Q 1016 2553 972 2059 
L 3022 2063 
z
" transform="scale(0.015625)"/>
       <path id="DejaVuSans-6e" d="M 3513 2113 
L 3513 0 
L 2938 0 
L 2938 2094 
Q 2938 2591 2744 2837 
Q 2550 3084 2163 3084 
Q 1697 3084 1428 2787 
Q 1159 2491 1159 1978 
L 1159 0 
L 581 0 
L 581 3500 
L 1159 3500 
L 1159 2956 
Q 1366 3272 1645 3428 
Q 1925 3584 2291 3584 
Q 2894 3584 3203 3211 
Q 3513 2838 3513 2113 
z
" transform="scale(0.015625)"/>
       <path id="DejaVuSans-28" d="M 1984 4856 
Q 1566 4138 1362 3434 
Q 1159 2731 1159 2009 
Q 1159 1288 1364 580 
Q 1569 -128 1984 -844 
L 1484 -844 
Q 1016 -109 783 600 
Q 550 1309 550 2009 
Q 550 2706 781 3412 
Q 1013 4119 1484 4856 
L 1984 4856 
z
" transform="scale(0.015625)"/>
       <path id="DejaVuSans-39" d="M 703 97 
L 703 672 
Q 941 559 1184 500 
Q 1428 441 1663 441 
Q 2288 441 2617 861 
Q 2947 1281 2994 2138 
Q 2813 1869 2534 1725 
Q 2256 1581 1919 1581 
Q 1219 1581 811 2004 
Q 403 2428 403 3163 
Q 403 3881 828 4315 
Q 1253 4750 1959 4750 
Q 2769 4750 3195 4129 
Q 3622 3509 3622 2328 
Q 3622 1225 3098 567 
Q 2575 -91 1691 -91 
Q 1453 -91 1209 -44 
Q 966 3 703 97 
z
M 1959 2075 
Q 2384 2075 2632 2365 
Q 2881 2656 2881 3163 
Q 2881 3666 2632 3958 
Q 2384 4250 1959 4250 
Q 1534 4250 1286 3958 
Q 1038 3666 1038 3163 
Q 1038 2656 1286 2365 
Q 1534 2075 1959 2075 
z
" transform="scale(0.015625)"/>
       <path id="DejaVuSans-25" d="M 4653 2053 
Q 4381 2053 4226 1822 
Q 4072 1591 4072 1178 
Q 4072 772 4226 539 
Q 4381 306 4653 306 
Q 4919 306 5073 539 
Q 5228 772 5228 1178 
Q 5228 1588 5073 1820 
Q 4919 2053 4653 2053 
z
M 4653 2450 
Q 5147 2450 5437 2106 
Q 5728 1763 5728 1178 
Q 5728 594 5436 251 
Q 5144 -91 4653 -91 
Q 4153 -91 3862 251 
Q 3572 594 3572 1178 
Q 3572 1766 3864 2108 
Q 4156 2450 4653 2450 
z
M 1428 4353 
Q 1159 4353 1004 4120 
Q 850 3888 850 3481 
Q 850 3069 1003 2837 
Q 1156 2606 1428 2606 
Q 1700 2606 1854 2837 
Q 2009 3069 2009 3481 
Q 2009 3884 1853 4118 
Q 1697 4353 1428 4353 
z
M 4250 4750 
L 4750 4750 
L 1831 -91 
L 1331 -91 
L 4250 4750 
z
M 1428 4750 
Q 1922 4750 2215 4408 
Q 2509 4066 2509 3481 
Q 2509 2891 2217 2550 
Q 1925 2209 1428 2209 
Q 931 2209 642 2551 
Q 353 2894 353 3481 
Q 353 4063 643 4406 
Q 934 4750 1428 4750 
z
" transform="scale(0.015625)"/>
       <path id="DejaVuSans-43" d="M 4122 4306 
L 4122 3641 
Q 3803 3938 3442 4084 
Q 3081 4231 2675 4231 
Q 1875 4231 1450 3742 
Q 1025 3253 1025 2328 
Q 1025 1406 1450 917 
Q 1875 428 2675 428 
Q 3081 428 3442 575 
Q 3803 722 4122 1019 
L 4122 359 
Q 3791 134 3420 21 
Q 3050 -91 2638 -91 
Q 1578 -91 968 557 
Q 359 1206 359 2328 
Q 359 3453 968 4101 
Q 1578 4750 2638 4750 
Q 3056 4750 3426 4639 
Q 3797 4528 4122 4306 
z
" transform="scale(0.015625)"/>
       <path id="DejaVuSans-49" d="M 628 4666 
L 1259 4666 
L 1259 0 
L 628 0 
L 628 4666 
z
" transform="scale(0.015625)"/>
       <path id="DejaVuSans-72" d="M 2631 2963 
Q 2534 3019 2420 3045 
Q 2306 3072 2169 3072 
Q 1681 3072 1420 2755 
Q 1159 2438 1159 1844 
L 1159 0 
L 581 0 
L 581 3500 
L 1159 3500 
L 1159 2956 
Q 1341 3275 1631 3429 
Q 1922 3584 2338 3584 
Q 2397 3584 2469 3576 
Q 2541 3569 2628 3553 
L 2631 2963 
z
" transform="scale(0.015625)"/>
       <path id="DejaVuSans-70" d="M 1159 525 
L 1159 -1331 
L 581 -1331 
L 581 3500 
L 1159 3500 
L 1159 2969 
Q 1341 3281 1617 3432 
Q 1894 3584 2278 3584 
Q 2916 3584 3314 3078 
Q 3713 2572 3713 1747 
Q 3713 922 3314 415 
Q 2916 -91 2278 -91 
Q 1894 -91 1617 61 
Q 1341 213 1159 525 
z
M 3116 1747 
Q 3116 2381 2855 2742 
Q 2594 3103 2138 3103 
Q 1681 3103 1420 2742 
Q 1159 2381 1159 1747 
Q 1159 1113 1420 752 
Q 1681 391 2138 391 
Q 2594 391 2855 752 
Q 3116 1113 3116 1747 
z
" transform="scale(0.015625)"/>
       <path id="DejaVuSans-3d" d="M 678 2906 
L 4684 2906 
L 4684 2381 
L 678 2381 
L 678 2906 
z
M 678 1631 
L 4684 1631 
L 4684 1100 
L 678 1100 
L 678 1631 
z
" transform="scale(0.015625)"/>
       <path id="DejaVuSans-29" d="M 513 4856 
L 1013 4856 
Q 1481 4119 1714 3412 
Q 1947 2706 1947 2009 
Q 1947 1309 1714 600 
Q 1481 -109 1013 -844 
L 513 -844 
Q 928 -128 1133 580 
Q 1338 1288 1338 2009 
Q 1338 2731 1133 3434 
Q 928 4138 513 4856 
z
" transform="scale(0.015625)"/>
      </defs>
      <use xlink:href="#DejaVuSans-73"/>
      <use xlink:href="#DejaVuSans-74" transform="translate(52.099609 0)"/>
      <use xlink:href="#DejaVuSans-6f" transform="translate(91.308594 0)"/>
      <use xlink:href="#DejaVuSans-63" transform="translate(152.490234 0)"/>
      <use xlink:href="#DejaVuSans-68" transform="translate(207.470703 0)"/>
      <use xlink:href="#DejaVuSans-61" transform="translate(270.849609 0)"/>
      <use xlink:href="#DejaVuSans-73" transform="translate(332.128906 0)"/>
      <use xlink:href="#DejaVuSans-74" transform="translate(384.228516 0)"/>
      <use xlink:href="#DejaVuSans-69" transform="translate(423.4375 0)"/>
      <use xlink:href="#DejaVuSans-63" transform="translate(451.220703 0)"/>
      <use xlink:href="#DejaVuSans-20" transform="translate(506.201172 0)"/>
      <use xlink:href="#DejaVuSans-6d" transform="translate(537.988281 0)"/>
      <use xlink:href="#DejaVuSans-65" transform="translate(635.400391 0)"/>
      <use xlink:href="#DejaVuSans-61" transform="translate(696.923828 0)"/>
      <use xlink:href="#DejaVuSans-6e" transform="translate(758.203125 0)"/>
      <use xlink:href="#DejaVuSans-20" transform="translate(821.582031 0)"/>
      <use xlink:href="#DejaVuSans-20" transform="translate(853.369141 0)"/>
      <use xlink:href="#DejaVuSans-28" transform="translate(885.15625 0)"/>
      <use xlink:href="#DejaVuSans-39" transform="translate(924.169922 0)"/>
      <use xlink:href="#DejaVuSans-35" transform="translate(987.792969 0)"/>
      <use xlink:href="#DejaVuSans-25" transform="translate(1051.416016 0)"/>
      <use xlink:href="#DejaVuSans-20" transform="translate(1146.435547 0)"/>
      <use xlink:href="#DejaVuSans-43" transform="translate(1178.222656 0)"/>
      <use xlink:href="#DejaVuSans-49" transform="translate(1248.046875 0)"/>
      <use xlink:href="#DejaVuSans-20" transform="translate(1277.539062 0)"/>
      <use xlink:href="#DejaVuSans-28" transform="translate(1309.326172 0)"/>
      <use xlink:href="#DejaVuSans-72" transform="translate(1348.339844 0)"/>
      <use xlink:href="#DejaVuSans-65" transform="translate(1387.203125 0)"/>
      <use xlink:href="#DejaVuSans-70" transform="translate(1448.726562 0)"/>
      <use xlink:href="#DejaVuSans-73" transform="translate(1512.203125 0)"/>
      <use xlink:href="#DejaVuSans-3d" transform="translate(1564.302734 0)"/>
      <use xlink:href="#DejaVuSans-31" transform="translate(1648.091797 0)"/>
      <use xlink:href="#DejaVuSans-30" transform="translate(1711.714844 0)"/>
      <use xlink:href="#DejaVuSans-29" transform="translate(1775.337891 0)"/>
      <use xlink:href="#DejaVuSans-29" transform="translate(1814.351562 0)"/>
     </g>
    </g>
   </g>
  </g>
 </g>
 <defs>
  <clipPath id="pb834b05112">
   <rect x="59.438125" y="37.84" width="794.32" height="343.549184"/>
  </clipPath>
 </defs>
</svg>
