<?xml version="1.0" encoding="utf-8" standalone="no"?>
<!DOCTYPE svg PUBLIC "-//W3C//DTD SVG 1.1//EN"
  "http://www.w3.org/Graphics/SVG/1.1/DTD/svg11.dtd">
<svg xmlns:xlink="http://www.w3.org/1999/xlink" width="841.8075pt" height="735.12pt" viewBox="0 0 841.8075 735.12" xmlns="http://www.w3.org/2000/svg" version="1.1">
 <metadata>
  <rdf:RDF xmlns:dc="http://purl.org/dc/elements/1.1/" xmlns:cc="http://creativecommons.org/ns#" xmlns:rdf="http://www.w3.org/1999/02/22-rdf-syntax-ns#">
   <cc:Work>
    <dc:type rdf:resource="http://purl.org/dc/dcmitype/StillImage"/>
    <dc:date>2026-04-27T20:41:24.277567</dc:date>
    <dc:format>image/svg+xml</dc:format>
    <dc:creator>
     <cc:Agent>
      <dc:title>Matplotlib v3.10.7, https://matplotlib.org/</dc:title>
     </cc:Agent>
    </dc:creator>
   </cc:Work>
  </rdf:RDF>
 </metadata>
 <defs>
  <style type="text/css">*{stroke-linejoin: round; stroke-linecap: butt}</style>
 </defs>
 <g id="figure_1">
  <g id="patch_1">
   <path d="M 0 735.12 
L 841.8075 735.12 
L 841.8075 0 
L 0 0 
z
" style="fill: #ffffff"/>
  </g>
  <g id="axes_1">
   <g id="text_1">
    <!-- Stochastic: TAS Architecture metrics across adaptations -->
    <g style="fill: #010101" transform="translate(94.793594 46.637292) scale(0.22 -0.22)">
     <defs>
      <path id="DejaVuSans-Bold-53" d="M 3834 4519 
L 3834 3531 
Q 3450 3703 3084 3790 
Q 2719 3878 2394 3878 
Q 1963 3878 1756 3759 
Q 1550 3641 1550 3391 
Q 1550 3203 1689 3098 
Q 1828 2994 2194 2919 
L 2706 2816 
Q 3484 2659 3812 2340 
Q 4141 2022 4141 1434 
Q 4141 663 3683 286 
Q 3225 -91 2284 -91 
Q 1841 -91 1394 -6 
Q 947 78 500 244 
L 500 1259 
Q 947 1022 1364 901 
Q 1781 781 2169 781 
Q 2563 781 2772 912 
Q 2981 1044 2981 1288 
Q 2981 1506 2839 1625 
Q 2697 1744 2272 1838 
L 1806 1941 
Q 1106 2091 782 2419 
Q 459 2747 459 3303 
Q 459 4000 909 4375 
Q 1359 4750 2203 4750 
Q 2588 4750 2994 4692 
Q 3400 4634 3834 4519 
z
" transform="scale(0.015625)"/>
      <path id="DejaVuSans-Bold-74" d="M 1759 4494 
L 1759 3500 
L 2913 3500 
L 2913 2700 
L 1759 2700 
L 1759 1216 
Q 1759 972 1856 886 
Q 1953 800 2241 800 
L 2816 800 
L 2816 0 
L 1856 0 
Q 1194 0 917 276 
Q 641 553 641 1216 
L 641 2700 
L 84 2700 
L 84 3500 
L 641 3500 
L 641 4494 
L 1759 4494 
z
" transform="scale(0.015625)"/>
      <path id="DejaVuSans-Bold-6f" d="M 2203 2784 
Q 1831 2784 1636 2517 
Q 1441 2250 1441 1747 
Q 1441 1244 1636 976 
Q 1831 709 2203 709 
Q 2569 709 2762 976 
Q 2956 1244 2956 1747 
Q 2956 2250 2762 2517 
Q 2569 2784 2203 2784 
z
M 2203 3584 
Q 3106 3584 3614 3096 
Q 4122 2609 4122 1747 
Q 4122 884 3614 396 
Q 3106 -91 2203 -91 
Q 1297 -91 786 396 
Q 275 884 275 1747 
Q 275 2609 786 3096 
Q 1297 3584 2203 3584 
z
" transform="scale(0.015625)"/>
      <path id="DejaVuSans-Bold-63" d="M 3366 3391 
L 3366 2478 
Q 3138 2634 2908 2709 
Q 2678 2784 2431 2784 
Q 1963 2784 1702 2511 
Q 1441 2238 1441 1747 
Q 1441 1256 1702 982 
Q 1963 709 2431 709 
Q 2694 709 2930 787 
Q 3166 866 3366 1019 
L 3366 103 
Q 3103 6 2833 -42 
Q 2563 -91 2291 -91 
Q 1344 -91 809 395 
Q 275 881 275 1747 
Q 275 2613 809 3098 
Q 1344 3584 2291 3584 
Q 2566 3584 2833 3536 
Q 3100 3488 3366 3391 
z
" transform="scale(0.015625)"/>
      <path id="DejaVuSans-Bold-68" d="M 4056 2131 
L 4056 0 
L 2931 0 
L 2931 347 
L 2931 1625 
Q 2931 2084 2911 2256 
Q 2891 2428 2841 2509 
Q 2775 2619 2662 2680 
Q 2550 2741 2406 2741 
Q 2056 2741 1856 2470 
Q 1656 2200 1656 1722 
L 1656 0 
L 538 0 
L 538 4863 
L 1656 4863 
L 1656 2988 
Q 1909 3294 2193 3439 
Q 2478 3584 2822 3584 
Q 3428 3584 3742 3212 
Q 4056 2841 4056 2131 
z
" transform="scale(0.015625)"/>
      <path id="DejaVuSans-Bold-61" d="M 2106 1575 
Q 1756 1575 1579 1456 
Q 1403 1338 1403 1106 
Q 1403 894 1545 773 
Q 1688 653 1941 653 
Q 2256 653 2472 879 
Q 2688 1106 2688 1447 
L 2688 1575 
L 2106 1575 
z
M 3816 1997 
L 3816 0 
L 2688 0 
L 2688 519 
Q 2463 200 2181 54 
Q 1900 -91 1497 -91 
Q 953 -91 614 226 
Q 275 544 275 1050 
Q 275 1666 698 1953 
Q 1122 2241 2028 2241 
L 2688 2241 
L 2688 2328 
Q 2688 2594 2478 2717 
Q 2269 2841 1825 2841 
Q 1466 2841 1156 2769 
Q 847 2697 581 2553 
L 581 3406 
Q 941 3494 1303 3539 
Q 1666 3584 2028 3584 
Q 2975 3584 3395 3211 
Q 3816 2838 3816 1997 
z
" transform="scale(0.015625)"/>
      <path id="DejaVuSans-Bold-73" d="M 3272 3391 
L 3272 2541 
Q 2913 2691 2578 2766 
Q 2244 2841 1947 2841 
Q 1628 2841 1473 2761 
Q 1319 2681 1319 2516 
Q 1319 2381 1436 2309 
Q 1553 2238 1856 2203 
L 2053 2175 
Q 2913 2066 3209 1816 
Q 3506 1566 3506 1031 
Q 3506 472 3093 190 
Q 2681 -91 1863 -91 
Q 1516 -91 1145 -36 
Q 775 19 384 128 
L 384 978 
Q 719 816 1070 734 
Q 1422 653 1784 653 
Q 2113 653 2278 743 
Q 2444 834 2444 1013 
Q 2444 1163 2330 1236 
Q 2216 1309 1875 1350 
L 1678 1375 
Q 931 1469 631 1722 
Q 331 1975 331 2491 
Q 331 3047 712 3315 
Q 1094 3584 1881 3584 
Q 2191 3584 2531 3537 
Q 2872 3491 3272 3391 
z
" transform="scale(0.015625)"/>
      <path id="DejaVuSans-Bold-69" d="M 538 3500 
L 1656 3500 
L 1656 0 
L 538 0 
L 538 3500 
z
M 538 4863 
L 1656 4863 
L 1656 3950 
L 538 3950 
L 538 4863 
z
" transform="scale(0.015625)"/>
      <path id="DejaVuSans-Bold-3a" d="M 716 3500 
L 1844 3500 
L 1844 2291 
L 716 2291 
L 716 3500 
z
M 716 1209 
L 1844 1209 
L 1844 0 
L 716 0 
L 716 1209 
z
" transform="scale(0.015625)"/>
      <path id="DejaVuSans-Bold-20" transform="scale(0.015625)"/>
      <path id="DejaVuSans-Bold-54" d="M 31 4666 
L 4331 4666 
L 4331 3756 
L 2784 3756 
L 2784 0 
L 1581 0 
L 1581 3756 
L 31 3756 
L 31 4666 
z
" transform="scale(0.015625)"/>
      <path id="DejaVuSans-Bold-41" d="M 3419 850 
L 1538 850 
L 1241 0 
L 31 0 
L 1759 4666 
L 3194 4666 
L 4922 0 
L 3713 0 
L 3419 850 
z
M 1838 1716 
L 3116 1716 
L 2478 3572 
L 1838 1716 
z
" transform="scale(0.015625)"/>
      <path id="DejaVuSans-Bold-72" d="M 3138 2547 
Q 2991 2616 2845 2648 
Q 2700 2681 2553 2681 
Q 2122 2681 1889 2404 
Q 1656 2128 1656 1613 
L 1656 0 
L 538 0 
L 538 3500 
L 1656 3500 
L 1656 2925 
Q 1872 3269 2151 3426 
Q 2431 3584 2822 3584 
Q 2878 3584 2943 3579 
Q 3009 3575 3134 3559 
L 3138 2547 
z
" transform="scale(0.015625)"/>
      <path id="DejaVuSans-Bold-65" d="M 4031 1759 
L 4031 1441 
L 1416 1441 
Q 1456 1047 1700 850 
Q 1944 653 2381 653 
Q 2734 653 3104 758 
Q 3475 863 3866 1075 
L 3866 213 
Q 3469 63 3072 -14 
Q 2675 -91 2278 -91 
Q 1328 -91 801 392 
Q 275 875 275 1747 
Q 275 2603 792 3093 
Q 1309 3584 2216 3584 
Q 3041 3584 3536 3087 
Q 4031 2591 4031 1759 
z
M 2881 2131 
Q 2881 2450 2695 2645 
Q 2509 2841 2209 2841 
Q 1884 2841 1681 2658 
Q 1478 2475 1428 2131 
L 2881 2131 
z
" transform="scale(0.015625)"/>
      <path id="DejaVuSans-Bold-75" d="M 500 1363 
L 500 3500 
L 1625 3500 
L 1625 3150 
Q 1625 2866 1622 2436 
Q 1619 2006 1619 1863 
Q 1619 1441 1641 1255 
Q 1663 1069 1716 984 
Q 1784 875 1895 815 
Q 2006 756 2150 756 
Q 2500 756 2700 1025 
Q 2900 1294 2900 1772 
L 2900 3500 
L 4019 3500 
L 4019 0 
L 2900 0 
L 2900 506 
Q 2647 200 2364 54 
Q 2081 -91 1741 -91 
Q 1134 -91 817 281 
Q 500 653 500 1363 
z
" transform="scale(0.015625)"/>
      <path id="DejaVuSans-Bold-6d" d="M 3781 2919 
Q 3994 3244 4286 3414 
Q 4578 3584 4928 3584 
Q 5531 3584 5847 3212 
Q 6163 2841 6163 2131 
L 6163 0 
L 5038 0 
L 5038 1825 
Q 5041 1866 5042 1909 
Q 5044 1953 5044 2034 
Q 5044 2406 4934 2573 
Q 4825 2741 4581 2741 
Q 4263 2741 4089 2478 
Q 3916 2216 3909 1719 
L 3909 0 
L 2784 0 
L 2784 1825 
Q 2784 2406 2684 2573 
Q 2584 2741 2328 2741 
Q 2006 2741 1831 2477 
Q 1656 2213 1656 1722 
L 1656 0 
L 531 0 
L 531 3500 
L 1656 3500 
L 1656 2988 
Q 1863 3284 2130 3434 
Q 2397 3584 2719 3584 
Q 3081 3584 3359 3409 
Q 3638 3234 3781 2919 
z
" transform="scale(0.015625)"/>
      <path id="DejaVuSans-Bold-64" d="M 2919 2988 
L 2919 4863 
L 4044 4863 
L 4044 0 
L 2919 0 
L 2919 506 
Q 2688 197 2409 53 
Q 2131 -91 1766 -91 
Q 1119 -91 703 423 
Q 288 938 288 1747 
Q 288 2556 703 3070 
Q 1119 3584 1766 3584 
Q 2128 3584 2408 3439 
Q 2688 3294 2919 2988 
z
M 2181 722 
Q 2541 722 2730 984 
Q 2919 1247 2919 1747 
Q 2919 2247 2730 2509 
Q 2541 2772 2181 2772 
Q 1825 2772 1636 2509 
Q 1447 2247 1447 1747 
Q 1447 1247 1636 984 
Q 1825 722 2181 722 
z
" transform="scale(0.015625)"/>
      <path id="DejaVuSans-Bold-70" d="M 1656 506 
L 1656 -1331 
L 538 -1331 
L 538 3500 
L 1656 3500 
L 1656 2988 
Q 1888 3294 2169 3439 
Q 2450 3584 2816 3584 
Q 3463 3584 3878 3070 
Q 4294 2556 4294 1747 
Q 4294 938 3878 423 
Q 3463 -91 2816 -91 
Q 2450 -91 2169 54 
Q 1888 200 1656 506 
z
M 2400 2772 
Q 2041 2772 1848 2508 
Q 1656 2244 1656 1747 
Q 1656 1250 1848 986 
Q 2041 722 2400 722 
Q 2759 722 2948 984 
Q 3138 1247 3138 1747 
Q 3138 2247 2948 2509 
Q 2759 2772 2400 2772 
z
" transform="scale(0.015625)"/>
      <path id="DejaVuSans-Bold-6e" d="M 4056 2131 
L 4056 0 
L 2931 0 
L 2931 347 
L 2931 1631 
Q 2931 2084 2911 2256 
Q 2891 2428 2841 2509 
Q 2775 2619 2662 2680 
Q 2550 2741 2406 2741 
Q 2056 2741 1856 2470 
Q 1656 2200 1656 1722 
L 1656 0 
L 538 0 
L 538 3500 
L 1656 3500 
L 1656 2988 
Q 1909 3294 2193 3439 
Q 2478 3584 2822 3584 
Q 3428 3584 3742 3212 
Q 4056 2841 4056 2131 
z
" transform="scale(0.015625)"/>
     </defs>
     <use xlink:href="#DejaVuSans-Bold-53"/>
     <use xlink:href="#DejaVuSans-Bold-74" transform="translate(72.021484 0)"/>
     <use xlink:href="#DejaVuSans-Bold-6f" transform="translate(119.824219 0)"/>
     <use xlink:href="#DejaVuSans-Bold-63" transform="translate(188.525391 0)"/>
     <use xlink:href="#DejaVuSans-Bold-68" transform="translate(247.802734 0)"/>
     <use xlink:href="#DejaVuSans-Bold-61" transform="translate(318.994141 0)"/>
     <use xlink:href="#DejaVuSans-Bold-73" transform="translate(386.474609 0)"/>
     <use xlink:href="#DejaVuSans-Bold-74" transform="translate(445.996094 0)"/>
     <use xlink:href="#DejaVuSans-Bold-69" transform="translate(493.798828 0)"/>
     <use xlink:href="#DejaVuSans-Bold-63" transform="translate(528.076172 0)"/>
     <use xlink:href="#DejaVuSans-Bold-3a" transform="translate(587.353516 0)"/>
     <use xlink:href="#DejaVuSans-Bold-20" transform="translate(627.34375 0)"/>
     <use xlink:href="#DejaVuSans-Bold-54" transform="translate(662.158203 0)"/>
     <use xlink:href="#DejaVuSans-Bold-41" transform="translate(722.621094 0)"/>
     <use xlink:href="#DejaVuSans-Bold-53" transform="translate(800.013672 0)"/>
     <use xlink:href="#DejaVuSans-Bold-20" transform="translate(872.035156 0)"/>
     <use xlink:href="#DejaVuSans-Bold-41" transform="translate(906.849609 0)"/>
     <use xlink:href="#DejaVuSans-Bold-72" transform="translate(984.242188 0)"/>
     <use xlink:href="#DejaVuSans-Bold-63" transform="translate(1033.558594 0)"/>
     <use xlink:href="#DejaVuSans-Bold-68" transform="translate(1092.835938 0)"/>
     <use xlink:href="#DejaVuSans-Bold-69" transform="translate(1164.027344 0)"/>
     <use xlink:href="#DejaVuSans-Bold-74" transform="translate(1198.304688 0)"/>
     <use xlink:href="#DejaVuSans-Bold-65" transform="translate(1246.107422 0)"/>
     <use xlink:href="#DejaVuSans-Bold-63" transform="translate(1313.929688 0)"/>
     <use xlink:href="#DejaVuSans-Bold-74" transform="translate(1373.207031 0)"/>
     <use xlink:href="#DejaVuSans-Bold-75" transform="translate(1421.009766 0)"/>
     <use xlink:href="#DejaVuSans-Bold-72" transform="translate(1492.201172 0)"/>
     <use xlink:href="#DejaVuSans-Bold-65" transform="translate(1541.517578 0)"/>
     <use xlink:href="#DejaVuSans-Bold-20" transform="translate(1609.339844 0)"/>
     <use xlink:href="#DejaVuSans-Bold-6d" transform="translate(1644.154297 0)"/>
     <use xlink:href="#DejaVuSans-Bold-65" transform="translate(1748.353516 0)"/>
     <use xlink:href="#DejaVuSans-Bold-74" transform="translate(1816.175781 0)"/>
     <use xlink:href="#DejaVuSans-Bold-72" transform="translate(1863.978516 0)"/>
     <use xlink:href="#DejaVuSans-Bold-69" transform="translate(1913.294922 0)"/>
     <use xlink:href="#DejaVuSans-Bold-63" transform="translate(1947.572266 0)"/>
     <use xlink:href="#DejaVuSans-Bold-73" transform="translate(2006.849609 0)"/>
     <use xlink:href="#DejaVuSans-Bold-20" transform="translate(2066.371094 0)"/>
     <use xlink:href="#DejaVuSans-Bold-61" transform="translate(2101.185547 0)"/>
     <use xlink:href="#DejaVuSans-Bold-63" transform="translate(2168.666016 0)"/>
     <use xlink:href="#DejaVuSans-Bold-72" transform="translate(2227.943359 0)"/>
     <use xlink:href="#DejaVuSans-Bold-6f" transform="translate(2277.259766 0)"/>
     <use xlink:href="#DejaVuSans-Bold-73" transform="translate(2345.960938 0)"/>
     <use xlink:href="#DejaVuSans-Bold-73" transform="translate(2405.482422 0)"/>
     <use xlink:href="#DejaVuSans-Bold-20" transform="translate(2465.003906 0)"/>
     <use xlink:href="#DejaVuSans-Bold-61" transform="translate(2499.818359 0)"/>
     <use xlink:href="#DejaVuSans-Bold-64" transform="translate(2567.298828 0)"/>
     <use xlink:href="#DejaVuSans-Bold-61" transform="translate(2638.880859 0)"/>
     <use xlink:href="#DejaVuSans-Bold-70" transform="translate(2706.361328 0)"/>
     <use xlink:href="#DejaVuSans-Bold-74" transform="translate(2777.943359 0)"/>
     <use xlink:href="#DejaVuSans-Bold-61" transform="translate(2825.746094 0)"/>
     <use xlink:href="#DejaVuSans-Bold-74" transform="translate(2893.226562 0)"/>
     <use xlink:href="#DejaVuSans-Bold-69" transform="translate(2941.029297 0)"/>
     <use xlink:href="#DejaVuSans-Bold-6f" transform="translate(2975.306641 0)"/>
     <use xlink:href="#DejaVuSans-Bold-6e" transform="translate(3044.007812 0)"/>
     <use xlink:href="#DejaVuSans-Bold-73" transform="translate(3115.199219 0)"/>
    </g>
   </g>
  </g>
  <g id="axes_2">
   <g id="patch_2">
    <path d="M 53.4075 554.413333 
L 834.6075 554.413333 
L 834.6075 100.626667 
L 53.4075 100.626667 
z
" style="fill: #ffffff"/>
   </g>
   <g id="patch_3">
    <path d="M 88.916591 122599.848557 
L 118.384716 122599.848557 
L 118.384716 528.051002 
L 88.916591 528.051002 
z
" clip-path="url(#pa70f2710fa)" style="fill: #ff0000; opacity: 0.85; stroke: #000000; stroke-width: 0.5; stroke-linejoin: miter"/>
   </g>
   <g id="patch_4">
    <path d="M 280.459405 122599.848557 
L 309.92753 122599.848557 
L 309.92753 292.533556 
L 280.459405 292.533556 
z
" clip-path="url(#pa70f2710fa)" style="fill: #ff0000; opacity: 0.85; stroke: #000000; stroke-width: 0.5; stroke-linejoin: miter"/>
   </g>
   <g id="patch_5">
    <path d="M 472.002219 122599.848557 
L 501.470344 122599.848557 
L 501.470344 249.182731 
L 472.002219 249.182731 
z
" clip-path="url(#pa70f2710fa)" style="fill: #ff0000; opacity: 0.85; stroke: #000000; stroke-width: 0.5; stroke-linejoin: miter"/>
   </g>
   <g id="patch_6">
    <path d="M 663.545033 122599.848557 
L 693.013158 122599.848557 
L 693.013158 123.245771 
L 663.545033 123.245771 
z
" clip-path="url(#pa70f2710fa)" style="fill: #ff0000; opacity: 0.85; stroke: #000000; stroke-width: 0.5; stroke-linejoin: miter"/>
   </g>
   <g id="patch_7">
    <path d="M 124.278341 122599.848557 
L 153.746466 122599.848557 
L 153.746466 529.599083 
L 124.278341 529.599083 
z
" clip-path="url(#pa70f2710fa)" style="fill: #d4dd80; opacity: 0.85; stroke: #000000; stroke-width: 0.5; stroke-linejoin: miter"/>
   </g>
   <g id="patch_8">
    <path d="M 315.821155 122599.848557 
L 345.28928 122599.848557 
L 345.28928 293.931111 
L 315.821155 293.931111 
z
" clip-path="url(#pa70f2710fa)" style="fill: #d4dd80; opacity: 0.85; stroke: #000000; stroke-width: 0.5; stroke-linejoin: miter"/>
   </g>
   <g id="patch_9">
    <path d="M 507.363969 122599.848557 
L 536.832094 122599.848557 
L 536.832094 245.692266 
L 507.363969 245.692266 
z
" clip-path="url(#pa70f2710fa)" style="fill: #d4dd80; opacity: 0.85; stroke: #000000; stroke-width: 0.5; stroke-linejoin: miter"/>
   </g>
   <g id="patch_10">
    <path d="M 698.906783 122599.848557 
L 728.374909 122599.848557 
L 728.374909 125.22665 
L 698.906783 125.22665 
z
" clip-path="url(#pa70f2710fa)" style="fill: #d4dd80; opacity: 0.85; stroke: #000000; stroke-width: 0.5; stroke-linejoin: miter"/>
   </g>
   <g id="patch_11">
    <path d="M 159.640091 122599.848557 
L 189.108217 122599.848557 
L 189.108217 526.36526 
L 159.640091 526.36526 
z
" clip-path="url(#pa70f2710fa)" style="fill: #2adddd; opacity: 0.85; stroke: #000000; stroke-width: 0.5; stroke-linejoin: miter"/>
   </g>
   <g id="patch_12">
    <path d="M 351.182906 122599.848557 
L 380.651031 122599.848557 
L 380.651031 290.967966 
L 351.182906 290.967966 
z
" clip-path="url(#pa70f2710fa)" style="fill: #2adddd; opacity: 0.85; stroke: #000000; stroke-width: 0.5; stroke-linejoin: miter"/>
   </g>
   <g id="patch_13">
    <path d="M 542.72572 122599.848557 
L 572.193845 122599.848557 
L 572.193845 247.640024 
L 542.72572 247.640024 
z
" clip-path="url(#pa70f2710fa)" style="fill: #2adddd; opacity: 0.85; stroke: #000000; stroke-width: 0.5; stroke-linejoin: miter"/>
   </g>
   <g id="patch_14">
    <path d="M 734.268534 122599.848557 
L 763.736659 122599.848557 
L 763.736659 121.253333 
L 734.268534 121.253333 
z
" clip-path="url(#pa70f2710fa)" style="fill: #2adddd; opacity: 0.85; stroke: #000000; stroke-width: 0.5; stroke-linejoin: miter"/>
   </g>
   <g id="patch_15">
    <path d="M 195.001842 122599.848557 
L 224.469967 122599.848557 
L 224.469967 533.786667 
L 195.001842 533.786667 
z
" clip-path="url(#pa70f2710fa)" style="fill: #8000ff; opacity: 0.85; stroke: #000000; stroke-width: 0.5; stroke-linejoin: miter"/>
   </g>
   <g id="patch_16">
    <path d="M 386.544656 122599.848557 
L 416.012781 122599.848557 
L 416.012781 294.641186 
L 386.544656 294.641186 
z
" clip-path="url(#pa70f2710fa)" style="fill: #8000ff; opacity: 0.85; stroke: #000000; stroke-width: 0.5; stroke-linejoin: miter"/>
   </g>
   <g id="patch_17">
    <path d="M 578.08747 122599.848557 
L 607.555595 122599.848557 
L 607.555595 249.705367 
L 578.08747 249.705367 
z
" clip-path="url(#pa70f2710fa)" style="fill: #8000ff; opacity: 0.85; stroke: #000000; stroke-width: 0.5; stroke-linejoin: miter"/>
   </g>
   <g id="patch_18">
    <path d="M 769.630284 122599.848557 
L 799.098409 122599.848557 
L 799.098409 129.043689 
L 769.630284 129.043689 
z
" clip-path="url(#pa70f2710fa)" style="fill: #8000ff; opacity: 0.85; stroke: #000000; stroke-width: 0.5; stroke-linejoin: miter"/>
   </g>
   <g id="matplotlib.axis_1">
    <g id="xtick_1">
     <g id="line2d_1">
      <defs>
       <path id="me7fd732a5f" d="M 0 0 
L 0 3.5 
" style="stroke: #010101; stroke-width: 0.8"/>
      </defs>
      <g>
       <use xlink:href="#me7fd732a5f" x="156.693279" y="554.413333" style="fill: #010101; stroke: #010101; stroke-width: 0.8"/>
      </g>
     </g>
     <g id="text_2">
      <!-- $\mathbf{\overline{W}_{TAS}}$ [s/req] -->
      <g style="fill: #010101" transform="translate(96.926757 603.800382) rotate(-30) scale(0.1 -0.1)">
       <defs>
        <path id="DejaVuSans-Bold-57" d="M 191 4666 
L 1344 4666 
L 2150 1275 
L 2950 4666 
L 4109 4666 
L 4909 1275 
L 5716 4666 
L 6859 4666 
L 5759 0 
L 4372 0 
L 3525 3547 
L 2688 0 
L 1300 0 
L 191 4666 
z
" transform="scale(0.015625)"/>
        <path id="DejaVuSans-Bold-5b" d="M 550 4863 
L 2491 4863 
L 2491 4159 
L 1613 4159 
L 1613 -141 
L 2491 -141 
L 2491 -844 
L 550 -844 
L 550 4863 
z
" transform="scale(0.015625)"/>
        <path id="DejaVuSans-Bold-2f" d="M 1644 4666 
L 2338 4666 
L 691 -594 
L 0 -594 
L 1644 4666 
z
" transform="scale(0.015625)"/>
        <path id="DejaVuSans-Bold-71" d="M 2181 2772 
Q 1825 2772 1636 2509 
Q 1447 2247 1447 1747 
Q 1447 1247 1636 984 
Q 1825 722 2181 722 
Q 2541 722 2730 984 
Q 2919 1247 2919 1747 
Q 2919 2247 2730 2509 
Q 2541 2772 2181 2772 
z
M 2919 506 
Q 2688 197 2409 53 
Q 2131 -91 1766 -91 
Q 1119 -91 703 423 
Q 288 938 288 1747 
Q 288 2556 703 3067 
Q 1119 3578 1766 3578 
Q 2131 3578 2409 3434 
Q 2688 3291 2919 2981 
L 2919 3500 
L 4044 3500 
L 4044 -1331 
L 2919 -1331 
L 2919 506 
z
" transform="scale(0.015625)"/>
        <path id="DejaVuSans-Bold-5d" d="M 2375 -844 
L 434 -844 
L 434 -141 
L 1313 -141 
L 1313 4159 
L 434 4159 
L 434 4863 
L 2375 4863 
L 2375 -844 
z
" transform="scale(0.015625)"/>
       </defs>
       <use xlink:href="#DejaVuSans-Bold-57" transform="translate(0 0.84375)"/>
       <use xlink:href="#DejaVuSans-Bold-54" transform="translate(111.259766 -16.0625) scale(0.7)"/>
       <use xlink:href="#DejaVuSans-Bold-41" transform="translate(159.008789 -16.0625) scale(0.7)"/>
       <use xlink:href="#DejaVuSans-Bold-53" transform="translate(213.183594 -16.0625) scale(0.7)"/>
       <use xlink:href="#DejaVuSans-Bold-20" transform="translate(266.333008 0.34375)"/>
       <use xlink:href="#DejaVuSans-Bold-5b" transform="translate(301.147461 0.34375)"/>
       <use xlink:href="#DejaVuSans-Bold-73" transform="translate(346.850586 0.34375)"/>
       <use xlink:href="#DejaVuSans-Bold-2f" transform="translate(406.37207 0.34375)"/>
       <use xlink:href="#DejaVuSans-Bold-72" transform="translate(442.895508 0.34375)"/>
       <use xlink:href="#DejaVuSans-Bold-65" transform="translate(492.211914 0.34375)"/>
       <use xlink:href="#DejaVuSans-Bold-71" transform="translate(560.03418 0.34375)"/>
       <use xlink:href="#DejaVuSans-Bold-5d" transform="translate(631.616211 0.34375)"/>
       <path d="M 0 85.5 
L 0 91.75 
L 110.302734 91.75 
L 110.302734 85.5 
L 0 85.5 
z
"/>
      </g>
     </g>
    </g>
    <g id="xtick_2">
     <g id="line2d_2">
      <g>
       <use xlink:href="#me7fd732a5f" x="348.236093" y="554.413333" style="fill: #010101; stroke: #010101; stroke-width: 0.8"/>
      </g>
     </g>
     <g id="text_3">
      <!-- $\mathbf{\overline{\rho}_{TAS}}$ [n.a.] -->
      <g style="fill: #010101" transform="translate(297.909248 596.878139) rotate(-30) scale(0.1 -0.1)">
       <defs>
        <path id="DejaVuSans-Bold-3c1" d="M 1003 3013 
Q 1425 3413 1809 3500 
Q 2203 3594 2581 3594 
Q 2700 3594 2816 3584 
Q 3425 3538 3878 3069 
Q 4294 2631 4294 1747 
Q 4294 938 3878 423 
Q 3463 -91 2816 -91 
Q 2450 -91 2169 54 
Q 1888 200 1656 506 
L 1656 -1331 
L 538 -1331 
L 538 1688 
Q 538 2566 1003 3013 
z
M 2400 2772 
Q 2041 2772 1848 2508 
Q 1656 2244 1656 1747 
Q 1656 1250 1848 986 
Q 2041 722 2400 722 
Q 2759 722 2948 984 
Q 3138 1247 3138 1747 
Q 3138 2247 2948 2509 
Q 2759 2772 2400 2772 
z
" transform="scale(0.015625)"/>
        <path id="DejaVuSans-Bold-2e" d="M 653 1209 
L 1778 1209 
L 1778 0 
L 653 0 
L 653 1209 
z
" transform="scale(0.015625)"/>
       </defs>
       <use xlink:href="#DejaVuSans-Bold-3c1" transform="translate(0 0.59375)"/>
       <use xlink:href="#DejaVuSans-Bold-54" transform="translate(72.539062 -16.3125) scale(0.7)"/>
       <use xlink:href="#DejaVuSans-Bold-41" transform="translate(120.288086 -16.3125) scale(0.7)"/>
       <use xlink:href="#DejaVuSans-Bold-53" transform="translate(174.462891 -16.3125) scale(0.7)"/>
       <use xlink:href="#DejaVuSans-Bold-20" transform="translate(227.612305 0.09375)"/>
       <use xlink:href="#DejaVuSans-Bold-5b" transform="translate(262.426758 0.09375)"/>
       <use xlink:href="#DejaVuSans-Bold-6e" transform="translate(308.129883 0.09375)"/>
       <use xlink:href="#DejaVuSans-Bold-2e" transform="translate(379.321289 0.09375)"/>
       <use xlink:href="#DejaVuSans-Bold-61" transform="translate(417.30957 0.09375)"/>
       <use xlink:href="#DejaVuSans-Bold-2e" transform="translate(484.790039 0.09375)"/>
       <use xlink:href="#DejaVuSans-Bold-5d" transform="translate(522.77832 0.09375)"/>
       <path d="M 0 68.5 
L 0 74.75 
L 71.582031 74.75 
L 71.582031 68.5 
L 0 68.5 
z
"/>
      </g>
     </g>
    </g>
    <g id="xtick_3">
     <g id="line2d_3">
      <g>
       <use xlink:href="#me7fd732a5f" x="539.778907" y="554.413333" style="fill: #010101; stroke: #010101; stroke-width: 0.8"/>
      </g>
     </g>
     <g id="text_4">
      <!-- $\mathbf{\rho_{TAS,\,Max}}$ [n.a.] -->
      <g style="fill: #010101" transform="translate(470.619118 607.145126) rotate(-30) scale(0.1 -0.1)">
       <defs>
        <path id="DejaVuSans-Bold-2c" d="M 653 1209 
L 1778 1209 
L 1778 256 
L 1006 -909 
L 341 -909 
L 653 256 
L 653 1209 
z
" transform="scale(0.015625)"/>
        <path id="DejaVuSans-Bold-4d" d="M 588 4666 
L 2119 4666 
L 3181 2169 
L 4250 4666 
L 5778 4666 
L 5778 0 
L 4641 0 
L 4641 3413 
L 3566 897 
L 2803 897 
L 1728 3413 
L 1728 0 
L 588 0 
L 588 4666 
z
" transform="scale(0.015625)"/>
        <path id="DejaVuSans-Bold-78" d="M 1422 1791 
L 159 3500 
L 1344 3500 
L 2059 2463 
L 2784 3500 
L 3969 3500 
L 2706 1797 
L 4031 0 
L 2847 0 
L 2059 1106 
L 1281 0 
L 97 0 
L 1422 1791 
z
" transform="scale(0.015625)"/>
       </defs>
       <use xlink:href="#DejaVuSans-Bold-3c1" transform="translate(0 0.015625)"/>
       <use xlink:href="#DejaVuSans-Bold-54" transform="translate(72.539062 -16.390625) scale(0.7)"/>
       <use xlink:href="#DejaVuSans-Bold-41" transform="translate(120.288086 -16.390625) scale(0.7)"/>
       <use xlink:href="#DejaVuSans-Bold-53" transform="translate(174.462891 -16.390625) scale(0.7)"/>
       <use xlink:href="#DejaVuSans-Bold-2c" transform="translate(224.87793 -16.390625) scale(0.7)"/>
       <use xlink:href="#DejaVuSans-Bold-4d" transform="translate(276.472395 -16.390625) scale(0.7)"/>
       <use xlink:href="#DejaVuSans-Bold-61" transform="translate(346.130598 -16.390625) scale(0.7)"/>
       <use xlink:href="#DejaVuSans-Bold-78" transform="translate(393.366927 -16.390625) scale(0.7)"/>
       <use xlink:href="#DejaVuSans-Bold-20" transform="translate(441.252669 0.015625)"/>
       <use xlink:href="#DejaVuSans-Bold-5b" transform="translate(476.067122 0.015625)"/>
       <use xlink:href="#DejaVuSans-Bold-6e" transform="translate(521.770247 0.015625)"/>
       <use xlink:href="#DejaVuSans-Bold-2e" transform="translate(592.961653 0.015625)"/>
       <use xlink:href="#DejaVuSans-Bold-61" transform="translate(630.949934 0.015625)"/>
       <use xlink:href="#DejaVuSans-Bold-2e" transform="translate(698.430403 0.015625)"/>
       <use xlink:href="#DejaVuSans-Bold-5d" transform="translate(736.418684 0.015625)"/>
      </g>
     </g>
    </g>
    <g id="xtick_4">
     <g id="line2d_4">
      <g>
       <use xlink:href="#me7fd732a5f" x="731.321721" y="554.413333" style="fill: #010101; stroke: #010101; stroke-width: 0.8"/>
      </g>
     </g>
     <g id="text_5">
      <!-- $\mathbf{\overline{L}_{TAS}}$ [req] -->
      <g style="fill: #010101" transform="translate(683.939362 596.650382) rotate(-30) scale(0.1 -0.1)">
       <defs>
        <path id="DejaVuSans-Bold-4c" d="M 588 4666 
L 1791 4666 
L 1791 909 
L 3903 909 
L 3903 0 
L 588 0 
L 588 4666 
z
" transform="scale(0.015625)"/>
       </defs>
       <use xlink:href="#DejaVuSans-Bold-4c" transform="translate(0 0.84375)"/>
       <use xlink:href="#DejaVuSans-Bold-54" transform="translate(64.677734 -16.0625) scale(0.7)"/>
       <use xlink:href="#DejaVuSans-Bold-41" transform="translate(112.426758 -16.0625) scale(0.7)"/>
       <use xlink:href="#DejaVuSans-Bold-53" transform="translate(166.601562 -16.0625) scale(0.7)"/>
       <use xlink:href="#DejaVuSans-Bold-20" transform="translate(219.750977 0.34375)"/>
       <use xlink:href="#DejaVuSans-Bold-5b" transform="translate(254.56543 0.34375)"/>
       <use xlink:href="#DejaVuSans-Bold-72" transform="translate(300.268555 0.34375)"/>
       <use xlink:href="#DejaVuSans-Bold-65" transform="translate(349.584961 0.34375)"/>
       <use xlink:href="#DejaVuSans-Bold-71" transform="translate(417.407227 0.34375)"/>
       <use xlink:href="#DejaVuSans-Bold-5d" transform="translate(488.989258 0.34375)"/>
       <path d="M 0 85.5 
L 0 91.75 
L 63.720703 91.75 
L 63.720703 85.5 
L 0 85.5 
z
"/>
      </g>
     </g>
    </g>
   </g>
   <g id="matplotlib.axis_2">
    <g id="ytick_1">
     <g id="line2d_5">
      <path d="M 53.4075 474.079893 
L 834.6075 474.079893 
" clip-path="url(#pa70f2710fa)" style="fill: none; stroke-dasharray: 2.96,1.28; stroke-dashoffset: 0; stroke: #555555; stroke-opacity: 0.7; stroke-width: 0.8"/>
     </g>
     <g id="line2d_6">
      <defs>
       <path id="m8d2e231e79" d="M 0 0 
L -3.5 0 
" style="stroke: #010101; stroke-width: 0.8"/>
      </defs>
      <g>
       <use xlink:href="#m8d2e231e79" x="53.4075" y="474.079893" style="fill: #010101; stroke: #010101; stroke-width: 0.8"/>
      </g>
     </g>
     <g id="text_6">
      <!-- $\mathdefault{10^{-2}}$ -->
      <g style="fill: #010101" transform="translate(22.9075 477.879111) scale(0.1 -0.1)">
       <defs>
        <path id="DejaVuSans-31" d="M 794 531 
L 1825 531 
L 1825 4091 
L 703 3866 
L 703 4441 
L 1819 4666 
L 2450 4666 
L 2450 531 
L 3481 531 
L 3481 0 
L 794 0 
L 794 531 
z
" transform="scale(0.015625)"/>
        <path id="DejaVuSans-30" d="M 2034 4250 
Q 1547 4250 1301 3770 
Q 1056 3291 1056 2328 
Q 1056 1369 1301 889 
Q 1547 409 2034 409 
Q 2525 409 2770 889 
Q 3016 1369 3016 2328 
Q 3016 3291 2770 3770 
Q 2525 4250 2034 4250 
z
M 2034 4750 
Q 2819 4750 3233 4129 
Q 3647 3509 3647 2328 
Q 3647 1150 3233 529 
Q 2819 -91 2034 -91 
Q 1250 -91 836 529 
Q 422 1150 422 2328 
Q 422 3509 836 4129 
Q 1250 4750 2034 4750 
z
" transform="scale(0.015625)"/>
        <path id="DejaVuSans-2212" d="M 678 2272 
L 4684 2272 
L 4684 1741 
L 678 1741 
L 678 2272 
z
" transform="scale(0.015625)"/>
        <path id="DejaVuSans-32" d="M 1228 531 
L 3431 531 
L 3431 0 
L 469 0 
L 469 531 
Q 828 903 1448 1529 
Q 2069 2156 2228 2338 
Q 2531 2678 2651 2914 
Q 2772 3150 2772 3378 
Q 2772 3750 2511 3984 
Q 2250 4219 1831 4219 
Q 1534 4219 1204 4116 
Q 875 4013 500 3803 
L 500 4441 
Q 881 4594 1212 4672 
Q 1544 4750 1819 4750 
Q 2544 4750 2975 4387 
Q 3406 4025 3406 3419 
Q 3406 3131 3298 2873 
Q 3191 2616 2906 2266 
Q 2828 2175 2409 1742 
Q 1991 1309 1228 531 
z
" transform="scale(0.015625)"/>
       </defs>
       <use xlink:href="#DejaVuSans-31" transform="translate(0 0.765625)"/>
       <use xlink:href="#DejaVuSans-30" transform="translate(63.623047 0.765625)"/>
       <use xlink:href="#DejaVuSans-2212" transform="translate(128.203125 39.046875) scale(0.7)"/>
       <use xlink:href="#DejaVuSans-32" transform="translate(186.855469 39.046875) scale(0.7)"/>
      </g>
     </g>
    </g>
    <g id="ytick_2">
     <g id="line2d_7">
      <path d="M 53.4075 351.709383 
L 834.6075 351.709383 
" clip-path="url(#pa70f2710fa)" style="fill: none; stroke-dasharray: 2.96,1.28; stroke-dashoffset: 0; stroke: #555555; stroke-opacity: 0.7; stroke-width: 0.8"/>
     </g>
     <g id="line2d_8">
      <g>
       <use xlink:href="#m8d2e231e79" x="53.4075" y="351.709383" style="fill: #010101; stroke: #010101; stroke-width: 0.8"/>
      </g>
     </g>
     <g id="text_7">
      <!-- $\mathdefault{10^{-1}}$ -->
      <g style="fill: #010101" transform="translate(22.9075 355.508602) scale(0.1 -0.1)">
       <use xlink:href="#DejaVuSans-31" transform="translate(0 0.684375)"/>
       <use xlink:href="#DejaVuSans-30" transform="translate(63.623047 0.684375)"/>
       <use xlink:href="#DejaVuSans-2212" transform="translate(128.203125 38.965625) scale(0.7)"/>
       <use xlink:href="#DejaVuSans-31" transform="translate(186.855469 38.965625) scale(0.7)"/>
      </g>
     </g>
    </g>
    <g id="ytick_3">
     <g id="line2d_9">
      <path d="M 53.4075 229.338873 
L 834.6075 229.338873 
" clip-path="url(#pa70f2710fa)" style="fill: none; stroke-dasharray: 2.96,1.28; stroke-dashoffset: 0; stroke: #555555; stroke-opacity: 0.7; stroke-width: 0.8"/>
     </g>
     <g id="line2d_10">
      <g>
       <use xlink:href="#m8d2e231e79" x="53.4075" y="229.338873" style="fill: #010101; stroke: #010101; stroke-width: 0.8"/>
      </g>
     </g>
     <g id="text_8">
      <!-- $\mathdefault{10^{0}}$ -->
      <g style="fill: #010101" transform="translate(28.8075 233.138092) scale(0.1 -0.1)">
       <use xlink:href="#DejaVuSans-31" transform="translate(0 0.765625)"/>
       <use xlink:href="#DejaVuSans-30" transform="translate(63.623047 0.765625)"/>
       <use xlink:href="#DejaVuSans-30" transform="translate(128.203125 39.046875) scale(0.7)"/>
      </g>
     </g>
    </g>
    <g id="ytick_4">
     <g id="line2d_11">
      <path d="M 53.4075 106.968364 
L 834.6075 106.968364 
" clip-path="url(#pa70f2710fa)" style="fill: none; stroke-dasharray: 2.96,1.28; stroke-dashoffset: 0; stroke: #555555; stroke-opacity: 0.7; stroke-width: 0.8"/>
     </g>
     <g id="line2d_12">
      <g>
       <use xlink:href="#m8d2e231e79" x="53.4075" y="106.968364" style="fill: #010101; stroke: #010101; stroke-width: 0.8"/>
      </g>
     </g>
     <g id="text_9">
      <!-- $\mathdefault{10^{1}}$ -->
      <g style="fill: #010101" transform="translate(28.8075 110.767582) scale(0.1 -0.1)">
       <use xlink:href="#DejaVuSans-31" transform="translate(0 0.684375)"/>
       <use xlink:href="#DejaVuSans-30" transform="translate(63.623047 0.684375)"/>
       <use xlink:href="#DejaVuSans-31" transform="translate(128.203125 38.965625) scale(0.7)"/>
      </g>
     </g>
    </g>
    <g id="ytick_5">
     <g id="line2d_13">
      <defs>
       <path id="me6e000824f" d="M 0 0 
L -2 0 
" style="stroke: #010101; stroke-width: 0.6"/>
      </defs>
      <g>
       <use xlink:href="#me6e000824f" x="53.4075" y="538.064831" style="fill: #010101; stroke: #010101; stroke-width: 0.6"/>
      </g>
     </g>
    </g>
    <g id="ytick_6">
     <g id="line2d_14">
      <g>
       <use xlink:href="#me6e000824f" x="53.4075" y="522.776014" style="fill: #010101; stroke: #010101; stroke-width: 0.6"/>
      </g>
     </g>
    </g>
    <g id="ytick_7">
     <g id="line2d_15">
      <g>
       <use xlink:href="#me6e000824f" x="53.4075" y="510.917087" style="fill: #010101; stroke: #010101; stroke-width: 0.6"/>
      </g>
     </g>
    </g>
    <g id="ytick_8">
     <g id="line2d_16">
      <g>
       <use xlink:href="#me6e000824f" x="53.4075" y="501.227637" style="fill: #010101; stroke: #010101; stroke-width: 0.6"/>
      </g>
     </g>
    </g>
    <g id="ytick_9">
     <g id="line2d_17">
      <g>
       <use xlink:href="#me6e000824f" x="53.4075" y="493.035324" style="fill: #010101; stroke: #010101; stroke-width: 0.6"/>
      </g>
     </g>
    </g>
    <g id="ytick_10">
     <g id="line2d_18">
      <g>
       <use xlink:href="#me6e000824f" x="53.4075" y="485.93882" style="fill: #010101; stroke: #010101; stroke-width: 0.6"/>
      </g>
     </g>
    </g>
    <g id="ytick_11">
     <g id="line2d_19">
      <g>
       <use xlink:href="#me6e000824f" x="53.4075" y="479.67926" style="fill: #010101; stroke: #010101; stroke-width: 0.6"/>
      </g>
     </g>
    </g>
    <g id="ytick_12">
     <g id="line2d_20">
      <g>
       <use xlink:href="#me6e000824f" x="53.4075" y="437.242699" style="fill: #010101; stroke: #010101; stroke-width: 0.6"/>
      </g>
     </g>
    </g>
    <g id="ytick_13">
     <g id="line2d_21">
      <g>
       <use xlink:href="#me6e000824f" x="53.4075" y="415.694322" style="fill: #010101; stroke: #010101; stroke-width: 0.6"/>
      </g>
     </g>
    </g>
    <g id="ytick_14">
     <g id="line2d_22">
      <g>
       <use xlink:href="#me6e000824f" x="53.4075" y="400.405505" style="fill: #010101; stroke: #010101; stroke-width: 0.6"/>
      </g>
     </g>
    </g>
    <g id="ytick_15">
     <g id="line2d_23">
      <g>
       <use xlink:href="#me6e000824f" x="53.4075" y="388.546577" style="fill: #010101; stroke: #010101; stroke-width: 0.6"/>
      </g>
     </g>
    </g>
    <g id="ytick_16">
     <g id="line2d_24">
      <g>
       <use xlink:href="#me6e000824f" x="53.4075" y="378.857128" style="fill: #010101; stroke: #010101; stroke-width: 0.6"/>
      </g>
     </g>
    </g>
    <g id="ytick_17">
     <g id="line2d_25">
      <g>
       <use xlink:href="#me6e000824f" x="53.4075" y="370.664815" style="fill: #010101; stroke: #010101; stroke-width: 0.6"/>
      </g>
     </g>
    </g>
    <g id="ytick_18">
     <g id="line2d_26">
      <g>
       <use xlink:href="#me6e000824f" x="53.4075" y="363.568311" style="fill: #010101; stroke: #010101; stroke-width: 0.6"/>
      </g>
     </g>
    </g>
    <g id="ytick_19">
     <g id="line2d_27">
      <g>
       <use xlink:href="#me6e000824f" x="53.4075" y="357.30875" style="fill: #010101; stroke: #010101; stroke-width: 0.6"/>
      </g>
     </g>
    </g>
    <g id="ytick_20">
     <g id="line2d_28">
      <g>
       <use xlink:href="#me6e000824f" x="53.4075" y="314.872189" style="fill: #010101; stroke: #010101; stroke-width: 0.6"/>
      </g>
     </g>
    </g>
    <g id="ytick_21">
     <g id="line2d_29">
      <g>
       <use xlink:href="#me6e000824f" x="53.4075" y="293.323812" style="fill: #010101; stroke: #010101; stroke-width: 0.6"/>
      </g>
     </g>
    </g>
    <g id="ytick_22">
     <g id="line2d_30">
      <g>
       <use xlink:href="#me6e000824f" x="53.4075" y="278.034995" style="fill: #010101; stroke: #010101; stroke-width: 0.6"/>
      </g>
     </g>
    </g>
    <g id="ytick_23">
     <g id="line2d_31">
      <g>
       <use xlink:href="#me6e000824f" x="53.4075" y="266.176067" style="fill: #010101; stroke: #010101; stroke-width: 0.6"/>
      </g>
     </g>
    </g>
    <g id="ytick_24">
     <g id="line2d_32">
      <g>
       <use xlink:href="#me6e000824f" x="53.4075" y="256.486618" style="fill: #010101; stroke: #010101; stroke-width: 0.6"/>
      </g>
     </g>
    </g>
    <g id="ytick_25">
     <g id="line2d_33">
      <g>
       <use xlink:href="#me6e000824f" x="53.4075" y="248.294305" style="fill: #010101; stroke: #010101; stroke-width: 0.6"/>
      </g>
     </g>
    </g>
    <g id="ytick_26">
     <g id="line2d_34">
      <g>
       <use xlink:href="#me6e000824f" x="53.4075" y="241.197801" style="fill: #010101; stroke: #010101; stroke-width: 0.6"/>
      </g>
     </g>
    </g>
    <g id="ytick_27">
     <g id="line2d_35">
      <g>
       <use xlink:href="#me6e000824f" x="53.4075" y="234.938241" style="fill: #010101; stroke: #010101; stroke-width: 0.6"/>
      </g>
     </g>
    </g>
    <g id="ytick_28">
     <g id="line2d_36">
      <g>
       <use xlink:href="#me6e000824f" x="53.4075" y="192.501679" style="fill: #010101; stroke: #010101; stroke-width: 0.6"/>
      </g>
     </g>
    </g>
    <g id="ytick_29">
     <g id="line2d_37">
      <g>
       <use xlink:href="#me6e000824f" x="53.4075" y="170.953302" style="fill: #010101; stroke: #010101; stroke-width: 0.6"/>
      </g>
     </g>
    </g>
    <g id="ytick_30">
     <g id="line2d_38">
      <g>
       <use xlink:href="#me6e000824f" x="53.4075" y="155.664485" style="fill: #010101; stroke: #010101; stroke-width: 0.6"/>
      </g>
     </g>
    </g>
    <g id="ytick_31">
     <g id="line2d_39">
      <g>
       <use xlink:href="#me6e000824f" x="53.4075" y="143.805558" style="fill: #010101; stroke: #010101; stroke-width: 0.6"/>
      </g>
     </g>
    </g>
    <g id="ytick_32">
     <g id="line2d_40">
      <g>
       <use xlink:href="#me6e000824f" x="53.4075" y="134.116108" style="fill: #010101; stroke: #010101; stroke-width: 0.6"/>
      </g>
     </g>
    </g>
    <g id="ytick_33">
     <g id="line2d_41">
      <g>
       <use xlink:href="#me6e000824f" x="53.4075" y="125.923795" style="fill: #010101; stroke: #010101; stroke-width: 0.6"/>
      </g>
     </g>
    </g>
    <g id="ytick_34">
     <g id="line2d_42">
      <g>
       <use xlink:href="#me6e000824f" x="53.4075" y="118.827291" style="fill: #010101; stroke: #010101; stroke-width: 0.6"/>
      </g>
     </g>
    </g>
    <g id="ytick_35">
     <g id="line2d_43">
      <g>
       <use xlink:href="#me6e000824f" x="53.4075" y="112.567731" style="fill: #010101; stroke: #010101; stroke-width: 0.6"/>
      </g>
     </g>
    </g>
    <g id="text_10">
     <!-- Value (log scale) -->
     <g style="fill: #010101" transform="translate(16.318125 383.719375) rotate(-90) scale(0.12 -0.12)">
      <defs>
       <path id="DejaVuSans-Bold-56" d="M 31 4666 
L 1241 4666 
L 2478 1222 
L 3713 4666 
L 4922 4666 
L 3194 0 
L 1759 0 
L 31 4666 
z
" transform="scale(0.015625)"/>
       <path id="DejaVuSans-Bold-6c" d="M 538 4863 
L 1656 4863 
L 1656 0 
L 538 0 
L 538 4863 
z
" transform="scale(0.015625)"/>
       <path id="DejaVuSans-Bold-28" d="M 2413 -844 
L 1484 -844 
Q 1006 -72 778 623 
Q 550 1319 550 2003 
Q 550 2688 779 3389 
Q 1009 4091 1484 4856 
L 2413 4856 
Q 2013 4116 1813 3408 
Q 1613 2700 1613 2009 
Q 1613 1319 1811 609 
Q 2009 -100 2413 -844 
z
" transform="scale(0.015625)"/>
       <path id="DejaVuSans-Bold-67" d="M 2919 594 
Q 2688 288 2409 144 
Q 2131 0 1766 0 
Q 1125 0 706 504 
Q 288 1009 288 1791 
Q 288 2575 706 3076 
Q 1125 3578 1766 3578 
Q 2131 3578 2409 3434 
Q 2688 3291 2919 2981 
L 2919 3500 
L 4044 3500 
L 4044 353 
Q 4044 -491 3511 -936 
Q 2978 -1381 1966 -1381 
Q 1638 -1381 1331 -1331 
Q 1025 -1281 716 -1178 
L 716 -306 
Q 1009 -475 1290 -558 
Q 1572 -641 1856 -641 
Q 2406 -641 2662 -400 
Q 2919 -159 2919 353 
L 2919 594 
z
M 2181 2772 
Q 1834 2772 1640 2515 
Q 1447 2259 1447 1791 
Q 1447 1309 1634 1061 
Q 1822 813 2181 813 
Q 2531 813 2725 1069 
Q 2919 1325 2919 1791 
Q 2919 2259 2725 2515 
Q 2531 2772 2181 2772 
z
" transform="scale(0.015625)"/>
       <path id="DejaVuSans-Bold-29" d="M 513 -844 
Q 913 -100 1113 609 
Q 1313 1319 1313 2009 
Q 1313 2700 1113 3408 
Q 913 4116 513 4856 
L 1441 4856 
Q 1916 4091 2145 3389 
Q 2375 2688 2375 2003 
Q 2375 1319 2147 623 
Q 1919 -72 1441 -844 
L 513 -844 
z
" transform="scale(0.015625)"/>
      </defs>
      <use xlink:href="#DejaVuSans-Bold-56"/>
      <use xlink:href="#DejaVuSans-Bold-61" transform="translate(71.892578 0)"/>
      <use xlink:href="#DejaVuSans-Bold-6c" transform="translate(139.373047 0)"/>
      <use xlink:href="#DejaVuSans-Bold-75" transform="translate(173.650391 0)"/>
      <use xlink:href="#DejaVuSans-Bold-65" transform="translate(244.841797 0)"/>
      <use xlink:href="#DejaVuSans-Bold-20" transform="translate(312.664062 0)"/>
      <use xlink:href="#DejaVuSans-Bold-28" transform="translate(347.478516 0)"/>
      <use xlink:href="#DejaVuSans-Bold-6c" transform="translate(393.181641 0)"/>
      <use xlink:href="#DejaVuSans-Bold-6f" transform="translate(427.458984 0)"/>
      <use xlink:href="#DejaVuSans-Bold-67" transform="translate(496.160156 0)"/>
      <use xlink:href="#DejaVuSans-Bold-20" transform="translate(567.742188 0)"/>
      <use xlink:href="#DejaVuSans-Bold-73" transform="translate(602.556641 0)"/>
      <use xlink:href="#DejaVuSans-Bold-63" transform="translate(662.078125 0)"/>
      <use xlink:href="#DejaVuSans-Bold-61" transform="translate(721.355469 0)"/>
      <use xlink:href="#DejaVuSans-Bold-6c" transform="translate(788.835938 0)"/>
      <use xlink:href="#DejaVuSans-Bold-65" transform="translate(823.113281 0)"/>
      <use xlink:href="#DejaVuSans-Bold-29" transform="translate(890.935547 0)"/>
     </g>
    </g>
   </g>
   <g id="patch_19">
    <path d="M 53.4075 554.413333 
L 53.4075 100.626667 
" style="fill: none; stroke: #010101; stroke-width: 0.8; stroke-linejoin: miter; stroke-linecap: square"/>
   </g>
   <g id="patch_20">
    <path d="M 834.6075 554.413333 
L 834.6075 100.626667 
" style="fill: none; stroke: #010101; stroke-width: 0.8; stroke-linejoin: miter; stroke-linecap: square"/>
   </g>
   <g id="patch_21">
    <path d="M 53.4075 554.413333 
L 834.6075 554.413333 
" style="fill: none; stroke: #010101; stroke-width: 0.8; stroke-linejoin: miter; stroke-linecap: square"/>
   </g>
   <g id="patch_22">
    <path d="M 53.4075 100.626667 
L 834.6075 100.626667 
" style="fill: none; stroke: #010101; stroke-width: 0.8; stroke-linejoin: miter; stroke-linecap: square"/>
   </g>
   <g id="text_11">
    <g id="patch_23">
     <path d="M 110.489716 525.458057 
L 110.489716 480.706495 
Q 110.489716 478.706495 108.489716 478.706495 
L 98.811591 478.706495 
Q 96.811591 478.706495 96.811591 480.706495 
L 96.811591 525.458057 
Q 96.811591 527.458057 98.811591 527.458057 
L 108.489716 527.458057 
Q 110.489716 527.458057 110.489716 525.458057 
z
" style="fill: #ffffff; opacity: 0.75"/>
    </g>
    <!-- 3.62e-03 -->
    <g style="fill: #010101" transform="translate(106.410029 525.458057) rotate(-90) scale(0.1 -0.1)">
     <defs>
      <path id="DejaVuSans-33" d="M 2597 2516 
Q 3050 2419 3304 2112 
Q 3559 1806 3559 1356 
Q 3559 666 3084 287 
Q 2609 -91 1734 -91 
Q 1441 -91 1130 -33 
Q 819 25 488 141 
L 488 750 
Q 750 597 1062 519 
Q 1375 441 1716 441 
Q 2309 441 2620 675 
Q 2931 909 2931 1356 
Q 2931 1769 2642 2001 
Q 2353 2234 1838 2234 
L 1294 2234 
L 1294 2753 
L 1863 2753 
Q 2328 2753 2575 2939 
Q 2822 3125 2822 3475 
Q 2822 3834 2567 4026 
Q 2313 4219 1838 4219 
Q 1578 4219 1281 4162 
Q 984 4106 628 3988 
L 628 4550 
Q 988 4650 1302 4700 
Q 1616 4750 1894 4750 
Q 2613 4750 3031 4423 
Q 3450 4097 3450 3541 
Q 3450 3153 3228 2886 
Q 3006 2619 2597 2516 
z
" transform="scale(0.015625)"/>
      <path id="DejaVuSans-2e" d="M 684 794 
L 1344 794 
L 1344 0 
L 684 0 
L 684 794 
z
" transform="scale(0.015625)"/>
      <path id="DejaVuSans-36" d="M 2113 2584 
Q 1688 2584 1439 2293 
Q 1191 2003 1191 1497 
Q 1191 994 1439 701 
Q 1688 409 2113 409 
Q 2538 409 2786 701 
Q 3034 994 3034 1497 
Q 3034 2003 2786 2293 
Q 2538 2584 2113 2584 
z
M 3366 4563 
L 3366 3988 
Q 3128 4100 2886 4159 
Q 2644 4219 2406 4219 
Q 1781 4219 1451 3797 
Q 1122 3375 1075 2522 
Q 1259 2794 1537 2939 
Q 1816 3084 2150 3084 
Q 2853 3084 3261 2657 
Q 3669 2231 3669 1497 
Q 3669 778 3244 343 
Q 2819 -91 2113 -91 
Q 1303 -91 875 529 
Q 447 1150 447 2328 
Q 447 3434 972 4092 
Q 1497 4750 2381 4750 
Q 2619 4750 2861 4703 
Q 3103 4656 3366 4563 
z
" transform="scale(0.015625)"/>
      <path id="DejaVuSans-65" d="M 3597 1894 
L 3597 1613 
L 953 1613 
Q 991 1019 1311 708 
Q 1631 397 2203 397 
Q 2534 397 2845 478 
Q 3156 559 3463 722 
L 3463 178 
Q 3153 47 2828 -22 
Q 2503 -91 2169 -91 
Q 1331 -91 842 396 
Q 353 884 353 1716 
Q 353 2575 817 3079 
Q 1281 3584 2069 3584 
Q 2775 3584 3186 3129 
Q 3597 2675 3597 1894 
z
M 3022 2063 
Q 3016 2534 2758 2815 
Q 2500 3097 2075 3097 
Q 1594 3097 1305 2825 
Q 1016 2553 972 2059 
L 3022 2063 
z
" transform="scale(0.015625)"/>
      <path id="DejaVuSans-2d" d="M 313 2009 
L 1997 2009 
L 1997 1497 
L 313 1497 
L 313 2009 
z
" transform="scale(0.015625)"/>
     </defs>
     <use xlink:href="#DejaVuSans-33"/>
     <use xlink:href="#DejaVuSans-2e" transform="translate(63.623047 0)"/>
     <use xlink:href="#DejaVuSans-36" transform="translate(95.410156 0)"/>
     <use xlink:href="#DejaVuSans-32" transform="translate(159.033203 0)"/>
     <use xlink:href="#DejaVuSans-65" transform="translate(222.65625 0)"/>
     <use xlink:href="#DejaVuSans-2d" transform="translate(284.179688 0)"/>
     <use xlink:href="#DejaVuSans-30" transform="translate(320.263672 0)"/>
     <use xlink:href="#DejaVuSans-33" transform="translate(383.886719 0)"/>
    </g>
   </g>
   <g id="text_12">
    <g id="patch_24">
     <path d="M 302.03253 289.940611 
L 302.03253 261.312486 
Q 302.03253 259.312486 300.03253 259.312486 
L 290.354405 259.312486 
Q 288.354405 259.312486 288.354405 261.312486 
L 288.354405 289.940611 
Q 288.354405 291.940611 290.354405 291.940611 
L 300.03253 291.940611 
Q 302.03253 291.940611 302.03253 289.940611 
z
" style="fill: #ffffff; opacity: 0.75"/>
    </g>
    <!-- 0.304 -->
    <g style="fill: #010101" transform="translate(297.952843 289.940611) rotate(-90) scale(0.1 -0.1)">
     <defs>
      <path id="DejaVuSans-34" d="M 2419 4116 
L 825 1625 
L 2419 1625 
L 2419 4116 
z
M 2253 4666 
L 3047 4666 
L 3047 1625 
L 3713 1625 
L 3713 1100 
L 3047 1100 
L 3047 0 
L 2419 0 
L 2419 1100 
L 313 1100 
L 313 1709 
L 2253 4666 
z
" transform="scale(0.015625)"/>
     </defs>
     <use xlink:href="#DejaVuSans-30"/>
     <use xlink:href="#DejaVuSans-2e" transform="translate(63.623047 0)"/>
     <use xlink:href="#DejaVuSans-33" transform="translate(95.410156 0)"/>
     <use xlink:href="#DejaVuSans-30" transform="translate(159.033203 0)"/>
     <use xlink:href="#DejaVuSans-34" transform="translate(222.65625 0)"/>
    </g>
   </g>
   <g id="text_13">
    <g id="patch_25">
     <path d="M 493.575344 246.589785 
L 493.575344 217.96166 
Q 493.575344 215.96166 491.575344 215.96166 
L 481.897219 215.96166 
Q 479.897219 215.96166 479.897219 217.96166 
L 479.897219 246.589785 
Q 479.897219 248.589785 481.897219 248.589785 
L 491.575344 248.589785 
Q 493.575344 248.589785 493.575344 246.589785 
z
" style="fill: #ffffff; opacity: 0.75"/>
    </g>
    <!-- 0.688 -->
    <g style="fill: #010101" transform="translate(489.495657 246.589785) rotate(-90) scale(0.1 -0.1)">
     <defs>
      <path id="DejaVuSans-38" d="M 2034 2216 
Q 1584 2216 1326 1975 
Q 1069 1734 1069 1313 
Q 1069 891 1326 650 
Q 1584 409 2034 409 
Q 2484 409 2743 651 
Q 3003 894 3003 1313 
Q 3003 1734 2745 1975 
Q 2488 2216 2034 2216 
z
M 1403 2484 
Q 997 2584 770 2862 
Q 544 3141 544 3541 
Q 544 4100 942 4425 
Q 1341 4750 2034 4750 
Q 2731 4750 3128 4425 
Q 3525 4100 3525 3541 
Q 3525 3141 3298 2862 
Q 3072 2584 2669 2484 
Q 3125 2378 3379 2068 
Q 3634 1759 3634 1313 
Q 3634 634 3220 271 
Q 2806 -91 2034 -91 
Q 1263 -91 848 271 
Q 434 634 434 1313 
Q 434 1759 690 2068 
Q 947 2378 1403 2484 
z
M 1172 3481 
Q 1172 3119 1398 2916 
Q 1625 2713 2034 2713 
Q 2441 2713 2670 2916 
Q 2900 3119 2900 3481 
Q 2900 3844 2670 4047 
Q 2441 4250 2034 4250 
Q 1625 4250 1398 4047 
Q 1172 3844 1172 3481 
z
" transform="scale(0.015625)"/>
     </defs>
     <use xlink:href="#DejaVuSans-30"/>
     <use xlink:href="#DejaVuSans-2e" transform="translate(63.623047 0)"/>
     <use xlink:href="#DejaVuSans-36" transform="translate(95.410156 0)"/>
     <use xlink:href="#DejaVuSans-38" transform="translate(159.033203 0)"/>
     <use xlink:href="#DejaVuSans-38" transform="translate(222.65625 0)"/>
    </g>
   </g>
   <g id="text_14">
    <g id="patch_26">
     <path d="M 685.118158 120.652826 
L 685.118158 98.387201 
Q 685.118158 96.387201 683.118158 96.387201 
L 673.440033 96.387201 
Q 671.440033 96.387201 671.440033 98.387201 
L 671.440033 120.652826 
Q 671.440033 122.652826 673.440033 122.652826 
L 683.118158 122.652826 
Q 685.118158 122.652826 685.118158 120.652826 
z
" style="fill: #ffffff; opacity: 0.75"/>
    </g>
    <!-- 7.36 -->
    <g style="fill: #010101" transform="translate(681.038471 120.652826) rotate(-90) scale(0.1 -0.1)">
     <defs>
      <path id="DejaVuSans-37" d="M 525 4666 
L 3525 4666 
L 3525 4397 
L 1831 0 
L 1172 0 
L 2766 4134 
L 525 4134 
L 525 4666 
z
" transform="scale(0.015625)"/>
     </defs>
     <use xlink:href="#DejaVuSans-37"/>
     <use xlink:href="#DejaVuSans-2e" transform="translate(63.623047 0)"/>
     <use xlink:href="#DejaVuSans-33" transform="translate(95.410156 0)"/>
     <use xlink:href="#DejaVuSans-36" transform="translate(159.033203 0)"/>
    </g>
   </g>
   <g id="text_15">
    <g id="patch_27">
     <path d="M 145.851466 527.006138 
L 145.851466 482.254575 
Q 145.851466 480.254575 143.851466 480.254575 
L 134.173341 480.254575 
Q 132.173341 480.254575 132.173341 482.254575 
L 132.173341 527.006138 
Q 132.173341 529.006138 134.173341 529.006138 
L 143.851466 529.006138 
Q 145.851466 529.006138 145.851466 527.006138 
z
" style="fill: #ffffff; opacity: 0.75"/>
    </g>
    <!-- 3.52e-03 -->
    <g style="fill: #010101" transform="translate(141.771779 527.006138) rotate(-90) scale(0.1 -0.1)">
     <defs>
      <path id="DejaVuSans-35" d="M 691 4666 
L 3169 4666 
L 3169 4134 
L 1269 4134 
L 1269 2991 
Q 1406 3038 1543 3061 
Q 1681 3084 1819 3084 
Q 2600 3084 3056 2656 
Q 3513 2228 3513 1497 
Q 3513 744 3044 326 
Q 2575 -91 1722 -91 
Q 1428 -91 1123 -41 
Q 819 9 494 109 
L 494 744 
Q 775 591 1075 516 
Q 1375 441 1709 441 
Q 2250 441 2565 725 
Q 2881 1009 2881 1497 
Q 2881 1984 2565 2268 
Q 2250 2553 1709 2553 
Q 1456 2553 1204 2497 
Q 953 2441 691 2322 
L 691 4666 
z
" transform="scale(0.015625)"/>
     </defs>
     <use xlink:href="#DejaVuSans-33"/>
     <use xlink:href="#DejaVuSans-2e" transform="translate(63.623047 0)"/>
     <use xlink:href="#DejaVuSans-35" transform="translate(95.410156 0)"/>
     <use xlink:href="#DejaVuSans-32" transform="translate(159.033203 0)"/>
     <use xlink:href="#DejaVuSans-65" transform="translate(222.65625 0)"/>
     <use xlink:href="#DejaVuSans-2d" transform="translate(284.179688 0)"/>
     <use xlink:href="#DejaVuSans-30" transform="translate(320.263672 0)"/>
     <use xlink:href="#DejaVuSans-33" transform="translate(383.886719 0)"/>
    </g>
   </g>
   <g id="text_16">
    <g id="patch_28">
     <path d="M 337.39428 291.338166 
L 337.39428 262.710041 
Q 337.39428 260.710041 335.39428 260.710041 
L 325.716155 260.710041 
Q 323.716155 260.710041 323.716155 262.710041 
L 323.716155 291.338166 
Q 323.716155 293.338166 325.716155 293.338166 
L 335.39428 293.338166 
Q 337.39428 293.338166 337.39428 291.338166 
z
" style="fill: #ffffff; opacity: 0.75"/>
    </g>
    <!-- 0.297 -->
    <g style="fill: #010101" transform="translate(333.314593 291.338166) rotate(-90) scale(0.1 -0.1)">
     <defs>
      <path id="DejaVuSans-39" d="M 703 97 
L 703 672 
Q 941 559 1184 500 
Q 1428 441 1663 441 
Q 2288 441 2617 861 
Q 2947 1281 2994 2138 
Q 2813 1869 2534 1725 
Q 2256 1581 1919 1581 
Q 1219 1581 811 2004 
Q 403 2428 403 3163 
Q 403 3881 828 4315 
Q 1253 4750 1959 4750 
Q 2769 4750 3195 4129 
Q 3622 3509 3622 2328 
Q 3622 1225 3098 567 
Q 2575 -91 1691 -91 
Q 1453 -91 1209 -44 
Q 966 3 703 97 
z
M 1959 2075 
Q 2384 2075 2632 2365 
Q 2881 2656 2881 3163 
Q 2881 3666 2632 3958 
Q 2384 4250 1959 4250 
Q 1534 4250 1286 3958 
Q 1038 3666 1038 3163 
Q 1038 2656 1286 2365 
Q 1534 2075 1959 2075 
z
" transform="scale(0.015625)"/>
     </defs>
     <use xlink:href="#DejaVuSans-30"/>
     <use xlink:href="#DejaVuSans-2e" transform="translate(63.623047 0)"/>
     <use xlink:href="#DejaVuSans-32" transform="translate(95.410156 0)"/>
     <use xlink:href="#DejaVuSans-39" transform="translate(159.033203 0)"/>
     <use xlink:href="#DejaVuSans-37" transform="translate(222.65625 0)"/>
    </g>
   </g>
   <g id="text_17">
    <g id="patch_29">
     <path d="M 528.937094 243.099321 
L 528.937094 214.471196 
Q 528.937094 212.471196 526.937094 212.471196 
L 517.258969 212.471196 
Q 515.258969 212.471196 515.258969 214.471196 
L 515.258969 243.099321 
Q 515.258969 245.099321 517.258969 245.099321 
L 526.937094 245.099321 
Q 528.937094 245.099321 528.937094 243.099321 
z
" style="fill: #ffffff; opacity: 0.75"/>
    </g>
    <!-- 0.735 -->
    <g style="fill: #010101" transform="translate(524.857407 243.099321) rotate(-90) scale(0.1 -0.1)">
     <use xlink:href="#DejaVuSans-30"/>
     <use xlink:href="#DejaVuSans-2e" transform="translate(63.623047 0)"/>
     <use xlink:href="#DejaVuSans-37" transform="translate(95.410156 0)"/>
     <use xlink:href="#DejaVuSans-33" transform="translate(159.033203 0)"/>
     <use xlink:href="#DejaVuSans-35" transform="translate(222.65625 0)"/>
    </g>
   </g>
   <g id="text_18">
    <g id="patch_30">
     <path d="M 720.479908 122.633705 
L 720.479908 100.36808 
Q 720.479908 98.36808 718.479908 98.36808 
L 708.801783 98.36808 
Q 706.801783 98.36808 706.801783 100.36808 
L 706.801783 122.633705 
Q 706.801783 124.633705 708.801783 124.633705 
L 718.479908 124.633705 
Q 720.479908 124.633705 720.479908 122.633705 
z
" style="fill: #ffffff; opacity: 0.75"/>
    </g>
    <!-- 7.09 -->
    <g style="fill: #010101" transform="translate(716.400221 122.633705) rotate(-90) scale(0.1 -0.1)">
     <use xlink:href="#DejaVuSans-37"/>
     <use xlink:href="#DejaVuSans-2e" transform="translate(63.623047 0)"/>
     <use xlink:href="#DejaVuSans-30" transform="translate(95.410156 0)"/>
     <use xlink:href="#DejaVuSans-39" transform="translate(159.033203 0)"/>
    </g>
   </g>
   <g id="text_19">
    <g id="patch_31">
     <path d="M 181.213217 523.772315 
L 181.213217 479.020752 
Q 181.213217 477.020752 179.213217 477.020752 
L 169.535092 477.020752 
Q 167.535092 477.020752 167.535092 479.020752 
L 167.535092 523.772315 
Q 167.535092 525.772315 169.535092 525.772315 
L 179.213217 525.772315 
Q 181.213217 525.772315 181.213217 523.772315 
z
" style="fill: #ffffff; opacity: 0.75"/>
    </g>
    <!-- 3.74e-03 -->
    <g style="fill: #010101" transform="translate(177.133529 523.772315) rotate(-90) scale(0.1 -0.1)">
     <use xlink:href="#DejaVuSans-33"/>
     <use xlink:href="#DejaVuSans-2e" transform="translate(63.623047 0)"/>
     <use xlink:href="#DejaVuSans-37" transform="translate(95.410156 0)"/>
     <use xlink:href="#DejaVuSans-34" transform="translate(159.033203 0)"/>
     <use xlink:href="#DejaVuSans-65" transform="translate(222.65625 0)"/>
     <use xlink:href="#DejaVuSans-2d" transform="translate(284.179688 0)"/>
     <use xlink:href="#DejaVuSans-30" transform="translate(320.263672 0)"/>
     <use xlink:href="#DejaVuSans-33" transform="translate(383.886719 0)"/>
    </g>
   </g>
   <g id="text_20">
    <g id="patch_32">
     <path d="M 372.756031 288.37502 
L 372.756031 259.746895 
Q 372.756031 257.746895 370.756031 257.746895 
L 361.077906 257.746895 
Q 359.077906 257.746895 359.077906 259.746895 
L 359.077906 288.37502 
Q 359.077906 290.37502 361.077906 290.37502 
L 370.756031 290.37502 
Q 372.756031 290.37502 372.756031 288.37502 
z
" style="fill: #ffffff; opacity: 0.75"/>
    </g>
    <!-- 0.314 -->
    <g style="fill: #010101" transform="translate(368.676343 288.37502) rotate(-90) scale(0.1 -0.1)">
     <use xlink:href="#DejaVuSans-30"/>
     <use xlink:href="#DejaVuSans-2e" transform="translate(63.623047 0)"/>
     <use xlink:href="#DejaVuSans-33" transform="translate(95.410156 0)"/>
     <use xlink:href="#DejaVuSans-31" transform="translate(159.033203 0)"/>
     <use xlink:href="#DejaVuSans-34" transform="translate(222.65625 0)"/>
    </g>
   </g>
   <g id="text_21">
    <g id="patch_33">
     <path d="M 564.298845 245.047079 
L 564.298845 216.418954 
Q 564.298845 214.418954 562.298845 214.418954 
L 552.62072 214.418954 
Q 550.62072 214.418954 550.62072 216.418954 
L 550.62072 245.047079 
Q 550.62072 247.047079 552.62072 247.047079 
L 562.298845 247.047079 
Q 564.298845 247.047079 564.298845 245.047079 
z
" style="fill: #ffffff; opacity: 0.75"/>
    </g>
    <!-- 0.709 -->
    <g style="fill: #010101" transform="translate(560.219157 245.047079) rotate(-90) scale(0.1 -0.1)">
     <use xlink:href="#DejaVuSans-30"/>
     <use xlink:href="#DejaVuSans-2e" transform="translate(63.623047 0)"/>
     <use xlink:href="#DejaVuSans-37" transform="translate(95.410156 0)"/>
     <use xlink:href="#DejaVuSans-30" transform="translate(159.033203 0)"/>
     <use xlink:href="#DejaVuSans-39" transform="translate(222.65625 0)"/>
    </g>
   </g>
   <g id="text_22">
    <g id="patch_34">
     <path d="M 755.841659 118.660388 
L 755.841659 96.394763 
Q 755.841659 94.394763 753.841659 94.394763 
L 744.163534 94.394763 
Q 742.163534 94.394763 742.163534 96.394763 
L 742.163534 118.660388 
Q 742.163534 120.660388 744.163534 120.660388 
L 753.841659 120.660388 
Q 755.841659 120.660388 755.841659 118.660388 
z
" style="fill: #ffffff; opacity: 0.75"/>
    </g>
    <!-- 7.64 -->
    <g style="fill: #010101" transform="translate(751.761971 118.660388) rotate(-90) scale(0.1 -0.1)">
     <use xlink:href="#DejaVuSans-37"/>
     <use xlink:href="#DejaVuSans-2e" transform="translate(63.623047 0)"/>
     <use xlink:href="#DejaVuSans-36" transform="translate(95.410156 0)"/>
     <use xlink:href="#DejaVuSans-34" transform="translate(159.033203 0)"/>
    </g>
   </g>
   <g id="text_23">
    <g id="patch_35">
     <path d="M 216.574967 531.193721 
L 216.574967 486.442159 
Q 216.574967 484.442159 214.574967 484.442159 
L 204.896842 484.442159 
Q 202.896842 484.442159 202.896842 486.442159 
L 202.896842 531.193721 
Q 202.896842 533.193721 204.896842 533.193721 
L 214.574967 533.193721 
Q 216.574967 533.193721 216.574967 531.193721 
z
" style="fill: #ffffff; opacity: 0.75"/>
    </g>
    <!-- 3.25e-03 -->
    <g style="fill: #010101" transform="translate(212.495279 531.193721) rotate(-90) scale(0.1 -0.1)">
     <use xlink:href="#DejaVuSans-33"/>
     <use xlink:href="#DejaVuSans-2e" transform="translate(63.623047 0)"/>
     <use xlink:href="#DejaVuSans-32" transform="translate(95.410156 0)"/>
     <use xlink:href="#DejaVuSans-35" transform="translate(159.033203 0)"/>
     <use xlink:href="#DejaVuSans-65" transform="translate(222.65625 0)"/>
     <use xlink:href="#DejaVuSans-2d" transform="translate(284.179688 0)"/>
     <use xlink:href="#DejaVuSans-30" transform="translate(320.263672 0)"/>
     <use xlink:href="#DejaVuSans-33" transform="translate(383.886719 0)"/>
    </g>
   </g>
   <g id="text_24">
    <g id="patch_36">
     <path d="M 408.117781 292.048241 
L 408.117781 263.420116 
Q 408.117781 261.420116 406.117781 261.420116 
L 396.439656 261.420116 
Q 394.439656 261.420116 394.439656 263.420116 
L 394.439656 292.048241 
Q 394.439656 294.048241 396.439656 294.048241 
L 406.117781 294.048241 
Q 408.117781 294.048241 408.117781 292.048241 
z
" style="fill: #ffffff; opacity: 0.75"/>
    </g>
    <!-- 0.293 -->
    <g style="fill: #010101" transform="translate(404.038093 292.048241) rotate(-90) scale(0.1 -0.1)">
     <use xlink:href="#DejaVuSans-30"/>
     <use xlink:href="#DejaVuSans-2e" transform="translate(63.623047 0)"/>
     <use xlink:href="#DejaVuSans-32" transform="translate(95.410156 0)"/>
     <use xlink:href="#DejaVuSans-39" transform="translate(159.033203 0)"/>
     <use xlink:href="#DejaVuSans-33" transform="translate(222.65625 0)"/>
    </g>
   </g>
   <g id="text_25">
    <g id="patch_37">
     <path d="M 599.660595 247.112422 
L 599.660595 218.484297 
Q 599.660595 216.484297 597.660595 216.484297 
L 587.98247 216.484297 
Q 585.98247 216.484297 585.98247 218.484297 
L 585.98247 247.112422 
Q 585.98247 249.112422 587.98247 249.112422 
L 597.660595 249.112422 
Q 599.660595 249.112422 599.660595 247.112422 
z
" style="fill: #ffffff; opacity: 0.75"/>
    </g>
    <!-- 0.682 -->
    <g style="fill: #010101" transform="translate(595.580907 247.112422) rotate(-90) scale(0.1 -0.1)">
     <use xlink:href="#DejaVuSans-30"/>
     <use xlink:href="#DejaVuSans-2e" transform="translate(63.623047 0)"/>
     <use xlink:href="#DejaVuSans-36" transform="translate(95.410156 0)"/>
     <use xlink:href="#DejaVuSans-38" transform="translate(159.033203 0)"/>
     <use xlink:href="#DejaVuSans-32" transform="translate(222.65625 0)"/>
    </g>
   </g>
   <g id="text_26">
    <g id="patch_38">
     <path d="M 791.203409 126.450743 
L 791.203409 104.185118 
Q 791.203409 102.185118 789.203409 102.185118 
L 779.525284 102.185118 
Q 777.525284 102.185118 777.525284 104.185118 
L 777.525284 126.450743 
Q 777.525284 128.450743 779.525284 128.450743 
L 789.203409 128.450743 
Q 791.203409 128.450743 791.203409 126.450743 
z
" style="fill: #ffffff; opacity: 0.75"/>
    </g>
    <!-- 6.60 -->
    <g style="fill: #010101" transform="translate(787.123721 126.450743) rotate(-90) scale(0.1 -0.1)">
     <use xlink:href="#DejaVuSans-36"/>
     <use xlink:href="#DejaVuSans-2e" transform="translate(63.623047 0)"/>
     <use xlink:href="#DejaVuSans-36" transform="translate(95.410156 0)"/>
     <use xlink:href="#DejaVuSans-30" transform="translate(159.033203 0)"/>
    </g>
   </g>
  </g>
  <g id="axes_3">
   <g id="legend_1">
    <g id="patch_39">
     <path d="M 61.8075 674.41099 
L 826.2075 674.41099 
Q 828.6075 674.41099 828.6075 672.01099 
L 828.6075 637.015677 
Q 828.6075 634.615677 826.2075 634.615677 
L 61.8075 634.615677 
Q 59.4075 634.615677 59.4075 637.015677 
L 59.4075 672.01099 
Q 59.4075 674.41099 61.8075 674.41099 
z
" style="fill: #ffffff; opacity: 0.9; stroke: #cccccc; stroke-linejoin: miter"/>
    </g>
    <g id="text_27">
     <!-- Scenario -->
     <g style="fill: #010101" transform="translate(415.749766 649.293646) scale(0.13 -0.13)">
      <defs>
       <path id="DejaVuSans-53" d="M 3425 4513 
L 3425 3897 
Q 3066 4069 2747 4153 
Q 2428 4238 2131 4238 
Q 1616 4238 1336 4038 
Q 1056 3838 1056 3469 
Q 1056 3159 1242 3001 
Q 1428 2844 1947 2747 
L 2328 2669 
Q 3034 2534 3370 2195 
Q 3706 1856 3706 1288 
Q 3706 609 3251 259 
Q 2797 -91 1919 -91 
Q 1588 -91 1214 -16 
Q 841 59 441 206 
L 441 856 
Q 825 641 1194 531 
Q 1563 422 1919 422 
Q 2459 422 2753 634 
Q 3047 847 3047 1241 
Q 3047 1584 2836 1778 
Q 2625 1972 2144 2069 
L 1759 2144 
Q 1053 2284 737 2584 
Q 422 2884 422 3419 
Q 422 4038 858 4394 
Q 1294 4750 2059 4750 
Q 2388 4750 2728 4690 
Q 3069 4631 3425 4513 
z
" transform="scale(0.015625)"/>
       <path id="DejaVuSans-63" d="M 3122 3366 
L 3122 2828 
Q 2878 2963 2633 3030 
Q 2388 3097 2138 3097 
Q 1578 3097 1268 2742 
Q 959 2388 959 1747 
Q 959 1106 1268 751 
Q 1578 397 2138 397 
Q 2388 397 2633 464 
Q 2878 531 3122 666 
L 3122 134 
Q 2881 22 2623 -34 
Q 2366 -91 2075 -91 
Q 1284 -91 818 406 
Q 353 903 353 1747 
Q 353 2603 823 3093 
Q 1294 3584 2113 3584 
Q 2378 3584 2631 3529 
Q 2884 3475 3122 3366 
z
" transform="scale(0.015625)"/>
       <path id="DejaVuSans-6e" d="M 3513 2113 
L 3513 0 
L 2938 0 
L 2938 2094 
Q 2938 2591 2744 2837 
Q 2550 3084 2163 3084 
Q 1697 3084 1428 2787 
Q 1159 2491 1159 1978 
L 1159 0 
L 581 0 
L 581 3500 
L 1159 3500 
L 1159 2956 
Q 1366 3272 1645 3428 
Q 1925 3584 2291 3584 
Q 2894 3584 3203 3211 
Q 3513 2838 3513 2113 
z
" transform="scale(0.015625)"/>
       <path id="DejaVuSans-61" d="M 2194 1759 
Q 1497 1759 1228 1600 
Q 959 1441 959 1056 
Q 959 750 1161 570 
Q 1363 391 1709 391 
Q 2188 391 2477 730 
Q 2766 1069 2766 1631 
L 2766 1759 
L 2194 1759 
z
M 3341 1997 
L 3341 0 
L 2766 0 
L 2766 531 
Q 2569 213 2275 61 
Q 1981 -91 1556 -91 
Q 1019 -91 701 211 
Q 384 513 384 1019 
Q 384 1609 779 1909 
Q 1175 2209 1959 2209 
L 2766 2209 
L 2766 2266 
Q 2766 2663 2505 2880 
Q 2244 3097 1772 3097 
Q 1472 3097 1187 3025 
Q 903 2953 641 2809 
L 641 3341 
Q 956 3463 1253 3523 
Q 1550 3584 1831 3584 
Q 2591 3584 2966 3190 
Q 3341 2797 3341 1997 
z
" transform="scale(0.015625)"/>
       <path id="DejaVuSans-72" d="M 2631 2963 
Q 2534 3019 2420 3045 
Q 2306 3072 2169 3072 
Q 1681 3072 1420 2755 
Q 1159 2438 1159 1844 
L 1159 0 
L 581 0 
L 581 3500 
L 1159 3500 
L 1159 2956 
Q 1341 3275 1631 3429 
Q 1922 3584 2338 3584 
Q 2397 3584 2469 3576 
Q 2541 3569 2628 3553 
L 2631 2963 
z
" transform="scale(0.015625)"/>
       <path id="DejaVuSans-69" d="M 603 3500 
L 1178 3500 
L 1178 0 
L 603 0 
L 603 3500 
z
M 603 4863 
L 1178 4863 
L 1178 4134 
L 603 4134 
L 603 4863 
z
" transform="scale(0.015625)"/>
       <path id="DejaVuSans-6f" d="M 1959 3097 
Q 1497 3097 1228 2736 
Q 959 2375 959 1747 
Q 959 1119 1226 758 
Q 1494 397 1959 397 
Q 2419 397 2687 759 
Q 2956 1122 2956 1747 
Q 2956 2369 2687 2733 
Q 2419 3097 1959 3097 
z
M 1959 3584 
Q 2709 3584 3137 3096 
Q 3566 2609 3566 1747 
Q 3566 888 3137 398 
Q 2709 -91 1959 -91 
Q 1206 -91 779 398 
Q 353 888 353 1747 
Q 353 2609 779 3096 
Q 1206 3584 1959 3584 
z
" transform="scale(0.015625)"/>
      </defs>
      <use xlink:href="#DejaVuSans-53"/>
      <use xlink:href="#DejaVuSans-63" transform="translate(63.476562 0)"/>
      <use xlink:href="#DejaVuSans-65" transform="translate(118.457031 0)"/>
      <use xlink:href="#DejaVuSans-6e" transform="translate(179.980469 0)"/>
      <use xlink:href="#DejaVuSans-61" transform="translate(243.359375 0)"/>
      <use xlink:href="#DejaVuSans-72" transform="translate(304.638672 0)"/>
      <use xlink:href="#DejaVuSans-69" transform="translate(345.751953 0)"/>
      <use xlink:href="#DejaVuSans-6f" transform="translate(373.535156 0)"/>
     </g>
    </g>
    <g id="patch_40">
     <path d="M 64.2075 667.115365 
L 88.2075 667.115365 
L 88.2075 658.715365 
L 64.2075 658.715365 
z
" style="fill: #ff0000; opacity: 0.85; stroke: #000000; stroke-width: 0.5; stroke-linejoin: miter"/>
    </g>
    <g id="text_28">
     <!-- baseline -->
     <g style="fill: #010101" transform="translate(97.8075 667.115365) scale(0.12 -0.12)">
      <defs>
       <path id="DejaVuSans-62" d="M 3116 1747 
Q 3116 2381 2855 2742 
Q 2594 3103 2138 3103 
Q 1681 3103 1420 2742 
Q 1159 2381 1159 1747 
Q 1159 1113 1420 752 
Q 1681 391 2138 391 
Q 2594 391 2855 752 
Q 3116 1113 3116 1747 
z
M 1159 2969 
Q 1341 3281 1617 3432 
Q 1894 3584 2278 3584 
Q 2916 3584 3314 3078 
Q 3713 2572 3713 1747 
Q 3713 922 3314 415 
Q 2916 -91 2278 -91 
Q 1894 -91 1617 61 
Q 1341 213 1159 525 
L 1159 0 
L 581 0 
L 581 4863 
L 1159 4863 
L 1159 2969 
z
" transform="scale(0.015625)"/>
       <path id="DejaVuSans-73" d="M 2834 3397 
L 2834 2853 
Q 2591 2978 2328 3040 
Q 2066 3103 1784 3103 
Q 1356 3103 1142 2972 
Q 928 2841 928 2578 
Q 928 2378 1081 2264 
Q 1234 2150 1697 2047 
L 1894 2003 
Q 2506 1872 2764 1633 
Q 3022 1394 3022 966 
Q 3022 478 2636 193 
Q 2250 -91 1575 -91 
Q 1294 -91 989 -36 
Q 684 19 347 128 
L 347 722 
Q 666 556 975 473 
Q 1284 391 1588 391 
Q 1994 391 2212 530 
Q 2431 669 2431 922 
Q 2431 1156 2273 1281 
Q 2116 1406 1581 1522 
L 1381 1569 
Q 847 1681 609 1914 
Q 372 2147 372 2553 
Q 372 3047 722 3315 
Q 1072 3584 1716 3584 
Q 2034 3584 2315 3537 
Q 2597 3491 2834 3397 
z
" transform="scale(0.015625)"/>
       <path id="DejaVuSans-6c" d="M 603 4863 
L 1178 4863 
L 1178 0 
L 603 0 
L 603 4863 
z
" transform="scale(0.015625)"/>
      </defs>
      <use xlink:href="#DejaVuSans-62"/>
      <use xlink:href="#DejaVuSans-61" transform="translate(63.476562 0)"/>
      <use xlink:href="#DejaVuSans-73" transform="translate(124.755859 0)"/>
      <use xlink:href="#DejaVuSans-65" transform="translate(176.855469 0)"/>
      <use xlink:href="#DejaVuSans-6c" transform="translate(238.378906 0)"/>
      <use xlink:href="#DejaVuSans-69" transform="translate(266.162109 0)"/>
      <use xlink:href="#DejaVuSans-6e" transform="translate(293.945312 0)"/>
      <use xlink:href="#DejaVuSans-65" transform="translate(357.324219 0)"/>
     </g>
    </g>
    <g id="patch_41">
     <path d="M 309.893125 667.115365 
L 333.893125 667.115365 
L 333.893125 658.715365 
L 309.893125 658.715365 
z
" style="fill: #d4dd80; opacity: 0.85; stroke: #000000; stroke-width: 0.5; stroke-linejoin: miter"/>
    </g>
    <g id="text_29">
     <!-- s1 -->
     <g style="fill: #010101" transform="translate(343.493125 667.115365) scale(0.12 -0.12)">
      <use xlink:href="#DejaVuSans-73"/>
      <use xlink:href="#DejaVuSans-31" transform="translate(52.099609 0)"/>
     </g>
    </g>
    <g id="patch_42">
     <path d="M 519.201875 667.115365 
L 543.201875 667.115365 
L 543.201875 658.715365 
L 519.201875 658.715365 
z
" style="fill: #2adddd; opacity: 0.85; stroke: #000000; stroke-width: 0.5; stroke-linejoin: miter"/>
    </g>
    <g id="text_30">
     <!-- s2 -->
     <g style="fill: #010101" transform="translate(552.801875 667.115365) scale(0.12 -0.12)">
      <use xlink:href="#DejaVuSans-73"/>
      <use xlink:href="#DejaVuSans-32" transform="translate(52.099609 0)"/>
     </g>
    </g>
    <g id="patch_43">
     <path d="M 728.510625 667.115365 
L 752.510625 667.115365 
L 752.510625 658.715365 
L 728.510625 658.715365 
z
" style="fill: #8000ff; opacity: 0.85; stroke: #000000; stroke-width: 0.5; stroke-linejoin: miter"/>
    </g>
    <g id="text_31">
     <!-- aggregate -->
     <g style="fill: #010101" transform="translate(762.110625 667.115365) scale(0.12 -0.12)">
      <defs>
       <path id="DejaVuSans-67" d="M 2906 1791 
Q 2906 2416 2648 2759 
Q 2391 3103 1925 3103 
Q 1463 3103 1205 2759 
Q 947 2416 947 1791 
Q 947 1169 1205 825 
Q 1463 481 1925 481 
Q 2391 481 2648 825 
Q 2906 1169 2906 1791 
z
M 3481 434 
Q 3481 -459 3084 -895 
Q 2688 -1331 1869 -1331 
Q 1566 -1331 1297 -1286 
Q 1028 -1241 775 -1147 
L 775 -588 
Q 1028 -725 1275 -790 
Q 1522 -856 1778 -856 
Q 2344 -856 2625 -561 
Q 2906 -266 2906 331 
L 2906 616 
Q 2728 306 2450 153 
Q 2172 0 1784 0 
Q 1141 0 747 490 
Q 353 981 353 1791 
Q 353 2603 747 3093 
Q 1141 3584 1784 3584 
Q 2172 3584 2450 3431 
Q 2728 3278 2906 2969 
L 2906 3500 
L 3481 3500 
L 3481 434 
z
" transform="scale(0.015625)"/>
       <path id="DejaVuSans-74" d="M 1172 4494 
L 1172 3500 
L 2356 3500 
L 2356 3053 
L 1172 3053 
L 1172 1153 
Q 1172 725 1289 603 
Q 1406 481 1766 481 
L 2356 481 
L 2356 0 
L 1766 0 
Q 1100 0 847 248 
Q 594 497 594 1153 
L 594 3053 
L 172 3053 
L 172 3500 
L 594 3500 
L 594 4494 
L 1172 4494 
z
" transform="scale(0.015625)"/>
      </defs>
      <use xlink:href="#DejaVuSans-61"/>
      <use xlink:href="#DejaVuSans-67" transform="translate(61.279297 0)"/>
      <use xlink:href="#DejaVuSans-67" transform="translate(124.755859 0)"/>
      <use xlink:href="#DejaVuSans-72" transform="translate(188.232422 0)"/>
      <use xlink:href="#DejaVuSans-65" transform="translate(227.095703 0)"/>
      <use xlink:href="#DejaVuSans-67" transform="translate(288.619141 0)"/>
      <use xlink:href="#DejaVuSans-61" transform="translate(352.095703 0)"/>
      <use xlink:href="#DejaVuSans-74" transform="translate(413.375 0)"/>
      <use xlink:href="#DejaVuSans-65" transform="translate(452.583984 0)"/>
     </g>
    </g>
   </g>
  </g>
 </g>
 <defs>
  <clipPath id="pa70f2710fa">
   <rect x="53.4075" y="100.626667" width="781.2" height="453.786667"/>
  </clipPath>
 </defs>
</svg>
