<?xml version="1.0" encoding="utf-8" standalone="no"?>
<!DOCTYPE svg PUBLIC "-//W3C//DTD SVG 1.1//EN"
  "http://www.w3.org/Graphics/SVG/1.1/DTD/svg11.dtd">
<svg xmlns:xlink="http://www.w3.org/1999/xlink" width="867.35375pt" height="517.291728pt" viewBox="0 0 867.35375 517.291728" xmlns="http://www.w3.org/2000/svg" version="1.1">
 <metadata>
  <rdf:RDF xmlns:dc="http://purl.org/dc/elements/1.1/" xmlns:cc="http://creativecommons.org/ns#" xmlns:rdf="http://www.w3.org/1999/02/22-rdf-syntax-ns#">
   <cc:Work>
    <dc:type rdf:resource="http://purl.org/dc/dcmitype/StillImage"/>
    <dc:date>2026-04-28T09:45:20.715610</dc:date>
    <dc:format>image/svg+xml</dc:format>
    <dc:creator>
     <cc:Agent>
      <dc:title>Matplotlib v3.10.7, https://matplotlib.org/</dc:title>
     </cc:Agent>
    </dc:creator>
   </cc:Work>
  </rdf:RDF>
 </metadata>
 <defs>
  <style type="text/css">*{stroke-linejoin: round; stroke-linecap: butt}</style>
 </defs>
 <g id="figure_1">
  <g id="patch_1">
   <path d="M 0 517.291728 
L 867.35375 517.291728 
L 867.35375 0 
L 0 0 
z
" style="fill: #ffffff"/>
  </g>
  <g id="axes_1">
   <g id="text_1">
    <!-- Stochastic: TAS Architecture metrics shift, S1 &amp; S2 vs No Adaptation -->
    <g style="fill: #010101" transform="translate(7.2 24.942204) scale(0.22 -0.22)">
     <defs>
      <path id="DejaVuSans-Bold-53" d="M 3834 4519 
L 3834 3531 
Q 3450 3703 3084 3790 
Q 2719 3878 2394 3878 
Q 1963 3878 1756 3759 
Q 1550 3641 1550 3391 
Q 1550 3203 1689 3098 
Q 1828 2994 2194 2919 
L 2706 2816 
Q 3484 2659 3812 2340 
Q 4141 2022 4141 1434 
Q 4141 663 3683 286 
Q 3225 -91 2284 -91 
Q 1841 -91 1394 -6 
Q 947 78 500 244 
L 500 1259 
Q 947 1022 1364 901 
Q 1781 781 2169 781 
Q 2563 781 2772 912 
Q 2981 1044 2981 1288 
Q 2981 1506 2839 1625 
Q 2697 1744 2272 1838 
L 1806 1941 
Q 1106 2091 782 2419 
Q 459 2747 459 3303 
Q 459 4000 909 4375 
Q 1359 4750 2203 4750 
Q 2588 4750 2994 4692 
Q 3400 4634 3834 4519 
z
" transform="scale(0.015625)"/>
      <path id="DejaVuSans-Bold-74" d="M 1759 4494 
L 1759 3500 
L 2913 3500 
L 2913 2700 
L 1759 2700 
L 1759 1216 
Q 1759 972 1856 886 
Q 1953 800 2241 800 
L 2816 800 
L 2816 0 
L 1856 0 
Q 1194 0 917 276 
Q 641 553 641 1216 
L 641 2700 
L 84 2700 
L 84 3500 
L 641 3500 
L 641 4494 
L 1759 4494 
z
" transform="scale(0.015625)"/>
      <path id="DejaVuSans-Bold-6f" d="M 2203 2784 
Q 1831 2784 1636 2517 
Q 1441 2250 1441 1747 
Q 1441 1244 1636 976 
Q 1831 709 2203 709 
Q 2569 709 2762 976 
Q 2956 1244 2956 1747 
Q 2956 2250 2762 2517 
Q 2569 2784 2203 2784 
z
M 2203 3584 
Q 3106 3584 3614 3096 
Q 4122 2609 4122 1747 
Q 4122 884 3614 396 
Q 3106 -91 2203 -91 
Q 1297 -91 786 396 
Q 275 884 275 1747 
Q 275 2609 786 3096 
Q 1297 3584 2203 3584 
z
" transform="scale(0.015625)"/>
      <path id="DejaVuSans-Bold-63" d="M 3366 3391 
L 3366 2478 
Q 3138 2634 2908 2709 
Q 2678 2784 2431 2784 
Q 1963 2784 1702 2511 
Q 1441 2238 1441 1747 
Q 1441 1256 1702 982 
Q 1963 709 2431 709 
Q 2694 709 2930 787 
Q 3166 866 3366 1019 
L 3366 103 
Q 3103 6 2833 -42 
Q 2563 -91 2291 -91 
Q 1344 -91 809 395 
Q 275 881 275 1747 
Q 275 2613 809 3098 
Q 1344 3584 2291 3584 
Q 2566 3584 2833 3536 
Q 3100 3488 3366 3391 
z
" transform="scale(0.015625)"/>
      <path id="DejaVuSans-Bold-68" d="M 4056 2131 
L 4056 0 
L 2931 0 
L 2931 347 
L 2931 1625 
Q 2931 2084 2911 2256 
Q 2891 2428 2841 2509 
Q 2775 2619 2662 2680 
Q 2550 2741 2406 2741 
Q 2056 2741 1856 2470 
Q 1656 2200 1656 1722 
L 1656 0 
L 538 0 
L 538 4863 
L 1656 4863 
L 1656 2988 
Q 1909 3294 2193 3439 
Q 2478 3584 2822 3584 
Q 3428 3584 3742 3212 
Q 4056 2841 4056 2131 
z
" transform="scale(0.015625)"/>
      <path id="DejaVuSans-Bold-61" d="M 2106 1575 
Q 1756 1575 1579 1456 
Q 1403 1338 1403 1106 
Q 1403 894 1545 773 
Q 1688 653 1941 653 
Q 2256 653 2472 879 
Q 2688 1106 2688 1447 
L 2688 1575 
L 2106 1575 
z
M 3816 1997 
L 3816 0 
L 2688 0 
L 2688 519 
Q 2463 200 2181 54 
Q 1900 -91 1497 -91 
Q 953 -91 614 226 
Q 275 544 275 1050 
Q 275 1666 698 1953 
Q 1122 2241 2028 2241 
L 2688 2241 
L 2688 2328 
Q 2688 2594 2478 2717 
Q 2269 2841 1825 2841 
Q 1466 2841 1156 2769 
Q 847 2697 581 2553 
L 581 3406 
Q 941 3494 1303 3539 
Q 1666 3584 2028 3584 
Q 2975 3584 3395 3211 
Q 3816 2838 3816 1997 
z
" transform="scale(0.015625)"/>
      <path id="DejaVuSans-Bold-73" d="M 3272 3391 
L 3272 2541 
Q 2913 2691 2578 2766 
Q 2244 2841 1947 2841 
Q 1628 2841 1473 2761 
Q 1319 2681 1319 2516 
Q 1319 2381 1436 2309 
Q 1553 2238 1856 2203 
L 2053 2175 
Q 2913 2066 3209 1816 
Q 3506 1566 3506 1031 
Q 3506 472 3093 190 
Q 2681 -91 1863 -91 
Q 1516 -91 1145 -36 
Q 775 19 384 128 
L 384 978 
Q 719 816 1070 734 
Q 1422 653 1784 653 
Q 2113 653 2278 743 
Q 2444 834 2444 1013 
Q 2444 1163 2330 1236 
Q 2216 1309 1875 1350 
L 1678 1375 
Q 931 1469 631 1722 
Q 331 1975 331 2491 
Q 331 3047 712 3315 
Q 1094 3584 1881 3584 
Q 2191 3584 2531 3537 
Q 2872 3491 3272 3391 
z
" transform="scale(0.015625)"/>
      <path id="DejaVuSans-Bold-69" d="M 538 3500 
L 1656 3500 
L 1656 0 
L 538 0 
L 538 3500 
z
M 538 4863 
L 1656 4863 
L 1656 3950 
L 538 3950 
L 538 4863 
z
" transform="scale(0.015625)"/>
      <path id="DejaVuSans-Bold-3a" d="M 716 3500 
L 1844 3500 
L 1844 2291 
L 716 2291 
L 716 3500 
z
M 716 1209 
L 1844 1209 
L 1844 0 
L 716 0 
L 716 1209 
z
" transform="scale(0.015625)"/>
      <path id="DejaVuSans-Bold-20" transform="scale(0.015625)"/>
      <path id="DejaVuSans-Bold-54" d="M 31 4666 
L 4331 4666 
L 4331 3756 
L 2784 3756 
L 2784 0 
L 1581 0 
L 1581 3756 
L 31 3756 
L 31 4666 
z
" transform="scale(0.015625)"/>
      <path id="DejaVuSans-Bold-41" d="M 3419 850 
L 1538 850 
L 1241 0 
L 31 0 
L 1759 4666 
L 3194 4666 
L 4922 0 
L 3713 0 
L 3419 850 
z
M 1838 1716 
L 3116 1716 
L 2478 3572 
L 1838 1716 
z
" transform="scale(0.015625)"/>
      <path id="DejaVuSans-Bold-72" d="M 3138 2547 
Q 2991 2616 2845 2648 
Q 2700 2681 2553 2681 
Q 2122 2681 1889 2404 
Q 1656 2128 1656 1613 
L 1656 0 
L 538 0 
L 538 3500 
L 1656 3500 
L 1656 2925 
Q 1872 3269 2151 3426 
Q 2431 3584 2822 3584 
Q 2878 3584 2943 3579 
Q 3009 3575 3134 3559 
L 3138 2547 
z
" transform="scale(0.015625)"/>
      <path id="DejaVuSans-Bold-65" d="M 4031 1759 
L 4031 1441 
L 1416 1441 
Q 1456 1047 1700 850 
Q 1944 653 2381 653 
Q 2734 653 3104 758 
Q 3475 863 3866 1075 
L 3866 213 
Q 3469 63 3072 -14 
Q 2675 -91 2278 -91 
Q 1328 -91 801 392 
Q 275 875 275 1747 
Q 275 2603 792 3093 
Q 1309 3584 2216 3584 
Q 3041 3584 3536 3087 
Q 4031 2591 4031 1759 
z
M 2881 2131 
Q 2881 2450 2695 2645 
Q 2509 2841 2209 2841 
Q 1884 2841 1681 2658 
Q 1478 2475 1428 2131 
L 2881 2131 
z
" transform="scale(0.015625)"/>
      <path id="DejaVuSans-Bold-75" d="M 500 1363 
L 500 3500 
L 1625 3500 
L 1625 3150 
Q 1625 2866 1622 2436 
Q 1619 2006 1619 1863 
Q 1619 1441 1641 1255 
Q 1663 1069 1716 984 
Q 1784 875 1895 815 
Q 2006 756 2150 756 
Q 2500 756 2700 1025 
Q 2900 1294 2900 1772 
L 2900 3500 
L 4019 3500 
L 4019 0 
L 2900 0 
L 2900 506 
Q 2647 200 2364 54 
Q 2081 -91 1741 -91 
Q 1134 -91 817 281 
Q 500 653 500 1363 
z
" transform="scale(0.015625)"/>
      <path id="DejaVuSans-Bold-6d" d="M 3781 2919 
Q 3994 3244 4286 3414 
Q 4578 3584 4928 3584 
Q 5531 3584 5847 3212 
Q 6163 2841 6163 2131 
L 6163 0 
L 5038 0 
L 5038 1825 
Q 5041 1866 5042 1909 
Q 5044 1953 5044 2034 
Q 5044 2406 4934 2573 
Q 4825 2741 4581 2741 
Q 4263 2741 4089 2478 
Q 3916 2216 3909 1719 
L 3909 0 
L 2784 0 
L 2784 1825 
Q 2784 2406 2684 2573 
Q 2584 2741 2328 2741 
Q 2006 2741 1831 2477 
Q 1656 2213 1656 1722 
L 1656 0 
L 531 0 
L 531 3500 
L 1656 3500 
L 1656 2988 
Q 1863 3284 2130 3434 
Q 2397 3584 2719 3584 
Q 3081 3584 3359 3409 
Q 3638 3234 3781 2919 
z
" transform="scale(0.015625)"/>
      <path id="DejaVuSans-Bold-66" d="M 2841 4863 
L 2841 4128 
L 2222 4128 
Q 1984 4128 1890 4042 
Q 1797 3956 1797 3744 
L 1797 3500 
L 2753 3500 
L 2753 2700 
L 1797 2700 
L 1797 0 
L 678 0 
L 678 2700 
L 122 2700 
L 122 3500 
L 678 3500 
L 678 3744 
Q 678 4316 997 4589 
Q 1316 4863 1984 4863 
L 2841 4863 
z
" transform="scale(0.015625)"/>
      <path id="DejaVuSans-Bold-2c" d="M 653 1209 
L 1778 1209 
L 1778 256 
L 1006 -909 
L 341 -909 
L 653 256 
L 653 1209 
z
" transform="scale(0.015625)"/>
      <path id="DejaVuSans-Bold-31" d="M 750 831 
L 1813 831 
L 1813 3847 
L 722 3622 
L 722 4441 
L 1806 4666 
L 2950 4666 
L 2950 831 
L 4013 831 
L 4013 0 
L 750 0 
L 750 831 
z
" transform="scale(0.015625)"/>
      <path id="DejaVuSans-Bold-26" d="M 2497 3097 
L 3775 1691 
Q 3941 1909 4027 2181 
Q 4113 2453 4128 2797 
L 5100 2797 
Q 5053 2228 4879 1784 
Q 4706 1341 4397 1006 
L 5313 0 
L 3988 0 
L 3681 341 
Q 3353 122 2990 15 
Q 2628 -91 2222 -91 
Q 1400 -91 892 342 
Q 384 775 384 1459 
Q 384 1916 607 2267 
Q 831 2619 1338 2950 
Q 1206 3116 1143 3281 
Q 1081 3447 1081 3628 
Q 1081 4138 1478 4444 
Q 1875 4750 2534 4750 
Q 2819 4750 3126 4704 
Q 3434 4659 3769 4569 
L 3769 3700 
Q 3475 3850 3212 3922 
Q 2950 3994 2700 3994 
Q 2459 3994 2326 3901 
Q 2194 3809 2194 3641 
Q 2194 3534 2270 3398 
Q 2347 3263 2497 3097 
z
M 1875 2322 
Q 1672 2175 1569 1989 
Q 1466 1803 1466 1581 
Q 1466 1222 1731 969 
Q 1997 716 2369 716 
Q 2578 716 2759 780 
Q 2941 844 3097 972 
L 1875 2322 
z
" transform="scale(0.015625)"/>
      <path id="DejaVuSans-Bold-32" d="M 1844 884 
L 3897 884 
L 3897 0 
L 506 0 
L 506 884 
L 2209 2388 
Q 2438 2594 2547 2791 
Q 2656 2988 2656 3200 
Q 2656 3528 2436 3728 
Q 2216 3928 1850 3928 
Q 1569 3928 1234 3808 
Q 900 3688 519 3450 
L 519 4475 
Q 925 4609 1322 4679 
Q 1719 4750 2100 4750 
Q 2938 4750 3402 4381 
Q 3866 4013 3866 3353 
Q 3866 2972 3669 2642 
Q 3472 2313 2841 1759 
L 1844 884 
z
" transform="scale(0.015625)"/>
      <path id="DejaVuSans-Bold-76" d="M 97 3500 
L 1216 3500 
L 2088 1081 
L 2956 3500 
L 4078 3500 
L 2700 0 
L 1472 0 
L 97 3500 
z
" transform="scale(0.015625)"/>
      <path id="DejaVuSans-Bold-4e" d="M 588 4666 
L 1931 4666 
L 3628 1466 
L 3628 4666 
L 4769 4666 
L 4769 0 
L 3425 0 
L 1728 3200 
L 1728 0 
L 588 0 
L 588 4666 
z
" transform="scale(0.015625)"/>
      <path id="DejaVuSans-Bold-64" d="M 2919 2988 
L 2919 4863 
L 4044 4863 
L 4044 0 
L 2919 0 
L 2919 506 
Q 2688 197 2409 53 
Q 2131 -91 1766 -91 
Q 1119 -91 703 423 
Q 288 938 288 1747 
Q 288 2556 703 3070 
Q 1119 3584 1766 3584 
Q 2128 3584 2408 3439 
Q 2688 3294 2919 2988 
z
M 2181 722 
Q 2541 722 2730 984 
Q 2919 1247 2919 1747 
Q 2919 2247 2730 2509 
Q 2541 2772 2181 2772 
Q 1825 2772 1636 2509 
Q 1447 2247 1447 1747 
Q 1447 1247 1636 984 
Q 1825 722 2181 722 
z
" transform="scale(0.015625)"/>
      <path id="DejaVuSans-Bold-70" d="M 1656 506 
L 1656 -1331 
L 538 -1331 
L 538 3500 
L 1656 3500 
L 1656 2988 
Q 1888 3294 2169 3439 
Q 2450 3584 2816 3584 
Q 3463 3584 3878 3070 
Q 4294 2556 4294 1747 
Q 4294 938 3878 423 
Q 3463 -91 2816 -91 
Q 2450 -91 2169 54 
Q 1888 200 1656 506 
z
M 2400 2772 
Q 2041 2772 1848 2508 
Q 1656 2244 1656 1747 
Q 1656 1250 1848 986 
Q 2041 722 2400 722 
Q 2759 722 2948 984 
Q 3138 1247 3138 1747 
Q 3138 2247 2948 2509 
Q 2759 2772 2400 2772 
z
" transform="scale(0.015625)"/>
      <path id="DejaVuSans-Bold-6e" d="M 4056 2131 
L 4056 0 
L 2931 0 
L 2931 347 
L 2931 1631 
Q 2931 2084 2911 2256 
Q 2891 2428 2841 2509 
Q 2775 2619 2662 2680 
Q 2550 2741 2406 2741 
Q 2056 2741 1856 2470 
Q 1656 2200 1656 1722 
L 1656 0 
L 538 0 
L 538 3500 
L 1656 3500 
L 1656 2988 
Q 1909 3294 2193 3439 
Q 2478 3584 2822 3584 
Q 3428 3584 3742 3212 
Q 4056 2841 4056 2131 
z
" transform="scale(0.015625)"/>
     </defs>
     <use xlink:href="#DejaVuSans-Bold-53"/>
     <use xlink:href="#DejaVuSans-Bold-74" transform="translate(72.021484 0)"/>
     <use xlink:href="#DejaVuSans-Bold-6f" transform="translate(119.824219 0)"/>
     <use xlink:href="#DejaVuSans-Bold-63" transform="translate(188.525391 0)"/>
     <use xlink:href="#DejaVuSans-Bold-68" transform="translate(247.802734 0)"/>
     <use xlink:href="#DejaVuSans-Bold-61" transform="translate(318.994141 0)"/>
     <use xlink:href="#DejaVuSans-Bold-73" transform="translate(386.474609 0)"/>
     <use xlink:href="#DejaVuSans-Bold-74" transform="translate(445.996094 0)"/>
     <use xlink:href="#DejaVuSans-Bold-69" transform="translate(493.798828 0)"/>
     <use xlink:href="#DejaVuSans-Bold-63" transform="translate(528.076172 0)"/>
     <use xlink:href="#DejaVuSans-Bold-3a" transform="translate(587.353516 0)"/>
     <use xlink:href="#DejaVuSans-Bold-20" transform="translate(627.34375 0)"/>
     <use xlink:href="#DejaVuSans-Bold-54" transform="translate(662.158203 0)"/>
     <use xlink:href="#DejaVuSans-Bold-41" transform="translate(722.621094 0)"/>
     <use xlink:href="#DejaVuSans-Bold-53" transform="translate(800.013672 0)"/>
     <use xlink:href="#DejaVuSans-Bold-20" transform="translate(872.035156 0)"/>
     <use xlink:href="#DejaVuSans-Bold-41" transform="translate(906.849609 0)"/>
     <use xlink:href="#DejaVuSans-Bold-72" transform="translate(984.242188 0)"/>
     <use xlink:href="#DejaVuSans-Bold-63" transform="translate(1033.558594 0)"/>
     <use xlink:href="#DejaVuSans-Bold-68" transform="translate(1092.835938 0)"/>
     <use xlink:href="#DejaVuSans-Bold-69" transform="translate(1164.027344 0)"/>
     <use xlink:href="#DejaVuSans-Bold-74" transform="translate(1198.304688 0)"/>
     <use xlink:href="#DejaVuSans-Bold-65" transform="translate(1246.107422 0)"/>
     <use xlink:href="#DejaVuSans-Bold-63" transform="translate(1313.929688 0)"/>
     <use xlink:href="#DejaVuSans-Bold-74" transform="translate(1373.207031 0)"/>
     <use xlink:href="#DejaVuSans-Bold-75" transform="translate(1421.009766 0)"/>
     <use xlink:href="#DejaVuSans-Bold-72" transform="translate(1492.201172 0)"/>
     <use xlink:href="#DejaVuSans-Bold-65" transform="translate(1541.517578 0)"/>
     <use xlink:href="#DejaVuSans-Bold-20" transform="translate(1609.339844 0)"/>
     <use xlink:href="#DejaVuSans-Bold-6d" transform="translate(1644.154297 0)"/>
     <use xlink:href="#DejaVuSans-Bold-65" transform="translate(1748.353516 0)"/>
     <use xlink:href="#DejaVuSans-Bold-74" transform="translate(1816.175781 0)"/>
     <use xlink:href="#DejaVuSans-Bold-72" transform="translate(1863.978516 0)"/>
     <use xlink:href="#DejaVuSans-Bold-69" transform="translate(1913.294922 0)"/>
     <use xlink:href="#DejaVuSans-Bold-63" transform="translate(1947.572266 0)"/>
     <use xlink:href="#DejaVuSans-Bold-73" transform="translate(2006.849609 0)"/>
     <use xlink:href="#DejaVuSans-Bold-20" transform="translate(2066.371094 0)"/>
     <use xlink:href="#DejaVuSans-Bold-73" transform="translate(2101.185547 0)"/>
     <use xlink:href="#DejaVuSans-Bold-68" transform="translate(2160.707031 0)"/>
     <use xlink:href="#DejaVuSans-Bold-69" transform="translate(2231.898438 0)"/>
     <use xlink:href="#DejaVuSans-Bold-66" transform="translate(2266.175781 0)"/>
     <use xlink:href="#DejaVuSans-Bold-74" transform="translate(2309.681641 0)"/>
     <use xlink:href="#DejaVuSans-Bold-2c" transform="translate(2357.484375 0)"/>
     <use xlink:href="#DejaVuSans-Bold-20" transform="translate(2395.472656 0)"/>
     <use xlink:href="#DejaVuSans-Bold-53" transform="translate(2430.287109 0)"/>
     <use xlink:href="#DejaVuSans-Bold-31" transform="translate(2502.308594 0)"/>
     <use xlink:href="#DejaVuSans-Bold-20" transform="translate(2571.888672 0)"/>
     <use xlink:href="#DejaVuSans-Bold-26" transform="translate(2606.703125 0)"/>
     <use xlink:href="#DejaVuSans-Bold-20" transform="translate(2693.910156 0)"/>
     <use xlink:href="#DejaVuSans-Bold-53" transform="translate(2728.724609 0)"/>
     <use xlink:href="#DejaVuSans-Bold-32" transform="translate(2800.746094 0)"/>
     <use xlink:href="#DejaVuSans-Bold-20" transform="translate(2870.326172 0)"/>
     <use xlink:href="#DejaVuSans-Bold-76" transform="translate(2905.140625 0)"/>
     <use xlink:href="#DejaVuSans-Bold-73" transform="translate(2970.326172 0)"/>
     <use xlink:href="#DejaVuSans-Bold-20" transform="translate(3029.847656 0)"/>
     <use xlink:href="#DejaVuSans-Bold-4e" transform="translate(3064.662109 0)"/>
     <use xlink:href="#DejaVuSans-Bold-6f" transform="translate(3148.353516 0)"/>
     <use xlink:href="#DejaVuSans-Bold-20" transform="translate(3217.054688 0)"/>
     <use xlink:href="#DejaVuSans-Bold-41" transform="translate(3251.869141 0)"/>
     <use xlink:href="#DejaVuSans-Bold-64" transform="translate(3329.261719 0)"/>
     <use xlink:href="#DejaVuSans-Bold-61" transform="translate(3400.84375 0)"/>
     <use xlink:href="#DejaVuSans-Bold-70" transform="translate(3468.324219 0)"/>
     <use xlink:href="#DejaVuSans-Bold-74" transform="translate(3539.90625 0)"/>
     <use xlink:href="#DejaVuSans-Bold-61" transform="translate(3587.708984 0)"/>
     <use xlink:href="#DejaVuSans-Bold-74" transform="translate(3655.189453 0)"/>
     <use xlink:href="#DejaVuSans-Bold-69" transform="translate(3702.992188 0)"/>
     <use xlink:href="#DejaVuSans-Bold-6f" transform="translate(3737.269531 0)"/>
     <use xlink:href="#DejaVuSans-Bold-6e" transform="translate(3805.970703 0)"/>
    </g>
   </g>
  </g>
  <g id="axes_2">
   <g id="patch_2">
    <path d="M 98.876875 450.72 
L 768.476875 450.72 
L 768.476875 85.010526 
L 98.876875 85.010526 
z
" style="fill: #ffffff"/>
   </g>
   <g id="patch_3">
    <path d="M 129.313239 118.852861 
L 200.928212 118.852861 
L 200.928212 317.64737 
L 129.313239 317.64737 
z
" clip-path="url(#p6802c917b1)" style="fill: #33acd1; opacity: 0.85; stroke: #000000; stroke-width: 0.5; stroke-linejoin: miter"/>
   </g>
   <g id="patch_4">
    <path d="M 218.831955 118.852861 
L 290.446928 118.852861 
L 290.446928 184.645956 
L 218.831955 184.645956 
z
" clip-path="url(#p6802c917b1)" style="fill: #33acd1; opacity: 0.85; stroke: #000000; stroke-width: 0.5; stroke-linejoin: miter"/>
   </g>
   <g id="patch_5">
    <path d="M 308.350672 118.852861 
L 379.965645 118.852861 
L 379.965645 293.743512 
L 308.350672 293.743512 
z
" clip-path="url(#p6802c917b1)" style="fill: #33acd1; opacity: 0.85; stroke: #000000; stroke-width: 0.5; stroke-linejoin: miter"/>
   </g>
   <g id="patch_6">
    <path d="M 397.869388 118.852861 
L 469.484362 118.852861 
L 469.484362 420.55026 
L 397.869388 420.55026 
z
" clip-path="url(#p6802c917b1)" style="fill: #33acd1; opacity: 0.85; stroke: #000000; stroke-width: 0.5; stroke-linejoin: miter"/>
   </g>
   <g id="patch_7">
    <path d="M 487.388105 118.852861 
L 559.003078 118.852861 
L 559.003078 291.965217 
L 487.388105 291.965217 
z
" clip-path="url(#p6802c917b1)" style="fill: #33acd1; opacity: 0.85; stroke: #000000; stroke-width: 0.5; stroke-linejoin: miter"/>
   </g>
   <g id="patch_8">
    <path d="M 576.906822 118.852861 
L 648.521795 118.852861 
L 648.521795 418.695369 
L 576.906822 418.695369 
z
" clip-path="url(#p6802c917b1)" style="fill: #33acd1; opacity: 0.85; stroke: #000000; stroke-width: 0.5; stroke-linejoin: miter"/>
   </g>
   <g id="patch_9">
    <path d="M 666.425538 118.852861 
L 738.040511 118.852861 
L 738.040511 120.414007 
L 666.425538 120.414007 
z
" clip-path="url(#p6802c917b1)" style="fill: #33acd1; opacity: 0.85; stroke: #000000; stroke-width: 0.5; stroke-linejoin: miter"/>
   </g>
   <g id="matplotlib.axis_1">
    <g id="xtick_1">
     <g id="line2d_1">
      <defs>
       <path id="m4459f99ef5" d="M 0 0 
L 0 3.5 
" style="stroke: #010101; stroke-width: 0.8"/>
      </defs>
      <g>
       <use xlink:href="#m4459f99ef5" x="165.120725" y="450.72" style="fill: #010101; stroke: #010101; stroke-width: 0.8"/>
      </g>
     </g>
     <g id="text_2">
      <!-- $\mathbf{\Delta \overline{\mu}}$ [req/s] -->
      <g style="fill: #010101" transform="translate(115.400098 492.748203) rotate(-30) scale(0.1 -0.1)">
       <defs>
        <path id="DejaVuSans-Bold-394" d="M 4922 0 
L 31 0 
L 1759 4666 
L 3194 4666 
L 4922 0 
z
M 1559 909 
L 3384 909 
L 2478 3572 
L 1559 909 
z
" transform="scale(0.015625)"/>
        <path id="DejaVuSans-Bold-3bc" d="M 544 -1338 
L 544 3500 
L 1672 3500 
L 1672 1466 
Q 1672 1103 1828 926 
Q 1984 750 2303 750 
Q 2625 750 2781 926 
Q 2938 1103 2938 1466 
L 2938 3500 
L 4063 3500 
L 4063 1159 
Q 4063 938 4114 850 
Q 4166 763 4288 763 
Q 4344 763 4395 778 
Q 4447 794 4506 831 
L 4506 50 
Q 4341 -22 4195 -56 
Q 4050 -91 3909 -91 
Q 3631 -91 3454 26 
Q 3278 144 3169 403 
Q 3022 156 2811 32 
Q 2600 -91 2322 -91 
Q 2091 -91 1928 -17 
Q 1766 56 1672 206 
L 1672 -1338 
L 544 -1338 
z
" transform="scale(0.015625)"/>
        <path id="DejaVuSans-Bold-5b" d="M 550 4863 
L 2491 4863 
L 2491 4159 
L 1613 4159 
L 1613 -141 
L 2491 -141 
L 2491 -844 
L 550 -844 
L 550 4863 
z
" transform="scale(0.015625)"/>
        <path id="DejaVuSans-Bold-71" d="M 2181 2772 
Q 1825 2772 1636 2509 
Q 1447 2247 1447 1747 
Q 1447 1247 1636 984 
Q 1825 722 2181 722 
Q 2541 722 2730 984 
Q 2919 1247 2919 1747 
Q 2919 2247 2730 2509 
Q 2541 2772 2181 2772 
z
M 2919 506 
Q 2688 197 2409 53 
Q 2131 -91 1766 -91 
Q 1119 -91 703 423 
Q 288 938 288 1747 
Q 288 2556 703 3067 
Q 1119 3578 1766 3578 
Q 2131 3578 2409 3434 
Q 2688 3291 2919 2981 
L 2919 3500 
L 4044 3500 
L 4044 -1331 
L 2919 -1331 
L 2919 506 
z
" transform="scale(0.015625)"/>
        <path id="DejaVuSans-Bold-2f" d="M 1644 4666 
L 2338 4666 
L 691 -594 
L 0 -594 
L 1644 4666 
z
" transform="scale(0.015625)"/>
        <path id="DejaVuSans-Bold-5d" d="M 2375 -844 
L 434 -844 
L 434 -141 
L 1313 -141 
L 1313 4159 
L 434 4159 
L 434 4863 
L 2375 4863 
L 2375 -844 
z
" transform="scale(0.015625)"/>
       </defs>
       <use xlink:href="#DejaVuSans-Bold-394" transform="translate(0 0.5625)"/>
       <use xlink:href="#DejaVuSans-Bold-3bc" transform="translate(77.392578 1.0625)"/>
       <use xlink:href="#DejaVuSans-Bold-20" transform="translate(150.976562 0.5625)"/>
       <use xlink:href="#DejaVuSans-Bold-5b" transform="translate(185.791016 0.5625)"/>
       <use xlink:href="#DejaVuSans-Bold-72" transform="translate(231.494141 0.5625)"/>
       <use xlink:href="#DejaVuSans-Bold-65" transform="translate(280.810547 0.5625)"/>
       <use xlink:href="#DejaVuSans-Bold-71" transform="translate(348.632812 0.5625)"/>
       <use xlink:href="#DejaVuSans-Bold-2f" transform="translate(420.214844 0.5625)"/>
       <use xlink:href="#DejaVuSans-Bold-73" transform="translate(456.738281 0.5625)"/>
       <use xlink:href="#DejaVuSans-Bold-5d" transform="translate(516.259766 0.5625)"/>
       <path d="M 77.392578 67.5 
L 77.392578 73.75 
L 150.976562 73.75 
L 150.976562 67.5 
L 77.392578 67.5 
z
"/>
      </g>
     </g>
    </g>
    <g id="xtick_2">
     <g id="line2d_2">
      <g>
       <use xlink:href="#m4459f99ef5" x="254.639442" y="450.72" style="fill: #010101; stroke: #010101; stroke-width: 0.8"/>
      </g>
     </g>
     <g id="text_3">
      <!-- $\mathbf{\Delta \overline{\rho}}$ [n.a.] -->
      <g style="fill: #010101" transform="translate(211.154197 489.234806) rotate(-30) scale(0.1 -0.1)">
       <defs>
        <path id="DejaVuSans-Bold-3c1" d="M 1003 3013 
Q 1425 3413 1809 3500 
Q 2203 3594 2581 3594 
Q 2700 3594 2816 3584 
Q 3425 3538 3878 3069 
Q 4294 2631 4294 1747 
Q 4294 938 3878 423 
Q 3463 -91 2816 -91 
Q 2450 -91 2169 54 
Q 1888 200 1656 506 
L 1656 -1331 
L 538 -1331 
L 538 1688 
Q 538 2566 1003 3013 
z
M 2400 2772 
Q 2041 2772 1848 2508 
Q 1656 2244 1656 1747 
Q 1656 1250 1848 986 
Q 2041 722 2400 722 
Q 2759 722 2948 984 
Q 3138 1247 3138 1747 
Q 3138 2247 2948 2509 
Q 2759 2772 2400 2772 
z
" transform="scale(0.015625)"/>
        <path id="DejaVuSans-Bold-2e" d="M 653 1209 
L 1778 1209 
L 1778 0 
L 653 0 
L 653 1209 
z
" transform="scale(0.015625)"/>
       </defs>
       <use xlink:href="#DejaVuSans-Bold-394" transform="translate(0 0.09375)"/>
       <use xlink:href="#DejaVuSans-Bold-3c1" transform="translate(77.392578 0.59375)"/>
       <use xlink:href="#DejaVuSans-Bold-20" transform="translate(148.974609 0.09375)"/>
       <use xlink:href="#DejaVuSans-Bold-5b" transform="translate(183.789062 0.09375)"/>
       <use xlink:href="#DejaVuSans-Bold-6e" transform="translate(229.492188 0.09375)"/>
       <use xlink:href="#DejaVuSans-Bold-2e" transform="translate(300.683594 0.09375)"/>
       <use xlink:href="#DejaVuSans-Bold-61" transform="translate(338.671875 0.09375)"/>
       <use xlink:href="#DejaVuSans-Bold-2e" transform="translate(406.152344 0.09375)"/>
       <use xlink:href="#DejaVuSans-Bold-5d" transform="translate(444.140625 0.09375)"/>
       <path d="M 77.392578 68.5 
L 77.392578 74.75 
L 148.974609 74.75 
L 148.974609 68.5 
L 77.392578 68.5 
z
"/>
      </g>
     </g>
    </g>
    <g id="xtick_3">
     <g id="line2d_3">
      <g>
       <use xlink:href="#m4459f99ef5" x="344.158158" y="450.72" style="fill: #010101; stroke: #010101; stroke-width: 0.8"/>
      </g>
     </g>
     <g id="text_4">
      <!-- $\mathbf{\Delta L_{net}}$ [req] -->
      <g style="fill: #010101" transform="translate(291.926057 493.851793) rotate(-30) scale(0.1 -0.1)">
       <defs>
        <path id="DejaVuSans-Bold-4c" d="M 588 4666 
L 1791 4666 
L 1791 909 
L 3903 909 
L 3903 0 
L 588 0 
L 588 4666 
z
" transform="scale(0.015625)"/>
       </defs>
       <use xlink:href="#DejaVuSans-Bold-394" transform="translate(0 0.015625)"/>
       <use xlink:href="#DejaVuSans-Bold-4c" transform="translate(77.392578 0.015625)"/>
       <use xlink:href="#DejaVuSans-Bold-6e" transform="translate(142.070312 -16.390625) scale(0.7)"/>
       <use xlink:href="#DejaVuSans-Bold-65" transform="translate(191.904297 -16.390625) scale(0.7)"/>
       <use xlink:href="#DejaVuSans-Bold-74" transform="translate(239.379883 -16.390625) scale(0.7)"/>
       <use xlink:href="#DejaVuSans-Bold-20" transform="translate(275.576172 0.015625)"/>
       <use xlink:href="#DejaVuSans-Bold-5b" transform="translate(310.390625 0.015625)"/>
       <use xlink:href="#DejaVuSans-Bold-72" transform="translate(356.09375 0.015625)"/>
       <use xlink:href="#DejaVuSans-Bold-65" transform="translate(405.410156 0.015625)"/>
       <use xlink:href="#DejaVuSans-Bold-71" transform="translate(473.232422 0.015625)"/>
       <use xlink:href="#DejaVuSans-Bold-5d" transform="translate(544.814453 0.015625)"/>
      </g>
     </g>
    </g>
    <g id="xtick_4">
     <g id="line2d_4">
      <g>
       <use xlink:href="#m4459f99ef5" x="433.676875" y="450.72" style="fill: #010101; stroke: #010101; stroke-width: 0.8"/>
      </g>
     </g>
     <g id="text_5">
      <!-- $\mathbf{\Delta L_{q,net}}$ [req] -->
      <g style="fill: #010101" transform="translate(373.150545 498.351793) rotate(-30) scale(0.1 -0.1)">
       <use xlink:href="#DejaVuSans-Bold-394" transform="translate(0 0.015625)"/>
       <use xlink:href="#DejaVuSans-Bold-4c" transform="translate(77.392578 0.015625)"/>
       <use xlink:href="#DejaVuSans-Bold-71" transform="translate(142.070312 -16.390625) scale(0.7)"/>
       <use xlink:href="#DejaVuSans-Bold-2c" transform="translate(192.177734 -16.390625) scale(0.7)"/>
       <use xlink:href="#DejaVuSans-Bold-6e" transform="translate(232.407227 -16.390625) scale(0.7)"/>
       <use xlink:href="#DejaVuSans-Bold-65" transform="translate(282.241211 -16.390625) scale(0.7)"/>
       <use xlink:href="#DejaVuSans-Bold-74" transform="translate(329.716797 -16.390625) scale(0.7)"/>
       <use xlink:href="#DejaVuSans-Bold-20" transform="translate(365.913086 0.015625)"/>
       <use xlink:href="#DejaVuSans-Bold-5b" transform="translate(400.727539 0.015625)"/>
       <use xlink:href="#DejaVuSans-Bold-72" transform="translate(446.430664 0.015625)"/>
       <use xlink:href="#DejaVuSans-Bold-65" transform="translate(495.74707 0.015625)"/>
       <use xlink:href="#DejaVuSans-Bold-71" transform="translate(563.569336 0.015625)"/>
       <use xlink:href="#DejaVuSans-Bold-5d" transform="translate(635.151367 0.015625)"/>
      </g>
     </g>
    </g>
    <g id="xtick_5">
     <g id="line2d_5">
      <g>
       <use xlink:href="#m4459f99ef5" x="523.195592" y="450.72" style="fill: #010101; stroke: #010101; stroke-width: 0.8"/>
      </g>
     </g>
     <g id="text_6">
      <!-- $\mathbf{\Delta \overline{W}_{net}}$ [s/req] -->
      <g style="fill: #010101" transform="translate(458.579327 502.907049) rotate(-30) scale(0.1 -0.1)">
       <defs>
        <path id="DejaVuSans-Bold-57" d="M 191 4666 
L 1344 4666 
L 2150 1275 
L 2950 4666 
L 4109 4666 
L 4909 1275 
L 5716 4666 
L 6859 4666 
L 5759 0 
L 4372 0 
L 3525 3547 
L 2688 0 
L 1300 0 
L 191 4666 
z
" transform="scale(0.015625)"/>
       </defs>
       <use xlink:href="#DejaVuSans-Bold-394" transform="translate(0 0.34375)"/>
       <use xlink:href="#DejaVuSans-Bold-57" transform="translate(77.392578 0.84375)"/>
       <use xlink:href="#DejaVuSans-Bold-6e" transform="translate(188.652344 -16.0625) scale(0.7)"/>
       <use xlink:href="#DejaVuSans-Bold-65" transform="translate(238.486328 -16.0625) scale(0.7)"/>
       <use xlink:href="#DejaVuSans-Bold-74" transform="translate(285.961914 -16.0625) scale(0.7)"/>
       <use xlink:href="#DejaVuSans-Bold-20" transform="translate(322.158203 0.34375)"/>
       <use xlink:href="#DejaVuSans-Bold-5b" transform="translate(356.972656 0.34375)"/>
       <use xlink:href="#DejaVuSans-Bold-73" transform="translate(402.675781 0.34375)"/>
       <use xlink:href="#DejaVuSans-Bold-2f" transform="translate(462.197266 0.34375)"/>
       <use xlink:href="#DejaVuSans-Bold-72" transform="translate(498.720703 0.34375)"/>
       <use xlink:href="#DejaVuSans-Bold-65" transform="translate(548.037109 0.34375)"/>
       <use xlink:href="#DejaVuSans-Bold-71" transform="translate(615.859375 0.34375)"/>
       <use xlink:href="#DejaVuSans-Bold-5d" transform="translate(687.441406 0.34375)"/>
       <path d="M 77.392578 85.5 
L 77.392578 91.75 
L 187.695312 91.75 
L 187.695312 85.5 
L 77.392578 85.5 
z
"/>
      </g>
     </g>
    </g>
    <g id="xtick_6">
     <g id="line2d_6">
      <g>
       <use xlink:href="#m4459f99ef5" x="612.714308" y="450.72" style="fill: #010101; stroke: #010101; stroke-width: 0.8"/>
      </g>
     </g>
     <g id="text_7">
      <!-- $\mathbf{\Delta \overline{W}_{q,net}}$ [s/req] -->
      <g style="fill: #010101" transform="translate(539.803815 507.407049) rotate(-30) scale(0.1 -0.1)">
       <use xlink:href="#DejaVuSans-Bold-394" transform="translate(0 0.34375)"/>
       <use xlink:href="#DejaVuSans-Bold-57" transform="translate(77.392578 0.84375)"/>
       <use xlink:href="#DejaVuSans-Bold-71" transform="translate(188.652344 -16.0625) scale(0.7)"/>
       <use xlink:href="#DejaVuSans-Bold-2c" transform="translate(238.759766 -16.0625) scale(0.7)"/>
       <use xlink:href="#DejaVuSans-Bold-6e" transform="translate(278.989258 -16.0625) scale(0.7)"/>
       <use xlink:href="#DejaVuSans-Bold-65" transform="translate(328.823242 -16.0625) scale(0.7)"/>
       <use xlink:href="#DejaVuSans-Bold-74" transform="translate(376.298828 -16.0625) scale(0.7)"/>
       <use xlink:href="#DejaVuSans-Bold-20" transform="translate(412.495117 0.34375)"/>
       <use xlink:href="#DejaVuSans-Bold-5b" transform="translate(447.30957 0.34375)"/>
       <use xlink:href="#DejaVuSans-Bold-73" transform="translate(493.012695 0.34375)"/>
       <use xlink:href="#DejaVuSans-Bold-2f" transform="translate(552.53418 0.34375)"/>
       <use xlink:href="#DejaVuSans-Bold-72" transform="translate(589.057617 0.34375)"/>
       <use xlink:href="#DejaVuSans-Bold-65" transform="translate(638.374023 0.34375)"/>
       <use xlink:href="#DejaVuSans-Bold-71" transform="translate(706.196289 0.34375)"/>
       <use xlink:href="#DejaVuSans-Bold-5d" transform="translate(777.77832 0.34375)"/>
       <path d="M 77.392578 85.5 
L 77.392578 91.75 
L 187.695312 91.75 
L 187.695312 85.5 
L 77.392578 85.5 
z
"/>
      </g>
     </g>
    </g>
    <g id="xtick_7">
     <g id="line2d_7">
      <g>
       <use xlink:href="#m4459f99ef5" x="702.233025" y="450.72" style="fill: #010101; stroke: #010101; stroke-width: 0.8"/>
      </g>
     </g>
     <g id="text_8">
      <!-- $\mathbf{\Delta Th_{net}}$ [req/s] -->
      <g style="fill: #010101" transform="translate(635.105286 502.451793) rotate(-30) scale(0.1 -0.1)">
       <use xlink:href="#DejaVuSans-Bold-394" transform="translate(0 0.015625)"/>
       <use xlink:href="#DejaVuSans-Bold-54" transform="translate(77.392578 0.015625)"/>
       <use xlink:href="#DejaVuSans-Bold-68" transform="translate(145.605469 0.015625)"/>
       <use xlink:href="#DejaVuSans-Bold-6e" transform="translate(217.753906 -16.390625) scale(0.7)"/>
       <use xlink:href="#DejaVuSans-Bold-65" transform="translate(267.587891 -16.390625) scale(0.7)"/>
       <use xlink:href="#DejaVuSans-Bold-74" transform="translate(315.063477 -16.390625) scale(0.7)"/>
       <use xlink:href="#DejaVuSans-Bold-20" transform="translate(351.259766 0.015625)"/>
       <use xlink:href="#DejaVuSans-Bold-5b" transform="translate(386.074219 0.015625)"/>
       <use xlink:href="#DejaVuSans-Bold-72" transform="translate(431.777344 0.015625)"/>
       <use xlink:href="#DejaVuSans-Bold-65" transform="translate(481.09375 0.015625)"/>
       <use xlink:href="#DejaVuSans-Bold-71" transform="translate(548.916016 0.015625)"/>
       <use xlink:href="#DejaVuSans-Bold-2f" transform="translate(620.498047 0.015625)"/>
       <use xlink:href="#DejaVuSans-Bold-73" transform="translate(657.021484 0.015625)"/>
       <use xlink:href="#DejaVuSans-Bold-5d" transform="translate(716.542969 0.015625)"/>
      </g>
     </g>
    </g>
   </g>
   <g id="matplotlib.axis_2">
    <g id="ytick_1">
     <g id="line2d_8">
      <path d="M 98.876875 414.973288 
L 768.476875 414.973288 
" clip-path="url(#p6802c917b1)" style="fill: none; stroke-dasharray: 2.96,1.28; stroke-dashoffset: 0; stroke: #555555; stroke-opacity: 0.7; stroke-width: 0.8"/>
     </g>
     <g id="line2d_9">
      <defs>
       <path id="m4e0b053fc2" d="M 0 0 
L -3.5 0 
" style="stroke: #010101; stroke-width: 0.8"/>
      </defs>
      <g>
       <use xlink:href="#m4e0b053fc2" x="98.876875" y="414.973288" style="fill: #010101; stroke: #010101; stroke-width: 0.8"/>
      </g>
     </g>
     <g id="text_9">
      <!-- −17.5 -->
      <g style="fill: #010101" transform="translate(61.231562 418.772506) scale(0.1 -0.1)">
       <defs>
        <path id="DejaVuSans-2212" d="M 678 2272 
L 4684 2272 
L 4684 1741 
L 678 1741 
L 678 2272 
z
" transform="scale(0.015625)"/>
        <path id="DejaVuSans-31" d="M 794 531 
L 1825 531 
L 1825 4091 
L 703 3866 
L 703 4441 
L 1819 4666 
L 2450 4666 
L 2450 531 
L 3481 531 
L 3481 0 
L 794 0 
L 794 531 
z
" transform="scale(0.015625)"/>
        <path id="DejaVuSans-37" d="M 525 4666 
L 3525 4666 
L 3525 4397 
L 1831 0 
L 1172 0 
L 2766 4134 
L 525 4134 
L 525 4666 
z
" transform="scale(0.015625)"/>
        <path id="DejaVuSans-2e" d="M 684 794 
L 1344 794 
L 1344 0 
L 684 0 
L 684 794 
z
" transform="scale(0.015625)"/>
        <path id="DejaVuSans-35" d="M 691 4666 
L 3169 4666 
L 3169 4134 
L 1269 4134 
L 1269 2991 
Q 1406 3038 1543 3061 
Q 1681 3084 1819 3084 
Q 2600 3084 3056 2656 
Q 3513 2228 3513 1497 
Q 3513 744 3044 326 
Q 2575 -91 1722 -91 
Q 1428 -91 1123 -41 
Q 819 9 494 109 
L 494 744 
Q 775 591 1075 516 
Q 1375 441 1709 441 
Q 2250 441 2565 725 
Q 2881 1009 2881 1497 
Q 2881 1984 2565 2268 
Q 2250 2553 1709 2553 
Q 1456 2553 1204 2497 
Q 953 2441 691 2322 
L 691 4666 
z
" transform="scale(0.015625)"/>
       </defs>
       <use xlink:href="#DejaVuSans-2212"/>
       <use xlink:href="#DejaVuSans-31" transform="translate(83.789062 0)"/>
       <use xlink:href="#DejaVuSans-37" transform="translate(147.412109 0)"/>
       <use xlink:href="#DejaVuSans-2e" transform="translate(211.035156 0)"/>
       <use xlink:href="#DejaVuSans-35" transform="translate(242.822266 0)"/>
      </g>
     </g>
    </g>
    <g id="ytick_2">
     <g id="line2d_10">
      <path d="M 98.876875 372.67037 
L 768.476875 372.67037 
" clip-path="url(#p6802c917b1)" style="fill: none; stroke-dasharray: 2.96,1.28; stroke-dashoffset: 0; stroke: #555555; stroke-opacity: 0.7; stroke-width: 0.8"/>
     </g>
     <g id="line2d_11">
      <g>
       <use xlink:href="#m4e0b053fc2" x="98.876875" y="372.67037" style="fill: #010101; stroke: #010101; stroke-width: 0.8"/>
      </g>
     </g>
     <g id="text_10">
      <!-- −15.0 -->
      <g style="fill: #010101" transform="translate(61.231562 376.469588) scale(0.1 -0.1)">
       <defs>
        <path id="DejaVuSans-30" d="M 2034 4250 
Q 1547 4250 1301 3770 
Q 1056 3291 1056 2328 
Q 1056 1369 1301 889 
Q 1547 409 2034 409 
Q 2525 409 2770 889 
Q 3016 1369 3016 2328 
Q 3016 3291 2770 3770 
Q 2525 4250 2034 4250 
z
M 2034 4750 
Q 2819 4750 3233 4129 
Q 3647 3509 3647 2328 
Q 3647 1150 3233 529 
Q 2819 -91 2034 -91 
Q 1250 -91 836 529 
Q 422 1150 422 2328 
Q 422 3509 836 4129 
Q 1250 4750 2034 4750 
z
" transform="scale(0.015625)"/>
       </defs>
       <use xlink:href="#DejaVuSans-2212"/>
       <use xlink:href="#DejaVuSans-31" transform="translate(83.789062 0)"/>
       <use xlink:href="#DejaVuSans-35" transform="translate(147.412109 0)"/>
       <use xlink:href="#DejaVuSans-2e" transform="translate(211.035156 0)"/>
       <use xlink:href="#DejaVuSans-30" transform="translate(242.822266 0)"/>
      </g>
     </g>
    </g>
    <g id="ytick_3">
     <g id="line2d_12">
      <path d="M 98.876875 330.367451 
L 768.476875 330.367451 
" clip-path="url(#p6802c917b1)" style="fill: none; stroke-dasharray: 2.96,1.28; stroke-dashoffset: 0; stroke: #555555; stroke-opacity: 0.7; stroke-width: 0.8"/>
     </g>
     <g id="line2d_13">
      <g>
       <use xlink:href="#m4e0b053fc2" x="98.876875" y="330.367451" style="fill: #010101; stroke: #010101; stroke-width: 0.8"/>
      </g>
     </g>
     <g id="text_11">
      <!-- −12.5 -->
      <g style="fill: #010101" transform="translate(61.231562 334.16667) scale(0.1 -0.1)">
       <defs>
        <path id="DejaVuSans-32" d="M 1228 531 
L 3431 531 
L 3431 0 
L 469 0 
L 469 531 
Q 828 903 1448 1529 
Q 2069 2156 2228 2338 
Q 2531 2678 2651 2914 
Q 2772 3150 2772 3378 
Q 2772 3750 2511 3984 
Q 2250 4219 1831 4219 
Q 1534 4219 1204 4116 
Q 875 4013 500 3803 
L 500 4441 
Q 881 4594 1212 4672 
Q 1544 4750 1819 4750 
Q 2544 4750 2975 4387 
Q 3406 4025 3406 3419 
Q 3406 3131 3298 2873 
Q 3191 2616 2906 2266 
Q 2828 2175 2409 1742 
Q 1991 1309 1228 531 
z
" transform="scale(0.015625)"/>
       </defs>
       <use xlink:href="#DejaVuSans-2212"/>
       <use xlink:href="#DejaVuSans-31" transform="translate(83.789062 0)"/>
       <use xlink:href="#DejaVuSans-32" transform="translate(147.412109 0)"/>
       <use xlink:href="#DejaVuSans-2e" transform="translate(211.035156 0)"/>
       <use xlink:href="#DejaVuSans-35" transform="translate(242.822266 0)"/>
      </g>
     </g>
    </g>
    <g id="ytick_4">
     <g id="line2d_14">
      <path d="M 98.876875 288.064533 
L 768.476875 288.064533 
" clip-path="url(#p6802c917b1)" style="fill: none; stroke-dasharray: 2.96,1.28; stroke-dashoffset: 0; stroke: #555555; stroke-opacity: 0.7; stroke-width: 0.8"/>
     </g>
     <g id="line2d_15">
      <g>
       <use xlink:href="#m4e0b053fc2" x="98.876875" y="288.064533" style="fill: #010101; stroke: #010101; stroke-width: 0.8"/>
      </g>
     </g>
     <g id="text_12">
      <!-- −10.0 -->
      <g style="fill: #010101" transform="translate(61.231562 291.863752) scale(0.1 -0.1)">
       <use xlink:href="#DejaVuSans-2212"/>
       <use xlink:href="#DejaVuSans-31" transform="translate(83.789062 0)"/>
       <use xlink:href="#DejaVuSans-30" transform="translate(147.412109 0)"/>
       <use xlink:href="#DejaVuSans-2e" transform="translate(211.035156 0)"/>
       <use xlink:href="#DejaVuSans-30" transform="translate(242.822266 0)"/>
      </g>
     </g>
    </g>
    <g id="ytick_5">
     <g id="line2d_16">
      <path d="M 98.876875 245.761615 
L 768.476875 245.761615 
" clip-path="url(#p6802c917b1)" style="fill: none; stroke-dasharray: 2.96,1.28; stroke-dashoffset: 0; stroke: #555555; stroke-opacity: 0.7; stroke-width: 0.8"/>
     </g>
     <g id="line2d_17">
      <g>
       <use xlink:href="#m4e0b053fc2" x="98.876875" y="245.761615" style="fill: #010101; stroke: #010101; stroke-width: 0.8"/>
      </g>
     </g>
     <g id="text_13">
      <!-- −7.5 -->
      <g style="fill: #010101" transform="translate(67.594062 249.560834) scale(0.1 -0.1)">
       <use xlink:href="#DejaVuSans-2212"/>
       <use xlink:href="#DejaVuSans-37" transform="translate(83.789062 0)"/>
       <use xlink:href="#DejaVuSans-2e" transform="translate(147.412109 0)"/>
       <use xlink:href="#DejaVuSans-35" transform="translate(179.199219 0)"/>
      </g>
     </g>
    </g>
    <g id="ytick_6">
     <g id="line2d_18">
      <path d="M 98.876875 203.458697 
L 768.476875 203.458697 
" clip-path="url(#p6802c917b1)" style="fill: none; stroke-dasharray: 2.96,1.28; stroke-dashoffset: 0; stroke: #555555; stroke-opacity: 0.7; stroke-width: 0.8"/>
     </g>
     <g id="line2d_19">
      <g>
       <use xlink:href="#m4e0b053fc2" x="98.876875" y="203.458697" style="fill: #010101; stroke: #010101; stroke-width: 0.8"/>
      </g>
     </g>
     <g id="text_14">
      <!-- −5.0 -->
      <g style="fill: #010101" transform="translate(67.594062 207.257916) scale(0.1 -0.1)">
       <use xlink:href="#DejaVuSans-2212"/>
       <use xlink:href="#DejaVuSans-35" transform="translate(83.789062 0)"/>
       <use xlink:href="#DejaVuSans-2e" transform="translate(147.412109 0)"/>
       <use xlink:href="#DejaVuSans-30" transform="translate(179.199219 0)"/>
      </g>
     </g>
    </g>
    <g id="ytick_7">
     <g id="line2d_20">
      <path d="M 98.876875 161.155779 
L 768.476875 161.155779 
" clip-path="url(#p6802c917b1)" style="fill: none; stroke-dasharray: 2.96,1.28; stroke-dashoffset: 0; stroke: #555555; stroke-opacity: 0.7; stroke-width: 0.8"/>
     </g>
     <g id="line2d_21">
      <g>
       <use xlink:href="#m4e0b053fc2" x="98.876875" y="161.155779" style="fill: #010101; stroke: #010101; stroke-width: 0.8"/>
      </g>
     </g>
     <g id="text_15">
      <!-- −2.5 -->
      <g style="fill: #010101" transform="translate(67.594062 164.954998) scale(0.1 -0.1)">
       <use xlink:href="#DejaVuSans-2212"/>
       <use xlink:href="#DejaVuSans-32" transform="translate(83.789062 0)"/>
       <use xlink:href="#DejaVuSans-2e" transform="translate(147.412109 0)"/>
       <use xlink:href="#DejaVuSans-35" transform="translate(179.199219 0)"/>
      </g>
     </g>
    </g>
    <g id="ytick_8">
     <g id="line2d_22">
      <path d="M 98.876875 118.852861 
L 768.476875 118.852861 
" clip-path="url(#p6802c917b1)" style="fill: none; stroke-dasharray: 2.96,1.28; stroke-dashoffset: 0; stroke: #555555; stroke-opacity: 0.7; stroke-width: 0.8"/>
     </g>
     <g id="line2d_23">
      <g>
       <use xlink:href="#m4e0b053fc2" x="98.876875" y="118.852861" style="fill: #010101; stroke: #010101; stroke-width: 0.8"/>
      </g>
     </g>
     <g id="text_16">
      <!-- 0.0 -->
      <g style="fill: #010101" transform="translate(75.97375 122.65208) scale(0.1 -0.1)">
       <use xlink:href="#DejaVuSans-30"/>
       <use xlink:href="#DejaVuSans-2e" transform="translate(63.623047 0)"/>
       <use xlink:href="#DejaVuSans-30" transform="translate(95.410156 0)"/>
      </g>
     </g>
    </g>
    <g id="text_17">
     <!-- Percent change (%) -->
     <g style="fill: #010101" transform="translate(54.642187 334.244013) rotate(-90) scale(0.12 -0.12)">
      <defs>
       <path id="DejaVuSans-Bold-50" d="M 588 4666 
L 2584 4666 
Q 3475 4666 3951 4270 
Q 4428 3875 4428 3144 
Q 4428 2409 3951 2014 
Q 3475 1619 2584 1619 
L 1791 1619 
L 1791 0 
L 588 0 
L 588 4666 
z
M 1791 3794 
L 1791 2491 
L 2456 2491 
Q 2806 2491 2997 2661 
Q 3188 2831 3188 3144 
Q 3188 3456 2997 3625 
Q 2806 3794 2456 3794 
L 1791 3794 
z
" transform="scale(0.015625)"/>
       <path id="DejaVuSans-Bold-67" d="M 2919 594 
Q 2688 288 2409 144 
Q 2131 0 1766 0 
Q 1125 0 706 504 
Q 288 1009 288 1791 
Q 288 2575 706 3076 
Q 1125 3578 1766 3578 
Q 2131 3578 2409 3434 
Q 2688 3291 2919 2981 
L 2919 3500 
L 4044 3500 
L 4044 353 
Q 4044 -491 3511 -936 
Q 2978 -1381 1966 -1381 
Q 1638 -1381 1331 -1331 
Q 1025 -1281 716 -1178 
L 716 -306 
Q 1009 -475 1290 -558 
Q 1572 -641 1856 -641 
Q 2406 -641 2662 -400 
Q 2919 -159 2919 353 
L 2919 594 
z
M 2181 2772 
Q 1834 2772 1640 2515 
Q 1447 2259 1447 1791 
Q 1447 1309 1634 1061 
Q 1822 813 2181 813 
Q 2531 813 2725 1069 
Q 2919 1325 2919 1791 
Q 2919 2259 2725 2515 
Q 2531 2772 2181 2772 
z
" transform="scale(0.015625)"/>
       <path id="DejaVuSans-Bold-28" d="M 2413 -844 
L 1484 -844 
Q 1006 -72 778 623 
Q 550 1319 550 2003 
Q 550 2688 779 3389 
Q 1009 4091 1484 4856 
L 2413 4856 
Q 2013 4116 1813 3408 
Q 1613 2700 1613 2009 
Q 1613 1319 1811 609 
Q 2009 -100 2413 -844 
z
" transform="scale(0.015625)"/>
       <path id="DejaVuSans-Bold-25" d="M 4959 1925 
Q 4738 1925 4616 1733 
Q 4494 1541 4494 1184 
Q 4494 825 4614 633 
Q 4734 441 4959 441 
Q 5184 441 5303 633 
Q 5422 825 5422 1184 
Q 5422 1541 5301 1733 
Q 5181 1925 4959 1925 
z
M 4959 2450 
Q 5541 2450 5875 2112 
Q 6209 1775 6209 1184 
Q 6209 594 5875 251 
Q 5541 -91 4959 -91 
Q 4378 -91 4042 251 
Q 3706 594 3706 1184 
Q 3706 1772 4042 2111 
Q 4378 2450 4959 2450 
z
M 2094 -91 
L 1403 -91 
L 4319 4750 
L 5013 4750 
L 2094 -91 
z
M 1453 4750 
Q 2034 4750 2367 4411 
Q 2700 4072 2700 3481 
Q 2700 2891 2367 2550 
Q 2034 2209 1453 2209 
Q 872 2209 539 2550 
Q 206 2891 206 3481 
Q 206 4072 539 4411 
Q 872 4750 1453 4750 
z
M 1453 4225 
Q 1228 4225 1106 4031 
Q 984 3838 984 3481 
Q 984 3122 1106 2926 
Q 1228 2731 1453 2731 
Q 1678 2731 1798 2926 
Q 1919 3122 1919 3481 
Q 1919 3838 1797 4031 
Q 1675 4225 1453 4225 
z
" transform="scale(0.015625)"/>
       <path id="DejaVuSans-Bold-29" d="M 513 -844 
Q 913 -100 1113 609 
Q 1313 1319 1313 2009 
Q 1313 2700 1113 3408 
Q 913 4116 513 4856 
L 1441 4856 
Q 1916 4091 2145 3389 
Q 2375 2688 2375 2003 
Q 2375 1319 2147 623 
Q 1919 -72 1441 -844 
L 513 -844 
z
" transform="scale(0.015625)"/>
      </defs>
      <use xlink:href="#DejaVuSans-Bold-50"/>
      <use xlink:href="#DejaVuSans-Bold-65" transform="translate(73.291016 0)"/>
      <use xlink:href="#DejaVuSans-Bold-72" transform="translate(141.113281 0)"/>
      <use xlink:href="#DejaVuSans-Bold-63" transform="translate(190.429688 0)"/>
      <use xlink:href="#DejaVuSans-Bold-65" transform="translate(249.707031 0)"/>
      <use xlink:href="#DejaVuSans-Bold-6e" transform="translate(317.529297 0)"/>
      <use xlink:href="#DejaVuSans-Bold-74" transform="translate(388.720703 0)"/>
      <use xlink:href="#DejaVuSans-Bold-20" transform="translate(436.523438 0)"/>
      <use xlink:href="#DejaVuSans-Bold-63" transform="translate(471.337891 0)"/>
      <use xlink:href="#DejaVuSans-Bold-68" transform="translate(530.615234 0)"/>
      <use xlink:href="#DejaVuSans-Bold-61" transform="translate(601.806641 0)"/>
      <use xlink:href="#DejaVuSans-Bold-6e" transform="translate(669.287109 0)"/>
      <use xlink:href="#DejaVuSans-Bold-67" transform="translate(740.478516 0)"/>
      <use xlink:href="#DejaVuSans-Bold-65" transform="translate(812.060547 0)"/>
      <use xlink:href="#DejaVuSans-Bold-20" transform="translate(879.882812 0)"/>
      <use xlink:href="#DejaVuSans-Bold-28" transform="translate(914.697266 0)"/>
      <use xlink:href="#DejaVuSans-Bold-25" transform="translate(960.400391 0)"/>
      <use xlink:href="#DejaVuSans-Bold-29" transform="translate(1060.595703 0)"/>
     </g>
    </g>
   </g>
   <g id="line2d_24">
    <path d="M 98.876875 118.852861 
L 768.476875 118.852861 
" clip-path="url(#p6802c917b1)" style="fill: none; stroke: #000000; stroke-opacity: 0.3; stroke-width: 1.5; stroke-linecap: square"/>
   </g>
   <g id="patch_10">
    <path d="M 98.876875 450.72 
L 98.876875 85.010526 
" style="fill: none; stroke: #010101; stroke-width: 0.8; stroke-linejoin: miter; stroke-linecap: square"/>
   </g>
   <g id="patch_11">
    <path d="M 768.476875 450.72 
L 768.476875 85.010526 
" style="fill: none; stroke: #010101; stroke-width: 0.8; stroke-linejoin: miter; stroke-linecap: square"/>
   </g>
   <g id="patch_12">
    <path d="M 98.876875 450.72 
L 768.476875 450.72 
" style="fill: none; stroke: #010101; stroke-width: 0.8; stroke-linejoin: miter; stroke-linecap: square"/>
   </g>
   <g id="patch_13">
    <path d="M 98.876875 85.010526 
L 768.476875 85.010526 
" style="fill: none; stroke: #010101; stroke-width: 0.8; stroke-linejoin: miter; stroke-linecap: square"/>
   </g>
   <g id="text_18">
    <!-- -11.75% -->
    <g style="fill: #010101" transform="translate(142.1651 226.608397) scale(0.11 -0.11)">
     <defs>
      <path id="DejaVuSans-2d" d="M 313 2009 
L 1997 2009 
L 1997 1497 
L 313 1497 
L 313 2009 
z
" transform="scale(0.015625)"/>
      <path id="DejaVuSans-25" d="M 4653 2053 
Q 4381 2053 4226 1822 
Q 4072 1591 4072 1178 
Q 4072 772 4226 539 
Q 4381 306 4653 306 
Q 4919 306 5073 539 
Q 5228 772 5228 1178 
Q 5228 1588 5073 1820 
Q 4919 2053 4653 2053 
z
M 4653 2450 
Q 5147 2450 5437 2106 
Q 5728 1763 5728 1178 
Q 5728 594 5436 251 
Q 5144 -91 4653 -91 
Q 4153 -91 3862 251 
Q 3572 594 3572 1178 
Q 3572 1766 3864 2108 
Q 4156 2450 4653 2450 
z
M 1428 4353 
Q 1159 4353 1004 4120 
Q 850 3888 850 3481 
Q 850 3069 1003 2837 
Q 1156 2606 1428 2606 
Q 1700 2606 1854 2837 
Q 2009 3069 2009 3481 
Q 2009 3884 1853 4118 
Q 1697 4353 1428 4353 
z
M 4250 4750 
L 4750 4750 
L 1831 -91 
L 1331 -91 
L 4250 4750 
z
M 1428 4750 
Q 1922 4750 2215 4408 
Q 2509 4066 2509 3481 
Q 2509 2891 2217 2550 
Q 1925 2209 1428 2209 
Q 931 2209 642 2551 
Q 353 2894 353 3481 
Q 353 4063 643 4406 
Q 934 4750 1428 4750 
z
" transform="scale(0.015625)"/>
     </defs>
     <use xlink:href="#DejaVuSans-2d"/>
     <use xlink:href="#DejaVuSans-31" transform="translate(36.083984 0)"/>
     <use xlink:href="#DejaVuSans-31" transform="translate(99.707031 0)"/>
     <use xlink:href="#DejaVuSans-2e" transform="translate(163.330078 0)"/>
     <use xlink:href="#DejaVuSans-37" transform="translate(195.117188 0)"/>
     <use xlink:href="#DejaVuSans-35" transform="translate(258.740234 0)"/>
     <use xlink:href="#DejaVuSans-25" transform="translate(322.363281 0)"/>
    </g>
   </g>
   <g id="text_19">
    <!-- -3.89% -->
    <g style="fill: #010101" transform="translate(235.183192 160.10769) scale(0.11 -0.11)">
     <defs>
      <path id="DejaVuSans-33" d="M 2597 2516 
Q 3050 2419 3304 2112 
Q 3559 1806 3559 1356 
Q 3559 666 3084 287 
Q 2609 -91 1734 -91 
Q 1441 -91 1130 -33 
Q 819 25 488 141 
L 488 750 
Q 750 597 1062 519 
Q 1375 441 1716 441 
Q 2309 441 2620 675 
Q 2931 909 2931 1356 
Q 2931 1769 2642 2001 
Q 2353 2234 1838 2234 
L 1294 2234 
L 1294 2753 
L 1863 2753 
Q 2328 2753 2575 2939 
Q 2822 3125 2822 3475 
Q 2822 3834 2567 4026 
Q 2313 4219 1838 4219 
Q 1578 4219 1281 4162 
Q 984 4106 628 3988 
L 628 4550 
Q 988 4650 1302 4700 
Q 1616 4750 1894 4750 
Q 2613 4750 3031 4423 
Q 3450 4097 3450 3541 
Q 3450 3153 3228 2886 
Q 3006 2619 2597 2516 
z
" transform="scale(0.015625)"/>
      <path id="DejaVuSans-38" d="M 2034 2216 
Q 1584 2216 1326 1975 
Q 1069 1734 1069 1313 
Q 1069 891 1326 650 
Q 1584 409 2034 409 
Q 2484 409 2743 651 
Q 3003 894 3003 1313 
Q 3003 1734 2745 1975 
Q 2488 2216 2034 2216 
z
M 1403 2484 
Q 997 2584 770 2862 
Q 544 3141 544 3541 
Q 544 4100 942 4425 
Q 1341 4750 2034 4750 
Q 2731 4750 3128 4425 
Q 3525 4100 3525 3541 
Q 3525 3141 3298 2862 
Q 3072 2584 2669 2484 
Q 3125 2378 3379 2068 
Q 3634 1759 3634 1313 
Q 3634 634 3220 271 
Q 2806 -91 2034 -91 
Q 1263 -91 848 271 
Q 434 634 434 1313 
Q 434 1759 690 2068 
Q 947 2378 1403 2484 
z
M 1172 3481 
Q 1172 3119 1398 2916 
Q 1625 2713 2034 2713 
Q 2441 2713 2670 2916 
Q 2900 3119 2900 3481 
Q 2900 3844 2670 4047 
Q 2441 4250 2034 4250 
Q 1625 4250 1398 4047 
Q 1172 3844 1172 3481 
z
" transform="scale(0.015625)"/>
      <path id="DejaVuSans-39" d="M 703 97 
L 703 672 
Q 941 559 1184 500 
Q 1428 441 1663 441 
Q 2288 441 2617 861 
Q 2947 1281 2994 2138 
Q 2813 1869 2534 1725 
Q 2256 1581 1919 1581 
Q 1219 1581 811 2004 
Q 403 2428 403 3163 
Q 403 3881 828 4315 
Q 1253 4750 1959 4750 
Q 2769 4750 3195 4129 
Q 3622 3509 3622 2328 
Q 3622 1225 3098 567 
Q 2575 -91 1691 -91 
Q 1453 -91 1209 -44 
Q 966 3 703 97 
z
M 1959 2075 
Q 2384 2075 2632 2365 
Q 2881 2656 2881 3163 
Q 2881 3666 2632 3958 
Q 2384 4250 1959 4250 
Q 1534 4250 1286 3958 
Q 1038 3666 1038 3163 
Q 1038 2656 1286 2365 
Q 1534 2075 1959 2075 
z
" transform="scale(0.015625)"/>
     </defs>
     <use xlink:href="#DejaVuSans-2d"/>
     <use xlink:href="#DejaVuSans-33" transform="translate(36.083984 0)"/>
     <use xlink:href="#DejaVuSans-2e" transform="translate(99.707031 0)"/>
     <use xlink:href="#DejaVuSans-38" transform="translate(131.494141 0)"/>
     <use xlink:href="#DejaVuSans-39" transform="translate(195.117188 0)"/>
     <use xlink:href="#DejaVuSans-25" transform="translate(258.740234 0)"/>
    </g>
   </g>
   <g id="text_20">
    <!-- -10.34% -->
    <g style="fill: #010101" transform="translate(321.202533 214.656468) scale(0.11 -0.11)">
     <defs>
      <path id="DejaVuSans-34" d="M 2419 4116 
L 825 1625 
L 2419 1625 
L 2419 4116 
z
M 2253 4666 
L 3047 4666 
L 3047 1625 
L 3713 1625 
L 3713 1100 
L 3047 1100 
L 3047 0 
L 2419 0 
L 2419 1100 
L 313 1100 
L 313 1709 
L 2253 4666 
z
" transform="scale(0.015625)"/>
     </defs>
     <use xlink:href="#DejaVuSans-2d"/>
     <use xlink:href="#DejaVuSans-31" transform="translate(36.083984 0)"/>
     <use xlink:href="#DejaVuSans-30" transform="translate(99.707031 0)"/>
     <use xlink:href="#DejaVuSans-2e" transform="translate(163.330078 0)"/>
     <use xlink:href="#DejaVuSans-33" transform="translate(195.117188 0)"/>
     <use xlink:href="#DejaVuSans-34" transform="translate(258.740234 0)"/>
     <use xlink:href="#DejaVuSans-25" transform="translate(322.363281 0)"/>
    </g>
   </g>
   <g id="text_21">
    <!-- -17.83% -->
    <g style="fill: #010101" transform="translate(410.72125 278.059842) scale(0.11 -0.11)">
     <use xlink:href="#DejaVuSans-2d"/>
     <use xlink:href="#DejaVuSans-31" transform="translate(36.083984 0)"/>
     <use xlink:href="#DejaVuSans-37" transform="translate(99.707031 0)"/>
     <use xlink:href="#DejaVuSans-2e" transform="translate(163.330078 0)"/>
     <use xlink:href="#DejaVuSans-38" transform="translate(195.117188 0)"/>
     <use xlink:href="#DejaVuSans-33" transform="translate(258.740234 0)"/>
     <use xlink:href="#DejaVuSans-25" transform="translate(322.363281 0)"/>
    </g>
   </g>
   <g id="text_22">
    <!-- -10.23% -->
    <g style="fill: #010101" transform="translate(500.239967 213.76732) scale(0.11 -0.11)">
     <use xlink:href="#DejaVuSans-2d"/>
     <use xlink:href="#DejaVuSans-31" transform="translate(36.083984 0)"/>
     <use xlink:href="#DejaVuSans-30" transform="translate(99.707031 0)"/>
     <use xlink:href="#DejaVuSans-2e" transform="translate(163.330078 0)"/>
     <use xlink:href="#DejaVuSans-32" transform="translate(195.117188 0)"/>
     <use xlink:href="#DejaVuSans-33" transform="translate(258.740234 0)"/>
     <use xlink:href="#DejaVuSans-25" transform="translate(322.363281 0)"/>
    </g>
   </g>
   <g id="text_23">
    <!-- -17.72% -->
    <g style="fill: #010101" transform="translate(589.758683 277.132396) scale(0.11 -0.11)">
     <use xlink:href="#DejaVuSans-2d"/>
     <use xlink:href="#DejaVuSans-31" transform="translate(36.083984 0)"/>
     <use xlink:href="#DejaVuSans-37" transform="translate(99.707031 0)"/>
     <use xlink:href="#DejaVuSans-2e" transform="translate(163.330078 0)"/>
     <use xlink:href="#DejaVuSans-37" transform="translate(195.117188 0)"/>
     <use xlink:href="#DejaVuSans-32" transform="translate(258.740234 0)"/>
     <use xlink:href="#DejaVuSans-25" transform="translate(322.363281 0)"/>
    </g>
   </g>
   <g id="text_24">
    <!-- -0.09% -->
    <g style="fill: #010101" transform="translate(682.776775 128.772288) scale(0.11 -0.11)">
     <use xlink:href="#DejaVuSans-2d"/>
     <use xlink:href="#DejaVuSans-30" transform="translate(36.083984 0)"/>
     <use xlink:href="#DejaVuSans-2e" transform="translate(99.707031 0)"/>
     <use xlink:href="#DejaVuSans-30" transform="translate(131.494141 0)"/>
     <use xlink:href="#DejaVuSans-39" transform="translate(195.117188 0)"/>
     <use xlink:href="#DejaVuSans-25" transform="translate(258.740234 0)"/>
    </g>
   </g>
   <g id="legend_1">
    <g id="patch_14">
     <path d="M 105.876875 445.72 
L 184.758125 445.72 
Q 186.758125 445.72 186.758125 443.72 
L 186.758125 415.36375 
Q 186.758125 413.36375 184.758125 413.36375 
L 105.876875 413.36375 
Q 103.876875 413.36375 103.876875 415.36375 
L 103.876875 443.72 
Q 103.876875 445.72 105.876875 445.72 
z
" style="fill: #ffffff; opacity: 0.8; stroke: #cccccc; stroke-linejoin: miter"/>
    </g>
    <g id="patch_15">
     <path d="M 107.876875 424.962187 
L 127.876875 424.962187 
L 127.876875 417.962187 
L 107.876875 417.962187 
z
" style="fill: #33acd1; opacity: 0.85"/>
    </g>
    <g id="text_25">
     <!-- Decrease -->
     <g style="fill: #010101" transform="translate(135.876875 424.962187) scale(0.1 -0.1)">
      <defs>
       <path id="DejaVuSans-44" d="M 1259 4147 
L 1259 519 
L 2022 519 
Q 2988 519 3436 956 
Q 3884 1394 3884 2338 
Q 3884 3275 3436 3711 
Q 2988 4147 2022 4147 
L 1259 4147 
z
M 628 4666 
L 1925 4666 
Q 3281 4666 3915 4102 
Q 4550 3538 4550 2338 
Q 4550 1131 3912 565 
Q 3275 0 1925 0 
L 628 0 
L 628 4666 
z
" transform="scale(0.015625)"/>
       <path id="DejaVuSans-65" d="M 3597 1894 
L 3597 1613 
L 953 1613 
Q 991 1019 1311 708 
Q 1631 397 2203 397 
Q 2534 397 2845 478 
Q 3156 559 3463 722 
L 3463 178 
Q 3153 47 2828 -22 
Q 2503 -91 2169 -91 
Q 1331 -91 842 396 
Q 353 884 353 1716 
Q 353 2575 817 3079 
Q 1281 3584 2069 3584 
Q 2775 3584 3186 3129 
Q 3597 2675 3597 1894 
z
M 3022 2063 
Q 3016 2534 2758 2815 
Q 2500 3097 2075 3097 
Q 1594 3097 1305 2825 
Q 1016 2553 972 2059 
L 3022 2063 
z
" transform="scale(0.015625)"/>
       <path id="DejaVuSans-63" d="M 3122 3366 
L 3122 2828 
Q 2878 2963 2633 3030 
Q 2388 3097 2138 3097 
Q 1578 3097 1268 2742 
Q 959 2388 959 1747 
Q 959 1106 1268 751 
Q 1578 397 2138 397 
Q 2388 397 2633 464 
Q 2878 531 3122 666 
L 3122 134 
Q 2881 22 2623 -34 
Q 2366 -91 2075 -91 
Q 1284 -91 818 406 
Q 353 903 353 1747 
Q 353 2603 823 3093 
Q 1294 3584 2113 3584 
Q 2378 3584 2631 3529 
Q 2884 3475 3122 3366 
z
" transform="scale(0.015625)"/>
       <path id="DejaVuSans-72" d="M 2631 2963 
Q 2534 3019 2420 3045 
Q 2306 3072 2169 3072 
Q 1681 3072 1420 2755 
Q 1159 2438 1159 1844 
L 1159 0 
L 581 0 
L 581 3500 
L 1159 3500 
L 1159 2956 
Q 1341 3275 1631 3429 
Q 1922 3584 2338 3584 
Q 2397 3584 2469 3576 
Q 2541 3569 2628 3553 
L 2631 2963 
z
" transform="scale(0.015625)"/>
       <path id="DejaVuSans-61" d="M 2194 1759 
Q 1497 1759 1228 1600 
Q 959 1441 959 1056 
Q 959 750 1161 570 
Q 1363 391 1709 391 
Q 2188 391 2477 730 
Q 2766 1069 2766 1631 
L 2766 1759 
L 2194 1759 
z
M 3341 1997 
L 3341 0 
L 2766 0 
L 2766 531 
Q 2569 213 2275 61 
Q 1981 -91 1556 -91 
Q 1019 -91 701 211 
Q 384 513 384 1019 
Q 384 1609 779 1909 
Q 1175 2209 1959 2209 
L 2766 2209 
L 2766 2266 
Q 2766 2663 2505 2880 
Q 2244 3097 1772 3097 
Q 1472 3097 1187 3025 
Q 903 2953 641 2809 
L 641 3341 
Q 956 3463 1253 3523 
Q 1550 3584 1831 3584 
Q 2591 3584 2966 3190 
Q 3341 2797 3341 1997 
z
" transform="scale(0.015625)"/>
       <path id="DejaVuSans-73" d="M 2834 3397 
L 2834 2853 
Q 2591 2978 2328 3040 
Q 2066 3103 1784 3103 
Q 1356 3103 1142 2972 
Q 928 2841 928 2578 
Q 928 2378 1081 2264 
Q 1234 2150 1697 2047 
L 1894 2003 
Q 2506 1872 2764 1633 
Q 3022 1394 3022 966 
Q 3022 478 2636 193 
Q 2250 -91 1575 -91 
Q 1294 -91 989 -36 
Q 684 19 347 128 
L 347 722 
Q 666 556 975 473 
Q 1284 391 1588 391 
Q 1994 391 2212 530 
Q 2431 669 2431 922 
Q 2431 1156 2273 1281 
Q 2116 1406 1581 1522 
L 1381 1569 
Q 847 1681 609 1914 
Q 372 2147 372 2553 
Q 372 3047 722 3315 
Q 1072 3584 1716 3584 
Q 2034 3584 2315 3537 
Q 2597 3491 2834 3397 
z
" transform="scale(0.015625)"/>
      </defs>
      <use xlink:href="#DejaVuSans-44"/>
      <use xlink:href="#DejaVuSans-65" transform="translate(77.001953 0)"/>
      <use xlink:href="#DejaVuSans-63" transform="translate(138.525391 0)"/>
      <use xlink:href="#DejaVuSans-72" transform="translate(193.505859 0)"/>
      <use xlink:href="#DejaVuSans-65" transform="translate(232.369141 0)"/>
      <use xlink:href="#DejaVuSans-61" transform="translate(293.892578 0)"/>
      <use xlink:href="#DejaVuSans-73" transform="translate(355.171875 0)"/>
      <use xlink:href="#DejaVuSans-65" transform="translate(407.271484 0)"/>
     </g>
    </g>
    <g id="patch_16">
     <path d="M 107.876875 439.640312 
L 127.876875 439.640312 
L 127.876875 432.640312 
L 107.876875 432.640312 
z
" style="fill: #edd175; opacity: 0.85"/>
    </g>
    <g id="text_26">
     <!-- Increase -->
     <g style="fill: #010101" transform="translate(135.876875 439.640312) scale(0.1 -0.1)">
      <defs>
       <path id="DejaVuSans-49" d="M 628 4666 
L 1259 4666 
L 1259 0 
L 628 0 
L 628 4666 
z
" transform="scale(0.015625)"/>
       <path id="DejaVuSans-6e" d="M 3513 2113 
L 3513 0 
L 2938 0 
L 2938 2094 
Q 2938 2591 2744 2837 
Q 2550 3084 2163 3084 
Q 1697 3084 1428 2787 
Q 1159 2491 1159 1978 
L 1159 0 
L 581 0 
L 581 3500 
L 1159 3500 
L 1159 2956 
Q 1366 3272 1645 3428 
Q 1925 3584 2291 3584 
Q 2894 3584 3203 3211 
Q 3513 2838 3513 2113 
z
" transform="scale(0.015625)"/>
      </defs>
      <use xlink:href="#DejaVuSans-49"/>
      <use xlink:href="#DejaVuSans-6e" transform="translate(29.492188 0)"/>
      <use xlink:href="#DejaVuSans-63" transform="translate(92.871094 0)"/>
      <use xlink:href="#DejaVuSans-72" transform="translate(147.851562 0)"/>
      <use xlink:href="#DejaVuSans-65" transform="translate(186.714844 0)"/>
      <use xlink:href="#DejaVuSans-61" transform="translate(248.238281 0)"/>
      <use xlink:href="#DejaVuSans-73" transform="translate(309.517578 0)"/>
      <use xlink:href="#DejaVuSans-65" transform="translate(361.617188 0)"/>
     </g>
    </g>
   </g>
  </g>
 </g>
 <defs>
  <clipPath id="p6802c917b1">
   <rect x="98.876875" y="85.010526" width="669.6" height="365.709474"/>
  </clipPath>
 </defs>
</svg>
