<?xml version="1.0" encoding="utf-8" standalone="no"?>
<!DOCTYPE svg PUBLIC "-//W3C//DTD SVG 1.1//EN"
  "http://www.w3.org/Graphics/SVG/1.1/DTD/svg11.dtd">
<svg xmlns:xlink="http://www.w3.org/1999/xlink" width="855.155446pt" height="568.450173pt" viewBox="0 0 855.155446 568.450173" xmlns="http://www.w3.org/2000/svg" version="1.1">
 <metadata>
  <rdf:RDF xmlns:dc="http://purl.org/dc/elements/1.1/" xmlns:cc="http://creativecommons.org/ns#" xmlns:rdf="http://www.w3.org/1999/02/22-rdf-syntax-ns#">
   <cc:Work>
    <dc:type rdf:resource="http://purl.org/dc/dcmitype/StillImage"/>
    <dc:date>2026-04-22T22:30:19.447952</dc:date>
    <dc:format>image/svg+xml</dc:format>
    <dc:creator>
     <cc:Agent>
      <dc:title>Matplotlib v3.10.7, https://matplotlib.org/</dc:title>
     </cc:Agent>
    </dc:creator>
   </cc:Work>
  </rdf:RDF>
 </metadata>
 <defs>
  <style type="text/css">*{stroke-linejoin: round; stroke-linecap: butt}</style>
 </defs>
 <g id="figure_1">
  <g id="patch_1">
   <path d="M 0 568.450173 
L 855.155446 568.450173 
L 855.155446 0 
L 0 0 
z
" style="fill: #ffffff"/>
  </g>
  <g id="axes_1">
   <g id="patch_2">
    <path d="M 53.4075 521.858276 
L 847.955446 521.858276 
L 847.955446 37.837812 
L 53.4075 37.837812 
z
" style="fill: #ffffff"/>
   </g>
   <g id="patch_3">
    <path d="M 89.523316 130577.415073 
L 119.494947 130577.415073 
L 119.494947 493.681823 
L 89.523316 493.681823 
z
" clip-path="url(#pb21067ddde)" style="fill: #ff0000; opacity: 0.85; stroke: #000000; stroke-width: 0.5; stroke-linejoin: miter"/>
   </g>
   <g id="patch_4">
    <path d="M 284.338919 130577.415073 
L 314.310551 130577.415073 
L 314.310551 241.332124 
L 284.338919 241.332124 
z
" clip-path="url(#pb21067ddde)" style="fill: #ff0000; opacity: 0.85; stroke: #000000; stroke-width: 0.5; stroke-linejoin: miter"/>
   </g>
   <g id="patch_5">
    <path d="M 479.154523 130577.415073 
L 509.126154 130577.415073 
L 509.126154 193.474585 
L 479.154523 193.474585 
z
" clip-path="url(#pb21067ddde)" style="fill: #ff0000; opacity: 0.85; stroke: #000000; stroke-width: 0.5; stroke-linejoin: miter"/>
   </g>
   <g id="patch_6">
    <path d="M 673.970126 130577.415073 
L 703.941758 130577.415073 
L 703.941758 61.973125 
L 673.970126 61.973125 
z
" clip-path="url(#pb21067ddde)" style="fill: #ff0000; opacity: 0.85; stroke: #000000; stroke-width: 0.5; stroke-linejoin: miter"/>
   </g>
   <g id="patch_7">
    <path d="M 125.489273 130577.415073 
L 155.460905 130577.415073 
L 155.460905 495.139059 
L 125.489273 495.139059 
z
" clip-path="url(#pb21067ddde)" style="fill: #d4dd80; opacity: 0.85; stroke: #000000; stroke-width: 0.5; stroke-linejoin: miter"/>
   </g>
   <g id="patch_8">
    <path d="M 320.304877 130577.415073 
L 350.276508 130577.415073 
L 350.276508 243.267609 
L 320.304877 243.267609 
z
" clip-path="url(#pb21067ddde)" style="fill: #d4dd80; opacity: 0.85; stroke: #000000; stroke-width: 0.5; stroke-linejoin: miter"/>
   </g>
   <g id="patch_9">
    <path d="M 515.12048 130577.415073 
L 545.092112 130577.415073 
L 545.092112 190.572513 
L 515.12048 190.572513 
z
" clip-path="url(#pb21067ddde)" style="fill: #d4dd80; opacity: 0.85; stroke: #000000; stroke-width: 0.5; stroke-linejoin: miter"/>
   </g>
   <g id="patch_10">
    <path d="M 709.936084 130577.415073 
L 739.907715 130577.415073 
L 739.907715 64.282822 
L 709.936084 64.282822 
z
" clip-path="url(#pb21067ddde)" style="fill: #d4dd80; opacity: 0.85; stroke: #000000; stroke-width: 0.5; stroke-linejoin: miter"/>
   </g>
   <g id="patch_11">
    <path d="M 161.455231 130577.415073 
L 191.426862 130577.415073 
L 191.426862 491.522636 
L 161.455231 491.522636 
z
" clip-path="url(#pb21067ddde)" style="fill: #2adddd; opacity: 0.85; stroke: #000000; stroke-width: 0.5; stroke-linejoin: miter"/>
   </g>
   <g id="patch_12">
    <path d="M 356.270834 130577.415073 
L 386.242466 130577.415073 
L 386.242466 239.891701 
L 356.270834 239.891701 
z
" clip-path="url(#pb21067ddde)" style="fill: #2adddd; opacity: 0.85; stroke: #000000; stroke-width: 0.5; stroke-linejoin: miter"/>
   </g>
   <g id="patch_13">
    <path d="M 551.086438 130577.415073 
L 581.058069 130577.415073 
L 581.058069 192.093729 
L 551.086438 192.093729 
z
" clip-path="url(#pb21067ddde)" style="fill: #2adddd; opacity: 0.85; stroke: #000000; stroke-width: 0.5; stroke-linejoin: miter"/>
   </g>
   <g id="patch_14">
    <path d="M 745.902041 130577.415073 
L 775.873673 130577.415073 
L 775.873673 59.838743 
L 745.902041 59.838743 
z
" clip-path="url(#pb21067ddde)" style="fill: #2adddd; opacity: 0.85; stroke: #000000; stroke-width: 0.5; stroke-linejoin: miter"/>
   </g>
   <g id="patch_15">
    <path d="M 197.421188 130577.415073 
L 227.39282 130577.415073 
L 227.39282 499.857346 
L 197.421188 499.857346 
z
" clip-path="url(#pb21067ddde)" style="fill: #8000ff; opacity: 0.85; stroke: #000000; stroke-width: 0.5; stroke-linejoin: miter"/>
   </g>
   <g id="patch_16">
    <path d="M 392.236792 130577.415073 
L 422.208423 130577.415073 
L 422.208423 244.05801 
L 392.236792 244.05801 
z
" clip-path="url(#pb21067ddde)" style="fill: #8000ff; opacity: 0.85; stroke: #000000; stroke-width: 0.5; stroke-linejoin: miter"/>
   </g>
   <g id="patch_17">
    <path d="M 587.052396 130577.415073 
L 617.024027 130577.415073 
L 617.024027 193.673548 
L 587.052396 193.673548 
z
" clip-path="url(#pb21067ddde)" style="fill: #8000ff; opacity: 0.85; stroke: #000000; stroke-width: 0.5; stroke-linejoin: miter"/>
   </g>
   <g id="patch_18">
    <path d="M 781.867999 130577.415073 
L 811.83963 130577.415073 
L 811.83963 68.761888 
L 781.867999 68.761888 
z
" clip-path="url(#pb21067ddde)" style="fill: #8000ff; opacity: 0.85; stroke: #000000; stroke-width: 0.5; stroke-linejoin: miter"/>
   </g>
   <g id="matplotlib.axis_1">
    <g id="xtick_1">
     <g id="line2d_1">
      <defs>
       <path id="m04a32040ce" d="M 0 0 
L 0 3.5 
" style="stroke: #010101; stroke-width: 0.8"/>
      </defs>
      <g>
       <use xlink:href="#m04a32040ce" x="158.458068" y="521.858276" style="fill: #010101; stroke: #010101; stroke-width: 0.8"/>
      </g>
     </g>
     <g id="text_1">
      <!-- W_net -->
      <g style="fill: #010101" transform="translate(127.218608 552.553322) rotate(-30) scale(0.1 -0.1)">
       <defs>
        <path id="DejaVuSans-Bold-57" d="M 191 4666 
L 1344 4666 
L 2150 1275 
L 2950 4666 
L 4109 4666 
L 4909 1275 
L 5716 4666 
L 6859 4666 
L 5759 0 
L 4372 0 
L 3525 3547 
L 2688 0 
L 1300 0 
L 191 4666 
z
" transform="scale(0.015625)"/>
        <path id="DejaVuSans-Bold-5f" d="M 3200 -916 
L 3200 -1509 
L 0 -1509 
L 0 -916 
L 3200 -916 
z
" transform="scale(0.015625)"/>
        <path id="DejaVuSans-Bold-6e" d="M 4056 2131 
L 4056 0 
L 2931 0 
L 2931 347 
L 2931 1631 
Q 2931 2084 2911 2256 
Q 2891 2428 2841 2509 
Q 2775 2619 2662 2680 
Q 2550 2741 2406 2741 
Q 2056 2741 1856 2470 
Q 1656 2200 1656 1722 
L 1656 0 
L 538 0 
L 538 3500 
L 1656 3500 
L 1656 2988 
Q 1909 3294 2193 3439 
Q 2478 3584 2822 3584 
Q 3428 3584 3742 3212 
Q 4056 2841 4056 2131 
z
" transform="scale(0.015625)"/>
        <path id="DejaVuSans-Bold-65" d="M 4031 1759 
L 4031 1441 
L 1416 1441 
Q 1456 1047 1700 850 
Q 1944 653 2381 653 
Q 2734 653 3104 758 
Q 3475 863 3866 1075 
L 3866 213 
Q 3469 63 3072 -14 
Q 2675 -91 2278 -91 
Q 1328 -91 801 392 
Q 275 875 275 1747 
Q 275 2603 792 3093 
Q 1309 3584 2216 3584 
Q 3041 3584 3536 3087 
Q 4031 2591 4031 1759 
z
M 2881 2131 
Q 2881 2450 2695 2645 
Q 2509 2841 2209 2841 
Q 1884 2841 1681 2658 
Q 1478 2475 1428 2131 
L 2881 2131 
z
" transform="scale(0.015625)"/>
        <path id="DejaVuSans-Bold-74" d="M 1759 4494 
L 1759 3500 
L 2913 3500 
L 2913 2700 
L 1759 2700 
L 1759 1216 
Q 1759 972 1856 886 
Q 1953 800 2241 800 
L 2816 800 
L 2816 0 
L 1856 0 
Q 1194 0 917 276 
Q 641 553 641 1216 
L 641 2700 
L 84 2700 
L 84 3500 
L 641 3500 
L 641 4494 
L 1759 4494 
z
" transform="scale(0.015625)"/>
       </defs>
       <use xlink:href="#DejaVuSans-Bold-57"/>
       <use xlink:href="#DejaVuSans-Bold-5f" transform="translate(110.302734 0)"/>
       <use xlink:href="#DejaVuSans-Bold-6e" transform="translate(160.302734 0)"/>
       <use xlink:href="#DejaVuSans-Bold-65" transform="translate(231.494141 0)"/>
       <use xlink:href="#DejaVuSans-Bold-74" transform="translate(299.316406 0)"/>
      </g>
     </g>
    </g>
    <g id="xtick_2">
     <g id="line2d_2">
      <g>
       <use xlink:href="#m04a32040ce" x="353.273671" y="521.858276" style="fill: #010101; stroke: #010101; stroke-width: 0.8"/>
      </g>
     </g>
     <g id="text_2">
      <!-- avg_rho -->
      <g style="fill: #010101" transform="translate(313.690598 557.611373) rotate(-30) scale(0.1 -0.1)">
       <defs>
        <path id="DejaVuSans-Bold-61" d="M 2106 1575 
Q 1756 1575 1579 1456 
Q 1403 1338 1403 1106 
Q 1403 894 1545 773 
Q 1688 653 1941 653 
Q 2256 653 2472 879 
Q 2688 1106 2688 1447 
L 2688 1575 
L 2106 1575 
z
M 3816 1997 
L 3816 0 
L 2688 0 
L 2688 519 
Q 2463 200 2181 54 
Q 1900 -91 1497 -91 
Q 953 -91 614 226 
Q 275 544 275 1050 
Q 275 1666 698 1953 
Q 1122 2241 2028 2241 
L 2688 2241 
L 2688 2328 
Q 2688 2594 2478 2717 
Q 2269 2841 1825 2841 
Q 1466 2841 1156 2769 
Q 847 2697 581 2553 
L 581 3406 
Q 941 3494 1303 3539 
Q 1666 3584 2028 3584 
Q 2975 3584 3395 3211 
Q 3816 2838 3816 1997 
z
" transform="scale(0.015625)"/>
        <path id="DejaVuSans-Bold-76" d="M 97 3500 
L 1216 3500 
L 2088 1081 
L 2956 3500 
L 4078 3500 
L 2700 0 
L 1472 0 
L 97 3500 
z
" transform="scale(0.015625)"/>
        <path id="DejaVuSans-Bold-67" d="M 2919 594 
Q 2688 288 2409 144 
Q 2131 0 1766 0 
Q 1125 0 706 504 
Q 288 1009 288 1791 
Q 288 2575 706 3076 
Q 1125 3578 1766 3578 
Q 2131 3578 2409 3434 
Q 2688 3291 2919 2981 
L 2919 3500 
L 4044 3500 
L 4044 353 
Q 4044 -491 3511 -936 
Q 2978 -1381 1966 -1381 
Q 1638 -1381 1331 -1331 
Q 1025 -1281 716 -1178 
L 716 -306 
Q 1009 -475 1290 -558 
Q 1572 -641 1856 -641 
Q 2406 -641 2662 -400 
Q 2919 -159 2919 353 
L 2919 594 
z
M 2181 2772 
Q 1834 2772 1640 2515 
Q 1447 2259 1447 1791 
Q 1447 1309 1634 1061 
Q 1822 813 2181 813 
Q 2531 813 2725 1069 
Q 2919 1325 2919 1791 
Q 2919 2259 2725 2515 
Q 2531 2772 2181 2772 
z
" transform="scale(0.015625)"/>
        <path id="DejaVuSans-Bold-72" d="M 3138 2547 
Q 2991 2616 2845 2648 
Q 2700 2681 2553 2681 
Q 2122 2681 1889 2404 
Q 1656 2128 1656 1613 
L 1656 0 
L 538 0 
L 538 3500 
L 1656 3500 
L 1656 2925 
Q 1872 3269 2151 3426 
Q 2431 3584 2822 3584 
Q 2878 3584 2943 3579 
Q 3009 3575 3134 3559 
L 3138 2547 
z
" transform="scale(0.015625)"/>
        <path id="DejaVuSans-Bold-68" d="M 4056 2131 
L 4056 0 
L 2931 0 
L 2931 347 
L 2931 1625 
Q 2931 2084 2911 2256 
Q 2891 2428 2841 2509 
Q 2775 2619 2662 2680 
Q 2550 2741 2406 2741 
Q 2056 2741 1856 2470 
Q 1656 2200 1656 1722 
L 1656 0 
L 538 0 
L 538 4863 
L 1656 4863 
L 1656 2988 
Q 1909 3294 2193 3439 
Q 2478 3584 2822 3584 
Q 3428 3584 3742 3212 
Q 4056 2841 4056 2131 
z
" transform="scale(0.015625)"/>
        <path id="DejaVuSans-Bold-6f" d="M 2203 2784 
Q 1831 2784 1636 2517 
Q 1441 2250 1441 1747 
Q 1441 1244 1636 976 
Q 1831 709 2203 709 
Q 2569 709 2762 976 
Q 2956 1244 2956 1747 
Q 2956 2250 2762 2517 
Q 2569 2784 2203 2784 
z
M 2203 3584 
Q 3106 3584 3614 3096 
Q 4122 2609 4122 1747 
Q 4122 884 3614 396 
Q 3106 -91 2203 -91 
Q 1297 -91 786 396 
Q 275 884 275 1747 
Q 275 2609 786 3096 
Q 1297 3584 2203 3584 
z
" transform="scale(0.015625)"/>
       </defs>
       <use xlink:href="#DejaVuSans-Bold-61"/>
       <use xlink:href="#DejaVuSans-Bold-76" transform="translate(67.480469 0)"/>
       <use xlink:href="#DejaVuSans-Bold-67" transform="translate(132.666016 0)"/>
       <use xlink:href="#DejaVuSans-Bold-5f" transform="translate(204.248047 0)"/>
       <use xlink:href="#DejaVuSans-Bold-72" transform="translate(254.248047 0)"/>
       <use xlink:href="#DejaVuSans-Bold-68" transform="translate(303.564453 0)"/>
       <use xlink:href="#DejaVuSans-Bold-6f" transform="translate(374.755859 0)"/>
      </g>
     </g>
    </g>
    <g id="xtick_3">
     <g id="line2d_3">
      <g>
       <use xlink:href="#m04a32040ce" x="548.089275" y="521.858276" style="fill: #010101; stroke: #010101; stroke-width: 0.8"/>
      </g>
     </g>
     <g id="text_3">
      <!-- max_rho -->
      <g style="fill: #010101" transform="translate(505.740333 559.208248) rotate(-30) scale(0.1 -0.1)">
       <defs>
        <path id="DejaVuSans-Bold-6d" d="M 3781 2919 
Q 3994 3244 4286 3414 
Q 4578 3584 4928 3584 
Q 5531 3584 5847 3212 
Q 6163 2841 6163 2131 
L 6163 0 
L 5038 0 
L 5038 1825 
Q 5041 1866 5042 1909 
Q 5044 1953 5044 2034 
Q 5044 2406 4934 2573 
Q 4825 2741 4581 2741 
Q 4263 2741 4089 2478 
Q 3916 2216 3909 1719 
L 3909 0 
L 2784 0 
L 2784 1825 
Q 2784 2406 2684 2573 
Q 2584 2741 2328 2741 
Q 2006 2741 1831 2477 
Q 1656 2213 1656 1722 
L 1656 0 
L 531 0 
L 531 3500 
L 1656 3500 
L 1656 2988 
Q 1863 3284 2130 3434 
Q 2397 3584 2719 3584 
Q 3081 3584 3359 3409 
Q 3638 3234 3781 2919 
z
" transform="scale(0.015625)"/>
        <path id="DejaVuSans-Bold-78" d="M 1422 1791 
L 159 3500 
L 1344 3500 
L 2059 2463 
L 2784 3500 
L 3969 3500 
L 2706 1797 
L 4031 0 
L 2847 0 
L 2059 1106 
L 1281 0 
L 97 0 
L 1422 1791 
z
" transform="scale(0.015625)"/>
       </defs>
       <use xlink:href="#DejaVuSans-Bold-6d"/>
       <use xlink:href="#DejaVuSans-Bold-61" transform="translate(104.199219 0)"/>
       <use xlink:href="#DejaVuSans-Bold-78" transform="translate(171.679688 0)"/>
       <use xlink:href="#DejaVuSans-Bold-5f" transform="translate(236.181641 0)"/>
       <use xlink:href="#DejaVuSans-Bold-72" transform="translate(286.181641 0)"/>
       <use xlink:href="#DejaVuSans-Bold-68" transform="translate(335.498047 0)"/>
       <use xlink:href="#DejaVuSans-Bold-6f" transform="translate(406.689453 0)"/>
      </g>
     </g>
    </g>
    <g id="xtick_4">
     <g id="line2d_4">
      <g>
       <use xlink:href="#m04a32040ce" x="742.904878" y="521.858276" style="fill: #010101; stroke: #010101; stroke-width: 0.8"/>
      </g>
     </g>
     <g id="text_4">
      <!-- L_net -->
      <g style="fill: #010101" transform="translate(715.699202 550.224416) rotate(-30) scale(0.1 -0.1)">
       <defs>
        <path id="DejaVuSans-Bold-4c" d="M 588 4666 
L 1791 4666 
L 1791 909 
L 3903 909 
L 3903 0 
L 588 0 
L 588 4666 
z
" transform="scale(0.015625)"/>
       </defs>
       <use xlink:href="#DejaVuSans-Bold-4c"/>
       <use xlink:href="#DejaVuSans-Bold-5f" transform="translate(63.720703 0)"/>
       <use xlink:href="#DejaVuSans-Bold-6e" transform="translate(113.720703 0)"/>
       <use xlink:href="#DejaVuSans-Bold-65" transform="translate(184.912109 0)"/>
       <use xlink:href="#DejaVuSans-Bold-74" transform="translate(252.734375 0)"/>
      </g>
     </g>
    </g>
   </g>
   <g id="matplotlib.axis_2">
    <g id="ytick_1">
     <g id="line2d_5">
      <path d="M 53.4075 433.524822 
L 847.955446 433.524822 
" clip-path="url(#pb21067ddde)" style="fill: none; stroke-dasharray: 2.96,1.28; stroke-dashoffset: 0; stroke: #555555; stroke-opacity: 0.7; stroke-width: 0.8"/>
     </g>
     <g id="line2d_6">
      <defs>
       <path id="mf344215509" d="M 0 0 
L -3.5 0 
" style="stroke: #010101; stroke-width: 0.8"/>
      </defs>
      <g>
       <use xlink:href="#mf344215509" x="53.4075" y="433.524822" style="fill: #010101; stroke: #010101; stroke-width: 0.8"/>
      </g>
     </g>
     <g id="text_5">
      <!-- $\mathdefault{10^{-2}}$ -->
      <g style="fill: #010101" transform="translate(22.9075 437.324041) scale(0.1 -0.1)">
       <defs>
        <path id="DejaVuSans-31" d="M 794 531 
L 1825 531 
L 1825 4091 
L 703 3866 
L 703 4441 
L 1819 4666 
L 2450 4666 
L 2450 531 
L 3481 531 
L 3481 0 
L 794 0 
L 794 531 
z
" transform="scale(0.015625)"/>
        <path id="DejaVuSans-30" d="M 2034 4250 
Q 1547 4250 1301 3770 
Q 1056 3291 1056 2328 
Q 1056 1369 1301 889 
Q 1547 409 2034 409 
Q 2525 409 2770 889 
Q 3016 1369 3016 2328 
Q 3016 3291 2770 3770 
Q 2525 4250 2034 4250 
z
M 2034 4750 
Q 2819 4750 3233 4129 
Q 3647 3509 3647 2328 
Q 3647 1150 3233 529 
Q 2819 -91 2034 -91 
Q 1250 -91 836 529 
Q 422 1150 422 2328 
Q 422 3509 836 4129 
Q 1250 4750 2034 4750 
z
" transform="scale(0.015625)"/>
        <path id="DejaVuSans-2212" d="M 678 2272 
L 4684 2272 
L 4684 1741 
L 678 1741 
L 678 2272 
z
" transform="scale(0.015625)"/>
        <path id="DejaVuSans-32" d="M 1228 531 
L 3431 531 
L 3431 0 
L 469 0 
L 469 531 
Q 828 903 1448 1529 
Q 2069 2156 2228 2338 
Q 2531 2678 2651 2914 
Q 2772 3150 2772 3378 
Q 2772 3750 2511 3984 
Q 2250 4219 1831 4219 
Q 1534 4219 1204 4116 
Q 875 4013 500 3803 
L 500 4441 
Q 881 4594 1212 4672 
Q 1544 4750 1819 4750 
Q 2544 4750 2975 4387 
Q 3406 4025 3406 3419 
Q 3406 3131 3298 2873 
Q 3191 2616 2906 2266 
Q 2828 2175 2409 1742 
Q 1991 1309 1228 531 
z
" transform="scale(0.015625)"/>
       </defs>
       <use xlink:href="#DejaVuSans-31" transform="translate(0 0.765625)"/>
       <use xlink:href="#DejaVuSans-30" transform="translate(63.623047 0.765625)"/>
       <use xlink:href="#DejaVuSans-2212" transform="translate(128.203125 39.046875) scale(0.7)"/>
       <use xlink:href="#DejaVuSans-32" transform="translate(186.855469 39.046875) scale(0.7)"/>
      </g>
     </g>
    </g>
    <g id="ytick_2">
     <g id="line2d_7">
      <path d="M 53.4075 303.120123 
L 847.955446 303.120123 
" clip-path="url(#pb21067ddde)" style="fill: none; stroke-dasharray: 2.96,1.28; stroke-dashoffset: 0; stroke: #555555; stroke-opacity: 0.7; stroke-width: 0.8"/>
     </g>
     <g id="line2d_8">
      <g>
       <use xlink:href="#mf344215509" x="53.4075" y="303.120123" style="fill: #010101; stroke: #010101; stroke-width: 0.8"/>
      </g>
     </g>
     <g id="text_6">
      <!-- $\mathdefault{10^{-1}}$ -->
      <g style="fill: #010101" transform="translate(22.9075 306.919341) scale(0.1 -0.1)">
       <use xlink:href="#DejaVuSans-31" transform="translate(0 0.684375)"/>
       <use xlink:href="#DejaVuSans-30" transform="translate(63.623047 0.684375)"/>
       <use xlink:href="#DejaVuSans-2212" transform="translate(128.203125 38.965625) scale(0.7)"/>
       <use xlink:href="#DejaVuSans-31" transform="translate(186.855469 38.965625) scale(0.7)"/>
      </g>
     </g>
    </g>
    <g id="ytick_3">
     <g id="line2d_9">
      <path d="M 53.4075 172.715423 
L 847.955446 172.715423 
" clip-path="url(#pb21067ddde)" style="fill: none; stroke-dasharray: 2.96,1.28; stroke-dashoffset: 0; stroke: #555555; stroke-opacity: 0.7; stroke-width: 0.8"/>
     </g>
     <g id="line2d_10">
      <g>
       <use xlink:href="#mf344215509" x="53.4075" y="172.715423" style="fill: #010101; stroke: #010101; stroke-width: 0.8"/>
      </g>
     </g>
     <g id="text_7">
      <!-- $\mathdefault{10^{0}}$ -->
      <g style="fill: #010101" transform="translate(28.8075 176.514642) scale(0.1 -0.1)">
       <use xlink:href="#DejaVuSans-31" transform="translate(0 0.765625)"/>
       <use xlink:href="#DejaVuSans-30" transform="translate(63.623047 0.765625)"/>
       <use xlink:href="#DejaVuSans-30" transform="translate(128.203125 39.046875) scale(0.7)"/>
      </g>
     </g>
    </g>
    <g id="ytick_4">
     <g id="line2d_11">
      <path d="M 53.4075 42.310723 
L 847.955446 42.310723 
" clip-path="url(#pb21067ddde)" style="fill: none; stroke-dasharray: 2.96,1.28; stroke-dashoffset: 0; stroke: #555555; stroke-opacity: 0.7; stroke-width: 0.8"/>
     </g>
     <g id="line2d_12">
      <g>
       <use xlink:href="#mf344215509" x="53.4075" y="42.310723" style="fill: #010101; stroke: #010101; stroke-width: 0.8"/>
      </g>
     </g>
     <g id="text_8">
      <!-- $\mathdefault{10^{1}}$ -->
      <g style="fill: #010101" transform="translate(28.8075 46.109942) scale(0.1 -0.1)">
       <use xlink:href="#DejaVuSans-31" transform="translate(0 0.684375)"/>
       <use xlink:href="#DejaVuSans-30" transform="translate(63.623047 0.684375)"/>
       <use xlink:href="#DejaVuSans-31" transform="translate(128.203125 38.965625) scale(0.7)"/>
      </g>
     </g>
    </g>
    <g id="ytick_5">
     <g id="line2d_13">
      <defs>
       <path id="mc87b6cb015" d="M 0 0 
L -2 0 
" style="stroke: #010101; stroke-width: 0.6"/>
      </defs>
      <g>
       <use xlink:href="#mc87b6cb015" x="53.4075" y="501.710668" style="fill: #010101; stroke: #010101; stroke-width: 0.6"/>
      </g>
     </g>
    </g>
    <g id="ytick_6">
     <g id="line2d_14">
      <g>
       <use xlink:href="#mc87b6cb015" x="53.4075" y="485.41807" style="fill: #010101; stroke: #010101; stroke-width: 0.6"/>
      </g>
     </g>
    </g>
    <g id="ytick_7">
     <g id="line2d_15">
      <g>
       <use xlink:href="#mc87b6cb015" x="53.4075" y="472.780548" style="fill: #010101; stroke: #010101; stroke-width: 0.6"/>
      </g>
     </g>
    </g>
    <g id="ytick_8">
     <g id="line2d_16">
      <g>
       <use xlink:href="#mc87b6cb015" x="53.4075" y="462.454942" style="fill: #010101; stroke: #010101; stroke-width: 0.6"/>
      </g>
     </g>
    </g>
    <g id="ytick_9">
     <g id="line2d_17">
      <g>
       <use xlink:href="#mc87b6cb015" x="53.4075" y="453.724766" style="fill: #010101; stroke: #010101; stroke-width: 0.6"/>
      </g>
     </g>
    </g>
    <g id="ytick_10">
     <g id="line2d_18">
      <g>
       <use xlink:href="#mc87b6cb015" x="53.4075" y="446.162343" style="fill: #010101; stroke: #010101; stroke-width: 0.6"/>
      </g>
     </g>
    </g>
    <g id="ytick_11">
     <g id="line2d_19">
      <g>
       <use xlink:href="#mc87b6cb015" x="53.4075" y="439.491814" style="fill: #010101; stroke: #010101; stroke-width: 0.6"/>
      </g>
     </g>
    </g>
    <g id="ytick_12">
     <g id="line2d_20">
      <g>
       <use xlink:href="#mc87b6cb015" x="53.4075" y="394.269096" style="fill: #010101; stroke: #010101; stroke-width: 0.6"/>
      </g>
     </g>
    </g>
    <g id="ytick_13">
     <g id="line2d_21">
      <g>
       <use xlink:href="#mc87b6cb015" x="53.4075" y="371.305968" style="fill: #010101; stroke: #010101; stroke-width: 0.6"/>
      </g>
     </g>
    </g>
    <g id="ytick_14">
     <g id="line2d_22">
      <g>
       <use xlink:href="#mc87b6cb015" x="53.4075" y="355.01337" style="fill: #010101; stroke: #010101; stroke-width: 0.6"/>
      </g>
     </g>
    </g>
    <g id="ytick_15">
     <g id="line2d_23">
      <g>
       <use xlink:href="#mc87b6cb015" x="53.4075" y="342.375849" style="fill: #010101; stroke: #010101; stroke-width: 0.6"/>
      </g>
     </g>
    </g>
    <g id="ytick_16">
     <g id="line2d_24">
      <g>
       <use xlink:href="#mc87b6cb015" x="53.4075" y="332.050242" style="fill: #010101; stroke: #010101; stroke-width: 0.6"/>
      </g>
     </g>
    </g>
    <g id="ytick_17">
     <g id="line2d_25">
      <g>
       <use xlink:href="#mc87b6cb015" x="53.4075" y="323.320066" style="fill: #010101; stroke: #010101; stroke-width: 0.6"/>
      </g>
     </g>
    </g>
    <g id="ytick_18">
     <g id="line2d_26">
      <g>
       <use xlink:href="#mc87b6cb015" x="53.4075" y="315.757644" style="fill: #010101; stroke: #010101; stroke-width: 0.6"/>
      </g>
     </g>
    </g>
    <g id="ytick_19">
     <g id="line2d_27">
      <g>
       <use xlink:href="#mc87b6cb015" x="53.4075" y="309.087114" style="fill: #010101; stroke: #010101; stroke-width: 0.6"/>
      </g>
     </g>
    </g>
    <g id="ytick_20">
     <g id="line2d_28">
      <g>
       <use xlink:href="#mc87b6cb015" x="53.4075" y="263.864396" style="fill: #010101; stroke: #010101; stroke-width: 0.6"/>
      </g>
     </g>
    </g>
    <g id="ytick_21">
     <g id="line2d_29">
      <g>
       <use xlink:href="#mc87b6cb015" x="53.4075" y="240.901269" style="fill: #010101; stroke: #010101; stroke-width: 0.6"/>
      </g>
     </g>
    </g>
    <g id="ytick_22">
     <g id="line2d_30">
      <g>
       <use xlink:href="#mc87b6cb015" x="53.4075" y="224.60867" style="fill: #010101; stroke: #010101; stroke-width: 0.6"/>
      </g>
     </g>
    </g>
    <g id="ytick_23">
     <g id="line2d_31">
      <g>
       <use xlink:href="#mc87b6cb015" x="53.4075" y="211.971149" style="fill: #010101; stroke: #010101; stroke-width: 0.6"/>
      </g>
     </g>
    </g>
    <g id="ytick_24">
     <g id="line2d_32">
      <g>
       <use xlink:href="#mc87b6cb015" x="53.4075" y="201.645543" style="fill: #010101; stroke: #010101; stroke-width: 0.6"/>
      </g>
     </g>
    </g>
    <g id="ytick_25">
     <g id="line2d_33">
      <g>
       <use xlink:href="#mc87b6cb015" x="53.4075" y="192.915367" style="fill: #010101; stroke: #010101; stroke-width: 0.6"/>
      </g>
     </g>
    </g>
    <g id="ytick_26">
     <g id="line2d_34">
      <g>
       <use xlink:href="#mc87b6cb015" x="53.4075" y="185.352944" style="fill: #010101; stroke: #010101; stroke-width: 0.6"/>
      </g>
     </g>
    </g>
    <g id="ytick_27">
     <g id="line2d_35">
      <g>
       <use xlink:href="#mc87b6cb015" x="53.4075" y="178.682415" style="fill: #010101; stroke: #010101; stroke-width: 0.6"/>
      </g>
     </g>
    </g>
    <g id="ytick_28">
     <g id="line2d_36">
      <g>
       <use xlink:href="#mc87b6cb015" x="53.4075" y="133.459697" style="fill: #010101; stroke: #010101; stroke-width: 0.6"/>
      </g>
     </g>
    </g>
    <g id="ytick_29">
     <g id="line2d_37">
      <g>
       <use xlink:href="#mc87b6cb015" x="53.4075" y="110.496569" style="fill: #010101; stroke: #010101; stroke-width: 0.6"/>
      </g>
     </g>
    </g>
    <g id="ytick_30">
     <g id="line2d_38">
      <g>
       <use xlink:href="#mc87b6cb015" x="53.4075" y="94.203971" style="fill: #010101; stroke: #010101; stroke-width: 0.6"/>
      </g>
     </g>
    </g>
    <g id="ytick_31">
     <g id="line2d_39">
      <g>
       <use xlink:href="#mc87b6cb015" x="53.4075" y="81.56645" style="fill: #010101; stroke: #010101; stroke-width: 0.6"/>
      </g>
     </g>
    </g>
    <g id="ytick_32">
     <g id="line2d_40">
      <g>
       <use xlink:href="#mc87b6cb015" x="53.4075" y="71.240843" style="fill: #010101; stroke: #010101; stroke-width: 0.6"/>
      </g>
     </g>
    </g>
    <g id="ytick_33">
     <g id="line2d_41">
      <g>
       <use xlink:href="#mc87b6cb015" x="53.4075" y="62.510667" style="fill: #010101; stroke: #010101; stroke-width: 0.6"/>
      </g>
     </g>
    </g>
    <g id="ytick_34">
     <g id="line2d_42">
      <g>
       <use xlink:href="#mc87b6cb015" x="53.4075" y="54.948244" style="fill: #010101; stroke: #010101; stroke-width: 0.6"/>
      </g>
     </g>
    </g>
    <g id="ytick_35">
     <g id="line2d_43">
      <g>
       <use xlink:href="#mc87b6cb015" x="53.4075" y="48.277715" style="fill: #010101; stroke: #010101; stroke-width: 0.6"/>
      </g>
     </g>
    </g>
    <g id="text_9">
     <!-- Value (log scale) -->
     <g style="fill: #010101" transform="translate(16.318125 336.047419) rotate(-90) scale(0.12 -0.12)">
      <defs>
       <path id="DejaVuSans-Bold-56" d="M 31 4666 
L 1241 4666 
L 2478 1222 
L 3713 4666 
L 4922 4666 
L 3194 0 
L 1759 0 
L 31 4666 
z
" transform="scale(0.015625)"/>
       <path id="DejaVuSans-Bold-6c" d="M 538 4863 
L 1656 4863 
L 1656 0 
L 538 0 
L 538 4863 
z
" transform="scale(0.015625)"/>
       <path id="DejaVuSans-Bold-75" d="M 500 1363 
L 500 3500 
L 1625 3500 
L 1625 3150 
Q 1625 2866 1622 2436 
Q 1619 2006 1619 1863 
Q 1619 1441 1641 1255 
Q 1663 1069 1716 984 
Q 1784 875 1895 815 
Q 2006 756 2150 756 
Q 2500 756 2700 1025 
Q 2900 1294 2900 1772 
L 2900 3500 
L 4019 3500 
L 4019 0 
L 2900 0 
L 2900 506 
Q 2647 200 2364 54 
Q 2081 -91 1741 -91 
Q 1134 -91 817 281 
Q 500 653 500 1363 
z
" transform="scale(0.015625)"/>
       <path id="DejaVuSans-Bold-20" transform="scale(0.015625)"/>
       <path id="DejaVuSans-Bold-28" d="M 2413 -844 
L 1484 -844 
Q 1006 -72 778 623 
Q 550 1319 550 2003 
Q 550 2688 779 3389 
Q 1009 4091 1484 4856 
L 2413 4856 
Q 2013 4116 1813 3408 
Q 1613 2700 1613 2009 
Q 1613 1319 1811 609 
Q 2009 -100 2413 -844 
z
" transform="scale(0.015625)"/>
       <path id="DejaVuSans-Bold-73" d="M 3272 3391 
L 3272 2541 
Q 2913 2691 2578 2766 
Q 2244 2841 1947 2841 
Q 1628 2841 1473 2761 
Q 1319 2681 1319 2516 
Q 1319 2381 1436 2309 
Q 1553 2238 1856 2203 
L 2053 2175 
Q 2913 2066 3209 1816 
Q 3506 1566 3506 1031 
Q 3506 472 3093 190 
Q 2681 -91 1863 -91 
Q 1516 -91 1145 -36 
Q 775 19 384 128 
L 384 978 
Q 719 816 1070 734 
Q 1422 653 1784 653 
Q 2113 653 2278 743 
Q 2444 834 2444 1013 
Q 2444 1163 2330 1236 
Q 2216 1309 1875 1350 
L 1678 1375 
Q 931 1469 631 1722 
Q 331 1975 331 2491 
Q 331 3047 712 3315 
Q 1094 3584 1881 3584 
Q 2191 3584 2531 3537 
Q 2872 3491 3272 3391 
z
" transform="scale(0.015625)"/>
       <path id="DejaVuSans-Bold-63" d="M 3366 3391 
L 3366 2478 
Q 3138 2634 2908 2709 
Q 2678 2784 2431 2784 
Q 1963 2784 1702 2511 
Q 1441 2238 1441 1747 
Q 1441 1256 1702 982 
Q 1963 709 2431 709 
Q 2694 709 2930 787 
Q 3166 866 3366 1019 
L 3366 103 
Q 3103 6 2833 -42 
Q 2563 -91 2291 -91 
Q 1344 -91 809 395 
Q 275 881 275 1747 
Q 275 2613 809 3098 
Q 1344 3584 2291 3584 
Q 2566 3584 2833 3536 
Q 3100 3488 3366 3391 
z
" transform="scale(0.015625)"/>
       <path id="DejaVuSans-Bold-29" d="M 513 -844 
Q 913 -100 1113 609 
Q 1313 1319 1313 2009 
Q 1313 2700 1113 3408 
Q 913 4116 513 4856 
L 1441 4856 
Q 1916 4091 2145 3389 
Q 2375 2688 2375 2003 
Q 2375 1319 2147 623 
Q 1919 -72 1441 -844 
L 513 -844 
z
" transform="scale(0.015625)"/>
      </defs>
      <use xlink:href="#DejaVuSans-Bold-56"/>
      <use xlink:href="#DejaVuSans-Bold-61" transform="translate(71.892578 0)"/>
      <use xlink:href="#DejaVuSans-Bold-6c" transform="translate(139.373047 0)"/>
      <use xlink:href="#DejaVuSans-Bold-75" transform="translate(173.650391 0)"/>
      <use xlink:href="#DejaVuSans-Bold-65" transform="translate(244.841797 0)"/>
      <use xlink:href="#DejaVuSans-Bold-20" transform="translate(312.664062 0)"/>
      <use xlink:href="#DejaVuSans-Bold-28" transform="translate(347.478516 0)"/>
      <use xlink:href="#DejaVuSans-Bold-6c" transform="translate(393.181641 0)"/>
      <use xlink:href="#DejaVuSans-Bold-6f" transform="translate(427.458984 0)"/>
      <use xlink:href="#DejaVuSans-Bold-67" transform="translate(496.160156 0)"/>
      <use xlink:href="#DejaVuSans-Bold-20" transform="translate(567.742188 0)"/>
      <use xlink:href="#DejaVuSans-Bold-73" transform="translate(602.556641 0)"/>
      <use xlink:href="#DejaVuSans-Bold-63" transform="translate(662.078125 0)"/>
      <use xlink:href="#DejaVuSans-Bold-61" transform="translate(721.355469 0)"/>
      <use xlink:href="#DejaVuSans-Bold-6c" transform="translate(788.835938 0)"/>
      <use xlink:href="#DejaVuSans-Bold-65" transform="translate(823.113281 0)"/>
      <use xlink:href="#DejaVuSans-Bold-29" transform="translate(890.935547 0)"/>
     </g>
    </g>
   </g>
   <g id="patch_19">
    <path d="M 53.4075 521.858276 
L 53.4075 37.837812 
" style="fill: none; stroke: #010101; stroke-width: 0.8; stroke-linejoin: miter; stroke-linecap: square"/>
   </g>
   <g id="patch_20">
    <path d="M 847.955446 521.858276 
L 847.955446 37.837812 
" style="fill: none; stroke: #010101; stroke-width: 0.8; stroke-linejoin: miter; stroke-linecap: square"/>
   </g>
   <g id="patch_21">
    <path d="M 53.4075 521.858276 
L 847.955446 521.858276 
" style="fill: none; stroke: #010101; stroke-width: 0.8; stroke-linejoin: miter; stroke-linecap: square"/>
   </g>
   <g id="patch_22">
    <path d="M 53.4075 37.837812 
L 847.955446 37.837812 
" style="fill: none; stroke: #010101; stroke-width: 0.8; stroke-linejoin: miter; stroke-linecap: square"/>
   </g>
   <g id="text_10">
    <g id="patch_23">
     <path d="M 111.348194 490.918639 
L 111.348194 446.167076 
Q 111.348194 444.167076 109.348194 444.167076 
L 99.670069 444.167076 
Q 97.670069 444.167076 97.670069 446.167076 
L 97.670069 490.918639 
Q 97.670069 492.918639 99.670069 492.918639 
L 109.348194 492.918639 
Q 111.348194 492.918639 111.348194 490.918639 
z
" style="fill: #ffffff; opacity: 0.75"/>
    </g>
    <!-- 3.46e-03 -->
    <g style="fill: #010101" transform="translate(107.268506 490.918639) rotate(-90) scale(0.1 -0.1)">
     <defs>
      <path id="DejaVuSans-33" d="M 2597 2516 
Q 3050 2419 3304 2112 
Q 3559 1806 3559 1356 
Q 3559 666 3084 287 
Q 2609 -91 1734 -91 
Q 1441 -91 1130 -33 
Q 819 25 488 141 
L 488 750 
Q 750 597 1062 519 
Q 1375 441 1716 441 
Q 2309 441 2620 675 
Q 2931 909 2931 1356 
Q 2931 1769 2642 2001 
Q 2353 2234 1838 2234 
L 1294 2234 
L 1294 2753 
L 1863 2753 
Q 2328 2753 2575 2939 
Q 2822 3125 2822 3475 
Q 2822 3834 2567 4026 
Q 2313 4219 1838 4219 
Q 1578 4219 1281 4162 
Q 984 4106 628 3988 
L 628 4550 
Q 988 4650 1302 4700 
Q 1616 4750 1894 4750 
Q 2613 4750 3031 4423 
Q 3450 4097 3450 3541 
Q 3450 3153 3228 2886 
Q 3006 2619 2597 2516 
z
" transform="scale(0.015625)"/>
      <path id="DejaVuSans-2e" d="M 684 794 
L 1344 794 
L 1344 0 
L 684 0 
L 684 794 
z
" transform="scale(0.015625)"/>
      <path id="DejaVuSans-34" d="M 2419 4116 
L 825 1625 
L 2419 1625 
L 2419 4116 
z
M 2253 4666 
L 3047 4666 
L 3047 1625 
L 3713 1625 
L 3713 1100 
L 3047 1100 
L 3047 0 
L 2419 0 
L 2419 1100 
L 313 1100 
L 313 1709 
L 2253 4666 
z
" transform="scale(0.015625)"/>
      <path id="DejaVuSans-36" d="M 2113 2584 
Q 1688 2584 1439 2293 
Q 1191 2003 1191 1497 
Q 1191 994 1439 701 
Q 1688 409 2113 409 
Q 2538 409 2786 701 
Q 3034 994 3034 1497 
Q 3034 2003 2786 2293 
Q 2538 2584 2113 2584 
z
M 3366 4563 
L 3366 3988 
Q 3128 4100 2886 4159 
Q 2644 4219 2406 4219 
Q 1781 4219 1451 3797 
Q 1122 3375 1075 2522 
Q 1259 2794 1537 2939 
Q 1816 3084 2150 3084 
Q 2853 3084 3261 2657 
Q 3669 2231 3669 1497 
Q 3669 778 3244 343 
Q 2819 -91 2113 -91 
Q 1303 -91 875 529 
Q 447 1150 447 2328 
Q 447 3434 972 4092 
Q 1497 4750 2381 4750 
Q 2619 4750 2861 4703 
Q 3103 4656 3366 4563 
z
" transform="scale(0.015625)"/>
      <path id="DejaVuSans-65" d="M 3597 1894 
L 3597 1613 
L 953 1613 
Q 991 1019 1311 708 
Q 1631 397 2203 397 
Q 2534 397 2845 478 
Q 3156 559 3463 722 
L 3463 178 
Q 3153 47 2828 -22 
Q 2503 -91 2169 -91 
Q 1331 -91 842 396 
Q 353 884 353 1716 
Q 353 2575 817 3079 
Q 1281 3584 2069 3584 
Q 2775 3584 3186 3129 
Q 3597 2675 3597 1894 
z
M 3022 2063 
Q 3016 2534 2758 2815 
Q 2500 3097 2075 3097 
Q 1594 3097 1305 2825 
Q 1016 2553 972 2059 
L 3022 2063 
z
" transform="scale(0.015625)"/>
      <path id="DejaVuSans-2d" d="M 313 2009 
L 1997 2009 
L 1997 1497 
L 313 1497 
L 313 2009 
z
" transform="scale(0.015625)"/>
     </defs>
     <use xlink:href="#DejaVuSans-33"/>
     <use xlink:href="#DejaVuSans-2e" transform="translate(63.623047 0)"/>
     <use xlink:href="#DejaVuSans-34" transform="translate(95.410156 0)"/>
     <use xlink:href="#DejaVuSans-36" transform="translate(159.033203 0)"/>
     <use xlink:href="#DejaVuSans-65" transform="translate(222.65625 0)"/>
     <use xlink:href="#DejaVuSans-2d" transform="translate(284.179688 0)"/>
     <use xlink:href="#DejaVuSans-30" transform="translate(320.263672 0)"/>
     <use xlink:href="#DejaVuSans-33" transform="translate(383.886719 0)"/>
    </g>
   </g>
   <g id="text_11">
    <g id="patch_24">
     <path d="M 306.163797 238.56894 
L 306.163797 209.940815 
Q 306.163797 207.940815 304.163797 207.940815 
L 294.485672 207.940815 
Q 292.485672 207.940815 292.485672 209.940815 
L 292.485672 238.56894 
Q 292.485672 240.56894 294.485672 240.56894 
L 304.163797 240.56894 
Q 306.163797 240.56894 306.163797 238.56894 
z
" style="fill: #ffffff; opacity: 0.75"/>
    </g>
    <!-- 0.298 -->
    <g style="fill: #010101" transform="translate(302.08411 238.56894) rotate(-90) scale(0.1 -0.1)">
     <defs>
      <path id="DejaVuSans-39" d="M 703 97 
L 703 672 
Q 941 559 1184 500 
Q 1428 441 1663 441 
Q 2288 441 2617 861 
Q 2947 1281 2994 2138 
Q 2813 1869 2534 1725 
Q 2256 1581 1919 1581 
Q 1219 1581 811 2004 
Q 403 2428 403 3163 
Q 403 3881 828 4315 
Q 1253 4750 1959 4750 
Q 2769 4750 3195 4129 
Q 3622 3509 3622 2328 
Q 3622 1225 3098 567 
Q 2575 -91 1691 -91 
Q 1453 -91 1209 -44 
Q 966 3 703 97 
z
M 1959 2075 
Q 2384 2075 2632 2365 
Q 2881 2656 2881 3163 
Q 2881 3666 2632 3958 
Q 2384 4250 1959 4250 
Q 1534 4250 1286 3958 
Q 1038 3666 1038 3163 
Q 1038 2656 1286 2365 
Q 1534 2075 1959 2075 
z
" transform="scale(0.015625)"/>
      <path id="DejaVuSans-38" d="M 2034 2216 
Q 1584 2216 1326 1975 
Q 1069 1734 1069 1313 
Q 1069 891 1326 650 
Q 1584 409 2034 409 
Q 2484 409 2743 651 
Q 3003 894 3003 1313 
Q 3003 1734 2745 1975 
Q 2488 2216 2034 2216 
z
M 1403 2484 
Q 997 2584 770 2862 
Q 544 3141 544 3541 
Q 544 4100 942 4425 
Q 1341 4750 2034 4750 
Q 2731 4750 3128 4425 
Q 3525 4100 3525 3541 
Q 3525 3141 3298 2862 
Q 3072 2584 2669 2484 
Q 3125 2378 3379 2068 
Q 3634 1759 3634 1313 
Q 3634 634 3220 271 
Q 2806 -91 2034 -91 
Q 1263 -91 848 271 
Q 434 634 434 1313 
Q 434 1759 690 2068 
Q 947 2378 1403 2484 
z
M 1172 3481 
Q 1172 3119 1398 2916 
Q 1625 2713 2034 2713 
Q 2441 2713 2670 2916 
Q 2900 3119 2900 3481 
Q 2900 3844 2670 4047 
Q 2441 4250 2034 4250 
Q 1625 4250 1398 4047 
Q 1172 3844 1172 3481 
z
" transform="scale(0.015625)"/>
     </defs>
     <use xlink:href="#DejaVuSans-30"/>
     <use xlink:href="#DejaVuSans-2e" transform="translate(63.623047 0)"/>
     <use xlink:href="#DejaVuSans-32" transform="translate(95.410156 0)"/>
     <use xlink:href="#DejaVuSans-39" transform="translate(159.033203 0)"/>
     <use xlink:href="#DejaVuSans-38" transform="translate(222.65625 0)"/>
    </g>
   </g>
   <g id="text_12">
    <g id="patch_25">
     <path d="M 500.979401 190.7114 
L 500.979401 162.083275 
Q 500.979401 160.083275 498.979401 160.083275 
L 489.301276 160.083275 
Q 487.301276 160.083275 487.301276 162.083275 
L 487.301276 190.7114 
Q 487.301276 192.7114 489.301276 192.7114 
L 498.979401 192.7114 
Q 500.979401 192.7114 500.979401 190.7114 
z
" style="fill: #ffffff; opacity: 0.75"/>
    </g>
    <!-- 0.693 -->
    <g style="fill: #010101" transform="translate(496.899713 190.7114) rotate(-90) scale(0.1 -0.1)">
     <use xlink:href="#DejaVuSans-30"/>
     <use xlink:href="#DejaVuSans-2e" transform="translate(63.623047 0)"/>
     <use xlink:href="#DejaVuSans-36" transform="translate(95.410156 0)"/>
     <use xlink:href="#DejaVuSans-39" transform="translate(159.033203 0)"/>
     <use xlink:href="#DejaVuSans-33" transform="translate(222.65625 0)"/>
    </g>
   </g>
   <g id="text_13">
    <g id="patch_26">
     <path d="M 695.795004 59.209941 
L 695.795004 36.944316 
Q 695.795004 34.944316 693.795004 34.944316 
L 684.116879 34.944316 
Q 682.116879 34.944316 682.116879 36.944316 
L 682.116879 59.209941 
Q 682.116879 61.209941 684.116879 61.209941 
L 693.795004 61.209941 
Q 695.795004 61.209941 695.795004 59.209941 
z
" style="fill: #ffffff; opacity: 0.75"/>
    </g>
    <!-- 7.07 -->
    <g style="fill: #010101" transform="translate(691.715317 59.209941) rotate(-90) scale(0.1 -0.1)">
     <defs>
      <path id="DejaVuSans-37" d="M 525 4666 
L 3525 4666 
L 3525 4397 
L 1831 0 
L 1172 0 
L 2766 4134 
L 525 4134 
L 525 4666 
z
" transform="scale(0.015625)"/>
     </defs>
     <use xlink:href="#DejaVuSans-37"/>
     <use xlink:href="#DejaVuSans-2e" transform="translate(63.623047 0)"/>
     <use xlink:href="#DejaVuSans-30" transform="translate(95.410156 0)"/>
     <use xlink:href="#DejaVuSans-37" transform="translate(159.033203 0)"/>
    </g>
   </g>
   <g id="text_14">
    <g id="patch_27">
     <path d="M 147.314151 492.375875 
L 147.314151 447.624312 
Q 147.314151 445.624312 145.314151 445.624312 
L 135.636026 445.624312 
Q 133.636026 445.624312 133.636026 447.624312 
L 133.636026 492.375875 
Q 133.636026 494.375875 135.636026 494.375875 
L 145.314151 494.375875 
Q 147.314151 494.375875 147.314151 492.375875 
z
" style="fill: #ffffff; opacity: 0.75"/>
    </g>
    <!-- 3.37e-03 -->
    <g style="fill: #010101" transform="translate(143.234464 492.375875) rotate(-90) scale(0.1 -0.1)">
     <use xlink:href="#DejaVuSans-33"/>
     <use xlink:href="#DejaVuSans-2e" transform="translate(63.623047 0)"/>
     <use xlink:href="#DejaVuSans-33" transform="translate(95.410156 0)"/>
     <use xlink:href="#DejaVuSans-37" transform="translate(159.033203 0)"/>
     <use xlink:href="#DejaVuSans-65" transform="translate(222.65625 0)"/>
     <use xlink:href="#DejaVuSans-2d" transform="translate(284.179688 0)"/>
     <use xlink:href="#DejaVuSans-30" transform="translate(320.263672 0)"/>
     <use xlink:href="#DejaVuSans-33" transform="translate(383.886719 0)"/>
    </g>
   </g>
   <g id="text_15">
    <g id="patch_28">
     <path d="M 342.129755 240.504424 
L 342.129755 211.876299 
Q 342.129755 209.876299 340.129755 209.876299 
L 330.45163 209.876299 
Q 328.45163 209.876299 328.45163 211.876299 
L 328.45163 240.504424 
Q 328.45163 242.504424 330.45163 242.504424 
L 340.129755 242.504424 
Q 342.129755 242.504424 342.129755 240.504424 
z
" style="fill: #ffffff; opacity: 0.75"/>
    </g>
    <!-- 0.288 -->
    <g style="fill: #010101" transform="translate(338.050067 240.504424) rotate(-90) scale(0.1 -0.1)">
     <use xlink:href="#DejaVuSans-30"/>
     <use xlink:href="#DejaVuSans-2e" transform="translate(63.623047 0)"/>
     <use xlink:href="#DejaVuSans-32" transform="translate(95.410156 0)"/>
     <use xlink:href="#DejaVuSans-38" transform="translate(159.033203 0)"/>
     <use xlink:href="#DejaVuSans-38" transform="translate(222.65625 0)"/>
    </g>
   </g>
   <g id="text_16">
    <g id="patch_29">
     <path d="M 536.945359 187.809329 
L 536.945359 159.181204 
Q 536.945359 157.181204 534.945359 157.181204 
L 525.267234 157.181204 
Q 523.267234 157.181204 523.267234 159.181204 
L 523.267234 187.809329 
Q 523.267234 189.809329 525.267234 189.809329 
L 534.945359 189.809329 
Q 536.945359 189.809329 536.945359 187.809329 
z
" style="fill: #ffffff; opacity: 0.75"/>
    </g>
    <!-- 0.730 -->
    <g style="fill: #010101" transform="translate(532.865671 187.809329) rotate(-90) scale(0.1 -0.1)">
     <use xlink:href="#DejaVuSans-30"/>
     <use xlink:href="#DejaVuSans-2e" transform="translate(63.623047 0)"/>
     <use xlink:href="#DejaVuSans-37" transform="translate(95.410156 0)"/>
     <use xlink:href="#DejaVuSans-33" transform="translate(159.033203 0)"/>
     <use xlink:href="#DejaVuSans-30" transform="translate(222.65625 0)"/>
    </g>
   </g>
   <g id="text_17">
    <g id="patch_30">
     <path d="M 731.760962 61.519638 
L 731.760962 39.254013 
Q 731.760962 37.254013 729.760962 37.254013 
L 720.082837 37.254013 
Q 718.082837 37.254013 718.082837 39.254013 
L 718.082837 61.519638 
Q 718.082837 63.519638 720.082837 63.519638 
L 729.760962 63.519638 
Q 731.760962 63.519638 731.760962 61.519638 
z
" style="fill: #ffffff; opacity: 0.75"/>
    </g>
    <!-- 6.78 -->
    <g style="fill: #010101" transform="translate(727.681275 61.519638) rotate(-90) scale(0.1 -0.1)">
     <use xlink:href="#DejaVuSans-36"/>
     <use xlink:href="#DejaVuSans-2e" transform="translate(63.623047 0)"/>
     <use xlink:href="#DejaVuSans-37" transform="translate(95.410156 0)"/>
     <use xlink:href="#DejaVuSans-38" transform="translate(159.033203 0)"/>
    </g>
   </g>
   <g id="text_18">
    <g id="patch_31">
     <path d="M 183.280109 488.759451 
L 183.280109 444.007889 
Q 183.280109 442.007889 181.280109 442.007889 
L 171.601984 442.007889 
Q 169.601984 442.007889 169.601984 444.007889 
L 169.601984 488.759451 
Q 169.601984 490.759451 171.601984 490.759451 
L 181.280109 490.759451 
Q 183.280109 490.759451 183.280109 488.759451 
z
" style="fill: #ffffff; opacity: 0.75"/>
    </g>
    <!-- 3.59e-03 -->
    <g style="fill: #010101" transform="translate(179.200422 488.759451) rotate(-90) scale(0.1 -0.1)">
     <defs>
      <path id="DejaVuSans-35" d="M 691 4666 
L 3169 4666 
L 3169 4134 
L 1269 4134 
L 1269 2991 
Q 1406 3038 1543 3061 
Q 1681 3084 1819 3084 
Q 2600 3084 3056 2656 
Q 3513 2228 3513 1497 
Q 3513 744 3044 326 
Q 2575 -91 1722 -91 
Q 1428 -91 1123 -41 
Q 819 9 494 109 
L 494 744 
Q 775 591 1075 516 
Q 1375 441 1709 441 
Q 2250 441 2565 725 
Q 2881 1009 2881 1497 
Q 2881 1984 2565 2268 
Q 2250 2553 1709 2553 
Q 1456 2553 1204 2497 
Q 953 2441 691 2322 
L 691 4666 
z
" transform="scale(0.015625)"/>
     </defs>
     <use xlink:href="#DejaVuSans-33"/>
     <use xlink:href="#DejaVuSans-2e" transform="translate(63.623047 0)"/>
     <use xlink:href="#DejaVuSans-35" transform="translate(95.410156 0)"/>
     <use xlink:href="#DejaVuSans-39" transform="translate(159.033203 0)"/>
     <use xlink:href="#DejaVuSans-65" transform="translate(222.65625 0)"/>
     <use xlink:href="#DejaVuSans-2d" transform="translate(284.179688 0)"/>
     <use xlink:href="#DejaVuSans-30" transform="translate(320.263672 0)"/>
     <use xlink:href="#DejaVuSans-33" transform="translate(383.886719 0)"/>
    </g>
   </g>
   <g id="text_19">
    <g id="patch_32">
     <path d="M 378.095713 237.128516 
L 378.095713 208.500391 
Q 378.095713 206.500391 376.095713 206.500391 
L 366.417588 206.500391 
Q 364.417588 206.500391 364.417588 208.500391 
L 364.417588 237.128516 
Q 364.417588 239.128516 366.417588 239.128516 
L 376.095713 239.128516 
Q 378.095713 239.128516 378.095713 237.128516 
z
" style="fill: #ffffff; opacity: 0.75"/>
    </g>
    <!-- 0.305 -->
    <g style="fill: #010101" transform="translate(374.016025 237.128516) rotate(-90) scale(0.1 -0.1)">
     <use xlink:href="#DejaVuSans-30"/>
     <use xlink:href="#DejaVuSans-2e" transform="translate(63.623047 0)"/>
     <use xlink:href="#DejaVuSans-33" transform="translate(95.410156 0)"/>
     <use xlink:href="#DejaVuSans-30" transform="translate(159.033203 0)"/>
     <use xlink:href="#DejaVuSans-35" transform="translate(222.65625 0)"/>
    </g>
   </g>
   <g id="text_20">
    <g id="patch_33">
     <path d="M 572.911316 189.330544 
L 572.911316 160.702419 
Q 572.911316 158.702419 570.911316 158.702419 
L 561.233191 158.702419 
Q 559.233191 158.702419 559.233191 160.702419 
L 559.233191 189.330544 
Q 559.233191 191.330544 561.233191 191.330544 
L 570.911316 191.330544 
Q 572.911316 191.330544 572.911316 189.330544 
z
" style="fill: #ffffff; opacity: 0.75"/>
    </g>
    <!-- 0.710 -->
    <g style="fill: #010101" transform="translate(568.831629 189.330544) rotate(-90) scale(0.1 -0.1)">
     <use xlink:href="#DejaVuSans-30"/>
     <use xlink:href="#DejaVuSans-2e" transform="translate(63.623047 0)"/>
     <use xlink:href="#DejaVuSans-37" transform="translate(95.410156 0)"/>
     <use xlink:href="#DejaVuSans-31" transform="translate(159.033203 0)"/>
     <use xlink:href="#DejaVuSans-30" transform="translate(222.65625 0)"/>
    </g>
   </g>
   <g id="text_21">
    <g id="patch_34">
     <path d="M 767.72692 57.075558 
L 767.72692 34.809933 
Q 767.72692 32.809933 765.72692 32.809933 
L 756.048795 32.809933 
Q 754.048795 32.809933 754.048795 34.809933 
L 754.048795 57.075558 
Q 754.048795 59.075558 756.048795 59.075558 
L 765.72692 59.075558 
Q 767.72692 59.075558 767.72692 57.075558 
z
" style="fill: #ffffff; opacity: 0.75"/>
    </g>
    <!-- 7.34 -->
    <g style="fill: #010101" transform="translate(763.647232 57.075558) rotate(-90) scale(0.1 -0.1)">
     <use xlink:href="#DejaVuSans-37"/>
     <use xlink:href="#DejaVuSans-2e" transform="translate(63.623047 0)"/>
     <use xlink:href="#DejaVuSans-33" transform="translate(95.410156 0)"/>
     <use xlink:href="#DejaVuSans-34" transform="translate(159.033203 0)"/>
    </g>
   </g>
   <g id="text_22">
    <g id="patch_35">
     <path d="M 219.246067 497.094162 
L 219.246067 452.3426 
Q 219.246067 450.3426 217.246067 450.3426 
L 207.567942 450.3426 
Q 205.567942 450.3426 205.567942 452.3426 
L 205.567942 497.094162 
Q 205.567942 499.094162 207.567942 499.094162 
L 217.246067 499.094162 
Q 219.246067 499.094162 219.246067 497.094162 
z
" style="fill: #ffffff; opacity: 0.75"/>
    </g>
    <!-- 3.10e-03 -->
    <g style="fill: #010101" transform="translate(215.166379 497.094162) rotate(-90) scale(0.1 -0.1)">
     <use xlink:href="#DejaVuSans-33"/>
     <use xlink:href="#DejaVuSans-2e" transform="translate(63.623047 0)"/>
     <use xlink:href="#DejaVuSans-31" transform="translate(95.410156 0)"/>
     <use xlink:href="#DejaVuSans-30" transform="translate(159.033203 0)"/>
     <use xlink:href="#DejaVuSans-65" transform="translate(222.65625 0)"/>
     <use xlink:href="#DejaVuSans-2d" transform="translate(284.179688 0)"/>
     <use xlink:href="#DejaVuSans-30" transform="translate(320.263672 0)"/>
     <use xlink:href="#DejaVuSans-33" transform="translate(383.886719 0)"/>
    </g>
   </g>
   <g id="text_23">
    <g id="patch_36">
     <path d="M 414.06167 241.294826 
L 414.06167 212.666701 
Q 414.06167 210.666701 412.06167 210.666701 
L 402.383545 210.666701 
Q 400.383545 210.666701 400.383545 212.666701 
L 400.383545 241.294826 
Q 400.383545 243.294826 402.383545 243.294826 
L 412.06167 243.294826 
Q 414.06167 243.294826 414.06167 241.294826 
z
" style="fill: #ffffff; opacity: 0.75"/>
    </g>
    <!-- 0.284 -->
    <g style="fill: #010101" transform="translate(409.981983 241.294826) rotate(-90) scale(0.1 -0.1)">
     <use xlink:href="#DejaVuSans-30"/>
     <use xlink:href="#DejaVuSans-2e" transform="translate(63.623047 0)"/>
     <use xlink:href="#DejaVuSans-32" transform="translate(95.410156 0)"/>
     <use xlink:href="#DejaVuSans-38" transform="translate(159.033203 0)"/>
     <use xlink:href="#DejaVuSans-34" transform="translate(222.65625 0)"/>
    </g>
   </g>
   <g id="text_24">
    <g id="patch_37">
     <path d="M 608.877274 190.910364 
L 608.877274 162.282239 
Q 608.877274 160.282239 606.877274 160.282239 
L 597.199149 160.282239 
Q 595.199149 160.282239 595.199149 162.282239 
L 595.199149 190.910364 
Q 595.199149 192.910364 597.199149 192.910364 
L 606.877274 192.910364 
Q 608.877274 192.910364 608.877274 190.910364 
z
" style="fill: #ffffff; opacity: 0.75"/>
    </g>
    <!-- 0.691 -->
    <g style="fill: #010101" transform="translate(604.797586 190.910364) rotate(-90) scale(0.1 -0.1)">
     <use xlink:href="#DejaVuSans-30"/>
     <use xlink:href="#DejaVuSans-2e" transform="translate(63.623047 0)"/>
     <use xlink:href="#DejaVuSans-36" transform="translate(95.410156 0)"/>
     <use xlink:href="#DejaVuSans-39" transform="translate(159.033203 0)"/>
     <use xlink:href="#DejaVuSans-31" transform="translate(222.65625 0)"/>
    </g>
   </g>
   <g id="text_25">
    <g id="patch_38">
     <path d="M 803.692877 65.998704 
L 803.692877 43.733079 
Q 803.692877 41.733079 801.692877 41.733079 
L 792.014752 41.733079 
Q 790.014752 41.733079 790.014752 43.733079 
L 790.014752 65.998704 
Q 790.014752 67.998704 792.014752 67.998704 
L 801.692877 67.998704 
Q 803.692877 67.998704 803.692877 65.998704 
z
" style="fill: #ffffff; opacity: 0.75"/>
    </g>
    <!-- 6.27 -->
    <g style="fill: #010101" transform="translate(799.61319 65.998704) rotate(-90) scale(0.1 -0.1)">
     <use xlink:href="#DejaVuSans-36"/>
     <use xlink:href="#DejaVuSans-2e" transform="translate(63.623047 0)"/>
     <use xlink:href="#DejaVuSans-32" transform="translate(95.410156 0)"/>
     <use xlink:href="#DejaVuSans-37" transform="translate(159.033203 0)"/>
    </g>
   </g>
   <g id="text_26">
    <!-- Network Metrics: All Adaptations (Stochastic) -->
    <g style="fill: #010101" transform="translate(269.907567 17.837812) scale(0.14 -0.14)">
     <defs>
      <path id="DejaVuSans-Bold-4e" d="M 588 4666 
L 1931 4666 
L 3628 1466 
L 3628 4666 
L 4769 4666 
L 4769 0 
L 3425 0 
L 1728 3200 
L 1728 0 
L 588 0 
L 588 4666 
z
" transform="scale(0.015625)"/>
      <path id="DejaVuSans-Bold-77" d="M 225 3500 
L 1313 3500 
L 1900 1088 
L 2491 3500 
L 3425 3500 
L 4013 1113 
L 4603 3500 
L 5691 3500 
L 4769 0 
L 3547 0 
L 2956 2406 
L 2369 0 
L 1147 0 
L 225 3500 
z
" transform="scale(0.015625)"/>
      <path id="DejaVuSans-Bold-6b" d="M 538 4863 
L 1656 4863 
L 1656 2216 
L 2944 3500 
L 4244 3500 
L 2534 1894 
L 4378 0 
L 3022 0 
L 1656 1459 
L 1656 0 
L 538 0 
L 538 4863 
z
" transform="scale(0.015625)"/>
      <path id="DejaVuSans-Bold-4d" d="M 588 4666 
L 2119 4666 
L 3181 2169 
L 4250 4666 
L 5778 4666 
L 5778 0 
L 4641 0 
L 4641 3413 
L 3566 897 
L 2803 897 
L 1728 3413 
L 1728 0 
L 588 0 
L 588 4666 
z
" transform="scale(0.015625)"/>
      <path id="DejaVuSans-Bold-69" d="M 538 3500 
L 1656 3500 
L 1656 0 
L 538 0 
L 538 3500 
z
M 538 4863 
L 1656 4863 
L 1656 3950 
L 538 3950 
L 538 4863 
z
" transform="scale(0.015625)"/>
      <path id="DejaVuSans-Bold-3a" d="M 716 3500 
L 1844 3500 
L 1844 2291 
L 716 2291 
L 716 3500 
z
M 716 1209 
L 1844 1209 
L 1844 0 
L 716 0 
L 716 1209 
z
" transform="scale(0.015625)"/>
      <path id="DejaVuSans-Bold-41" d="M 3419 850 
L 1538 850 
L 1241 0 
L 31 0 
L 1759 4666 
L 3194 4666 
L 4922 0 
L 3713 0 
L 3419 850 
z
M 1838 1716 
L 3116 1716 
L 2478 3572 
L 1838 1716 
z
" transform="scale(0.015625)"/>
      <path id="DejaVuSans-Bold-64" d="M 2919 2988 
L 2919 4863 
L 4044 4863 
L 4044 0 
L 2919 0 
L 2919 506 
Q 2688 197 2409 53 
Q 2131 -91 1766 -91 
Q 1119 -91 703 423 
Q 288 938 288 1747 
Q 288 2556 703 3070 
Q 1119 3584 1766 3584 
Q 2128 3584 2408 3439 
Q 2688 3294 2919 2988 
z
M 2181 722 
Q 2541 722 2730 984 
Q 2919 1247 2919 1747 
Q 2919 2247 2730 2509 
Q 2541 2772 2181 2772 
Q 1825 2772 1636 2509 
Q 1447 2247 1447 1747 
Q 1447 1247 1636 984 
Q 1825 722 2181 722 
z
" transform="scale(0.015625)"/>
      <path id="DejaVuSans-Bold-70" d="M 1656 506 
L 1656 -1331 
L 538 -1331 
L 538 3500 
L 1656 3500 
L 1656 2988 
Q 1888 3294 2169 3439 
Q 2450 3584 2816 3584 
Q 3463 3584 3878 3070 
Q 4294 2556 4294 1747 
Q 4294 938 3878 423 
Q 3463 -91 2816 -91 
Q 2450 -91 2169 54 
Q 1888 200 1656 506 
z
M 2400 2772 
Q 2041 2772 1848 2508 
Q 1656 2244 1656 1747 
Q 1656 1250 1848 986 
Q 2041 722 2400 722 
Q 2759 722 2948 984 
Q 3138 1247 3138 1747 
Q 3138 2247 2948 2509 
Q 2759 2772 2400 2772 
z
" transform="scale(0.015625)"/>
      <path id="DejaVuSans-Bold-53" d="M 3834 4519 
L 3834 3531 
Q 3450 3703 3084 3790 
Q 2719 3878 2394 3878 
Q 1963 3878 1756 3759 
Q 1550 3641 1550 3391 
Q 1550 3203 1689 3098 
Q 1828 2994 2194 2919 
L 2706 2816 
Q 3484 2659 3812 2340 
Q 4141 2022 4141 1434 
Q 4141 663 3683 286 
Q 3225 -91 2284 -91 
Q 1841 -91 1394 -6 
Q 947 78 500 244 
L 500 1259 
Q 947 1022 1364 901 
Q 1781 781 2169 781 
Q 2563 781 2772 912 
Q 2981 1044 2981 1288 
Q 2981 1506 2839 1625 
Q 2697 1744 2272 1838 
L 1806 1941 
Q 1106 2091 782 2419 
Q 459 2747 459 3303 
Q 459 4000 909 4375 
Q 1359 4750 2203 4750 
Q 2588 4750 2994 4692 
Q 3400 4634 3834 4519 
z
" transform="scale(0.015625)"/>
     </defs>
     <use xlink:href="#DejaVuSans-Bold-4e"/>
     <use xlink:href="#DejaVuSans-Bold-65" transform="translate(83.691406 0)"/>
     <use xlink:href="#DejaVuSans-Bold-74" transform="translate(151.513672 0)"/>
     <use xlink:href="#DejaVuSans-Bold-77" transform="translate(199.316406 0)"/>
     <use xlink:href="#DejaVuSans-Bold-6f" transform="translate(291.699219 0)"/>
     <use xlink:href="#DejaVuSans-Bold-72" transform="translate(360.400391 0)"/>
     <use xlink:href="#DejaVuSans-Bold-6b" transform="translate(409.716797 0)"/>
     <use xlink:href="#DejaVuSans-Bold-20" transform="translate(476.220703 0)"/>
     <use xlink:href="#DejaVuSans-Bold-4d" transform="translate(511.035156 0)"/>
     <use xlink:href="#DejaVuSans-Bold-65" transform="translate(610.546875 0)"/>
     <use xlink:href="#DejaVuSans-Bold-74" transform="translate(678.369141 0)"/>
     <use xlink:href="#DejaVuSans-Bold-72" transform="translate(726.171875 0)"/>
     <use xlink:href="#DejaVuSans-Bold-69" transform="translate(775.488281 0)"/>
     <use xlink:href="#DejaVuSans-Bold-63" transform="translate(809.765625 0)"/>
     <use xlink:href="#DejaVuSans-Bold-73" transform="translate(869.042969 0)"/>
     <use xlink:href="#DejaVuSans-Bold-3a" transform="translate(928.564453 0)"/>
     <use xlink:href="#DejaVuSans-Bold-20" transform="translate(968.554688 0)"/>
     <use xlink:href="#DejaVuSans-Bold-41" transform="translate(1003.369141 0)"/>
     <use xlink:href="#DejaVuSans-Bold-6c" transform="translate(1080.761719 0)"/>
     <use xlink:href="#DejaVuSans-Bold-6c" transform="translate(1115.039062 0)"/>
     <use xlink:href="#DejaVuSans-Bold-20" transform="translate(1149.316406 0)"/>
     <use xlink:href="#DejaVuSans-Bold-41" transform="translate(1184.130859 0)"/>
     <use xlink:href="#DejaVuSans-Bold-64" transform="translate(1261.523438 0)"/>
     <use xlink:href="#DejaVuSans-Bold-61" transform="translate(1333.105469 0)"/>
     <use xlink:href="#DejaVuSans-Bold-70" transform="translate(1400.585938 0)"/>
     <use xlink:href="#DejaVuSans-Bold-74" transform="translate(1472.167969 0)"/>
     <use xlink:href="#DejaVuSans-Bold-61" transform="translate(1519.970703 0)"/>
     <use xlink:href="#DejaVuSans-Bold-74" transform="translate(1587.451172 0)"/>
     <use xlink:href="#DejaVuSans-Bold-69" transform="translate(1635.253906 0)"/>
     <use xlink:href="#DejaVuSans-Bold-6f" transform="translate(1669.53125 0)"/>
     <use xlink:href="#DejaVuSans-Bold-6e" transform="translate(1738.232422 0)"/>
     <use xlink:href="#DejaVuSans-Bold-73" transform="translate(1809.423828 0)"/>
     <use xlink:href="#DejaVuSans-Bold-20" transform="translate(1868.945312 0)"/>
     <use xlink:href="#DejaVuSans-Bold-28" transform="translate(1903.759766 0)"/>
     <use xlink:href="#DejaVuSans-Bold-53" transform="translate(1949.462891 0)"/>
     <use xlink:href="#DejaVuSans-Bold-74" transform="translate(2021.484375 0)"/>
     <use xlink:href="#DejaVuSans-Bold-6f" transform="translate(2069.287109 0)"/>
     <use xlink:href="#DejaVuSans-Bold-63" transform="translate(2137.988281 0)"/>
     <use xlink:href="#DejaVuSans-Bold-68" transform="translate(2197.265625 0)"/>
     <use xlink:href="#DejaVuSans-Bold-61" transform="translate(2268.457031 0)"/>
     <use xlink:href="#DejaVuSans-Bold-73" transform="translate(2335.9375 0)"/>
     <use xlink:href="#DejaVuSans-Bold-74" transform="translate(2395.458984 0)"/>
     <use xlink:href="#DejaVuSans-Bold-69" transform="translate(2443.261719 0)"/>
     <use xlink:href="#DejaVuSans-Bold-63" transform="translate(2477.539062 0)"/>
     <use xlink:href="#DejaVuSans-Bold-29" transform="translate(2536.816406 0)"/>
    </g>
   </g>
   <g id="legend_1">
    <g id="patch_39">
     <path d="M 410.974442 106.550312 
L 494.388504 106.550312 
Q 496.388504 106.550312 496.388504 104.550312 
L 496.388504 46.837812 
Q 496.388504 44.837812 494.388504 44.837812 
L 410.974442 44.837812 
Q 408.974442 44.837812 408.974442 46.837812 
L 408.974442 104.550312 
Q 408.974442 106.550312 410.974442 106.550312 
z
" style="fill: #4d4d4d; opacity: 0.5; stroke: #4d4d4d; stroke-linejoin: miter"/>
    </g>
    <g id="patch_40">
     <path d="M 408.974442 104.550312 
L 492.388504 104.550312 
Q 494.388504 104.550312 494.388504 102.550312 
L 494.388504 44.837812 
Q 494.388504 42.837812 492.388504 42.837812 
L 408.974442 42.837812 
Q 406.974442 42.837812 406.974442 44.837812 
L 406.974442 102.550312 
Q 406.974442 104.550312 408.974442 104.550312 
z
" style="fill: #ffffff; stroke: #cccccc; stroke-linejoin: miter"/>
    </g>
    <g id="patch_41">
     <path d="M 410.974442 54.43625 
L 430.974442 54.43625 
L 430.974442 47.43625 
L 410.974442 47.43625 
z
" style="fill: #ff0000; opacity: 0.85; stroke: #000000; stroke-width: 0.5; stroke-linejoin: miter"/>
    </g>
    <g id="text_27">
     <!-- baseline -->
     <g style="fill: #010101" transform="translate(438.974442 54.43625) scale(0.1 -0.1)">
      <defs>
       <path id="DejaVuSans-62" d="M 3116 1747 
Q 3116 2381 2855 2742 
Q 2594 3103 2138 3103 
Q 1681 3103 1420 2742 
Q 1159 2381 1159 1747 
Q 1159 1113 1420 752 
Q 1681 391 2138 391 
Q 2594 391 2855 752 
Q 3116 1113 3116 1747 
z
M 1159 2969 
Q 1341 3281 1617 3432 
Q 1894 3584 2278 3584 
Q 2916 3584 3314 3078 
Q 3713 2572 3713 1747 
Q 3713 922 3314 415 
Q 2916 -91 2278 -91 
Q 1894 -91 1617 61 
Q 1341 213 1159 525 
L 1159 0 
L 581 0 
L 581 4863 
L 1159 4863 
L 1159 2969 
z
" transform="scale(0.015625)"/>
       <path id="DejaVuSans-61" d="M 2194 1759 
Q 1497 1759 1228 1600 
Q 959 1441 959 1056 
Q 959 750 1161 570 
Q 1363 391 1709 391 
Q 2188 391 2477 730 
Q 2766 1069 2766 1631 
L 2766 1759 
L 2194 1759 
z
M 3341 1997 
L 3341 0 
L 2766 0 
L 2766 531 
Q 2569 213 2275 61 
Q 1981 -91 1556 -91 
Q 1019 -91 701 211 
Q 384 513 384 1019 
Q 384 1609 779 1909 
Q 1175 2209 1959 2209 
L 2766 2209 
L 2766 2266 
Q 2766 2663 2505 2880 
Q 2244 3097 1772 3097 
Q 1472 3097 1187 3025 
Q 903 2953 641 2809 
L 641 3341 
Q 956 3463 1253 3523 
Q 1550 3584 1831 3584 
Q 2591 3584 2966 3190 
Q 3341 2797 3341 1997 
z
" transform="scale(0.015625)"/>
       <path id="DejaVuSans-73" d="M 2834 3397 
L 2834 2853 
Q 2591 2978 2328 3040 
Q 2066 3103 1784 3103 
Q 1356 3103 1142 2972 
Q 928 2841 928 2578 
Q 928 2378 1081 2264 
Q 1234 2150 1697 2047 
L 1894 2003 
Q 2506 1872 2764 1633 
Q 3022 1394 3022 966 
Q 3022 478 2636 193 
Q 2250 -91 1575 -91 
Q 1294 -91 989 -36 
Q 684 19 347 128 
L 347 722 
Q 666 556 975 473 
Q 1284 391 1588 391 
Q 1994 391 2212 530 
Q 2431 669 2431 922 
Q 2431 1156 2273 1281 
Q 2116 1406 1581 1522 
L 1381 1569 
Q 847 1681 609 1914 
Q 372 2147 372 2553 
Q 372 3047 722 3315 
Q 1072 3584 1716 3584 
Q 2034 3584 2315 3537 
Q 2597 3491 2834 3397 
z
" transform="scale(0.015625)"/>
       <path id="DejaVuSans-6c" d="M 603 4863 
L 1178 4863 
L 1178 0 
L 603 0 
L 603 4863 
z
" transform="scale(0.015625)"/>
       <path id="DejaVuSans-69" d="M 603 3500 
L 1178 3500 
L 1178 0 
L 603 0 
L 603 3500 
z
M 603 4863 
L 1178 4863 
L 1178 4134 
L 603 4134 
L 603 4863 
z
" transform="scale(0.015625)"/>
       <path id="DejaVuSans-6e" d="M 3513 2113 
L 3513 0 
L 2938 0 
L 2938 2094 
Q 2938 2591 2744 2837 
Q 2550 3084 2163 3084 
Q 1697 3084 1428 2787 
Q 1159 2491 1159 1978 
L 1159 0 
L 581 0 
L 581 3500 
L 1159 3500 
L 1159 2956 
Q 1366 3272 1645 3428 
Q 1925 3584 2291 3584 
Q 2894 3584 3203 3211 
Q 3513 2838 3513 2113 
z
" transform="scale(0.015625)"/>
      </defs>
      <use xlink:href="#DejaVuSans-62"/>
      <use xlink:href="#DejaVuSans-61" transform="translate(63.476562 0)"/>
      <use xlink:href="#DejaVuSans-73" transform="translate(124.755859 0)"/>
      <use xlink:href="#DejaVuSans-65" transform="translate(176.855469 0)"/>
      <use xlink:href="#DejaVuSans-6c" transform="translate(238.378906 0)"/>
      <use xlink:href="#DejaVuSans-69" transform="translate(266.162109 0)"/>
      <use xlink:href="#DejaVuSans-6e" transform="translate(293.945312 0)"/>
      <use xlink:href="#DejaVuSans-65" transform="translate(357.324219 0)"/>
     </g>
    </g>
    <g id="patch_42">
     <path d="M 410.974442 69.114375 
L 430.974442 69.114375 
L 430.974442 62.114375 
L 410.974442 62.114375 
z
" style="fill: #d4dd80; opacity: 0.85; stroke: #000000; stroke-width: 0.5; stroke-linejoin: miter"/>
    </g>
    <g id="text_28">
     <!-- s1 -->
     <g style="fill: #010101" transform="translate(438.974442 69.114375) scale(0.1 -0.1)">
      <use xlink:href="#DejaVuSans-73"/>
      <use xlink:href="#DejaVuSans-31" transform="translate(52.099609 0)"/>
     </g>
    </g>
    <g id="patch_43">
     <path d="M 410.974442 83.7925 
L 430.974442 83.7925 
L 430.974442 76.7925 
L 410.974442 76.7925 
z
" style="fill: #2adddd; opacity: 0.85; stroke: #000000; stroke-width: 0.5; stroke-linejoin: miter"/>
    </g>
    <g id="text_29">
     <!-- s2 -->
     <g style="fill: #010101" transform="translate(438.974442 83.7925) scale(0.1 -0.1)">
      <use xlink:href="#DejaVuSans-73"/>
      <use xlink:href="#DejaVuSans-32" transform="translate(52.099609 0)"/>
     </g>
    </g>
    <g id="patch_44">
     <path d="M 410.974442 98.470625 
L 430.974442 98.470625 
L 430.974442 91.470625 
L 410.974442 91.470625 
z
" style="fill: #8000ff; opacity: 0.85; stroke: #000000; stroke-width: 0.5; stroke-linejoin: miter"/>
    </g>
    <g id="text_30">
     <!-- aggregate -->
     <g style="fill: #010101" transform="translate(438.974442 98.470625) scale(0.1 -0.1)">
      <defs>
       <path id="DejaVuSans-67" d="M 2906 1791 
Q 2906 2416 2648 2759 
Q 2391 3103 1925 3103 
Q 1463 3103 1205 2759 
Q 947 2416 947 1791 
Q 947 1169 1205 825 
Q 1463 481 1925 481 
Q 2391 481 2648 825 
Q 2906 1169 2906 1791 
z
M 3481 434 
Q 3481 -459 3084 -895 
Q 2688 -1331 1869 -1331 
Q 1566 -1331 1297 -1286 
Q 1028 -1241 775 -1147 
L 775 -588 
Q 1028 -725 1275 -790 
Q 1522 -856 1778 -856 
Q 2344 -856 2625 -561 
Q 2906 -266 2906 331 
L 2906 616 
Q 2728 306 2450 153 
Q 2172 0 1784 0 
Q 1141 0 747 490 
Q 353 981 353 1791 
Q 353 2603 747 3093 
Q 1141 3584 1784 3584 
Q 2172 3584 2450 3431 
Q 2728 3278 2906 2969 
L 2906 3500 
L 3481 3500 
L 3481 434 
z
" transform="scale(0.015625)"/>
       <path id="DejaVuSans-72" d="M 2631 2963 
Q 2534 3019 2420 3045 
Q 2306 3072 2169 3072 
Q 1681 3072 1420 2755 
Q 1159 2438 1159 1844 
L 1159 0 
L 581 0 
L 581 3500 
L 1159 3500 
L 1159 2956 
Q 1341 3275 1631 3429 
Q 1922 3584 2338 3584 
Q 2397 3584 2469 3576 
Q 2541 3569 2628 3553 
L 2631 2963 
z
" transform="scale(0.015625)"/>
       <path id="DejaVuSans-74" d="M 1172 4494 
L 1172 3500 
L 2356 3500 
L 2356 3053 
L 1172 3053 
L 1172 1153 
Q 1172 725 1289 603 
Q 1406 481 1766 481 
L 2356 481 
L 2356 0 
L 1766 0 
Q 1100 0 847 248 
Q 594 497 594 1153 
L 594 3053 
L 172 3053 
L 172 3500 
L 594 3500 
L 594 4494 
L 1172 4494 
z
" transform="scale(0.015625)"/>
      </defs>
      <use xlink:href="#DejaVuSans-61"/>
      <use xlink:href="#DejaVuSans-67" transform="translate(61.279297 0)"/>
      <use xlink:href="#DejaVuSans-67" transform="translate(124.755859 0)"/>
      <use xlink:href="#DejaVuSans-72" transform="translate(188.232422 0)"/>
      <use xlink:href="#DejaVuSans-65" transform="translate(227.095703 0)"/>
      <use xlink:href="#DejaVuSans-67" transform="translate(288.619141 0)"/>
      <use xlink:href="#DejaVuSans-61" transform="translate(352.095703 0)"/>
      <use xlink:href="#DejaVuSans-74" transform="translate(413.375 0)"/>
      <use xlink:href="#DejaVuSans-65" transform="translate(452.583984 0)"/>
     </g>
    </g>
   </g>
  </g>
 </g>
 <defs>
  <clipPath id="pb21067ddde">
   <rect x="53.4075" y="37.837812" width="794.547946" height="484.020464"/>
  </clipPath>
 </defs>
</svg>
